<?xml version="1.0" standalone="no"?>
<!DOCTYPE svg PUBLIC "-//W3C//DTD SVG 1.1//EN" "http://www.w3.org/Graphics/SVG/1.1/DTD/svg11.dtd" >
<svg>
<metadata>
Created by FontForge 20090622 at Mon Oct  2 18:59:17 2017
 By deploy user
&#194;&#169; 2014 Sergiy S. Tkachenko / 4th february
&#194;&#169; 2014 FirstSiteGuide.com
http://creativecommons.org/licenses/by-nd/4.0/
</metadata>
<defs>
<font id="BloggerSans-Light" horiz-adv-x="250" >
  <font-face 
    font-family="Blogger Sans Light"
    font-weight="300"
    font-stretch="squinchy"
    units-per-em="1000"
    panose-1="2 0 5 6 3 0 0 2 0 4"
    ascent="760"
    descent="-240"
    x-height="505"
    cap-height="705"
    bbox="-69.4706 -249 846.529 945"
    underline-thickness="20"
    underline-position="-123"
    unicode-range="U+000D-U+F0434"
  />
<missing-glyph horiz-adv-x="760" 
 />
    <glyph glyph-name="ff" unicode="ff" horiz-adv-x="598" 
d="M355 546q0 47 13.5 81.5t36.5 57.5t55 35t69 13h20t28.5 -4t25.5 -12t11 -23q0 -14 -9 -22t-22 -8q-12 0 -22 2q-11 2 -21 3.5t-20 1.5q-49 0 -74.5 -35t-25.5 -82v-71h116q12 0 20.5 -8.5t8.5 -22.5q0 -12 -9 -20.5t-20 -8.5h-116v-396q0 -14 -7.5 -22.5t-24.5 -8.5
q-16 0 -24.5 8.5t-8.5 22.5v519zM78 546q0 47 13 81.5t36.5 57.5t55 35t68.5 13h20t29 -4t26 -12t11 -23q0 -14 -9.5 -22t-21.5 -8q-13 0 -23 2t-20.5 3.5t-19.5 1.5q-49 0 -74.5 -35t-25.5 -82v-71h116q12 0 20 -8.5t8 -22.5q0 -12 -8.5 -20.5t-19.5 -8.5h-116v-396
q0 -14 -7.5 -22.5t-24.5 -8.5q-16 0 -24.5 8.5t-8.5 22.5v519z" />
    <glyph glyph-name="fi" unicode="fi" horiz-adv-x="517" 
d="M451 681q0 -17 -12 -29t-29 -12t-29.5 12t-12.5 29q0 18 12.5 30t29.5 12t29 -12t12 -30zM442 25q0 -14 -9 -23t-23 -9t-23.5 9t-9.5 23v454q0 14 9.5 23.5t23.5 9.5t23 -9.5t9 -23.5v-454zM79 546q0 47 11.5 81.5t32 57.5t48.5 35t61 13h20t28.5 -4t25.5 -12t11 -23
q0 -14 -9 -22t-21 -8q-13 0 -23 2q-11 2 -21 3.5t-19 1.5q-39 0 -59.5 -35t-20.5 -82v-71h116q12 0 20.5 -8.5t8.5 -22.5q0 -12 -8.5 -20.5t-20.5 -8.5h-116v-396q0 -14 -8 -22.5t-24 -8.5t-24.5 8.5t-8.5 22.5v519z" />
    <glyph glyph-name="fl" unicode="fl" horiz-adv-x="517" 
d="M79 546q0 47 11.5 81.5t32 57.5t48.5 35t61 13h20t28.5 -4t25.5 -12t11 -23q0 -14 -9 -22t-22 -8q-12 0 -22 2q-11 2 -21 3.5t-19 1.5q-39 0 -59.5 -35t-20.5 -82v-71h116q12 0 20.5 -8.5t8.5 -22.5q0 -12 -8.5 -20.5t-20.5 -8.5h-116v-396q0 -14 -8 -22.5t-24 -8.5
t-24.5 8.5t-8.5 22.5v519zM377 700q0 13 9.5 23t23.5 10t23 -9.5t9 -23.5v-610q0 -18 2.5 -29.5t12.5 -22.5q0 -1 2 -3t3.5 -6.5t1.5 -6.5q0 -13 -8.5 -21t-20.5 -8q-9 0 -19 3t-18.5 13t-14.5 29.5t-6 51.5v610z" />
    <glyph glyph-name="ffi" unicode="ffi" horiz-adv-x="754" 
d="M695 681q0 -17 -12 -29t-29 -12q-18 0 -30.5 12t-12.5 29q0 18 12.5 30t30.5 12q17 0 29 -12t12 -30zM686 25q0 -14 -9.5 -23t-22.5 -9q-14 0 -23.5 9t-9.5 23v454q0 14 9.5 23.5t23.5 9.5q13 0 22.5 -9.5t9.5 -23.5v-454zM343 546q0 47 11.5 81.5t32 57.5t48.5 35t61 13
h14.5t22 -4t20 -12t8.5 -23q0 -14 -9 -22t-22 -8q-5 0 -7.5 0.5t-5.5 1.5q-8 2 -15 3.5t-14 1.5q-39 0 -59.5 -35t-20.5 -82v-71h116q12 0 20.5 -8.5t8.5 -22.5q0 -12 -8.5 -20.5t-20.5 -8.5h-116v-396q0 -14 -8 -22.5t-24 -8.5t-24.5 8.5t-8.5 22.5v519zM78 546
q0 47 13 81.5t36.5 57.5t55 35t68.5 13h20t28.5 -4t25.5 -12t11 -23q0 -14 -9 -22t-22 -8q-12 0 -22 2q-11 2 -21 3.5t-20 1.5q-49 0 -74 -35t-25 -82v-71h115q11 0 20 -8.5t9 -22.5q0 -12 -9 -20.5t-20 -8.5h-115v-396q0 -14 -8 -22.5t-24 -8.5q-17 0 -25 8.5t-8 22.5v519z
" />
    <glyph glyph-name="ffl" unicode="ffl" horiz-adv-x="785" 
d="M353 546q0 47 11.5 81.5t32 57.5t48.5 35t61 13h20t28.5 -4t26 -12t11.5 -23q0 -14 -9.5 -22t-21.5 -8q-13 0 -23 2t-20.5 3.5t-19.5 1.5q-39 0 -59.5 -35t-20.5 -82v-71h116q12 0 20.5 -8.5t8.5 -22.5q0 -12 -8.5 -20.5t-20.5 -8.5h-116v-396q0 -14 -8 -22.5t-24 -8.5
t-24.5 8.5t-8.5 22.5v519zM651 700q0 13 9.5 23t23.5 10t23 -9.5t9 -23.5v-610q0 -17 3.5 -30t14.5 -24q4 -6 4 -14q0 -13 -8 -21t-21 -8q-9 0 -19 3t-18.5 13t-14.5 29.5t-6 51.5v610zM77 546q0 47 13 81.5t36.5 57.5t55 35t68.5 13h20t29 -4t26 -12t11 -23q0 -14 -9 -22
t-22 -8q-7 0 -12.5 0.5t-10.5 1.5q-10 2 -20 3.5t-20 1.5q-49 0 -74.5 -35t-25.5 -82v-71h116q12 0 20 -8.5t8 -22.5q0 -12 -8.5 -20.5t-19.5 -8.5h-116v-396q0 -14 -7.5 -22.5t-24.5 -8.5q-16 0 -24.5 8.5t-8.5 22.5v519z" />
    <glyph glyph-name="uni0457_uni0457" unicode="&#x457;&#x457;" horiz-adv-x="480" 
d="M156 25q0 -14 -9.5 -23t-22.5 -9q-14 0 -23.5 9t-9.5 23v454q0 14 9.5 23.5t23.5 9.5q13 0 22.5 -9.5t9.5 -23.5v-454zM288 631q0 -20 -13.5 -34t-32.5 -14q-20 0 -34 14t-14 34q0 18 14 32t34 14q19 0 32.5 -13.5t13.5 -32.5zM73 631q0 -20 -13 -34t-33 -14t-33 14
t-13 34q0 18 13 32t33 14t33 -13.5t13 -32.5zM391 25q0 -14 -9.5 -23t-22.5 -9q-14 0 -23.5 9t-9.5 23v454q0 14 9.5 23.5t23.5 9.5q13 0 22.5 -9.5t9.5 -23.5v-454zM502 631q0 -20 -13.5 -34t-32.5 -14q-20 0 -34 14t-14 34q0 18 14 32t34 14q19 0 32.5 -13.5t13.5 -32.5z
" />
    <glyph glyph-name=".notdef" horiz-adv-x="760" 
 />
    <glyph glyph-name=".null" horiz-adv-x="0" 
 />
    <glyph glyph-name="nonmarkingreturn" unicode="&#xd;" 
 />
    <glyph glyph-name="space" unicode=" " horiz-adv-x="300" 
 />
    <glyph glyph-name="exclam" unicode="!" horiz-adv-x="227" 
d="M80 683q0 13 10 23t24 10t23.5 -10t10.5 -23l-11 -484q0 -10 -7 -17t-16 -7q-10 0 -16.5 7t-6.5 17zM162 39q0 -20 -13 -34t-33 -14t-34 14t-14 34q0 19 14 33t34 14t33 -14t13 -33z" />
    <glyph glyph-name="quotedbl" unicode="&#x22;" horiz-adv-x="342" 
d="M92 736q3 11 14.5 18.5t25.5 5.5t23 -12t5 -22l-57 -247q-2 -8 -9 -12.5t-15 -5.5q-8 2 -13.5 10t-3.5 16zM225 736q3 11 14.5 18.5t25.5 5.5t22.5 -12t5.5 -22l-57 -247q-2 -8 -9 -12.5t-15 -5.5q-8 2 -13.5 10t-3.5 16z" />
    <glyph glyph-name="numbersign" unicode="#" horiz-adv-x="541" 
d="M178 479l47 211q7 23 31 23q10 -2 18 -10.5t7 -19.5v-7l-44 -197h125l47 211q7 21 29 23q12 -2 20 -10t7 -20v-7l-44 -197h45q12 0 22 -9t10 -23t-9.5 -23t-22.5 -9h-59l-27 -120h55q13 0 22.5 -9t9.5 -23t-9 -23t-23 -9h-69l-47 -214q-7 -23 -31 -23l1 -1
q-12 2 -20 10.5t-8 21.5q0 3 2 7l44 199h-125l-47 -214q-7 -23 -31 -23l1 -1q-11 2 -19.5 10.5t-8.5 21.5q0 3 2 7l44 199h-43q-14 0 -23.5 9t-9.5 23t10 23t23 9h57l27 120h-54q-14 0 -23 9t-9 23t10 23t22 9h68zM196 295h125l26 120h-124z" />
    <glyph glyph-name="dollar" unicode="$" horiz-adv-x="500" 
d="M234 20q-26 1 -57.5 5t-58.5 12.5t-45.5 21t-18.5 30.5q0 12 9 22.5t22 10.5q5 0 15 -4t19 -8q18 -8 45.5 -15t69.5 -9v245q-33 11 -65.5 24t-57.5 33t-40.5 49.5t-15.5 73.5q0 77 48 121.5t131 52.5v57q0 8 6 13.5t14 5.5t13 -5.5t5 -13.5v-57q22 -2 48 -6t48.5 -11
t37.5 -18t15 -27q0 -12 -8.5 -21t-23.5 -9q-10 0 -19 2.5t-17 6.5q-13 5 -31.5 9.5t-49.5 8.5v-233q33 -11 65 -24t57.5 -33.5t41 -49.5t15.5 -73q0 -40 -13.5 -72t-37 -55.5t-56.5 -38t-72 -20.5v-57q0 -8 -5 -13t-13 -5t-14 5t-6 13v56zM380 199q0 24 -5.5 41t-14.5 28.5
t-20 19t-22 12.5q-6 2 -14.5 6t-31.5 12v-231q108 18 108 112zM189 418q8 -4 22 -9.5t23 -10.5v221q-22 -3 -42 -10t-35 -19t-23.5 -30t-8.5 -43q0 -24 6.5 -40.5t16 -28t21 -18.5t20.5 -12z" />
    <glyph glyph-name="percent" unicode="%" horiz-adv-x="703" 
d="M196 406q-33 0 -58.5 12t-43 32.5t-26.5 49t-9 61.5t9 61.5t26 49.5t43 33t59 12t58.5 -12t43 -33t26 -49.5t8.5 -61.5t-8.5 -61.5t-26 -49t-43 -32.5t-58.5 -12zM514 -9q-33 0 -59 12t-43 32.5t-26 49t-9 61.5t9 61.5t26 49.5t43 33t59 12t58.5 -12t42.5 -33t26 -49.5
t9 -61.5t-8.5 -61.5t-26 -49t-43 -32.5t-58.5 -12zM209 13v1q-6 -11 -15.5 -14.5t-19.5 -1.5h1q-11 5 -17 15.5t-2 22.5v-1l4 8l344 660v-1q13 20 35 14q10 -4 15.5 -15t0.5 -24q0 -1 -2 -3zM196 454q43 0 62.5 28.5t19.5 80.5q0 50 -19.5 78t-62.5 28q-42 0 -62 -28
t-20 -78q0 -52 20 -80.5t62 -28.5zM514 39q42 0 62 28.5t20 80.5q0 51 -20 78.5t-62 27.5t-62.5 -27.5t-20.5 -78.5q0 -52 20.5 -80.5t62.5 -28.5z" />
    <glyph glyph-name="ampersand" unicode="&#x26;" horiz-adv-x="642" 
d="M596 24q0 -14 -8.5 -23.5t-21.5 -9.5q-11 0 -17 5t-13 13l-71 84q-40 -40 -90.5 -71t-118.5 -31q-46 0 -83.5 14.5t-64.5 39.5t-41.5 59t-14.5 73q0 40 13.5 72t36 58.5t51 47.5t57.5 38q-40 44 -64.5 85.5t-24.5 83.5q0 36 14 64t37 47.5t53 30t63 10.5t61.5 -11
t50 -28.5t33.5 -40t12 -45.5q0 -14 -9.5 -22.5t-21.5 -8.5q-11 0 -18.5 7t-10.5 17q-8 28 -33 51.5t-61 23.5q-21 0 -40 -6.5t-33.5 -19.5t-23.5 -30.5t-9 -40.5q0 -32 24 -66t59 -75l195 -226q24 38 39.5 69l29.5 60q7 15 13 18t15 3q12 0 21 -9t9 -22q0 -15 -8 -36.5
t-20 -44.5t-27 -46.5t-29 -42.5l83 -99q7 -7 7 -19zM247 346q-24 -13 -48 -29t-42.5 -35.5t-30 -43.5t-11.5 -53q0 -27 9.5 -52t27 -43.5t42.5 -29.5t56 -11q54 0 96.5 26.5t78.5 66.5z" />
    <glyph glyph-name="quotesingle" unicode="'" horiz-adv-x="222" 
d="M93 736q3 11 14.5 18.5t25.5 5.5t22.5 -12t5.5 -22l-57 -247q-2 -8 -9.5 -12.5t-15.5 -5.5q-8 2 -13 10t-3 16z" />
    <glyph glyph-name="parenleft" unicode="(" horiz-adv-x="276" 
d="M137 219q0 -103 25.5 -208.5t73.5 -196.5q2 -5 6 -12t4 -11q0 -14 -7.5 -24.5t-23.5 -10.5q-18 0 -28 15q-57 100 -86 218t-29 230q0 56 7.5 114t21.5 115.5t36 113t50 104.5q12 17 28 17t23.5 -11.5t7.5 -24.5q0 -5 -3.5 -11.5l-6.5 -12.5q-48 -90 -73.5 -195.5
t-25.5 -208.5z" />
    <glyph glyph-name="parenright" unicode=")" horiz-adv-x="275" 
d="M140 219q0 104 -25 209t-73 195q-4 6 -7.5 13.5t-3.5 10.5q0 13 8 24.5t24 11.5q14 0 28 -17q29 -49 50 -104t35.5 -113t21.5 -116t7 -114t-7 -114.5t-21.5 -116.5t-35.5 -113t-50 -104q-12 -15 -28 -15t-24 10.5t-8 24.5q0 3 3.5 10t7.5 13q48 91 73 196t25 209z" />
    <glyph glyph-name="asterisk" unicode="*" horiz-adv-x="495" 
d="M437 598q5 -13 -3.5 -22t-18.5 -14l-130 -36l84 -106q6 -9 6.5 -21t-11.5 -20q-11 -8 -22.5 -4.5t-17.5 11.5l-74 115l-75 -114q-7 -8 -18.5 -11.5t-22.5 3.5q-11 8 -11 20.5t7 20.5l85 106l-131 36q-10 5 -17.5 15t-3.5 22q5 14 15.5 17.5t21.5 -0.5l128 -48l-7 135
q-1 11 6 21t23 10q15 0 22 -10t6 -21l-7 -135l127 48q11 4 22.5 0.5t16.5 -17.5v-1z" />
    <glyph glyph-name="plus" unicode="+" horiz-adv-x="500" 
d="M220 323h-171q-14 0 -23 9t-9 23t10 23t22 9h171v181q0 12 9.5 22.5t23.5 10.5q13 0 22 -9.5t9 -23.5v-181h172q12 0 22 -9t10 -23t-9.5 -23t-22.5 -9h-172v-182q0 -13 -9 -22.5t-22 -9.5q-14 0 -23.5 10t-9.5 22v182z" />
    <glyph glyph-name="comma" unicode="," horiz-adv-x="230" 
d="M162 39q0 -25 -7.5 -53t-18 -52t-22.5 -39.5t-21 -15.5q-5 0 -9 2t-4 8q0 11 5.5 21l12.5 23q5 9 10 19t12 37q-22 2 -37 16t-15 34q0 19 14 33t34 14t33 -14t13 -33z" />
    <glyph glyph-name="hyphen" unicode="-" horiz-adv-x="399" 
d="M357 294q0 -12 -8 -20t-20 -8h-255q-13 0 -21.5 8t-8.5 20q0 13 8.5 22t21.5 9h255q12 0 20 -9t8 -22z" />
    <glyph glyph-name="period" unicode="." horiz-adv-x="230" 
d="M162 39q0 -20 -13 -34t-33 -14t-34 14t-14 34q0 19 14 33t34 14t33 -14t13 -33z" />
    <glyph glyph-name="slash" unicode="/" horiz-adv-x="280" 
d="M38 -24q-4 -11 -13.5 -16.5t-20.5 -3.5q-13 2 -20 12.5t-5 24.5q0 3 2 7l263 740q4 11 13.5 16t20.5 3q12 -2 20.5 -14.5t3.5 -24.5z" />
    <glyph glyph-name="zero" unicode="0" horiz-adv-x="500" 
d="M253 667q-71 0 -102 -44.5t-31 -114.5v-313q0 -65 34 -104.5t99 -39.5q64 0 97.5 39.5t33.5 104.5v313q0 70 -30 114.5t-101 44.5zM253 726q51 0 88.5 -18t61.5 -48.5t35.5 -71.5t11.5 -88v-305q0 -43 -13 -80t-38 -64.5t-61.5 -43.5t-84.5 -16t-85 16t-62.5 43.5
t-38.5 64.5t-13 80v305q0 47 11.5 88t36 71.5t62 48.5t89.5 18z" />
    <glyph glyph-name="one" unicode="1" horiz-adv-x="500" 
d="M282 631l-137 -87q-10 -8 -21 -13.5t-20 -5.5q-11 0 -20 8t-9 19q0 18 16 29l201 129q11 6 20 6q16 0 26 -10.5t10 -26.5v-654q0 -14 -9.5 -23.5t-23.5 -9.5t-23.5 9.5t-9.5 23.5v606z" />
    <glyph glyph-name="two" unicode="2" horiz-adv-x="500" 
d="M453 31q0 -14 -9 -22.5t-23 -8.5h-336q-15 0 -25 10t-10 25q0 8 1 18t5 19q14 32 34.5 62t44.5 58.5t50 55l50 50.5l48 46.5t44 46.5q23 26 40 59.5t17 75.5q0 60 -33 100t-100 40q-29 0 -54.5 -5.5t-46.5 -14.5q-5 -2 -13 -6.5t-14 -9.5q-8 -5 -16 -8.5t-15 -3.5
q-12 0 -21.5 8t-9.5 22q0 17 23 33q76 44 168 44q47 0 83.5 -14.5t61.5 -40t38.5 -60t13.5 -73.5q0 -62 -20 -105t-52 -78q-23 -28 -44 -48.5l-40 -38.5q-48 -45 -92 -94t-73 -111h293q14 0 23 -9t9 -22z" />
    <glyph glyph-name="three" unicode="3" horiz-adv-x="500" 
d="M235 410q46 -1 84.5 -14.5t67 -38t44.5 -60t16 -80.5q0 -38 -12 -78t-37 -72.5t-64.5 -53.5t-95.5 -21q-15 0 -45 2.5t-60 9.5t-52.5 20t-22.5 35q0 13 8.5 22.5t21.5 9.5q6 0 18 -6q26 -13 55 -24t74 -11q42 0 70 15t45 38t24 52.5t7 57.5q0 75 -41.5 107.5t-104.5 32.5
q-19 0 -37 -8q-10 -5 -14.5 -5h-9.5q-16 0 -24 17t4 32l193 250h-244q-14 0 -23 9t-9 22q0 14 9 24.5t23 10.5h286q15 0 25 -10.5t10 -28.5q0 -15 -8 -24z" />
    <glyph glyph-name="four" unicode="4" horiz-adv-x="500" 
d="M402 24q0 -14 -9.5 -23t-22.5 -9q-14 0 -23.5 9t-9.5 23v129h-262q-16 0 -25.5 11t-9.5 25q0 2 2.5 9.5t5.5 15.5l196 491q4 8 12 13.5t16 5.5q11 0 21.5 -9.5t10.5 -23.5q0 -8 -1 -11l-187 -465h221v207q0 14 9.5 23.5t23.5 9.5q13 0 22.5 -9.5t9.5 -23.5v-207h52
q12 0 20.5 -9.5t8.5 -21.5q0 -13 -8.5 -22t-20.5 -9h-52v-129z" />
    <glyph glyph-name="five" unicode="5" horiz-adv-x="500" 
d="M447 222q0 -42 -11 -83t-35 -74t-61.5 -53.5t-90.5 -20.5q-15 0 -47 2.5t-64 9.5t-56 20t-24 35q0 13 8.5 22.5t21.5 9.5q8 0 18 -5l50 -23.5t69 -12.5q45 0 75 14.5t48 38t25.5 54t7.5 62.5q0 80 -39 119t-96 39q-47 0 -79 -22l-21 -14q-7 -5 -14 -9t-16 -4
q-14 0 -24.5 10t-9.5 26l10 305q1 19 13.5 28.5t26.5 9.5h246q14 0 26.5 -7t12.5 -25q0 -16 -12.5 -22.5t-26.5 -6.5h-228l-8 -242q28 16 54 23t52 7q44 0 80.5 -14.5t62.5 -41.5t41 -66t15 -89z" />
    <glyph glyph-name="six" unicode="6" horiz-adv-x="500" 
d="M115 385q32 26 71 36.5t75 10.5q41 0 77 -13.5t62.5 -40.5t42 -67t15.5 -93q0 -46 -12.5 -87.5t-38 -72.5t-63.5 -49t-90 -18q-61 0 -101 25.5t-64 71t-33.5 108t-9.5 136.5q0 186 54 285t164 99q12 0 37 -1.5t50 -7t43.5 -15t18.5 -25.5q0 -11 -8 -20t-21 -9q-5 0 -10 1
t-10 3q-17 5 -40 10.5t-47 5.5q-49 0 -80.5 -21.5t-49.5 -58t-25 -86.5t-7 -107zM113 280q0 -44 5.5 -85t21.5 -72t44.5 -49.5t73.5 -18.5q38 0 64 13.5t41.5 36t22.5 51.5t7 60q0 79 -37.5 116.5t-97.5 37.5q-45 0 -84 -18t-61 -44v-28z" />
    <glyph glyph-name="seven" unicode="7" horiz-adv-x="500" 
d="M449 671q0 -11 -3 -19l-255 -641q-4 -10 -12 -15t-17 -5q-13 0 -22.5 7.5t-11.5 20.5q0 9 3 16l244 606h-288q-12 0 -22 9t-10 22q0 15 9.5 24.5t22.5 9.5h327q15 0 25 -10t10 -25z" />
    <glyph glyph-name="eight" unicode="8" horiz-adv-x="500" 
d="M470 192q0 -43 -16 -80t-45 -64t-68.5 -42t-87.5 -15t-88 15t-69.5 41t-46 62t-16.5 79q0 65 39 110t95 75q-47 29 -77.5 69.5t-30.5 96.5q0 41 15.5 73.5t41.5 55.5t61 35t75 12q41 0 76 -12.5t60.5 -35.5t40.5 -55t15 -70q0 -51 -28 -91t-79 -72q56 -30 94.5 -75
t38.5 -112zM380 537q0 27 -10 49.5t-27 38t-40 24.5t-50 9q-56 0 -93 -33.5t-37 -87.5q0 -27 11 -49.5t29 -39t42 -27.5t51 -16q26 6 48.5 17.5t39 28.5t26.5 39t10 47zM405 193q0 33 -13.5 59t-35 44.5t-49.5 30.5t-58 18q-31 -6 -59 -19.5t-48 -33t-32 -44.5t-12 -56
t12 -57t32.5 -45t49 -29.5t61.5 -10.5t61 11t48.5 30t31.5 45.5t11 56.5z" />
    <glyph glyph-name="nine" unicode="9" horiz-adv-x="500" 
d="M390 335q-26 -34 -67.5 -47t-78.5 -13q-40 0 -76 13t-63 39.5t-43 67t-16 95.5q0 46 12 87t36.5 72t63 49t90.5 18q60 0 100.5 -25t65 -71t34.5 -110.5t10 -143.5q0 -187 -52.5 -281t-164.5 -94q-12 0 -37 1.5t-50 6.5t-44 14.5t-19 25.5q0 11 9 20.5t21 9.5q5 0 20 -5
q20 -5 44 -10t53 -5q46 0 75.5 23t46.5 62t23.5 91t6.5 110zM392 426q0 48 -8 89.5t-25.5 71.5t-45.5 47.5t-69 17.5q-37 0 -62 -14t-40.5 -36.5t-22.5 -52t-7 -60.5q0 -78 37 -115t100 -37q45 0 82.5 17t60.5 43v29z" />
    <glyph glyph-name="colon" unicode=":" horiz-adv-x="230" 
d="M162 39q0 -20 -13 -34t-33 -14t-34 14t-14 34q0 19 14 33t34 14t33 -14t13 -33zM162 339q0 -20 -13 -34t-33 -14t-34 14t-14 34q0 19 14 33t34 14t33 -14t13 -33z" />
    <glyph glyph-name="semicolon" unicode=";" horiz-adv-x="230" 
d="M162 39q0 -25 -7.5 -53t-18 -52t-22.5 -39.5t-21 -15.5q-5 0 -9 2t-4 8q0 11 5.5 21l12.5 23q5 9 10 19t12 37q-22 2 -37 16t-15 34q0 19 14 33t34 14t33 -14t13 -33zM162 339q0 -20 -13 -34t-33 -14t-34 14t-14 34q0 19 14 33t34 14t33 -14t13 -33z" />
    <glyph glyph-name="less" unicode="&#x3c;" horiz-adv-x="625" 
d="M534 161q10 -5 16.5 -13t6.5 -16q0 -17 -13 -28.5t-28 -3.5l-411 214q-12 6 -22 14.5t-10 24.5q0 17 9 24.5t22 14.5l411 214q17 5 29.5 -5t12.5 -27q0 -9 -6.5 -17t-16.5 -13l-380 -191z" />
    <glyph glyph-name="equal" unicode="=" horiz-adv-x="500" 
d="M415 295q12 0 22 -9t10 -23t-9 -23t-23 -9h-325q-14 0 -23 9t-9 23t10 23t22 9h325zM415 479q12 0 22 -9t10 -23t-9 -23t-23 -9h-325q-14 0 -23 9t-9 23t10 23t22 9h325z" />
    <glyph glyph-name="greater" unicode="&#x3e;" horiz-adv-x="625" 
d="M478 353l-380 191q-25 12 -25 30q0 17 14 28.5t29 3.5l412 -214q12 -6 20.5 -14t8.5 -25t-9 -25t-21 -14l-411 -214q-15 -8 -29 3.5t-14 28.5t25 29z" />
    <glyph glyph-name="question" unicode="?" horiz-adv-x="462" 
d="M269 250q-5 -10 -6 -21t-1 -22q0 -13 -9.5 -22.5t-23.5 -9.5t-23.5 9.5t-9.5 22.5q0 9 1 19t5 18q11 32 31.5 58.5t42.5 51.5q16 16 33 38q22 26 39.5 59.5t17.5 75.5q0 60 -33.5 100t-100.5 40q-28 0 -53.5 -5.5t-46.5 -14.5q-5 -2 -13 -6.5t-14 -9.5q-8 -5 -16 -8.5
t-15 -3.5q-12 0 -22 8t-10 22q0 9 6.5 17t17.5 16q76 44 167 44q47 0 83.5 -14.5t62 -40t39 -60t13.5 -73.5q0 -62 -20 -105t-52 -78q-15 -19 -20 -23.5l-13 -11.5l-32.5 -33.5t-24.5 -36.5zM276 39q0 -20 -13 -34t-33 -14t-34 14t-14 34q0 19 14 33t34 14t33 -14t13 -33z
" />
    <glyph glyph-name="at" unicode="@" horiz-adv-x="744" 
d="M516 14q-26 -11 -67 -18.5t-83 -7.5q-69 0 -124.5 23.5t-94 66.5t-59 103t-20.5 132q0 71 20 130t59 102t96 66.5t131 23.5q76 0 133.5 -24.5t96.5 -67.5t59 -100t20 -122q0 -34 -6 -63t-20 -50.5t-36 -33.5t-54 -12t-54.5 12.5t-38.5 34.5q-30 -31 -57.5 -44t-55.5 -13
q-31 0 -55 12.5t-40.5 34t-25 51t-8.5 63.5q0 72 37 116.5t109 44.5q35 0 58.5 -12t38.5 -33.5t23 -50t12 -61.5q1 -15 3.5 -31.5t8.5 -31t17 -24t28 -9.5q29 0 40 25.5t11 67.5q0 56 -15.5 104t-46 83t-76 55t-105.5 20q-59 0 -104 -19.5t-76 -54.5t-46.5 -83.5
t-15.5 -107.5t16 -107.5t47 -83.5t77 -54.5t107 -19.5q43 0 68.5 7.5t42.5 14.5q9 5 12.5 5.5t7.5 2.5q10 2 22.5 -2.5t17.5 -15.5q2 -16 -9.5 -26t-25.5 -18zM444 321q-1 15 -3.5 31.5t-9 31t-20 23.5t-37.5 9q-42 0 -60 -28t-18 -78q0 -48 17 -75t55 -27q22 0 44 11.5
t44 31.5q-9 36 -12 70z" />
    <glyph glyph-name="A" unicode="A" horiz-adv-x="549" 
d="M97 15q-5 -9 -14.5 -16.5t-17.5 -7.5q-14 0 -24.5 9t-10.5 24q0 7 2 13l199 630q6 21 16 35t30 14q19 0 29.5 -14.5t17.5 -34.5l199 -630q0 -2 0.5 -6t0.5 -7q0 -15 -10 -24t-25 -9q-9 0 -19 6.5t-13 17.5l-46 148h-269zM161 228h231l-115 379z" />
    <glyph glyph-name="B" unicode="B" horiz-adv-x="542" 
d="M271 400q26 0 52 7.5t47 23.5t34.5 40t13.5 57q0 22 -6.5 42.5t-22 36.5t-40.5 25.5t-61 9.5h-143v-242h126zM145 335v-270h133q81 0 120 36.5t39 94.5q0 68 -46 103.5t-117 35.5h-129zM120 1q-17 0 -29 12t-12 29v622q0 18 12 30t29 12h173q48 0 84 -15t59.5 -40
t35.5 -57.5t12 -66.5q0 -63 -36 -100.5t-90 -63.5q25 -9 51 -20.5t47 -30.5t34.5 -46.5t13.5 -68.5t-15 -77t-42.5 -62.5t-67.5 -41.5t-90 -15h-169z" />
    <glyph glyph-name="C" unicode="C" horiz-adv-x="482" 
d="M50 463q0 57 13.5 104t41 80t69.5 51t99 18q33 0 64.5 -6.5t55.5 -17.5t38.5 -25.5t14.5 -30.5q0 -12 -8 -20t-21 -8q-7 0 -11.5 2.5t-10.5 6.5q-2 2 -5 3t-5 3q-25 17 -51 25.5t-56 8.5q-45 0 -76 -13.5t-50 -39t-27 -61t-8 -80.5v-219q0 -44 8 -80t27 -61t50 -38.5
t76 -13.5q60 0 105 32l11 7q14 10 23 10q13 0 21 -8.5t8 -19.5q0 -16 -14.5 -31t-38.5 -25.5t-55.5 -17t-64.5 -6.5q-57 0 -99 18t-69.5 51t-41 79.5t-13.5 103.5v219z" />
    <glyph glyph-name="D" unicode="D" horiz-adv-x="554" 
d="M508 263q0 -51 -14 -98.5t-46 -83.5t-84 -58t-128 -22h-116q-17 0 -29 12t-12 29v623q0 17 12 29.5t29 12.5h116q76 0 128 -21t84 -56t46 -80.5t14 -95.5v-191zM441 454q0 39 -10 73.5t-32.5 60t-58 40.5t-87.5 15h-108v-578h108q53 0 88.5 15.5t58 42.5t32 63t9.5 77
v191z" />
    <glyph glyph-name="E" unicode="E" horiz-adv-x="474" 
d="M440 35q0 -15 -9.5 -24.5t-23.5 -9.5h-271q-23 0 -40 8.5t-17 31.5v624q0 16 11.5 28.5t29.5 12.5h277q14 0 23 -10t9 -24q0 -13 -9 -21.5t-23 -8.5h-252v-255h232q13 0 22.5 -9t9.5 -23t-9 -23t-23 -9h-232v-258h262q13 0 23 -9t10 -21z" />
    <glyph glyph-name="F" unicode="F" horiz-adv-x="474" 
d="M145 24q0 -14 -9 -23.5t-23 -9.5t-24 9.5t-10 23.5v641q0 16 11.5 28.5t29.5 12.5h277q14 0 23 -10t9 -24q0 -13 -9 -21.5t-23 -8.5h-252v-255h232q13 0 22.5 -9t9.5 -23t-9 -23t-23 -9h-232v-299z" />
    <glyph glyph-name="G" unicode="G" horiz-adv-x="520" 
d="M117 244q0 -44 8 -80t27 -61t50 -38.5t76 -13.5q38 0 68 10.5t55 30.5v232h-107q-12 0 -21.5 8.5t-9.5 22.5q0 13 9.5 22t21.5 9h122q22 0 36 -9.5t14 -30.5v-244q0 -28 -18 -49t-46 -34.5t-62 -20t-67 -6.5q-57 0 -99 18t-69.5 51t-41 79.5t-13.5 103.5v219
q0 57 13.5 104t41 80t69.5 51t99 18q33 0 64.5 -6.5t55.5 -17.5t38.5 -25.5t14.5 -30.5q0 -12 -8.5 -20t-20.5 -8q-7 0 -11.5 2.5t-10.5 6.5q-2 2 -5.5 3t-5.5 3q-24 17 -50 25.5t-56 8.5q-45 0 -76 -13.5t-50 -39t-27 -61t-8 -80.5v-219z" />
    <glyph glyph-name="H" unicode="H" horiz-adv-x="580" 
d="M506 25q0 -14 -9.5 -24t-23.5 -10q-13 0 -23.5 10t-10.5 24v297h-294v-297q0 -14 -9.5 -24t-23.5 -10t-23.5 10t-9.5 24v658q0 13 9.5 23t23.5 10t23.5 -10t9.5 -23v-297h294v297q0 13 10.5 23t23.5 10t23 -10t10 -23v-658z" />
    <glyph glyph-name="I" unicode="I" horiz-adv-x="227" 
d="M80 683q0 13 10 23t24 10t23.5 -10t9.5 -23v-659q0 -14 -9.5 -23.5t-23.5 -9.5t-24 9.5t-10 23.5v659z" />
    <glyph glyph-name="J" unicode="J" horiz-adv-x="385" 
d="M309 223q0 -54 -9.5 -97t-32.5 -73t-61 -46t-95 -16q-10 0 -24 1t-26.5 4.5t-21 11.5t-8.5 21q0 16 9.5 24t18.5 8q2 0 6.5 -0.5t9.5 -1.5q8 -2 19.5 -3.5t27.5 -1.5q38 0 61 12t36.5 34t18 53t4.5 70v460q0 14 10 23.5t24 9.5q13 0 23 -10t10 -23v-460z" />
    <glyph glyph-name="K" unicode="K" horiz-adv-x="498" 
d="M204 337l-59 -73v-239q0 -14 -9.5 -24t-23.5 -10t-23.5 10t-9.5 24v658q0 13 9.5 23t23.5 10t23.5 -10t9.5 -23v-320l273 336q5 7 13.5 12t17.5 5t19 -7.5t9 -24.5q-1 -13 -8 -23v1l-223 -274l241 -346h-1q4 -7 4 -15q0 -12 -6 -24t-23 -12q-11 0 -17.5 4t-11.5 11z" />
    <glyph glyph-name="L" unicode="L" horiz-adv-x="448" 
d="M437 33q0 -14 -9 -23t-22 -9h-288q-16 0 -27.5 10.5t-11.5 27.5v644q0 13 10 23t24 10t23 -10t9 -23v-619h261q12 0 21.5 -9t9.5 -22z" />
    <glyph glyph-name="M" unicode="M" horiz-adv-x="699" 
d="M630 22q0 -13 -9.5 -22t-22.5 -9q-14 0 -24.5 9t-10.5 22v530l-43 -91.5l-46.5 -98.5l-46.5 -98.5l-43 -91.5q-11 -20 -32 -20q-22 0 -32 20l-180 380v-530q0 -13 -10 -22t-25 -9q-13 0 -22 9t-9 22v658q0 16 10 26t26 10q24 0 36 -23v1l207 -443l206 444v-1q12 22 36 22
q14 0 24.5 -10.5t10.5 -25.5v-658z" />
    <glyph glyph-name="N" unicode="N" horiz-adv-x="600" 
d="M489 -9q-10 0 -20 5t-15 14l-309 571v-556q0 -14 -10 -24t-24 -10t-23.5 10t-9.5 24v653q0 17 10.5 27.5t26.5 10.5q25 0 36 -21l309 -572v559q0 14 10 24t24 10t23 -10t9 -24v-654q0 -16 -10 -26.5t-27 -10.5z" />
    <glyph glyph-name="O" unicode="O" horiz-adv-x="551" 
d="M278 -9q-57 0 -99.5 19.5t-71 54t-43 80.5t-14.5 99v219q0 52 12.5 98t40 80.5t71 54.5t104.5 20t104 -20t70.5 -54.5t40 -80.5t12.5 -98v-219q0 -53 -14 -99t-42.5 -80.5t-71 -54t-99.5 -19.5zM278 652q-45 0 -75.5 -13.5t-49.5 -38.5t-27.5 -60t-8.5 -77v-219
q0 -42 9.5 -76.5t29.5 -59.5t50.5 -39t71.5 -14t71.5 14t50 39t29 59.5t9.5 76.5v219q0 42 -8.5 77t-27.5 60t-49.5 38.5t-74.5 13.5z" />
    <glyph glyph-name="P" unicode="P" horiz-adv-x="530" 
d="M145 267v-241q0 -14 -9.5 -24.5t-23.5 -10.5q-13 0 -23 10t-10 25v638q0 17 12.5 29.5t29.5 12.5h150q61 0 103 -18.5t68.5 -49t38 -70.5t11.5 -84q0 -106 -59.5 -161.5t-161.5 -55.5h-126zM145 331h126q77 0 116 37.5t39 116.5q0 29 -6.5 57.5t-23.5 50.5t-47.5 35.5
t-77.5 13.5h-126v-311z" />
    <glyph glyph-name="Q" unicode="Q" horiz-adv-x="551" 
d="M388 -180q-64 0 -100 47t-41 125q-49 6 -85.5 28t-61.5 55.5t-37.5 76.5t-12.5 92v219q0 52 12.5 98t40 80.5t71 54.5t104.5 20t104 -20t70.5 -54.5t40 -80.5t12.5 -98v-219q0 -48 -12 -91t-36 -76t-60 -55t-83 -29q2 -64 24 -89.5t64 -25.5q5 0 9 0.5t9 0.5h11
q14 0 23 -8t9 -22q0 -21 -21.5 -25t-53.5 -4zM278 652q-45 0 -75.5 -13.5t-49.5 -38.5t-27.5 -60t-8.5 -77v-219q0 -42 9.5 -76.5t29.5 -59.5t50.5 -39t71.5 -14t71.5 14t50 39t29 59.5t9.5 76.5v219q0 42 -8.5 77t-27.5 60t-49.5 38.5t-74.5 13.5z" />
    <glyph glyph-name="R" unicode="R" horiz-adv-x="575" 
d="M511 509q0 -78 -43.5 -126t-118.5 -63l169 -278l-1 1q4 -10 4 -21q0 -13 -13 -21.5t-23 -8.5q-17 0 -27 15l-183 311h-130v-292q0 -14 -10 -24.5t-24 -10.5q-13 0 -23 10t-10 25v638q0 17 12 29.5t28 12.5h178q61 0 102.5 -17t66.5 -44.5t35.5 -63t10.5 -72.5zM444 509
q0 24 -6 48t-23 42.5t-46.5 30.5t-76.5 12h-147v-261h153q72 0 109 32.5t37 95.5z" />
    <glyph glyph-name="S" unicode="S" horiz-adv-x="486" 
d="M372 188q0 26 -6 44t-15 31t-20 21.5t-21 13.5q-16 8 -37 16l-43 16q-33 11 -65.5 24t-59 34t-42.5 53.5t-16 82.5q0 91 53.5 141.5t146.5 50.5q18 0 46.5 -2.5t55 -9.5t45.5 -19t19 -31q0 -12 -8.5 -21.5t-24.5 -9.5q-8 0 -17.5 2.5t-17.5 6.5q-17 7 -39 13.5t-53 6.5
q-26 0 -50.5 -6t-43.5 -20t-30.5 -37.5t-11.5 -59.5q0 -27 6.5 -45.5t16 -31t21 -20t20.5 -12.5q17 -8 38 -16.5t42 -15.5q32 -10 64.5 -23.5t58.5 -35.5t42.5 -54t16.5 -80q0 -49 -16.5 -87t-45 -64t-68 -39.5t-86.5 -13.5q-24 0 -55 3.5t-59 11.5t-47.5 21t-19.5 31
q0 13 9 23t21 10q5 0 15.5 -3.5l21.5 -7.5q20 -8 48 -16.5t67 -8.5q72 0 108 35t36 98z" />
    <glyph glyph-name="T" unicode="T" horiz-adv-x="483" 
d="M210 642h-146q-15 0 -24.5 9t-9.5 22q0 11 10 22t24 11h359q14 0 24 -9.5t10 -23.5q0 -13 -10 -22t-24 -9h-147v-618q0 -14 -9 -23.5t-23 -9.5t-24 9.5t-10 23.5v618z" />
    <glyph glyph-name="U" unicode="U" horiz-adv-x="572" 
d="M507 228q0 -51 -15 -94.5t-43 -75t-68.5 -49.5t-91.5 -18q-53 0 -94 18t-68.5 49.5t-42 75t-14.5 94.5v452q0 16 10.5 26t24.5 10t23 -10.5t9 -25.5v-452q0 -76 37.5 -124.5t114.5 -48.5q39 0 67 13t46.5 36t27.5 55t9 69v452q0 14 9.5 25t23.5 11t24.5 -11t10.5 -25
v-452z" />
    <glyph glyph-name="V" unicode="V" horiz-adv-x="529" 
d="M267 99l180 592q3 11 13 18t19 7q15 0 25 -9t10 -24q0 -4 -0.5 -8.5t-0.5 -5.5l-199 -630q-7 -20 -17.5 -34t-29.5 -14q-20 0 -30 13.5t-16 34.5l-199 630q-2 6 -2 14q0 15 10.5 24t24.5 9q8 0 17.5 -8t14.5 -17z" />
    <glyph glyph-name="W" unicode="W" horiz-adv-x="776" 
d="M392 587l-30 -134l-33 -144l-33 -144l-30 -133q-5 -14 -15.5 -27.5t-31.5 -13.5q-19 0 -31 12t-17 29l-153 648v4q0 14 12.5 21t26.5 7q9 0 17.5 -6.5t12.5 -17.5l134 -578l125 552q6 25 15.5 39.5t30.5 14.5q20 0 30 -15t15 -39l127 -553l133 579q4 11 11 17.5t16 6.5
q14 0 27.5 -7t13.5 -22v-4t-1 -5v-1l-152 -641q-5 -16 -16.5 -28.5t-30.5 -12.5q-20 0 -31.5 13t-16.5 29z" />
    <glyph glyph-name="X" unicode="X" horiz-adv-x="500" 
d="M83 16q-5 -8 -12 -16.5t-20 -8.5q-12 0 -21.5 10t-9.5 24q0 11 5 18l188 325l-173 297l1 -1q-5 10 -5 20q0 12 9 22t22 10q10 0 19.5 -9.5t16.5 -22.5l150 -268l149 268h-1q6 11 15.5 21.5t23.5 10.5q11 0 19.5 -9.5t8.5 -23.5q0 -9 -4 -19l1 1l-172 -297l188 -325
q4 -8 4 -18q0 -14 -9.5 -24t-20.5 -10t-19.5 8.5t-13.5 16.5l-169 303z" />
    <glyph glyph-name="Y" unicode="Y" horiz-adv-x="476" 
d="M241 -9q-15 0 -25 10t-10 25v253l-182 386q-4 10 -4 17q0 14 10.5 24t24.5 10q7 0 13.5 -3t10.5 -10v1l162 -351l161 351v-1q7 13 25 13q13 0 23 -10t10 -24q0 -4 -1 -9t-2 -8l-183 -390v-249q0 -14 -9.5 -24.5t-23.5 -10.5z" />
    <glyph glyph-name="Z" unicode="Z" horiz-adv-x="484" 
d="M453 35q0 -15 -9.5 -24.5t-23.5 -9.5h-350q-16 0 -26 10.5t-10 26.5q0 5 3.5 14t6.5 14l322 574h-297q-14 0 -23.5 9t-9.5 23t9.5 24t23.5 10h346q16 0 26 -10.5t10 -26.5q0 -6 -3.5 -14t-5.5 -13l-323 -575h301q14 0 23.5 -9t9.5 -23z" />
    <glyph glyph-name="bracketleft" unicode="[" horiz-adv-x="294" 
d="M264 -92q0 -17 -14.5 -24t-29.5 -7h-104q-13 0 -22.5 9.5t-9.5 21.5v864q0 18 13.5 25t32.5 7h104q11 0 20.5 -9t9.5 -22q0 -17 -14 -23.5t-29 -6.5h-72v-804h72q17 0 30 -6.5t13 -24.5z" />
    <glyph glyph-name="backslash" unicode="\" horiz-adv-x="280" 
d="M-19 718l-2 5q-2 13 5.5 23.5t20.5 12.5q11 2 20 -3t13 -16l264 -740q2 -16 -4.5 -29t-19.5 -15q-11 -2 -20.5 3.5t-13.5 16.5z" />
    <glyph glyph-name="bracketright" unicode="]" horiz-adv-x="294" 
d="M211 -92q0 -13 -8.5 -22t-21.5 -9h-105q-17 0 -31.5 7t-14.5 24q0 19 14 25t31 6h71v804h-71q-16 0 -30.5 6t-14.5 24t14.5 24.5t31.5 6.5h105q11 0 20.5 -10t9.5 -22v-864z" />
    <glyph glyph-name="asciicircum" unicode="^" horiz-adv-x="326" 
d="M49 527q-6 -8 -18 -8q-11 0 -17.5 5t-6.5 13q1 8 6 17t13 18l113 139q10 13 25 13q14 0 24 -13l114 -139q17 -20 18 -35l-1 1q0 -19 -22 -19q-13 0 -19 8l-114 142z" />
    <glyph glyph-name="underscore" unicode="_" horiz-adv-x="600" 
d="M605 -179q12 0 21.5 -9.5t9.5 -23.5q0 -13 -9 -22t-22 -9h-603q-14 0 -23.5 9t-9.5 22q0 14 10 23.5t23 9.5h603z" />
    <glyph glyph-name="grave" unicode="`" horiz-adv-x="197" 
d="M169 625q4 -4 4 -10q0 -12 -8 -20t-18 -8q-8 0 -14.5 4t-13.5 12l-81 88q-4 5 -4 12q0 11 8 19t16 8t13 -4l12 -10z" />
    <glyph glyph-name="a" unicode="a" horiz-adv-x="482" 
d="M335 341q0 119 -117 119q-28 0 -46 -5.5t-35 -16.5q-5 -3 -10.5 -5.5t-13.5 -2.5q-11 0 -16 8.5t-6 17.5q-1 16 10.5 27t31.5 18t45 10.5t50 3.5q93 0 132.5 -51t39.5 -150v-226q0 -39 27 -39q3 0 4.5 0.5t3.5 0.5q11 0 16.5 -8.5t5.5 -18.5q0 -15 -12 -21t-26 -6
q-23 0 -42.5 15.5t-33.5 41.5q-63 -60 -143 -60q-76 0 -113 40.5t-37 106.5v4q0 146 174 146q26 0 54 -5t57 -13v69zM223 237q-34 0 -55.5 -7.5t-33.5 -20.5t-16 -30t-4 -36v-4q0 -39 21 -64.5t78 -25.5q35 0 64 12t58 37v120q-30 10 -59.5 14.5t-52.5 4.5z" />
    <glyph glyph-name="b" unicode="b" horiz-adv-x="485" 
d="M144 147q0 -45 31.5 -70t85.5 -25q60 0 87.5 31t27.5 85v194q0 47 -25 73t-81 26q-40 0 -71 -15.5t-55 -41.5v-257zM79 701q0 12 8.5 22t24.5 10t24 -10t8 -22v-235q34 24 69 36.5t77 12.5t70.5 -12t46.5 -32.5t26 -48.5t8 -60v-194q0 -37 -11 -69t-33.5 -55.5t-56.5 -37
t-79 -13.5q-43 0 -77 12t-57.5 33t-35.5 49t-12 60v554z" />
    <glyph glyph-name="c" unicode="c" horiz-adv-x="393" 
d="M50 330q0 38 10.5 71.5t32 58t55.5 38.5t80 14q17 0 40 -2.5t44 -9t36 -17t15 -26.5q0 -11 -8 -19t-19 -8q-5 0 -8 0.5t-7 1.5h1q-19 10 -38.5 17.5t-47.5 7.5q-66 0 -93.5 -33.5t-27.5 -93.5v-156q0 -60 27.5 -93t93.5 -33q29 0 48.5 7.5t37.5 16.5h-1q11 3 15 3
q11 0 19 -8.5t8 -19.5q0 -16 -15 -26.5t-36 -16.5t-44 -8.5t-40 -2.5q-46 0 -80 14t-55.5 38.5t-32 57.5t-10.5 71v156z" />
    <glyph glyph-name="d" unicode="d" horiz-adv-x="488" 
d="M215 511q25 0 57 -5.5t64 -16.5v212q0 13 8.5 22.5t24.5 9.5t24 -9.5t8 -22.5v-591q0 -23 6 -38.5t24 -29.5q2 -3 3 -6t1 -8q0 -13 -8.5 -20.5t-19.5 -7.5q-16 0 -29 9.5t-23 25.5q-35 -18 -73 -30t-75 -12q-78 0 -117.5 52t-39.5 134v131q0 45 8 82t27 63.5t51 41
t79 14.5zM336 432q-29 12 -60.5 18.5t-50.5 6.5q-61 0 -85.5 -35t-24.5 -112v-131q0 -130 108 -130q27 0 57.5 9t59.5 23q-3 13 -3.5 18.5t-0.5 10.5v322z" />
    <glyph glyph-name="e" unicode="e" horiz-adv-x="435" 
d="M236 48q35 0 59 8.5t51 20.5q2 1 5 2t6 1q12 0 20 -8.5t8 -19.5q0 -17 -17.5 -28.5t-42 -18t-52 -9.5t-47.5 -3q-42 0 -74.5 12.5t-55 34.5t-34.5 52t-12 64v192q0 36 12 66.5t35 53t57 35t78 12.5q82 0 122 -43.5t40 -116.5q0 -68 -39 -106.5t-127 -38.5
q-25 0 -54.5 2.5t-58.5 8.5v-71q0 -46 30.5 -74t90.5 -28zM330 355q0 55 -26.5 79t-74.5 24q-54 0 -84 -27.5t-30 -74.5v-85q32 -5 66.5 -6.5t50.5 -1.5q32 0 51 8t29.5 20.5t14 29t3.5 34.5z" />
    <glyph glyph-name="f" unicode="f" horiz-adv-x="329" 
d="M80 546q0 47 13 81.5t36.5 57.5t55 35t68.5 13h20t29 -4t26 -12t11 -23q0 -14 -9 -22t-22 -8t-23 2t-20 3.5t-20 1.5q-49 0 -74.5 -35t-25.5 -82v-71h116q12 0 20 -8.5t8 -22.5q0 -12 -8 -20.5t-20 -8.5h-116v-396q0 -14 -8 -22.5t-24 -8.5t-24.5 8.5t-8.5 22.5v519z" />
    <glyph glyph-name="g" unicode="g" horiz-adv-x="493" 
d="M234 515q35 0 71 -9.5t68 -28.5q18 33 41 48t37 15q13 0 21.5 -8t8.5 -21q0 -11 -4 -15l-9 -10l-22.5 -21.5t-15.5 -20t-9 -23t-3 -30.5v-64q0 -37 -11 -69.5t-33.5 -56.5t-55.5 -38t-78 -14q-43 0 -85 16q-10 -17 -13.5 -32t-3.5 -26q0 -16 6.5 -26t16 -16t20.5 -8
t21 -2h43q42 0 78.5 -8.5t63 -25.5t41.5 -43t15 -62q0 -37 -15.5 -66.5t-42.5 -50t-64 -31.5t-81 -11q-42 0 -77 10t-60 29.5t-39 47t-14 63.5q0 67 57 118q-20 19 -27 40.5t-7 38.5t9 39t35 45q-60 56 -60 146q0 39 11 72t33 57t55 38t78 14zM354 390q0 4 0.5 13.5
t2.5 20.5q-27 17 -55.5 26t-57.5 9q-61 0 -91.5 -33t-30.5 -94q0 -56 27.5 -90t90.5 -34q60 0 87 31t27 86v65zM204 -4q-27 0 -49 5q-41 -32 -41 -83q0 -103 128 -103q60 0 98 24t38 75q0 44 -32.5 63t-98.5 19h-43z" />
    <glyph glyph-name="h" unicode="h" horiz-adv-x="507" 
d="M143 25q0 -14 -8.5 -23t-21.5 -9q-14 0 -23.5 9t-9.5 23v681q0 12 8.5 22.5t22.5 10.5t23 -9.5t9 -23.5v-243q32 25 67.5 38.5t70.5 13.5q79 0 115.5 -46t36.5 -118v-326q0 -14 -9 -23t-23 -9t-23.5 9t-9.5 23v325q0 51 -22.5 78.5t-74.5 27.5q-32 0 -67 -16t-61 -50
v-365z" />
    <glyph glyph-name="i" unicode="i" horiz-adv-x="245" 
d="M165 681q0 -17 -12 -29t-29 -12q-18 0 -30 12t-12 29q0 18 12 30t30 12q17 0 29 -12t12 -30zM156 25q0 -14 -9.5 -23t-22.5 -9q-14 0 -23.5 9t-9.5 23v454q0 14 9.5 23.5t23.5 9.5q13 0 22.5 -9.5t9.5 -23.5v-454z" />
    <glyph glyph-name="j" unicode="j" horiz-adv-x="245" 
d="M157 -23q0 -76 -37.5 -125t-101.5 -60q-6 -1 -9.5 -0.5t-8.5 0.5q-9 0 -17 5.5t-10 14.5q-4 17 5.5 25t19.5 10q45 11 69.5 38.5t24.5 87.5v506q0 14 9.5 23.5t23.5 9.5q13 0 22.5 -9.5t9.5 -23.5v-502zM166 681q0 -17 -12 -29t-29 -12q-18 0 -30.5 12t-12.5 29
q0 18 12.5 30t30.5 12q17 0 29 -12t12 -30z" />
    <glyph glyph-name="k" unicode="k" horiz-adv-x="439" 
d="M145 297l200 207q3 4 8.5 5.5t10.5 1.5q13 0 21.5 -8.5t8.5 -21.5q0 -14 -7 -21l-156 -159l177 -263q2 -3 4 -9t2 -10q1 -12 -8.5 -19t-22.5 -7q-18 0 -27 15l-165 251l-46 -48v-186q0 -14 -9.5 -23t-22.5 -9q-14 0 -23.5 9t-9.5 23v675q0 14 9.5 23.5t23.5 9.5
q13 0 22.5 -9.5t9.5 -23.5v-403z" />
    <glyph glyph-name="l" unicode="l" horiz-adv-x="228" 
d="M82 700q0 13 9 23t23 10t23 -9.5t9 -23.5v-610q0 -35 18 -54q4 -6 4 -14q0 -13 -8 -21t-21 -8q-8 0 -18 3t-18.5 13t-14.5 29.5t-6 51.5v610z" />
    <glyph glyph-name="m" unicode="m" horiz-adv-x="778" 
d="M125 466q36 23 74.5 36t78.5 13t68.5 -14.5t49.5 -41.5q35 26 72 41t79 15q80 0 121.5 -46.5t41.5 -121.5v-322q0 -14 -7.5 -22.5t-24.5 -8.5q-16 0 -24.5 8.5t-8.5 22.5v320q0 47 -24.5 79.5t-76.5 32.5q-35 0 -68 -17t-53 -43q2 -11 3.5 -23.5t1.5 -26.5v-322
q0 -14 -7.5 -22.5t-24.5 -8.5t-25 8.5t-8 22.5v299q0 29 -3.5 53.5t-13 42t-28 27.5t-48.5 10q-35 0 -69 -14t-58 -32q3 -18 3 -36v-350q0 -14 -8 -22.5t-24 -8.5q-17 0 -25 8.5t-8 22.5v350q0 26 -3.5 43.5t-14.5 32.5q-6 8 -6 17q0 13 9 21t20 8q10 0 20.5 -7t18.5 -24z
" />
    <glyph glyph-name="n" unicode="n" horiz-adv-x="509" 
d="M129 464q37 26 75 37.5t75 11.5q78 0 116.5 -51t38.5 -136v-301q0 -14 -8 -22.5t-24 -8.5t-24.5 8.5t-8.5 22.5v301q0 63 -25.5 97t-76.5 34q-32 0 -62.5 -13t-59.5 -35q3 -16 3 -34v-350q0 -14 -8 -22.5t-24 -8.5q-17 0 -25 8.5t-8 22.5v350q0 26 -3.5 43.5t-14.5 32.5
q-6 8 -6 17q0 13 9 21t20 8q10 0 21.5 -8t19.5 -25z" />
    <glyph glyph-name="o" unicode="o" horiz-adv-x="464" 
d="M235 -7q-45 0 -79.5 13.5t-58 37t-35.5 55.5t-12 69v172q0 37 12 69t35.5 56t58 37.5t79.5 13.5t80 -13.5t58 -37.5t35 -56t12 -69v-172q0 -37 -12 -69t-35 -55.5t-58 -37t-80 -13.5zM235 52q60 0 90 31t30 85v173q0 54 -30 85.5t-90 31.5t-90 -31.5t-30 -85.5v-173
q0 -54 30 -85t90 -31z" />
    <glyph glyph-name="p" unicode="p" horiz-adv-x="478" 
d="M270 -6q-27 0 -59 5.5t-63 15.5v-199q0 -13 -8.5 -22t-23.5 -9q-17 0 -25 9t-8 22v557q0 26 -3.5 43.5t-14.5 32.5q-6 8 -6 17q0 13 9 21t20 8q10 0 20 -8t18 -20q38 20 76.5 34t76.5 14q77 0 116 -52t39 -135v-134q0 -44 -8 -81t-27 -63.5t-50.5 -41t-78.5 -14.5z
M148 72q27 -12 59 -18t53 -6q60 0 84.5 35t24.5 111v134q0 64 -26 97.5t-81 33.5q-27 0 -58.5 -11t-60.5 -29q2 -11 3.5 -22.5t1.5 -23.5v-301z" />
    <glyph glyph-name="q" unicode="q" horiz-adv-x="485" 
d="M347 357q0 47 -31 73.5t-85 26.5q-60 0 -88 -32t-28 -89v-163q0 -58 24.5 -91.5t84.5 -33.5q34 0 65.5 12.5t57.5 39.5v257zM412 -184q0 -13 -8 -22t-24 -9q-17 0 -25 9t-8 22v221q-32 -20 -66.5 -31.5t-72.5 -11.5q-45 0 -75.5 13.5t-48.5 37.5t-26 57t-8 71v163
q0 38 11.5 70.5t34 56.5t56.5 38t79 14q43 0 76.5 -12.5t57 -33.5t35.5 -50t12 -62v-541z" />
    <glyph glyph-name="r" unicode="r" horiz-adv-x="337" 
d="M149 25q0 -14 -9.5 -23t-22.5 -9q-14 0 -23.5 9t-9.5 23v348q0 26 -3.5 43.5t-14.5 32.5q-6 8 -6 17q0 13 9 21t21 8q10 0 20.5 -8.5t18.5 -22.5q35 23 75 35t68 12q26 0 36 -9t10 -23q0 -15 -9.5 -25t-22.5 -9h-33t-32.5 -4t-34 -12.5t-38.5 -23.5v-1q0 -1 1 -4v-9.5
v-17.5v-348z" />
    <glyph glyph-name="s" unicode="s" horiz-adv-x="406" 
d="M59 374q0 64 40.5 102.5t118.5 38.5q19 0 41.5 -2.5t42 -8.5t32.5 -15.5t13 -23.5q0 -12 -8 -20.5t-21 -8.5q-5 0 -8 1t-7 3q-17 8 -35 14t-47 6q-51 0 -75 -20.5t-24 -60.5q0 -27 12 -43t41 -32q30 -15 62.5 -26t60.5 -28t46 -43.5t18 -71.5q0 -66 -41.5 -104
t-123.5 -38q-19 0 -44 2t-47.5 8t-38 16t-15.5 25q0 11 8.5 20.5t22.5 9.5q3 0 6 -1q23 -9 48.5 -17t59.5 -8q46 0 74 19.5t28 64.5q0 32 -12 48t-29 25q-29 15 -64 26t-65 28t-50 43.5t-20 71.5z" />
    <glyph glyph-name="t" unicode="t" horiz-adv-x="321" 
d="M81 633q0 13 8 22.5t24 9.5t24 -9.5t8 -22.5v-150h116q12 0 20.5 -8.5t8.5 -22.5q0 -12 -8.5 -20.5t-20.5 -8.5h-116v-214q0 -42 3 -71t13 -47t28.5 -26t48.5 -8q5 0 10 0.5t10 0.5q14 0 29.5 -5t15.5 -25q0 -21 -16 -26t-34 -5q-52 0 -85 13t-52.5 38.5t-27 64
t-7.5 89.5v431z" />
    <glyph glyph-name="u" unicode="u" horiz-adv-x="509" 
d="M366 480q0 14 8 23t25 9q16 0 24 -9t8 -23v-360q0 -37 3.5 -48.5t7.5 -16.5q5 -5 10 -12.5t5 -15.5q0 -12 -9 -20t-21 -8q-13 0 -23 9t-20 24q-36 -21 -74.5 -30t-73.5 -9q-78 0 -117.5 51t-39.5 135v301q0 14 8.5 23t24.5 9t24 -9t8 -23v-301q0 -62 26 -96t77 -34
q32 0 62.5 10t58.5 28q-1 8 -1.5 15.5t-0.5 17.5v360z" />
    <glyph glyph-name="v" unicode="v" horiz-adv-x="430" 
d="M266 35q-8 -23 -18.5 -32.5t-27.5 -9.5q-32 0 -45 41l-143 440q-5 15 5.5 26.5t26.5 11.5q8 0 16 -4t12 -17l128 -413l126 413q2 8 9.5 15t19.5 6q13 -1 22.5 -10t9.5 -23q0 -5 -1 -8z" />
    <glyph glyph-name="w" unicode="w" horiz-adv-x="655" 
d="M517 33q-6 -20 -15 -30t-29 -10q-13 0 -24 7.5t-16 21.5l-99 389l-23 -94l-25 -101l-26 -100.5t-26 -93.5q-8 -29 -41 -29q-17 0 -28.5 11t-16.5 29l-120 446v2q0 12 9.5 21.5t23.5 9.5q9 0 17.5 -6.5t12.5 -16.5l103 -403l53.5 204.5l47.5 190.5q4 13 13.5 22t25.5 9
q14 0 23.5 -9t13.5 -22l18.5 -76l21.5 -85.5l27.5 -103.5l34.5 -130l102 403q2 10 11 16.5t19 6.5q13 0 22 -9.5t9 -23.5v-2z" />
    <glyph glyph-name="x" unicode="x" horiz-adv-x="431" 
d="M46 466q-4 5 -4 15q0 14 10 22.5t21 8.5q12 0 18.5 -6t13.5 -17l115 -178l115 178q7 11 13.5 17t18.5 6q11 0 21 -8.5t10 -22.5q0 -10 -4 -15l-138 -207l148 -219q3 -4 3 -13q0 -14 -9.5 -24t-23.5 -10q-12 0 -18.5 5.5t-14.5 17.5l-123 189l-128 -196q-10 -16 -26 -16
q-14 0 -24 9t-10 23q0 6 4 13l150 221z" />
    <glyph glyph-name="y" unicode="y" horiz-adv-x="412" 
d="M273 60q-17 -55 -35.5 -102.5t-43 -83t-57.5 -56t-79 -20.5q-15 0 -24.5 8.5t-9.5 22.5q0 11 8 20.5t22 10.5q27 1 46.5 8.5t34.5 23.5t27.5 41t24.5 62l-164 476q-2 2 -2.5 5.5t-0.5 5.5q0 14 9.5 22t23.5 8q9 0 17 -6t12 -15l136 -415l29 100.5l31 106.5l31.5 107
l28.5 101q5 8 13 14.5t17 6.5q12 0 22 -9t10 -24q0 -4 -0.5 -6t-0.5 -4z" />
    <glyph glyph-name="z" unicode="z" horiz-adv-x="384" 
d="M367 471q0 -5 -2.5 -13t-4.5 -12l-262 -387h241q13 0 21.5 -9t8.5 -21q0 -13 -8.5 -21t-21.5 -8h-285q-14 0 -24 10t-10 25q0 4 1.5 10.5t4.5 11.5l264 389h-230q-13 0 -21.5 8.5t-8.5 20.5q0 14 8.5 22t21.5 8h273q14 0 24 -8.5t10 -25.5z" />
    <glyph glyph-name="braceleft" unicode="{" horiz-adv-x="417" 
d="M69 210q-14 0 -23 7.5t-9 21.5t9 22t23 8q43 0 64 23.5t24 75.5q1 20 2.5 43t2.5 44l6 102q5 54 47.5 86t106.5 32q18 0 35 -6t17 -30q0 -21 -12 -23.5t-22 -0.5l-18 2t-11 1q-29 0 -53 -19t-26 -54l-4 -86l-4 -85q-3 -45 -23.5 -79.5t-60.5 -55.5q40 -20 60.5 -55
t23.5 -80l8 -170q2 -35 25.5 -54t52.5 -19q7 0 15.5 0.5t14.5 1.5q10 2 22 -0.5t12 -22.5q0 -24 -17 -30t-35 -6q-65 0 -107.5 31.5t-46.5 85.5l-11 189q-3 53 -24 76.5t-64 23.5z" />
    <glyph glyph-name="bar" unicode="|" horiz-adv-x="227" 
d="M85 732q0 11 8.5 20t20.5 9q13 0 21 -9t8 -20v-948q0 -11 -8 -19.5t-21 -8.5q-12 0 -20.5 8.5t-8.5 19.5v948z" />
    <glyph glyph-name="braceright" unicode="}" horiz-adv-x="417" 
d="M352 210q-43 0 -64 -23.5t-24 -76.5q-2 -47 -5.5 -94t-5.5 -95q-4 -54 -46 -85.5t-107 -31.5q-20 0 -36.5 6t-16.5 30q0 20 12 22.5t22 0.5q7 -1 15.5 -1.5t14.5 -0.5q29 0 53 19t26 54l4 85l4 85q2 46 22.5 80.5t60.5 54.5q-40 21 -60.5 55.5t-22.5 79.5l-8 171
q-2 35 -26.5 54t-53.5 19q-2 0 -10.5 -1t-18.5 -2q-10 -2 -22 0.5t-12 23.5q0 24 16.5 30t36.5 6q64 0 106 -32t47 -86l6 -102l5 -87q3 -52 24 -75.5t64 -23.5q14 0 23 -8t9 -22t-9 -21.5t-23 -7.5z" />
    <glyph glyph-name="asciitilde" unicode="~" horiz-adv-x="454" 
d="M391 353q0 -15 -9 -27t-22.5 -20.5t-30.5 -14t-32 -6.5l1 1q-22 0 -39.5 6.5t-33.5 15.5q-11 5 -24 10t-33 8q-14 0 -26.5 -7t-21.5 -15q-5 -5 -10 -8.5t-13 -3.5q-27 0 -30 27q0 15 8 28t21 22.5t30 15t35 5.5q17 0 36 -7t33 -14l25 -11t28 -8q23 0 35.5 6.5t20.5 14.5
q5 4 11.5 8t12.5 6q11 -1 19.5 -10t8.5 -22z" />
    <glyph glyph-name="exclamdown" unicode="&#xa1;" horiz-adv-x="227" 
d="M91 297q0 11 6.5 18.5t16.5 7.5q9 0 16 -7.5t7 -18.5q2 -121 7.5 -241.5t3.5 -241.5q0 -13 -10 -23t-24 -10t-24 10t-10 23zM162 458q0 -20 -13 -33t-33 -13t-34 13t-14 33t14 34.5t34 14.5t33 -14.5t13 -34.5z" />
    <glyph glyph-name="cent" unicode="&#xa2;" horiz-adv-x="500" 
d="M233 22q-81 9 -118 59.5t-37 121.5v104q0 71 37 121t118 58v51q0 8 6 14t14 6t13 -6t5 -14v-50q18 -1 39 -5t38 -10.5t28.5 -16t11.5 -23.5q0 -11 -7.5 -18.5t-19.5 -7.5q-5 0 -8 0.5t-6 1.5h1q-15 7 -31.5 13t-45.5 10v-353q29 3 45 9.5t32 14.5h-1q9 3 14 3
q12 0 19.5 -8t7.5 -19q0 -13 -11.5 -23t-28.5 -16.5t-38 -10.5t-39 -6v-58q0 -8 -5 -13t-13 -5t-14 5t-6 13v58zM143 203q0 -50 20.5 -81t69.5 -42v349q-49 -10 -69.5 -41t-20.5 -81v-104z" />
    <glyph glyph-name="sterling" unicode="&#xa3;" horiz-adv-x="500" 
d="M121 389q-12 32 -21 65.5t-9 71.5q0 89 53.5 139.5t147.5 50.5q18 0 46 -2.5t54.5 -9.5t45.5 -19t19 -31q0 -12 -8.5 -21.5t-25.5 -9.5q-8 0 -16.5 2.5t-17.5 6.5q-17 7 -39 13.5t-55 6.5q-25 0 -49.5 -6t-43 -20t-30 -38.5t-11.5 -61.5q0 -35 9.5 -69t21.5 -68h170
q12 0 22 -9t10 -22q0 -12 -9.5 -21t-22.5 -9h-147q11 -30 18 -60t7 -61q0 -46 -17 -80.5t-48 -63.5h257q14 0 23 -8.5t9 -22.5t-9 -23t-23 -9h-348q-14 0 -23 8.5t-9 22.5q0 17 14 22.5t35 17.5q29 17 49.5 50t20.5 87q0 32 -7.5 61.5t-18.5 58.5h-98q-14 0 -23 9t-9 21
q0 13 10 22t22 9h74z" />
    <glyph glyph-name="yen" unicode="&#xa5;" horiz-adv-x="476" 
d="M166 363l-70.5 151l-71.5 151q-4 10 -4 17q0 14 10.5 24t24.5 10q7 0 13.5 -3t10.5 -10v1l162 -351l161 351v-1q7 13 25 13q13 0 23 -10t10 -24q0 -4 -1 -9t-2 -8l-143 -302h89q12 0 22 -9t10 -22q0 -12 -9.5 -21t-22.5 -9h-116l-13 -27v-45h129q12 0 22 -8.5t10 -22.5
q0 -12 -9.5 -20.5t-22.5 -8.5h-129v-144q0 -14 -9.5 -24.5t-23.5 -10.5q-15 0 -25 10t-10 25v144h-128q-14 0 -23.5 8.5t-9.5 20.5q0 14 10.5 22.5t22.5 8.5h128v49l-12 23h-116q-14 0 -23.5 9t-9.5 21q0 13 10.5 22t22.5 9h88z" />
    <glyph glyph-name="dieresis" unicode="&#xa8;" horiz-adv-x="403" 
d="M332 646q0 -18 -11.5 -30t-28.5 -12t-29.5 12.5t-12.5 29.5q0 16 12.5 28.5t29.5 12.5t28.5 -12t11.5 -29zM159 646q0 -18 -12 -30t-29 -12t-28.5 12.5t-11.5 29.5q0 16 11.5 28.5t28.5 12.5t29 -12t12 -29z" />
    <glyph glyph-name="copyright" unicode="&#xa9;" horiz-adv-x="740" 
d="M678 313q0 -70 -20 -129t-58.5 -102t-95 -66.5t-130.5 -23.5t-131 23.5t-96 66.5t-59 102t-20 129q0 71 20 130t59 102t96 66.5t131 23.5t130.5 -23.5t95 -66.5t58.5 -102t20 -130zM632 313q0 61 -16.5 111.5t-49.5 87t-81 57t-111 20.5t-111.5 -20.5t-81.5 -57t-50 -87
t-17 -111.5t17 -111.5t50 -87t81.5 -56.5t111.5 -20t111 20t81 56.5t49.5 87t16.5 111.5zM244 344q0 30 8 56t25 45.5t43.5 30.5t62.5 11q14 0 32 -2t34 -7t27.5 -13t11.5 -21q0 -8 -5.5 -13.5t-13.5 -5.5h-7q-16 9 -33 15.5t-39 6.5q-53 0 -75.5 -27t-22.5 -76v-62
q0 -48 22.5 -74.5t75.5 -26.5q23 0 37 5t28 11h-3l7 2q8 3 10 3q8 0 13.5 -6.5t5.5 -14.5q0 -12 -11.5 -20t-27.5 -12.5t-34 -6.5t-32 -2q-36 0 -62.5 11t-43.5 30t-25 45t-8 56v62z" />
    <glyph glyph-name="guillemotleft" unicode="&#xab;" horiz-adv-x="431" 
d="M269 40q1 -2 2 -6t1 -7q0 -14 -9 -24t-23 -10q-12 0 -18.5 5.5t-14.5 17.5l-79 119l-79 119l152 230q7 11 13.5 17.5t18.5 6.5q11 0 20.5 -8.5t9.5 -22.5q0 -5 -0.5 -9t-2.5 -6l-137 -206zM385 105q3 -4 3 -15q0 -12 -10 -21t-21 -9t-17.5 6t-13.5 17l-114 171l114 172
q7 11 13.5 17.5t17.5 6.5t21 -9t10 -22q0 -5 -0.5 -9t-2.5 -6l-98 -150z" />
    <glyph glyph-name="registered" unicode="&#xae;" horiz-adv-x="700" 
d="M638 425q0 -64 -18.5 -117t-54.5 -91.5t-89 -60t-122 -21.5t-122.5 21.5t-89.5 60t-54.5 91.5t-18.5 117q0 66 18.5 121.5t54.5 95.5t89.5 62t122.5 22t122 -22t89 -62t54.5 -95.5t18.5 -121.5zM592 425q0 56 -15.5 103t-45.5 81t-74.5 52.5t-102.5 18.5t-103 -18.5
t-75 -52.5t-45.5 -81t-15.5 -103q0 -54 15.5 -98.5t45.5 -77t75 -50.5t103 -18t102.5 18t74.5 50.5t45.5 77t15.5 98.5zM459 489q0 -30 -15 -51.5t-41 -33.5l70 -107q5 -8 0 -13t-13.5 -6.5t-18 0t-12.5 6.5l-73 114h-59v-103q0 -7 -7.5 -12t-16.5 -5q-8 0 -15 4.5t-7 12.5
v261q0 11 8 19t18 8h79q29 0 48.5 -8t31.5 -21.5t17.5 -30t5.5 -34.5zM413 489q0 18 -11 33.5t-48 15.5h-57v-96h60q29 0 42.5 12.5t13.5 34.5z" />
    <glyph glyph-name="macron" unicode="&#xaf;" horiz-adv-x="403" 
d="M359 644q0 -13 -8 -21t-20 -8h-255q-13 0 -21.5 8t-8.5 21q0 12 8.5 21t21.5 9h255q12 0 20 -9t8 -21z" />
    <glyph glyph-name="degree" unicode="&#xb0;" horiz-adv-x="392" 
d="M198 447q-66 0 -101.5 39t-35.5 95q0 57 35 96.5t102 39.5t101.5 -39.5t34.5 -96.5q0 -56 -34.5 -95t-101.5 -39zM198 495q82 0 82 88q0 42 -20 64t-62 22t-62.5 -22t-20.5 -64q0 -88 83 -88z" />
    <glyph glyph-name="plusminus" unicode="&#xb1;" horiz-adv-x="500" 
d="M220 354h-171q-14 0 -23 9t-9 22q0 14 10 23.5t22 9.5h171v181q0 12 9.5 22t23.5 10q13 0 22 -9t9 -23v-181h172q12 0 22 -9.5t10 -23.5q0 -13 -9.5 -22t-22.5 -9h-172v-182q0 -14 -9 -23t-22 -9q-14 0 -23.5 9.5t-9.5 22.5v182zM456 65q12 0 22 -9t10 -23t-9.5 -23
t-22.5 -9h-407q-14 0 -23 9t-9 23t10 23t22 9h407z" />
    <glyph glyph-name="twosuperior" unicode="&#xb2;" 
d="M227 411q0 -10 -7 -15.5t-15 -5.5h-162q-12 0 -19.5 6t-7.5 17q0 4 1 9.5t4 11.5q14 34 38.5 61t49.5 51l21.5 22.5l21.5 23.5q10 9 18 24t8 33q0 26 -14 42.5t-42 16.5q-11 0 -22 -2.5t-22 -6.5l-13 -6l-9 -4.5t-10 -2.5q-8 0 -16.5 6t-8.5 15q0 8 2 11.5t4 5.5
q26 17 49 23.5t46 6.5q50 0 76.5 -28.5t26.5 -70.5q0 -32 -10 -55t-24 -40q-7 -8 -15.5 -16.5l-16.5 -16.5l-10 -10q-21 -20 -40 -40t-31 -41h127q8 0 15 -7t7 -18z" />
    <glyph glyph-name="threesuperior" unicode="&#xb3;" 
d="M132 599q39 -3 65.5 -29t26.5 -71q0 -19 -6 -39.5t-18.5 -37t-32 -27t-47.5 -10.5q-7 0 -24 1.5t-33.5 5.5t-29.5 11.5t-13 20.5q0 11 6.5 18t17.5 7q3 0 15 -6q9 -5 21 -9.5t31 -4.5t31.5 6.5t20 16t10.5 22t3 24.5q0 32 -18 46t-44 14q-11 0 -17 -3l-3 -2q-1 -1 -8 -1
q-13 0 -19 12.5t2 23.5l82 108h-99q-11 0 -18.5 6t-7.5 16q0 11 7.5 19t18.5 8h137q24 0 24 -29q0 -5 -0.5 -10t-2.5 -7z" />
    <glyph glyph-name="acute" unicode="&#xb4;" horiz-adv-x="276" 
d="M175 716q5 5 10 9.5t13 4.5q11 0 18 -8.5t7 -18.5q0 -7 -3 -12l-82 -87q-8 -8 -13.5 -12.5t-13.5 -4.5q-11 0 -19 8.5t-8 19.5q0 5 4 10z" />
    <glyph glyph-name="periodcentered" unicode="&#xb7;" horiz-adv-x="255" 
d="M172 273q0 -20 -13.5 -33.5t-33.5 -13.5q-19 0 -33 13.5t-14 33.5q0 19 14 33t33 14q20 0 33.5 -14t13.5 -33z" />
    <glyph glyph-name="cedilla" unicode="&#xb8;" horiz-adv-x="300" 
d="M240 -132q0 -23 -12 -40.5t-30.5 -29t-42 -15.5t-47.5 1q-20 4 -35.5 14.5t-7.5 22.5q4 6 10 5.5t17 -2.5l19 -4q20 -4 34.5 -0.5t24.5 11t14.5 18.5t4.5 22q0 25 -21.5 32.5t-46.5 9.5q-23 2 -28 6.5t-3 18.5l13 68h35l-10 -61q61 0 86.5 -23t25.5 -54z" />
    <glyph glyph-name="onesuperior" unicode="&#xb9;" 
d="M127 685l-52 -36q-6 -4 -11.5 -6.5t-11.5 -2.5q-10 0 -17 6.5t-7 14.5q0 12 13 22l97 61q8 5 14 5q11 0 18 -7.5t7 -19.5v-315q0 -8 -7 -15t-17 -7q-11 0 -18.5 7t-7.5 15v278z" />
    <glyph glyph-name="ordmasculine" unicode="&#xba;" horiz-adv-x="384" 
d="M194 355q-69 0 -103.5 39.5t-34.5 99.5v81q0 60 35 100.5t103 40.5t102.5 -40.5t34.5 -100.5v-81q0 -60 -34 -99.5t-103 -39.5zM194 667q-47 0 -66 -25.5t-19 -70.5v-80q0 -42 20 -65t65 -23q44 0 64 23t20 65v80q0 45 -19 70.5t-65 25.5z" />
    <glyph glyph-name="guillemotright" unicode="&#xbb;" horiz-adv-x="431" 
d="M312 256l-137 206q-4 7 -4 15q0 14 10.5 22.5t21.5 8.5t17.5 -6.5t14.5 -17.5l152 -230l-158 -238q-9 -12 -15.5 -17.5t-17.5 -5.5q-16 0 -25 10t-9 24q0 6 4 13zM149 254l-98 150q-4 7 -4 15q0 13 10 22t21 9q12 0 18.5 -6.5t13.5 -17.5l113 -172l-113 -171
q-7 -11 -13.5 -17t-18.5 -6q-11 0 -21 9t-10 21q0 8 4 15z" />
    <glyph glyph-name="questiondown" unicode="&#xbf;" horiz-adv-x="462" 
d="M205 246q4 8 5 20t1 23q0 14 10 24t24 10t23 -10t9 -24q0 -10 -1 -19.5t-4 -17.5q-11 -32 -31.5 -58t-42.5 -51q-18 -18 -33 -39q-22 -26 -40 -61t-18 -74q0 -59 34 -99t101 -40q29 0 54.5 6t45.5 14q5 2 13 6t14 9l16.5 9t14.5 4q11 0 21 -8t10 -22q0 -11 -6.5 -18.5
t-16.5 -14.5q-37 -23 -79 -33.5t-88 -10.5q-47 0 -84 14.5t-62.5 40t-39 59.5t-13.5 73q0 63 20.5 106t52.5 78q15 19 20 23.5l13 11.5l32.5 33.5t24.5 35.5zM197 458q0 20 13.5 34.5t33.5 14.5t33.5 -14.5t13.5 -34.5t-13.5 -33t-33.5 -13t-33.5 13t-13.5 33z" />
    <glyph glyph-name="Agrave" unicode="&#xc0;" horiz-adv-x="549" 
d="M97 15q-5 -9 -14.5 -16.5t-17.5 -7.5q-14 0 -24.5 9t-10.5 24q0 7 2 13l199 630q6 21 16 35t30 14q19 0 29.5 -14.5t17.5 -34.5l199 -630q0 -2 0.5 -6t0.5 -7q0 -15 -10 -24t-25 -9q-9 0 -19 6.5t-13 17.5l-46 148h-269zM161 228h231l-115 379zM301 825q4 -4 4 -10
q0 -12 -8 -20t-18 -8q-8 0 -14.5 4t-13.5 12l-81 88q-4 5 -4 12q0 11 8 19t16 8t13 -4l12 -10z" />
    <glyph glyph-name="Aacute" unicode="&#xc1;" horiz-adv-x="549" 
d="M97 15q-5 -9 -14.5 -16.5t-17.5 -7.5q-14 0 -24.5 9t-10.5 24q0 7 2 13l199 630q6 21 16 35t30 14q19 0 29.5 -14.5t17.5 -34.5l199 -630q0 -2 0.5 -6t0.5 -7q0 -15 -10 -24t-25 -9q-9 0 -19 6.5t-13 17.5l-46 148h-269zM161 228h231l-115 379zM340 916q5 5 10 9.5
t13 4.5q11 0 18 -8.5t7 -18.5q0 -7 -3 -12l-82 -87q-8 -8 -13.5 -12.5t-13.5 -4.5q-11 0 -19 8.5t-8 19.5q0 5 4 10z" />
    <glyph glyph-name="Acircumflex" unicode="&#xc2;" horiz-adv-x="549" 
d="M97 15q-5 -9 -14.5 -16.5t-17.5 -7.5q-14 0 -24.5 9t-10.5 24q0 7 2 13l199 630q6 21 16 35t30 14q19 0 29.5 -14.5t17.5 -34.5l199 -630q0 -2 0.5 -6t0.5 -7q0 -15 -10 -24t-25 -9q-9 0 -19 6.5t-13 17.5l-46 148h-269zM161 228h231l-115 379zM193 785q-1 -2 -5.5 -2.5
t-7.5 -0.5q-7 0 -12.5 6t-5.5 13q0 5 5 12t11 12l81 69q3 2 7.5 4.5t9.5 2.5q10 0 17 -7l81 -69q5 -5 10.5 -12t5.5 -12q0 -7 -5.5 -13t-13.5 -6q-3 0 -7 0.5t-5 2.5l-83 68z" />
    <glyph glyph-name="Atilde" unicode="&#xc3;" horiz-adv-x="549" 
d="M97 15q-5 -9 -14.5 -16.5t-17.5 -7.5q-14 0 -24.5 9t-10.5 24q0 7 2 13l199 630q6 21 16 35t30 14q19 0 29.5 -14.5t17.5 -34.5l199 -630q0 -2 0.5 -6t0.5 -7q0 -15 -10 -24t-25 -9q-9 0 -19 6.5t-13 17.5l-46 148h-269zM161 228h231l-115 379zM409 856q0 -12 -7 -21.5
t-18.5 -17t-25 -11.5t-26.5 -4q-17 0 -31.5 5.5t-27.5 12.5q-10 5 -18.5 10t-25.5 5q-9 0 -20 -3.5t-25 -14.5q-5 -5 -9 -7t-10 -2q-9 0 -16 5.5t-7 17.5q0 21 23 38.5t52 17.5q15 0 29 -5.5t29 -13.5q13 -7 23 -10t22 -4q20 0 30 5t18 12q4 3 9.5 7.5t11.5 4.5t13 -7t7 -20
z" />
    <glyph glyph-name="Adieresis" unicode="&#xc4;" horiz-adv-x="549" 
d="M97 15q-5 -9 -14.5 -16.5t-17.5 -7.5q-14 0 -24.5 9t-10.5 24q0 7 2 13l199 630q6 21 16 35t30 14q19 0 29.5 -14.5t17.5 -34.5l199 -630q0 -2 0.5 -6t0.5 -7q0 -15 -10 -24t-25 -9q-9 0 -19 6.5t-13 17.5l-46 148h-269zM161 228h231l-115 379zM403 846q0 -18 -11.5 -30
t-28.5 -12t-29.5 12.5t-12.5 29.5q0 16 12.5 28.5t29.5 12.5t28.5 -12t11.5 -29zM230 846q0 -18 -12 -30t-29 -12t-28.5 12.5t-11.5 29.5q0 16 11.5 28.5t28.5 12.5t29 -12t12 -29z" />
    <glyph glyph-name="Aring" unicode="&#xc5;" horiz-adv-x="549" 
d="M382 734q0 -29 -14 -52.5t-37 -38.5l192 -606q0 -2 0.5 -6t0.5 -7q0 -15 -10 -24t-25 -9q-9 0 -19 6.5t-13 17.5l-46 148h-269l-45 -148q-5 -9 -14.5 -16.5t-17.5 -7.5q-14 0 -24.5 9t-10.5 24q0 7 2 13l192 606q-24 16 -38 39.5t-14 51.5q0 21 8.5 40.5t22.5 33.5
t33.5 22.5t41.5 8.5t41 -8t33 -22.5t22 -33.5t8 -41zM161 228h231l-115 379zM346 734q0 28 -19.5 49t-48.5 21t-49.5 -21t-20.5 -49q0 -29 20.5 -49t49.5 -20t48.5 20t19.5 49z" />
    <glyph glyph-name="AE" unicode="&#xc6;" horiz-adv-x="722" 
d="M419 0q-23 0 -40 8.5t-17 31.5v122h-221l-45 -148q-3 -11 -13 -17.5t-18 -6.5q-16 0 -26 9t-10 24q0 7 2 13l197 620q7 21 17 35t29 14h375q14 0 23.5 -10t9.5 -24q0 -13 -9.5 -21.5t-23.5 -8.5h-221v-255h202q12 0 21.5 -9t9.5 -23t-9 -23t-22 -9h-202v-258h231
q14 0 23.5 -9t9.5 -21q0 -15 -9.5 -24.5t-23.5 -9.5h-240zM304 641q-12 0 -15 -3.5t-6 -13.5l-122 -397h201v414h-58z" />
    <glyph glyph-name="Ccedilla" unicode="&#xc7;" horiz-adv-x="482" 
d="M363 -132q0 -24 -12.5 -42t-32 -28.5t-43 -14.5t-45.5 1q-19 4 -34.5 14t-8.5 24v-1q4 6 10.5 5.5t17.5 -2.5l18 -4q20 -5 35 -1.5t24.5 11.5t14.5 19t5 22q0 25 -21 32.5t-47 9.5q-23 2 -28 6.5t-3 18.5l10 57q-89 17 -131 83t-42 166v219q0 57 13.5 104t41 80t69.5 51
t98 18q34 0 65.5 -6.5t55.5 -17.5t38.5 -25.5t14.5 -30.5q0 -12 -8 -20t-21 -8q-7 0 -11.5 2.5t-10.5 6.5q-27 18 -52.5 29t-66.5 11q-45 0 -75 -14t-49 -39.5t-27 -61t-8 -79.5v-219q0 -44 8 -79.5t27 -61t49 -39t75 -13.5q32 0 59 8.5t59 30.5q14 10 23 10q13 0 21 -8.5
t8 -20.5q0 -16 -14.5 -30.5t-39 -25t-55.5 -17t-64 -6.5h-15l-7 -47q60 0 86 -22.5t26 -54.5z" />
    <glyph glyph-name="Egrave" unicode="&#xc8;" horiz-adv-x="474" 
d="M440 35q0 -15 -9.5 -24.5t-23.5 -9.5h-271q-23 0 -40 8.5t-17 31.5v624q0 16 11.5 28.5t29.5 12.5h277q14 0 23 -10t9 -24q0 -13 -9 -21.5t-23 -8.5h-252v-255h232q13 0 22.5 -9t9.5 -23t-9 -23t-23 -9h-232v-258h262q13 0 23 -9t10 -21zM303 825q4 -4 4 -10
q0 -12 -8 -20t-18 -8q-8 0 -14.5 4t-13.5 12l-81 88q-4 5 -4 12q0 11 8 19t16 8t13 -4l12 -10z" />
    <glyph glyph-name="Eacute" unicode="&#xc9;" horiz-adv-x="474" 
d="M440 35q0 -15 -9.5 -24.5t-23.5 -9.5h-271q-23 0 -40 8.5t-17 31.5v624q0 16 11.5 28.5t29.5 12.5h277q14 0 23 -10t9 -24q0 -13 -9 -21.5t-23 -8.5h-252v-255h232q13 0 22.5 -9t9.5 -23t-9 -23t-23 -9h-232v-258h262q13 0 23 -9t10 -21zM300 916q5 5 10 9.5t13 4.5
q11 0 18 -8.5t7 -18.5q0 -7 -3 -12l-82 -87q-8 -8 -13.5 -12.5t-13.5 -4.5q-11 0 -19 8.5t-8 19.5q0 5 4 10z" />
    <glyph glyph-name="Ecircumflex" unicode="&#xca;" horiz-adv-x="474" 
d="M440 35q0 -15 -9.5 -24.5t-23.5 -9.5h-271q-23 0 -40 8.5t-17 31.5v624q0 16 11.5 28.5t29.5 12.5h277q14 0 23 -10t9 -24q0 -13 -9 -21.5t-23 -8.5h-252v-255h232q13 0 22.5 -9t9.5 -23t-9 -23t-23 -9h-232v-258h262q13 0 23 -9t10 -21zM180 785q-1 -2 -5.5 -2.5
t-7.5 -0.5q-7 0 -12.5 6t-5.5 13q0 5 5 12t11 12l81 69q3 2 7.5 4.5t9.5 2.5q10 0 17 -7l81 -69q5 -5 10.5 -12t5.5 -12q0 -7 -5.5 -13t-13.5 -6q-3 0 -7 0.5t-5 2.5l-83 68z" />
    <glyph glyph-name="Edieresis" unicode="&#xcb;" horiz-adv-x="474" 
d="M440 35q0 -15 -9.5 -24.5t-23.5 -9.5h-271q-23 0 -40 8.5t-17 31.5v624q0 16 11.5 28.5t29.5 12.5h277q14 0 23 -10t9 -24q0 -13 -9 -21.5t-23 -8.5h-252v-255h232q13 0 22.5 -9t9.5 -23t-9 -23t-23 -9h-232v-258h262q13 0 23 -9t10 -21zM389 846q0 -18 -11.5 -30
t-28.5 -12t-29.5 12.5t-12.5 29.5q0 16 12.5 28.5t29.5 12.5t28.5 -12t11.5 -29zM216 846q0 -18 -12 -30t-29 -12t-28.5 12.5t-11.5 29.5q0 16 11.5 28.5t28.5 12.5t29 -12t12 -29z" />
    <glyph glyph-name="Igrave" unicode="&#xcc;" horiz-adv-x="227" 
d="M80 683q0 13 10 23t24 10t23.5 -10t9.5 -23v-659q0 -14 -9.5 -23.5t-23.5 -9.5t-24 9.5t-10 23.5v659zM153 825q4 -4 4 -10q0 -12 -8 -20t-18 -8q-8 0 -14.5 4t-13.5 12l-81 88q-4 5 -4 12q0 11 8 19t16 8t13 -4l12 -10z" />
    <glyph glyph-name="Iacute" unicode="&#xcd;" horiz-adv-x="227" 
d="M80 683q0 13 10 23t24 10t23.5 -10t9.5 -23v-659q0 -14 -9.5 -23.5t-23.5 -9.5t-24 9.5t-10 23.5v659zM163 916q5 5 10 9.5t13 4.5q11 0 18 -8.5t7 -18.5q0 -7 -3 -12l-82 -87q-8 -8 -13.5 -12.5t-13.5 -4.5q-11 0 -19 8.5t-8 19.5q0 5 4 10z" />
    <glyph glyph-name="Icircumflex" unicode="&#xce;" horiz-adv-x="227" 
d="M80 683q0 13 10 23t24 10t23.5 -10t9.5 -23v-659q0 -14 -9.5 -23.5t-23.5 -9.5t-24 9.5t-10 23.5v659zM33 785q-1 -2 -5.5 -2.5t-7.5 -0.5q-7 0 -12.5 6t-5.5 13q0 5 5 12t11 12l81 69q3 2 7.5 4.5t9.5 2.5q10 0 17 -7l81 -69q5 -5 10.5 -12t5.5 -12q0 -7 -5.5 -13
t-13.5 -6q-3 0 -7 0.5t-5 2.5l-83 68z" />
    <glyph glyph-name="Idieresis" unicode="&#xcf;" horiz-adv-x="227" 
d="M80 683q0 13 10 23t24 10t23.5 -10t9.5 -23v-659q0 -14 -9.5 -23.5t-23.5 -9.5t-24 9.5t-10 23.5v659zM242 846q0 -18 -11.5 -30t-28.5 -12t-29.5 12.5t-12.5 29.5q0 16 12.5 28.5t29.5 12.5t28.5 -12t11.5 -29zM69 846q0 -18 -12 -30t-29 -12t-28.5 12.5t-11.5 29.5
q0 16 11.5 28.5t28.5 12.5t29 -12t12 -29z" />
    <glyph glyph-name="Eth" unicode="&#xd0;" horiz-adv-x="574" 
d="M528 263q0 -51 -14 -98.5t-45.5 -83.5t-83.5 -58t-128 -22h-116q-17 0 -29.5 12t-12.5 29v283h-47q-13 0 -21.5 8t-8.5 21q0 12 8.5 21t21.5 9h47v281q0 17 12.5 29.5t29.5 12.5h116q76 0 127.5 -21t83.5 -56t46 -80.5t14 -95.5v-191zM335 354q0 -13 -8 -21t-20 -8h-141
v-260h108q53 0 88.5 15.5t58 42.5t32 63t9.5 77v191q0 39 -10 73.5t-32.5 60t-58 40.5t-87.5 15h-108v-259h141q12 0 20 -9t8 -21z" />
    <glyph glyph-name="Ntilde" unicode="&#xd1;" horiz-adv-x="600" 
d="M489 -9q-10 0 -20 5t-15 14l-309 571v-556q0 -14 -10 -24t-24 -10t-23.5 10t-9.5 24v653q0 17 10.5 27.5t26.5 10.5q25 0 36 -21l309 -572v559q0 14 10 24t24 10t23 -10t9 -24v-654q0 -16 -10 -26.5t-27 -10.5zM435 856q0 -12 -7 -21.5t-18.5 -17t-25 -11.5t-26.5 -4
q-17 0 -31.5 5.5t-27.5 12.5q-10 5 -18.5 10t-25.5 5q-9 0 -20 -3.5t-25 -14.5q-5 -5 -9 -7t-10 -2q-9 0 -16 5.5t-7 17.5q0 21 23 38.5t52 17.5q15 0 29 -5.5t29 -13.5q13 -7 23 -10t22 -4q20 0 30 5t18 12q4 3 9.5 7.5t11.5 4.5t13 -7t7 -20z" />
    <glyph glyph-name="Ograve" unicode="&#xd2;" horiz-adv-x="551" 
d="M278 -9q-57 0 -99.5 19.5t-71 54t-43 80.5t-14.5 99v219q0 52 12.5 98t40 80.5t71 54.5t104.5 20t104 -20t70.5 -54.5t40 -80.5t12.5 -98v-219q0 -53 -14 -99t-42.5 -80.5t-71 -54t-99.5 -19.5zM278 652q-45 0 -75.5 -13.5t-49.5 -38.5t-27.5 -60t-8.5 -77v-219
q0 -42 9.5 -76.5t29.5 -59.5t50.5 -39t71.5 -14t71.5 14t50 39t29 59.5t9.5 76.5v219q0 42 -8.5 77t-27.5 60t-49.5 38.5t-74.5 13.5zM321 825q4 -4 4 -10q0 -12 -8 -20t-18 -8q-8 0 -14.5 4t-13.5 12l-81 88q-4 5 -4 12q0 11 8 19t16 8t13 -4l12 -10z" />
    <glyph glyph-name="Oacute" unicode="&#xd3;" horiz-adv-x="551" 
d="M278 -9q-57 0 -99.5 19.5t-71 54t-43 80.5t-14.5 99v219q0 52 12.5 98t40 80.5t71 54.5t104.5 20t104 -20t70.5 -54.5t40 -80.5t12.5 -98v-219q0 -53 -14 -99t-42.5 -80.5t-71 -54t-99.5 -19.5zM278 652q-45 0 -75.5 -13.5t-49.5 -38.5t-27.5 -60t-8.5 -77v-219
q0 -42 9.5 -76.5t29.5 -59.5t50.5 -39t71.5 -14t71.5 14t50 39t29 59.5t9.5 76.5v219q0 42 -8.5 77t-27.5 60t-49.5 38.5t-74.5 13.5zM327 916q5 5 10 9.5t13 4.5q11 0 18 -8.5t7 -18.5q0 -7 -3 -12l-82 -87q-8 -8 -13.5 -12.5t-13.5 -4.5q-11 0 -19 8.5t-8 19.5q0 5 4 10z
" />
    <glyph glyph-name="Ocircumflex" unicode="&#xd4;" horiz-adv-x="551" 
d="M278 -9q-57 0 -99.5 19.5t-71 54t-43 80.5t-14.5 99v219q0 52 12.5 98t40 80.5t71 54.5t104.5 20t104 -20t70.5 -54.5t40 -80.5t12.5 -98v-219q0 -53 -14 -99t-42.5 -80.5t-71 -54t-99.5 -19.5zM278 652q-45 0 -75.5 -13.5t-49.5 -38.5t-27.5 -60t-8.5 -77v-219
q0 -42 9.5 -76.5t29.5 -59.5t50.5 -39t71.5 -14t71.5 14t50 39t29 59.5t9.5 76.5v219q0 42 -8.5 77t-27.5 60t-49.5 38.5t-74.5 13.5zM194 785q-1 -2 -5.5 -2.5t-7.5 -0.5q-7 0 -12.5 6t-5.5 13q0 5 5 12t11 12l81 69q3 2 7.5 4.5t9.5 2.5q10 0 17 -7l81 -69q5 -5 10.5 -12
t5.5 -12q0 -7 -5.5 -13t-13.5 -6q-3 0 -7 0.5t-5 2.5l-83 68z" />
    <glyph glyph-name="Otilde" unicode="&#xd5;" horiz-adv-x="551" 
d="M278 -9q-57 0 -99.5 19.5t-71 54t-43 80.5t-14.5 99v219q0 52 12.5 98t40 80.5t71 54.5t104.5 20t104 -20t70.5 -54.5t40 -80.5t12.5 -98v-219q0 -53 -14 -99t-42.5 -80.5t-71 -54t-99.5 -19.5zM278 652q-45 0 -75.5 -13.5t-49.5 -38.5t-27.5 -60t-8.5 -77v-219
q0 -42 9.5 -76.5t29.5 -59.5t50.5 -39t71.5 -14t71.5 14t50 39t29 59.5t9.5 76.5v219q0 42 -8.5 77t-27.5 60t-49.5 38.5t-74.5 13.5zM410 856q0 -12 -7 -21.5t-18.5 -17t-25 -11.5t-26.5 -4q-17 0 -31.5 5.5t-27.5 12.5q-10 5 -18.5 10t-25.5 5q-9 0 -20 -3.5t-25 -14.5
q-5 -5 -9 -7t-10 -2q-9 0 -16 5.5t-7 17.5q0 21 23 38.5t52 17.5q15 0 29 -5.5t29 -13.5q13 -7 23 -10t22 -4q20 0 30 5t18 12q4 3 9.5 7.5t11.5 4.5t13 -7t7 -20z" />
    <glyph glyph-name="Odieresis" unicode="&#xd6;" horiz-adv-x="551" 
d="M278 -9q-57 0 -99.5 19.5t-71 54t-43 80.5t-14.5 99v219q0 52 12.5 98t40 80.5t71 54.5t104.5 20t104 -20t70.5 -54.5t40 -80.5t12.5 -98v-219q0 -53 -14 -99t-42.5 -80.5t-71 -54t-99.5 -19.5zM278 652q-45 0 -75.5 -13.5t-49.5 -38.5t-27.5 -60t-8.5 -77v-219
q0 -42 9.5 -76.5t29.5 -59.5t50.5 -39t71.5 -14t71.5 14t50 39t29 59.5t9.5 76.5v219q0 42 -8.5 77t-27.5 60t-49.5 38.5t-74.5 13.5zM404 846q0 -18 -11.5 -30t-28.5 -12t-29.5 12.5t-12.5 29.5q0 16 12.5 28.5t29.5 12.5t28.5 -12t11.5 -29zM231 846q0 -18 -12 -30
t-29 -12t-28.5 12.5t-11.5 29.5q0 16 11.5 28.5t28.5 12.5t29 -12t12 -29z" />
    <glyph glyph-name="multiply" unicode="&#xd7;" horiz-adv-x="500" 
d="M299 355l127 -128q10 -12 10 -24q0 -11 -10.5 -21t-21.5 -10q-6 0 -13 2t-11 7l-127 128l-129 -128q-7 -9 -23 -9q-11 0 -21.5 10.5t-10.5 20.5q0 14 10 24l128 128l-128 127q-5 5 -7.5 11.5t-2.5 12.5q0 10 11 21t21 11q14 0 24 -10l128 -127l127 127q6 6 12 8t12 2
q9 0 20.5 -9.5t11.5 -22.5q0 -14 -10 -24z" />
    <glyph glyph-name="Oslash" unicode="&#xd8;" horiz-adv-x="551" 
d="M82 104q-32 67 -32 140v219q0 52 12.5 98t40 80.5t71 54.5t104.5 20q60 0 103 -20.5t74 -56.5l43 60q5 7 12.5 8.5t14.5 -3.5q6 -5 7.5 -12t-3.5 -15l-53 -75q15 -31 22 -66t7 -73v-219q0 -53 -14 -99t-42.5 -80.5t-71 -54t-99.5 -19.5q-56 0 -99.5 20t-75.5 57l-43 -61
q-5 -7 -12.5 -8.5t-14.5 3.5q-6 5 -8 12t4 15zM278 652q-45 0 -75.5 -13.5t-50 -38.5t-28 -60t-8.5 -77v-219q0 -14 2.5 -31.5t8.5 -43.5l288 411q-20 34 -53 53t-84 19zM438 463q0 30 -8 73l-287 -410q20 -33 54 -52t81 -19q41 0 71.5 14t50 39t29 59.5t9.5 76.5v219z" />
    <glyph glyph-name="Ugrave" unicode="&#xd9;" horiz-adv-x="572" 
d="M507 228q0 -51 -15 -94.5t-43 -75t-68.5 -49.5t-91.5 -18q-53 0 -94 18t-68.5 49.5t-42 75t-14.5 94.5v452q0 16 10.5 26t24.5 10t23 -10.5t9 -25.5v-452q0 -76 37.5 -124.5t114.5 -48.5q39 0 67 13t46.5 36t27.5 55t9 69v452q0 14 9.5 25t23.5 11t24.5 -11t10.5 -25
v-452zM318 825q4 -4 4 -10q0 -12 -8 -20t-18 -8q-8 0 -14.5 4t-13.5 12l-81 88q-4 5 -4 12q0 11 8 19t16 8t13 -4l12 -10z" />
    <glyph glyph-name="Uacute" unicode="&#xda;" horiz-adv-x="572" 
d="M507 228q0 -51 -15 -94.5t-43 -75t-68.5 -49.5t-91.5 -18q-53 0 -94 18t-68.5 49.5t-42 75t-14.5 94.5v452q0 16 10.5 26t24.5 10t23 -10.5t9 -25.5v-452q0 -76 37.5 -124.5t114.5 -48.5q39 0 67 13t46.5 36t27.5 55t9 69v452q0 14 9.5 25t23.5 11t24.5 -11t10.5 -25
v-452zM344 916q5 5 10 9.5t13 4.5q11 0 18 -8.5t7 -18.5q0 -7 -3 -12l-82 -87q-8 -8 -13.5 -12.5t-13.5 -4.5q-11 0 -19 8.5t-8 19.5q0 5 4 10z" />
    <glyph glyph-name="Ucircumflex" unicode="&#xdb;" horiz-adv-x="572" 
d="M507 228q0 -51 -15 -94.5t-43 -75t-68.5 -49.5t-91.5 -18q-53 0 -94 18t-68.5 49.5t-42 75t-14.5 94.5v452q0 16 10.5 26t24.5 10t23 -10.5t9 -25.5v-452q0 -76 37.5 -124.5t114.5 -48.5q39 0 67 13t46.5 36t27.5 55t9 69v452q0 14 9.5 25t23.5 11t24.5 -11t10.5 -25
v-452zM205 785q-1 -2 -5.5 -2.5t-7.5 -0.5q-7 0 -12.5 6t-5.5 13q0 5 5 12t11 12l81 69q3 2 7.5 4.5t9.5 2.5q10 0 17 -7l81 -69q5 -5 10.5 -12t5.5 -12q0 -7 -5.5 -13t-13.5 -6q-3 0 -7 0.5t-5 2.5l-83 68z" />
    <glyph glyph-name="Udieresis" unicode="&#xdc;" horiz-adv-x="572" 
d="M507 228q0 -51 -15 -94.5t-43 -75t-68.5 -49.5t-91.5 -18q-53 0 -94 18t-68.5 49.5t-42 75t-14.5 94.5v452q0 16 10.5 26t24.5 10t23 -10.5t9 -25.5v-452q0 -76 37.5 -124.5t114.5 -48.5q39 0 67 13t46.5 36t27.5 55t9 69v452q0 14 9.5 25t23.5 11t24.5 -11t10.5 -25
v-452zM414 846q0 -18 -11.5 -30t-28.5 -12t-29.5 12.5t-12.5 29.5q0 16 12.5 28.5t29.5 12.5t28.5 -12t11.5 -29zM241 846q0 -18 -12 -30t-29 -12t-28.5 12.5t-11.5 29.5q0 16 11.5 28.5t28.5 12.5t29 -12t12 -29z" />
    <glyph glyph-name="Yacute" unicode="&#xdd;" horiz-adv-x="476" 
d="M241 -9q-15 0 -25 10t-10 25v253l-182 386q-4 10 -4 17q0 14 10.5 24t24.5 10q7 0 13.5 -3t10.5 -10v1l162 -351l161 351v-1q7 13 25 13q13 0 23 -10t10 -24q0 -4 -1 -9t-2 -8l-183 -390v-249q0 -14 -9.5 -24.5t-23.5 -10.5zM261 916q5 5 10 9.5t13 4.5q11 0 18 -8.5
t7 -18.5q0 -7 -3 -12l-82 -87q-8 -8 -13.5 -12.5t-13.5 -4.5q-11 0 -19 8.5t-8 19.5q0 5 4 10z" />
    <glyph glyph-name="Thorn" unicode="&#xde;" horiz-adv-x="530" 
d="M79 683q0 13 9.5 23t23.5 10t23.5 -10t9.5 -23v-99h126q61 0 103 -18.5t68.5 -49.5t38 -71t11.5 -83q0 -106 -59.5 -162t-161.5 -56h-126v-120q0 -14 -9.5 -23.5t-23.5 -9.5t-23.5 9.5t-9.5 23.5v659zM145 208h126q77 0 116 37.5t39 117.5q0 29 -6.5 57t-23.5 50.5
t-47.5 36t-77.5 13.5h-126v-312z" />
    <glyph glyph-name="germandbls" unicode="&#xdf;" horiz-adv-x="544" 
d="M516 161q0 -76 -45 -120t-130 -44q-9 0 -29.5 0.5t-41.5 4.5t-37.5 12t-16.5 22q0 10 7 20t27 10q14 0 37 -5l26 -4t27 -2q19 0 38.5 5.5t35.5 18t26.5 32.5t10.5 48q0 33 -14 58.5t-35 43.5t-46 29.5t-47 18.5q-13 4 -27 9t-25 12t-18 17.5t-7 25.5q0 23 10.5 35.5
t24.5 19.5l47.5 23.5t39 25t26.5 32t10 45.5q0 53 -34.5 79.5t-88.5 26.5q-66 0 -95 -38t-29 -117v-539q0 -14 -9.5 -23t-22.5 -9q-14 0 -23.5 9t-9.5 23v536q0 103 50 160t145 57q39 0 72 -10t57 -30t37.5 -49t13.5 -67q0 -53 -23.5 -87t-60.5 -51q-9 -4 -22.5 -8.5
t-25 -10.5t-19 -13.5t-4.5 -16.5q4 -10 17.5 -15.5t53.5 -19.5q31 -12 58 -28t46.5 -38t31 -50t11.5 -64z" />
    <glyph glyph-name="agrave" unicode="&#xe0;" horiz-adv-x="482" 
d="M335 341q0 119 -117 119q-28 0 -46 -5.5t-35 -16.5q-5 -3 -10.5 -5.5t-13.5 -2.5q-11 0 -16 8.5t-6 17.5q-1 16 10.5 27t31.5 18t45 10.5t50 3.5q93 0 132.5 -51t39.5 -150v-226q0 -39 27 -39q3 0 4.5 0.5t3.5 0.5q11 0 16.5 -8.5t5.5 -18.5q0 -15 -12 -21t-26 -6
q-23 0 -42.5 15.5t-33.5 41.5q-63 -60 -143 -60q-76 0 -113 40.5t-37 106.5v4q0 146 174 146q26 0 54 -5t57 -13v69zM223 237q-34 0 -55.5 -7.5t-33.5 -20.5t-16 -30t-4 -36v-4q0 -39 21 -64.5t78 -25.5q35 0 64 12t58 37v120q-30 10 -59.5 14.5t-52.5 4.5zM287 625
q4 -4 4 -10q0 -12 -8 -20t-18 -8q-8 0 -14.5 4t-13.5 12l-81 88q-4 5 -4 12q0 11 8 19t16 8t13 -4l12 -10z" />
    <glyph glyph-name="aacute" unicode="&#xe1;" horiz-adv-x="482" 
d="M335 341q0 119 -117 119q-28 0 -46 -5.5t-35 -16.5q-5 -3 -10.5 -5.5t-13.5 -2.5q-11 0 -16 8.5t-6 17.5q-1 16 10.5 27t31.5 18t45 10.5t50 3.5q93 0 132.5 -51t39.5 -150v-226q0 -39 27 -39q3 0 4.5 0.5t3.5 0.5q11 0 16.5 -8.5t5.5 -18.5q0 -15 -12 -21t-26 -6
q-23 0 -42.5 15.5t-33.5 41.5q-63 -60 -143 -60q-76 0 -113 40.5t-37 106.5v4q0 146 174 146q26 0 54 -5t57 -13v69zM223 237q-34 0 -55.5 -7.5t-33.5 -20.5t-16 -30t-4 -36v-4q0 -39 21 -64.5t78 -25.5q35 0 64 12t58 37v120q-30 10 -59.5 14.5t-52.5 4.5zM293 716
q5 5 10 9.5t13 4.5q11 0 18 -8.5t7 -18.5q0 -7 -3 -12l-82 -87q-8 -8 -13.5 -12.5t-13.5 -4.5q-11 0 -19 8.5t-8 19.5q0 5 4 10z" />
    <glyph glyph-name="acircumflex" unicode="&#xe2;" horiz-adv-x="482" 
d="M335 341q0 119 -117 119q-28 0 -46 -5.5t-35 -16.5q-5 -3 -10.5 -5.5t-13.5 -2.5q-11 0 -16 8.5t-6 17.5q-1 16 10.5 27t31.5 18t45 10.5t50 3.5q93 0 132.5 -51t39.5 -150v-226q0 -39 27 -39q3 0 4.5 0.5t3.5 0.5q11 0 16.5 -8.5t5.5 -18.5q0 -15 -12 -21t-26 -6
q-23 0 -42.5 15.5t-33.5 41.5q-63 -60 -143 -60q-76 0 -113 40.5t-37 106.5v4q0 146 174 146q26 0 54 -5t57 -13v69zM223 237q-34 0 -55.5 -7.5t-33.5 -20.5t-16 -30t-4 -36v-4q0 -39 21 -64.5t78 -25.5q35 0 64 12t58 37v120q-30 10 -59.5 14.5t-52.5 4.5zM160 585
q-1 -2 -5.5 -2.5t-7.5 -0.5q-7 0 -12.5 6t-5.5 13q0 5 5 12t11 12l81 69q3 2 7.5 4.5t9.5 2.5q10 0 17 -7l81 -69q5 -5 10.5 -12t5.5 -12q0 -7 -5.5 -13t-13.5 -6q-3 0 -7 0.5t-5 2.5l-83 68z" />
    <glyph glyph-name="atilde" unicode="&#xe3;" horiz-adv-x="482" 
d="M335 341q0 119 -117 119q-28 0 -46 -5.5t-35 -16.5q-5 -3 -10.5 -5.5t-13.5 -2.5q-11 0 -16 8.5t-6 17.5q-1 16 10.5 27t31.5 18t45 10.5t50 3.5q93 0 132.5 -51t39.5 -150v-226q0 -39 27 -39q3 0 4.5 0.5t3.5 0.5q11 0 16.5 -8.5t5.5 -18.5q0 -15 -12 -21t-26 -6
q-23 0 -42.5 15.5t-33.5 41.5q-63 -60 -143 -60q-76 0 -113 40.5t-37 106.5v4q0 146 174 146q26 0 54 -5t57 -13v69zM223 237q-34 0 -55.5 -7.5t-33.5 -20.5t-16 -30t-4 -36v-4q0 -39 21 -64.5t78 -25.5q35 0 64 12t58 37v120q-30 10 -59.5 14.5t-52.5 4.5zM376 656
q0 -12 -7 -21.5t-18.5 -17t-25 -11.5t-26.5 -4q-17 0 -31.5 5.5t-27.5 12.5q-10 5 -18.5 10t-25.5 5q-9 0 -20 -3.5t-25 -14.5q-5 -5 -9 -7t-10 -2q-9 0 -16 5.5t-7 17.5q0 21 23 38.5t52 17.5q15 0 29 -5.5t29 -13.5q13 -7 23 -10t22 -4q20 0 30 5t18 12q4 3 9.5 7.5
t11.5 4.5t13 -7t7 -20z" />
    <glyph glyph-name="adieresis" unicode="&#xe4;" horiz-adv-x="482" 
d="M335 341q0 119 -117 119q-28 0 -46 -5.5t-35 -16.5q-5 -3 -10.5 -5.5t-13.5 -2.5q-11 0 -16 8.5t-6 17.5q-1 16 10.5 27t31.5 18t45 10.5t50 3.5q93 0 132.5 -51t39.5 -150v-226q0 -39 27 -39q3 0 4.5 0.5t3.5 0.5q11 0 16.5 -8.5t5.5 -18.5q0 -15 -12 -21t-26 -6
q-23 0 -42.5 15.5t-33.5 41.5q-63 -60 -143 -60q-76 0 -113 40.5t-37 106.5v4q0 146 174 146q26 0 54 -5t57 -13v69zM223 237q-34 0 -55.5 -7.5t-33.5 -20.5t-16 -30t-4 -36v-4q0 -39 21 -64.5t78 -25.5q35 0 64 12t58 37v120q-30 10 -59.5 14.5t-52.5 4.5zM369 646
q0 -18 -11.5 -30t-28.5 -12t-29.5 12.5t-12.5 29.5q0 16 12.5 28.5t29.5 12.5t28.5 -12t11.5 -29zM196 646q0 -18 -12 -30t-29 -12t-28.5 12.5t-11.5 29.5q0 16 11.5 28.5t28.5 12.5t29 -12t12 -29z" />
    <glyph glyph-name="aring" unicode="&#xe5;" horiz-adv-x="482" 
d="M335 341q0 119 -117 119q-28 0 -46 -5.5t-35 -16.5q-5 -3 -10.5 -5.5t-13.5 -2.5q-11 0 -16 8.5t-6 17.5q-1 16 10.5 27t31.5 18t45 10.5t50 3.5q93 0 132.5 -51t39.5 -150v-226q0 -39 27 -39q3 0 4.5 0.5t3.5 0.5q11 0 16.5 -8.5t5.5 -18.5q0 -15 -12 -21t-26 -6
q-23 0 -42.5 15.5t-33.5 41.5q-63 -60 -143 -60q-76 0 -113 40.5t-37 106.5v4q0 146 174 146q26 0 54 -5t57 -13v69zM223 237q-34 0 -55.5 -7.5t-33.5 -20.5t-16 -30t-4 -36v-4q0 -39 21 -64.5t78 -25.5q35 0 64 12t58 37v120q-30 10 -59.5 14.5t-52.5 4.5zM338 651
q0 -39 -27 -66t-66 -27q-40 0 -67.5 27t-27.5 66t27.5 66.5t67.5 27.5q39 0 66 -27.5t27 -66.5zM307 651q0 26 -18 45t-44 19t-44.5 -19t-18.5 -45t18.5 -44t44.5 -18t44 18t18 44z" />
    <glyph glyph-name="ae" unicode="&#xe6;" horiz-adv-x="712" 
d="M512 210q-25 0 -54.5 2.5t-59.5 8.5v-71q0 -46 30.5 -74t90.5 -28q35 0 59 8.5t51 20.5q6 3 12 3q11 0 19 -8.5t8 -19.5q0 -17 -17.5 -28.5t-42 -18t-51 -9.5t-44.5 -3q-50 0 -85.5 21t-55.5 56q-38 -39 -80 -58t-93 -19q-76 0 -113.5 40.5t-37.5 106.5v4q0 146 174 146
q26 0 54 -5t58 -13v69q0 119 -118 119q-28 0 -45.5 -6t-34.5 -16q-1 0 -6 -3q-3 -2 -8.5 -3.5t-10.5 -1.5q-11 0 -16 8.5t-6 17.5q-1 16 10.5 27t31.5 18t45 10.5t50 3.5q52 0 86.5 -24t54.5 -72q21 44 59 70t93 26q78 0 118.5 -43.5t40.5 -116.5q0 -68 -39 -106.5
t-127 -38.5zM614 355q0 55 -26.5 79t-74.5 24q-54 0 -84.5 -27.5t-30.5 -74.5v-85q33 -4 67 -6t50 -2q31 0 50.5 8t30 20.5t14.5 29t4 34.5zM334 218q-31 10 -60.5 14.5t-52.5 4.5q-34 0 -55.5 -7.5t-33.5 -20.5t-16 -30t-4 -36v-4q0 -39 21 -64.5t78 -25.5q35 0 64 12
t59 37v120z" />
    <glyph glyph-name="ccedilla" unicode="&#xe7;" horiz-adv-x="393" 
d="M333 -139q0 -30 -25.5 -54.5t-78.5 -24.5q-26 0 -30 1q-20 2 -35.5 13t-7.5 25v-1q4 6 10 6t17 -3l19 -4q20 -4 35 -0.5t24.5 11t14.5 18t5 20.5q0 23 -17 32.5t-52 11.5q-20 1 -26.5 6t-4.5 19l10 58q-73 12 -107 62t-34 117v156q0 38 10.5 71.5t32 58t55.5 38.5t80 14
q17 0 40 -2.5t44 -9t36 -17t15 -26.5q0 -11 -8 -19t-19 -8q-5 0 -8 0.5t-7 1.5h1q-19 10 -38.5 17.5t-47.5 7.5q-66 0 -93.5 -33.5t-27.5 -93.5v-156q0 -60 27.5 -93t93.5 -33q29 0 48.5 7.5t37.5 16.5h-1q11 3 15 3q11 0 19 -8.5t8 -19.5q0 -15 -14.5 -25.5t-35.5 -17
t-44.5 -9.5t-41.5 -3l-8 -48q64 -1 89 -23.5t25 -59.5z" />
    <glyph glyph-name="egrave" unicode="&#xe8;" horiz-adv-x="435" 
d="M236 48q35 0 59 8.5t51 20.5q2 1 5 2t6 1q12 0 20 -8.5t8 -19.5q0 -17 -17.5 -28.5t-42 -18t-52 -9.5t-47.5 -3q-42 0 -74.5 12.5t-55 34.5t-34.5 52t-12 64v192q0 36 12 66.5t35 53t57 35t78 12.5q82 0 122 -43.5t40 -116.5q0 -68 -39 -106.5t-127 -38.5
q-25 0 -54.5 2.5t-58.5 8.5v-71q0 -46 30.5 -74t90.5 -28zM330 355q0 55 -26.5 79t-74.5 24q-54 0 -84 -27.5t-30 -74.5v-85q32 -5 66.5 -6.5t50.5 -1.5q32 0 51 8t29.5 20.5t14 29t3.5 34.5zM244 625q4 -4 4 -10q0 -12 -8 -20t-18 -8q-8 0 -14.5 4t-13.5 12l-81 88
q-4 5 -4 12q0 11 8 19t16 8t13 -4l12 -10z" />
    <glyph glyph-name="eacute" unicode="&#xe9;" horiz-adv-x="435" 
d="M236 48q35 0 59 8.5t51 20.5q2 1 5 2t6 1q12 0 20 -8.5t8 -19.5q0 -17 -17.5 -28.5t-42 -18t-52 -9.5t-47.5 -3q-42 0 -74.5 12.5t-55 34.5t-34.5 52t-12 64v192q0 36 12 66.5t35 53t57 35t78 12.5q82 0 122 -43.5t40 -116.5q0 -68 -39 -106.5t-127 -38.5
q-25 0 -54.5 2.5t-58.5 8.5v-71q0 -46 30.5 -74t90.5 -28zM330 355q0 55 -26.5 79t-74.5 24q-54 0 -84 -27.5t-30 -74.5v-85q32 -5 66.5 -6.5t50.5 -1.5q32 0 51 8t29.5 20.5t14 29t3.5 34.5zM277 716q5 5 10 9.5t13 4.5q11 0 18 -8.5t7 -18.5q0 -7 -3 -12l-82 -87
q-8 -8 -13.5 -12.5t-13.5 -4.5q-11 0 -19 8.5t-8 19.5q0 5 4 10z" />
    <glyph glyph-name="ecircumflex" unicode="&#xea;" horiz-adv-x="435" 
d="M236 48q35 0 59 8.5t51 20.5q2 1 5 2t6 1q12 0 20 -8.5t8 -19.5q0 -17 -17.5 -28.5t-42 -18t-52 -9.5t-47.5 -3q-42 0 -74.5 12.5t-55 34.5t-34.5 52t-12 64v192q0 36 12 66.5t35 53t57 35t78 12.5q82 0 122 -43.5t40 -116.5q0 -68 -39 -106.5t-127 -38.5
q-25 0 -54.5 2.5t-58.5 8.5v-71q0 -46 30.5 -74t90.5 -28zM330 355q0 55 -26.5 79t-74.5 24q-54 0 -84 -27.5t-30 -74.5v-85q32 -5 66.5 -6.5t50.5 -1.5q32 0 51 8t29.5 20.5t14 29t3.5 34.5zM136 585q-1 -2 -5.5 -2.5t-7.5 -0.5q-7 0 -12.5 6t-5.5 13q0 5 5 12t11 12l81 69
q3 2 7.5 4.5t9.5 2.5q10 0 17 -7l81 -69q5 -5 10.5 -12t5.5 -12q0 -7 -5.5 -13t-13.5 -6q-3 0 -7 0.5t-5 2.5l-83 68z" />
    <glyph glyph-name="edieresis" unicode="&#xeb;" horiz-adv-x="435" 
d="M236 48q35 0 59 8.5t51 20.5q2 1 5 2t6 1q12 0 20 -8.5t8 -19.5q0 -17 -17.5 -28.5t-42 -18t-52 -9.5t-47.5 -3q-42 0 -74.5 12.5t-55 34.5t-34.5 52t-12 64v192q0 36 12 66.5t35 53t57 35t78 12.5q82 0 122 -43.5t40 -116.5q0 -68 -39 -106.5t-127 -38.5
q-25 0 -54.5 2.5t-58.5 8.5v-71q0 -46 30.5 -74t90.5 -28zM330 355q0 55 -26.5 79t-74.5 24q-54 0 -84 -27.5t-30 -74.5v-85q32 -5 66.5 -6.5t50.5 -1.5q32 0 51 8t29.5 20.5t14 29t3.5 34.5zM346 646q0 -18 -11.5 -30t-28.5 -12t-29.5 12.5t-12.5 29.5q0 16 12.5 28.5
t29.5 12.5t28.5 -12t11.5 -29zM173 646q0 -18 -12 -30t-29 -12t-28.5 12.5t-11.5 29.5q0 16 11.5 28.5t28.5 12.5t29 -12t12 -29z" />
    <glyph glyph-name="igrave" unicode="&#xec;" horiz-adv-x="245" 
d="M156 25q0 -14 -9.5 -23t-22.5 -9q-14 0 -23.5 9t-9.5 23v454q0 14 9.5 23.5t23.5 9.5q13 0 22.5 -9.5t9.5 -23.5v-454zM157 625q4 -4 4 -10q0 -12 -8 -20t-18 -8q-8 0 -14.5 4t-13.5 12l-81 88q-4 5 -4 12q0 11 8 19t16 8t13 -4l12 -10z" />
    <glyph glyph-name="iacute" unicode="&#xed;" horiz-adv-x="245" 
d="M156 25q0 -14 -9.5 -23t-22.5 -9q-14 0 -23.5 9t-9.5 23v454q0 14 9.5 23.5t23.5 9.5q13 0 22.5 -9.5t9.5 -23.5v-454zM180 716q5 5 10 9.5t13 4.5q11 0 18 -8.5t7 -18.5q0 -7 -3 -12l-82 -87q-8 -8 -13.5 -12.5t-13.5 -4.5q-11 0 -19 8.5t-8 19.5q0 5 4 10z" />
    <glyph glyph-name="icircumflex" unicode="&#xee;" horiz-adv-x="245" 
d="M156 25q0 -14 -9.5 -23t-22.5 -9q-14 0 -23.5 9t-9.5 23v454q0 14 9.5 23.5t23.5 9.5q13 0 22.5 -9.5t9.5 -23.5v-454zM42 585q-1 -2 -5.5 -2.5t-7.5 -0.5q-7 0 -12.5 6t-5.5 13q0 5 5 12t11 12l81 69q3 2 7.5 4.5t9.5 2.5q10 0 17 -7l81 -69q5 -5 10.5 -12t5.5 -12
q0 -7 -5.5 -13t-13.5 -6q-3 0 -7 0.5t-5 2.5l-83 68z" />
    <glyph glyph-name="idieresis" unicode="&#xef;" horiz-adv-x="245" 
d="M156 25q0 -14 -9.5 -23t-22.5 -9q-14 0 -23.5 9t-9.5 23v454q0 14 9.5 23.5t23.5 9.5q13 0 22.5 -9.5t9.5 -23.5v-454zM251 646q0 -18 -11.5 -30t-28.5 -12t-29.5 12.5t-12.5 29.5q0 16 12.5 28.5t29.5 12.5t28.5 -12t11.5 -29zM78 646q0 -18 -12 -30t-29 -12t-28.5 12.5
t-11.5 29.5q0 16 11.5 28.5t28.5 12.5t29 -12t12 -29z" />
    <glyph glyph-name="eth" unicode="&#xf0;" horiz-adv-x="500" 
d="M478 677q8 0 13 -5.5t6.5 -12.5t-1 -14t-9.5 -11l-69 -36q20 -51 31.5 -118t11.5 -152q0 -102 -14 -167.5t-40 -103t-62.5 -52t-82.5 -14.5q-57 0 -98 17t-67.5 46t-39 69.5t-12.5 86.5q0 47 12 88t35 72t58 48.5t80 17.5q29 0 74 -11.5t88 -45.5q0 66 -7 112t-18 78
l-75 -40q-8 -4 -13 -5t-7 -1q-8 0 -15.5 7.5t-5.5 16.5q2 13 12 19l82 44q-29 32 -58.5 41t-56.5 12q-8 1 -16.5 5t-6.5 21q1 14 10.5 20.5t39.5 6.5q87 0 141 -78l61 33q12 6 19 6zM394 314q-13 14 -32.5 26t-41.5 20t-43.5 12.5t-39.5 4.5q-60 0 -93.5 -43t-33.5 -119
q0 -34 8 -64t25.5 -52t45.5 -34.5t68 -12.5q78 0 107.5 54.5t29.5 175.5v32z" />
    <glyph glyph-name="ntilde" unicode="&#xf1;" horiz-adv-x="509" 
d="M129 464q37 26 75 37.5t75 11.5q78 0 116.5 -51t38.5 -136v-301q0 -14 -8 -22.5t-24 -8.5t-24.5 8.5t-8.5 22.5v301q0 63 -25.5 97t-76.5 34q-32 0 -62.5 -13t-59.5 -35q3 -16 3 -34v-350q0 -14 -8 -22.5t-24 -8.5q-17 0 -25 8.5t-8 22.5v350q0 26 -3.5 43.5t-14.5 32.5
q-6 8 -6 17q0 13 9 21t20 8q10 0 21.5 -8t19.5 -25zM378 656q0 -12 -7 -21.5t-18.5 -17t-25 -11.5t-26.5 -4q-17 0 -31.5 5.5t-27.5 12.5q-10 5 -18.5 10t-25.5 5q-9 0 -20 -3.5t-25 -14.5q-5 -5 -9 -7t-10 -2q-9 0 -16 5.5t-7 17.5q0 21 23 38.5t52 17.5q15 0 29 -5.5
t29 -13.5q13 -7 23 -10t22 -4q20 0 30 5t18 12q4 3 9.5 7.5t11.5 4.5t13 -7t7 -20z" />
    <glyph glyph-name="ograve" unicode="&#xf2;" horiz-adv-x="464" 
d="M235 -7q-45 0 -79.5 13.5t-58 37t-35.5 55.5t-12 69v172q0 37 12 69t35.5 56t58 37.5t79.5 13.5t80 -13.5t58 -37.5t35 -56t12 -69v-172q0 -37 -12 -69t-35 -55.5t-58 -37t-80 -13.5zM235 52q60 0 90 31t30 85v173q0 54 -30 85.5t-90 31.5t-90 -31.5t-30 -85.5v-173
q0 -54 30 -85t90 -31zM271 625q4 -4 4 -10q0 -12 -8 -20t-18 -8q-8 0 -14.5 4t-13.5 12l-81 88q-4 5 -4 12q0 11 8 19t16 8t13 -4l12 -10z" />
    <glyph glyph-name="oacute" unicode="&#xf3;" horiz-adv-x="464" 
d="M235 -7q-45 0 -79.5 13.5t-58 37t-35.5 55.5t-12 69v172q0 37 12 69t35.5 56t58 37.5t79.5 13.5t80 -13.5t58 -37.5t35 -56t12 -69v-172q0 -37 -12 -69t-35 -55.5t-58 -37t-80 -13.5zM235 52q60 0 90 31t30 85v173q0 54 -30 85.5t-90 31.5t-90 -31.5t-30 -85.5v-173
q0 -54 30 -85t90 -31zM254 716q5 5 10 9.5t13 4.5q11 0 18 -8.5t7 -18.5q0 -7 -3 -12l-82 -87q-8 -8 -13.5 -12.5t-13.5 -4.5q-11 0 -19 8.5t-8 19.5q0 5 4 10z" />
    <glyph glyph-name="ocircumflex" unicode="&#xf4;" horiz-adv-x="464" 
d="M235 -7q-45 0 -79.5 13.5t-58 37t-35.5 55.5t-12 69v172q0 37 12 69t35.5 56t58 37.5t79.5 13.5t80 -13.5t58 -37.5t35 -56t12 -69v-172q0 -37 -12 -69t-35 -55.5t-58 -37t-80 -13.5zM235 52q60 0 90 31t30 85v173q0 54 -30 85.5t-90 31.5t-90 -31.5t-30 -85.5v-173
q0 -54 30 -85t90 -31zM151 585q-1 -2 -5.5 -2.5t-7.5 -0.5q-7 0 -12.5 6t-5.5 13q0 5 5 12t11 12l81 69q3 2 7.5 4.5t9.5 2.5q10 0 17 -7l81 -69q5 -5 10.5 -12t5.5 -12q0 -7 -5.5 -13t-13.5 -6q-3 0 -7 0.5t-5 2.5l-83 68z" />
    <glyph glyph-name="otilde" unicode="&#xf5;" horiz-adv-x="464" 
d="M235 -7q-45 0 -79.5 13.5t-58 37t-35.5 55.5t-12 69v172q0 37 12 69t35.5 56t58 37.5t79.5 13.5t80 -13.5t58 -37.5t35 -56t12 -69v-172q0 -37 -12 -69t-35 -55.5t-58 -37t-80 -13.5zM235 52q60 0 90 31t30 85v173q0 54 -30 85.5t-90 31.5t-90 -31.5t-30 -85.5v-173
q0 -54 30 -85t90 -31zM367 656q0 -12 -7 -21.5t-18.5 -17t-25 -11.5t-26.5 -4q-17 0 -31.5 5.5t-27.5 12.5q-10 5 -18.5 10t-25.5 5q-9 0 -20 -3.5t-25 -14.5q-5 -5 -9 -7t-10 -2q-9 0 -16 5.5t-7 17.5q0 21 23 38.5t52 17.5q15 0 29 -5.5t29 -13.5q13 -7 23 -10t22 -4
q20 0 30 5t18 12q4 3 9.5 7.5t11.5 4.5t13 -7t7 -20z" />
    <glyph glyph-name="odieresis" unicode="&#xf6;" horiz-adv-x="464" 
d="M235 -7q-45 0 -79.5 13.5t-58 37t-35.5 55.5t-12 69v172q0 37 12 69t35.5 56t58 37.5t79.5 13.5t80 -13.5t58 -37.5t35 -56t12 -69v-172q0 -37 -12 -69t-35 -55.5t-58 -37t-80 -13.5zM235 52q60 0 90 31t30 85v173q0 54 -30 85.5t-90 31.5t-90 -31.5t-30 -85.5v-173
q0 -54 30 -85t90 -31zM360 646q0 -18 -11.5 -30t-28.5 -12t-29.5 12.5t-12.5 29.5q0 16 12.5 28.5t29.5 12.5t28.5 -12t11.5 -29zM187 646q0 -18 -12 -30t-29 -12t-28.5 12.5t-11.5 29.5q0 16 11.5 28.5t28.5 12.5t29 -12t12 -29z" />
    <glyph glyph-name="oslash" unicode="&#xf8;" horiz-adv-x="464" 
d="M81 63q-16 23 -23.5 50t-7.5 55v172q0 37 12 69t35.5 56t58 37.5t79.5 13.5q39 0 72 -12t59 -33l33 47q5 7 12.5 8.5t13.5 -3.5q16 -13 6 -27l-39 -55q28 -44 28 -101v-172q0 -37 -12 -69t-35 -55.5t-58 -37t-80 -13.5q-38 0 -70 10.5t-58 29.5l-31 -45q-5 -7 -13 -8
t-14 4q-6 4 -7 12t2 14zM115 168q0 -4 1.5 -18t3.5 -29l209 298q-34 39 -94 39t-90 -31.5t-30 -85.5v-173zM235 52q60 0 90 31t30 85v173q0 5 -0.5 11.5t-3.5 28.5l-207 -296q33 -33 91 -33z" />
    <glyph glyph-name="ugrave" unicode="&#xf9;" horiz-adv-x="509" 
d="M366 480q0 14 8 23t25 9q16 0 24 -9t8 -23v-360q0 -37 3.5 -48.5t7.5 -16.5q5 -5 10 -12.5t5 -15.5q0 -12 -9 -20t-21 -8q-13 0 -23 9t-20 24q-36 -21 -74.5 -30t-73.5 -9q-78 0 -117.5 51t-39.5 135v301q0 14 8.5 23t24.5 9t24 -9t8 -23v-301q0 -62 26 -96t77 -34
q32 0 62.5 10t58.5 28q-1 8 -1.5 15.5t-0.5 17.5v360zM280 625q4 -4 4 -10q0 -12 -8 -20t-18 -8q-8 0 -14.5 4t-13.5 12l-81 88q-4 5 -4 12q0 11 8 19t16 8t13 -4l12 -10z" />
    <glyph glyph-name="uacute" unicode="&#xfa;" horiz-adv-x="509" 
d="M366 480q0 14 8 23t25 9q16 0 24 -9t8 -23v-360q0 -37 3.5 -48.5t7.5 -16.5q5 -5 10 -12.5t5 -15.5q0 -12 -9 -20t-21 -8q-13 0 -23 9t-20 24q-36 -21 -74.5 -30t-73.5 -9q-78 0 -117.5 51t-39.5 135v301q0 14 8.5 23t24.5 9t24 -9t8 -23v-301q0 -62 26 -96t77 -34
q32 0 62.5 10t58.5 28q-1 8 -1.5 15.5t-0.5 17.5v360zM310 716q5 5 10 9.5t13 4.5q11 0 18 -8.5t7 -18.5q0 -7 -3 -12l-82 -87q-8 -8 -13.5 -12.5t-13.5 -4.5q-11 0 -19 8.5t-8 19.5q0 5 4 10z" />
    <glyph glyph-name="ucircumflex" unicode="&#xfb;" horiz-adv-x="509" 
d="M366 480q0 14 8 23t25 9q16 0 24 -9t8 -23v-360q0 -37 3.5 -48.5t7.5 -16.5q5 -5 10 -12.5t5 -15.5q0 -12 -9 -20t-21 -8q-13 0 -23 9t-20 24q-36 -21 -74.5 -30t-73.5 -9q-78 0 -117.5 51t-39.5 135v301q0 14 8.5 23t24.5 9t24 -9t8 -23v-301q0 -62 26 -96t77 -34
q32 0 62.5 10t58.5 28q-1 8 -1.5 15.5t-0.5 17.5v360zM173 585q-1 -2 -5.5 -2.5t-7.5 -0.5q-7 0 -12.5 6t-5.5 13q0 5 5 12t11 12l81 69q3 2 7.5 4.5t9.5 2.5q10 0 17 -7l81 -69q5 -5 10.5 -12t5.5 -12q0 -7 -5.5 -13t-13.5 -6q-3 0 -7 0.5t-5 2.5l-83 68z" />
    <glyph glyph-name="udieresis" unicode="&#xfc;" horiz-adv-x="509" 
d="M366 480q0 14 8 23t25 9q16 0 24 -9t8 -23v-360q0 -37 3.5 -48.5t7.5 -16.5q5 -5 10 -12.5t5 -15.5q0 -12 -9 -20t-21 -8q-13 0 -23 9t-20 24q-36 -21 -74.5 -30t-73.5 -9q-78 0 -117.5 51t-39.5 135v301q0 14 8.5 23t24.5 9t24 -9t8 -23v-301q0 -62 26 -96t77 -34
q32 0 62.5 10t58.5 28q-1 8 -1.5 15.5t-0.5 17.5v360zM383 646q0 -18 -11.5 -30t-28.5 -12t-29.5 12.5t-12.5 29.5q0 16 12.5 28.5t29.5 12.5t28.5 -12t11.5 -29zM210 646q0 -18 -12 -30t-29 -12t-28.5 12.5t-11.5 29.5q0 16 11.5 28.5t28.5 12.5t29 -12t12 -29z" />
    <glyph glyph-name="yacute" unicode="&#xfd;" horiz-adv-x="412" 
d="M273 60q-17 -55 -35.5 -102.5t-43 -83t-57.5 -56t-79 -20.5q-15 0 -24.5 8.5t-9.5 22.5q0 11 8 20.5t22 10.5q27 1 46.5 8.5t34.5 23.5t27.5 41t24.5 62l-164 476q-2 2 -2.5 5.5t-0.5 5.5q0 14 9.5 22t23.5 8q9 0 17 -6t12 -15l136 -415l29 100.5l31 106.5l31.5 107
l28.5 101q5 8 13 14.5t17 6.5q12 0 22 -9t10 -24q0 -4 -0.5 -6t-0.5 -4zM276 716q5 5 10 9.5t13 4.5q11 0 18 -8.5t7 -18.5q0 -7 -3 -12l-82 -87q-8 -8 -13.5 -12.5t-13.5 -4.5q-11 0 -19 8.5t-8 19.5q0 5 4 10z" />
    <glyph glyph-name="thorn" unicode="&#xfe;" horiz-adv-x="485" 
d="M144 126q23 -26 54 -41t72 -15q56 0 81 26t25 72v194q0 47 -25 73t-81 26q-40 0 -71 -15.5t-55 -41.5v-278zM79 693q0 12 8.5 22t24.5 10t24 -10t8 -22v-227q34 24 69 36.5t77 12.5t70.5 -12t46.5 -32.5t26 -48.5t8 -60v-194q0 -32 -8 -60t-26 -48.5t-46.5 -32.5
t-70.5 -12t-77 13t-69 36v-250q0 -12 -8 -21.5t-24 -9.5t-24.5 9.5t-8.5 21.5v879z" />
    <glyph glyph-name="ydieresis" unicode="&#xff;" horiz-adv-x="412" 
d="M273 60q-17 -55 -35.5 -102.5t-43 -83t-57.5 -56t-79 -20.5q-15 0 -24.5 8.5t-9.5 22.5q0 11 8 20.5t22 10.5q27 1 46.5 8.5t34.5 23.5t27.5 41t24.5 62l-164 476q-2 2 -2.5 5.5t-0.5 5.5q0 14 9.5 22t23.5 8q9 0 17 -6t12 -15l136 -415l29 100.5l31 106.5l31.5 107
l28.5 101q5 8 13 14.5t17 6.5q12 0 22 -9t10 -24q0 -4 -0.5 -6t-0.5 -4zM334 646q0 -18 -11.5 -30t-28.5 -12t-29.5 12.5t-12.5 29.5q0 16 12.5 28.5t29.5 12.5t28.5 -12t11.5 -29zM161 646q0 -18 -12 -30t-29 -12t-28.5 12.5t-11.5 29.5q0 16 11.5 28.5t28.5 12.5t29 -12
t12 -29z" />
    <glyph glyph-name="Amacron" unicode="&#x100;" horiz-adv-x="549" 
d="M97 15q-5 -9 -14.5 -16.5t-17.5 -7.5q-14 0 -24.5 9t-10.5 24q0 7 2 13l199 630q6 21 16 35t30 14q19 0 29.5 -14.5t17.5 -34.5l199 -630q0 -2 0.5 -6t0.5 -7q0 -15 -10 -24t-25 -9q-9 0 -19 6.5t-13 17.5l-46 148h-269zM161 228h231l-115 379zM432 844q0 -13 -8 -21
t-20 -8h-255q-13 0 -21.5 8t-8.5 21q0 12 8.5 21t21.5 9h255q12 0 20 -9t8 -21z" />
    <glyph glyph-name="amacron" unicode="&#x101;" horiz-adv-x="482" 
d="M335 341q0 119 -117 119q-28 0 -46 -5.5t-35 -16.5q-5 -3 -10.5 -5.5t-13.5 -2.5q-11 0 -16 8.5t-6 17.5q-1 16 10.5 27t31.5 18t45 10.5t50 3.5q93 0 132.5 -51t39.5 -150v-226q0 -39 27 -39q3 0 4.5 0.5t3.5 0.5q11 0 16.5 -8.5t5.5 -18.5q0 -15 -12 -21t-26 -6
q-23 0 -42.5 15.5t-33.5 41.5q-63 -60 -143 -60q-76 0 -113 40.5t-37 106.5v4q0 146 174 146q26 0 54 -5t57 -13v69zM223 237q-34 0 -55.5 -7.5t-33.5 -20.5t-16 -30t-4 -36v-4q0 -39 21 -64.5t78 -25.5q35 0 64 12t58 37v120q-30 10 -59.5 14.5t-52.5 4.5zM376 644
q0 -13 -8 -21t-20 -8h-255q-13 0 -21.5 8t-8.5 21q0 12 8.5 21t21.5 9h255q12 0 20 -9t8 -21z" />
    <glyph glyph-name="Abreve" unicode="&#x102;" horiz-adv-x="549" 
d="M97 15q-5 -9 -14.5 -16.5t-17.5 -7.5q-14 0 -24.5 9t-10.5 24q0 7 2 13l199 630q6 21 16 35t30 14q19 0 29.5 -14.5t17.5 -34.5l199 -630q0 -2 0.5 -6t0.5 -7q0 -15 -10 -24t-25 -9q-9 0 -19 6.5t-13 17.5l-46 148h-269zM161 228h231l-115 379zM276 832q18 0 36.5 10.5
t35.5 34.5q10 14 25 14q10 0 17 -6.5t2 -22.5q-5 -19 -17.5 -33t-29 -24t-34.5 -15t-35 -5q-16 0 -35 5t-36.5 14.5t-30 24t-16.5 33.5q-3 14 5 21.5t16 7.5q16 0 24 -14q18 -24 35.5 -34.5t37.5 -10.5z" />
    <glyph glyph-name="abreve" unicode="&#x103;" horiz-adv-x="482" 
d="M335 341q0 119 -117 119q-28 0 -46 -5.5t-35 -16.5q-5 -3 -10.5 -5.5t-13.5 -2.5q-11 0 -16 8.5t-6 17.5q-1 16 10.5 27t31.5 18t45 10.5t50 3.5q93 0 132.5 -51t39.5 -150v-226q0 -39 27 -39q3 0 4.5 0.5t3.5 0.5q11 0 16.5 -8.5t5.5 -18.5q0 -15 -12 -21t-26 -6
q-23 0 -42.5 15.5t-33.5 41.5q-63 -60 -143 -60q-76 0 -113 40.5t-37 106.5v4q0 146 174 146q26 0 54 -5t57 -13v69zM223 237q-34 0 -55.5 -7.5t-33.5 -20.5t-16 -30t-4 -36v-4q0 -39 21 -64.5t78 -25.5q35 0 64 12t58 37v120q-30 10 -59.5 14.5t-52.5 4.5zM243 632
q18 0 36.5 10.5t35.5 34.5q10 14 25 14q10 0 17 -6.5t2 -22.5q-5 -19 -17.5 -33t-29 -24t-34.5 -15t-35 -5q-16 0 -35 5t-36.5 14.5t-30 24t-16.5 33.5q-3 14 5 21.5t16 7.5q16 0 24 -14q18 -24 35.5 -34.5t37.5 -10.5z" />
    <glyph glyph-name="Aogonek" unicode="&#x104;" horiz-adv-x="549" 
d="M593 -167q0 -10 -7 -16t-17.5 -9.5t-22.5 -4.5t-23 -1q-45 0 -71.5 20t-26.5 64q0 26 12.5 56t32.5 56q-12 8 -14 17l-46 148h-268l-45 -148q-5 -9 -14.5 -16.5t-17.5 -7.5q-14 0 -25 9t-11 24q0 7 2 13l200 630q6 21 16 35t30 14q19 0 29 -14.5t18 -34.5l199 -630
q0 -2 0.5 -6t0.5 -7q0 -9 -4 -15.5t-9 -11.5q-17 -19 -25 -45.5t-8 -49.5t13 -38t40 -15q12 0 18.5 1l12.5 2q10 2 12 2q8 0 13.5 -6.5t5.5 -14.5zM161 228h231l-115 379z" />
    <glyph glyph-name="aogonek" unicode="&#x105;" horiz-adv-x="482" 
d="M521 -168q0 -11 -7 -17t-17.5 -9.5t-23 -4.5t-23.5 -1q-45 0 -72 20.5t-27 64.5q0 25 13 54t35 58q-36 15 -56 56q-63 -60 -143 -60q-76 0 -113.5 40.5t-37.5 106.5v4q0 146 174 146q26 0 54.5 -5t57.5 -13v69q0 119 -118 119q-28 0 -45.5 -6t-34.5 -16q-2 0 -5 -3
q-3 -2 -9 -3.5t-11 -1.5q-11 0 -16 8.5t-6 17.5q-1 16 10.5 27t31.5 18t45.5 10.5t50.5 3.5q92 0 132 -51t40 -150v-226q0 -39 26 -39q4 0 5.5 0.5t3.5 0.5q11 0 16 -8.5t5 -18.5q0 -9 -3.5 -13.5t-8.5 -8.5l-4 -3q-18 -18 -26.5 -46t-8.5 -51t13 -38.5t40 -15.5
q13 0 19.5 1.5t11.5 2.5q10 2 13 2q8 0 13.5 -6.5t5.5 -14.5zM222 237q-34 0 -55.5 -7.5t-33.5 -20.5t-16 -30t-4 -36v-4q0 -39 21 -64.5t78 -25.5q35 0 64.5 12t58.5 37v120q-31 10 -60.5 14.5t-52.5 4.5z" />
    <glyph glyph-name="Cacute" unicode="&#x106;" horiz-adv-x="482" 
d="M50 463q0 57 13.5 104t41 80t69.5 51t99 18q33 0 64.5 -6.5t55.5 -17.5t38.5 -25.5t14.5 -30.5q0 -12 -8 -20t-21 -8q-7 0 -11.5 2.5t-10.5 6.5q-2 2 -5 3t-5 3q-25 17 -51 25.5t-56 8.5q-45 0 -76 -13.5t-50 -39t-27 -61t-8 -80.5v-219q0 -44 8 -80t27 -61t50 -38.5
t76 -13.5q60 0 105 32l11 7q14 10 23 10q13 0 21 -8.5t8 -19.5q0 -16 -14.5 -31t-38.5 -25.5t-55.5 -17t-64.5 -6.5q-57 0 -99 18t-69.5 51t-41 79.5t-13.5 103.5v219zM331 916q5 5 10 9.5t13 4.5q11 0 18 -8.5t7 -18.5q0 -7 -3 -12l-82 -87q-8 -8 -13.5 -12.5t-13.5 -4.5
q-11 0 -19 8.5t-8 19.5q0 5 4 10z" />
    <glyph glyph-name="cacute" unicode="&#x107;" horiz-adv-x="393" 
d="M50 330q0 38 10.5 71.5t32 58t55.5 38.5t80 14q17 0 40 -2.5t44 -9t36 -17t15 -26.5q0 -11 -8 -19t-19 -8q-5 0 -8 0.5t-7 1.5h1q-19 10 -38.5 17.5t-47.5 7.5q-66 0 -93.5 -33.5t-27.5 -93.5v-156q0 -60 27.5 -93t93.5 -33q29 0 48.5 7.5t37.5 16.5h-1q11 3 15 3
q11 0 19 -8.5t8 -19.5q0 -16 -15 -26.5t-36 -16.5t-44 -8.5t-40 -2.5q-46 0 -80 14t-55.5 38.5t-32 57.5t-10.5 71v156zM269 716q5 5 10 9.5t13 4.5q11 0 18 -8.5t7 -18.5q0 -7 -3 -12l-82 -87q-8 -8 -13.5 -12.5t-13.5 -4.5q-11 0 -19 8.5t-8 19.5q0 5 4 10z" />
    <glyph glyph-name="Ccircumflex" unicode="&#x108;" horiz-adv-x="482" 
d="M50 463q0 57 13.5 104t41 80t69.5 51t99 18q33 0 64.5 -6.5t55.5 -17.5t38.5 -25.5t14.5 -30.5q0 -12 -8 -20t-21 -8q-7 0 -11.5 2.5t-10.5 6.5q-2 2 -5 3t-5 3q-25 17 -51 25.5t-56 8.5q-45 0 -76 -13.5t-50 -39t-27 -61t-8 -80.5v-219q0 -44 8 -80t27 -61t50 -38.5
t76 -13.5q60 0 105 32l11 7q14 10 23 10q13 0 21 -8.5t8 -19.5q0 -16 -14.5 -31t-38.5 -25.5t-55.5 -17t-64.5 -6.5q-57 0 -99 18t-69.5 51t-41 79.5t-13.5 103.5v219zM186 785q-1 -2 -5.5 -2.5t-7.5 -0.5q-7 0 -12.5 6t-5.5 13q0 5 5 12t11 12l81 69q3 2 7.5 4.5t9.5 2.5
q10 0 17 -7l81 -69q5 -5 10.5 -12t5.5 -12q0 -7 -5.5 -13t-13.5 -6q-3 0 -7 0.5t-5 2.5l-83 68z" />
    <glyph glyph-name="ccircumflex" unicode="&#x109;" horiz-adv-x="393" 
d="M50 330q0 38 10.5 71.5t32 58t55.5 38.5t80 14q17 0 40 -2.5t44 -9t36 -17t15 -26.5q0 -11 -8 -19t-19 -8q-5 0 -8 0.5t-7 1.5h1q-19 10 -38.5 17.5t-47.5 7.5q-66 0 -93.5 -33.5t-27.5 -93.5v-156q0 -60 27.5 -93t93.5 -33q29 0 48.5 7.5t37.5 16.5h-1q11 3 15 3
q11 0 19 -8.5t8 -19.5q0 -16 -15 -26.5t-36 -16.5t-44 -8.5t-40 -2.5q-46 0 -80 14t-55.5 38.5t-32 57.5t-10.5 71v156zM116 585q-1 -2 -5.5 -2.5t-7.5 -0.5q-7 0 -12.5 6t-5.5 13q0 5 5 12t11 12l81 69q3 2 7.5 4.5t9.5 2.5q10 0 17 -7l81 -69q5 -5 10.5 -12t5.5 -12
q0 -7 -5.5 -13t-13.5 -6q-3 0 -7 0.5t-5 2.5l-83 68z" />
    <glyph glyph-name="Cdotaccent" unicode="&#x10a;" horiz-adv-x="482" 
d="M50 463q0 57 13.5 104t41 80t69.5 51t99 18q33 0 64.5 -6.5t55.5 -17.5t38.5 -25.5t14.5 -30.5q0 -12 -8 -20t-21 -8q-7 0 -11.5 2.5t-10.5 6.5q-2 2 -5 3t-5 3q-25 17 -51 25.5t-56 8.5q-45 0 -76 -13.5t-50 -39t-27 -61t-8 -80.5v-219q0 -44 8 -80t27 -61t50 -38.5
t76 -13.5q60 0 105 32l11 7q14 10 23 10q13 0 21 -8.5t8 -19.5q0 -16 -14.5 -31t-38.5 -25.5t-55.5 -17t-64.5 -6.5q-57 0 -99 18t-69.5 51t-41 79.5t-13.5 103.5v219zM282 846q0 -18 -12 -30t-29 -12t-28.5 12.5t-11.5 29.5q0 16 11.5 28.5t28.5 12.5t29 -12t12 -29z" />
    <glyph glyph-name="cdotaccent" unicode="&#x10b;" horiz-adv-x="393" 
d="M50 330q0 38 10.5 71.5t32 58t55.5 38.5t80 14q17 0 40 -2.5t44 -9t36 -17t15 -26.5q0 -11 -8 -19t-19 -8q-5 0 -8 0.5t-7 1.5h1q-19 10 -38.5 17.5t-47.5 7.5q-66 0 -93.5 -33.5t-27.5 -93.5v-156q0 -60 27.5 -93t93.5 -33q29 0 48.5 7.5t37.5 16.5h-1q11 3 15 3
q11 0 19 -8.5t8 -19.5q0 -16 -15 -26.5t-36 -16.5t-44 -8.5t-40 -2.5q-46 0 -80 14t-55.5 38.5t-32 57.5t-10.5 71v156zM237 646q0 -18 -12 -30t-29 -12t-28.5 12.5t-11.5 29.5q0 16 11.5 28.5t28.5 12.5t29 -12t12 -29z" />
    <glyph glyph-name="Ccaron" unicode="&#x10c;" horiz-adv-x="482" 
d="M50 463q0 57 13.5 104t41 80t69.5 51t99 18q33 0 64.5 -6.5t55.5 -17.5t38.5 -25.5t14.5 -30.5q0 -12 -8 -20t-21 -8q-7 0 -11.5 2.5t-10.5 6.5q-2 2 -5 3t-5 3q-25 17 -51 25.5t-56 8.5q-45 0 -76 -13.5t-50 -39t-27 -61t-8 -80.5v-219q0 -44 8 -80t27 -61t50 -38.5
t76 -13.5q60 0 105 32l11 7q14 10 23 10q13 0 21 -8.5t8 -19.5q0 -16 -14.5 -31t-38.5 -25.5t-55.5 -17t-64.5 -6.5q-57 0 -99 18t-69.5 51t-41 79.5t-13.5 103.5v219zM278 775q-12 0 -19 7l-90 75q-8 7 -13.5 14t-5.5 15q0 10 8 16t16 6q5 0 8 -2l6 -4l90 -73l90 73
q6 6 14 6q9 0 16 -6t7 -16q0 -9 -5 -15.5t-13 -13.5l-90 -75q-7 -7 -19 -7z" />
    <glyph glyph-name="ccaron" unicode="&#x10d;" horiz-adv-x="393" 
d="M50 330q0 38 10.5 71.5t32 58t55.5 38.5t80 14q17 0 40 -2.5t44 -9t36 -17t15 -26.5q0 -11 -8 -19t-19 -8q-5 0 -8 0.5t-7 1.5h1q-19 10 -38.5 17.5t-47.5 7.5q-66 0 -93.5 -33.5t-27.5 -93.5v-156q0 -60 27.5 -93t93.5 -33q29 0 48.5 7.5t37.5 16.5h-1q11 3 15 3
q11 0 19 -8.5t8 -19.5q0 -16 -15 -26.5t-36 -16.5t-44 -8.5t-40 -2.5q-46 0 -80 14t-55.5 38.5t-32 57.5t-10.5 71v156zM225 575q-12 0 -19 7l-90 75q-8 7 -13.5 14t-5.5 15q0 10 8 16t16 6q5 0 8 -2l6 -4l90 -73l90 73q6 6 14 6q9 0 16 -6t7 -16q0 -9 -5 -15.5t-13 -13.5
l-90 -75q-7 -7 -19 -7z" />
    <glyph glyph-name="Dcaron" unicode="&#x10e;" horiz-adv-x="554" 
d="M508 263q0 -51 -14 -98.5t-46 -83.5t-84 -58t-128 -22h-116q-17 0 -29 12t-12 29v623q0 17 12 29.5t29 12.5h116q76 0 128 -21t84 -56t46 -80.5t14 -95.5v-191zM441 454q0 39 -10 73.5t-32.5 60t-58 40.5t-87.5 15h-108v-578h108q53 0 88.5 15.5t58 42.5t32 63t9.5 77
v191zM279 775q-12 0 -19 7l-90 75q-8 7 -13.5 14t-5.5 15q0 10 8 16t16 6q5 0 8 -2l6 -4l90 -73l90 73q6 6 14 6q9 0 16 -6t7 -16q0 -9 -5 -15.5t-13 -13.5l-90 -75q-7 -7 -19 -7z" />
    <glyph glyph-name="dcaron" unicode="&#x10f;" horiz-adv-x="605" 
d="M215 511q25 0 57 -5.5t64 -16.5v212q0 13 8.5 22.5t24.5 9.5t24 -9.5t8 -22.5v-591q0 -23 6 -38.5t24 -29.5q2 -3 3 -6t1 -8q0 -13 -8.5 -20.5t-19.5 -7.5q-16 0 -29 9.5t-23 25.5q-35 -18 -73 -30t-75 -12q-78 0 -117.5 52t-39.5 134v131q0 45 8 82t27 63.5t51 41
t79 14.5zM336 432q-29 12 -60.5 18.5t-50.5 6.5q-61 0 -85.5 -35t-24.5 -112v-131q0 -130 108 -130q27 0 57.5 9t59.5 23q-3 13 -3.5 18.5t-0.5 10.5v322zM575 679q0 -24 -7.5 -52t-18 -52t-22.5 -39.5t-21 -15.5q-5 0 -9 2t-4 7q0 11 5.5 21.5t12.5 22.5q5 9 10 19.5
t12 36.5q-22 2 -37 16t-15 34t14 33.5t34 13.5t33 -13.5t13 -33.5z" />
    <glyph glyph-name="Dcroat" unicode="&#x110;" horiz-adv-x="574" 
d="M528 263q0 -51 -14 -98.5t-45.5 -83.5t-83.5 -58t-128 -22h-116q-17 0 -29.5 12t-12.5 29v283h-47q-13 0 -21.5 8t-8.5 21q0 12 8.5 21t21.5 9h47v281q0 17 12.5 29.5t29.5 12.5h116q76 0 127.5 -21t83.5 -56t46 -80.5t14 -95.5v-191zM335 354q0 -13 -8 -21t-20 -8h-141
v-260h108q53 0 88.5 15.5t58 42.5t32 63t9.5 77v191q0 39 -10 73.5t-32.5 60t-58 40.5t-87.5 15h-108v-259h141q12 0 20 -9t8 -21z" />
    <glyph glyph-name="dcroat" unicode="&#x111;" horiz-adv-x="488" 
d="M486 617q0 -12 -8 -20.5t-20 -8.5h-57v-478q0 -23 6 -38.5t24 -29.5q2 -3 3 -6t1 -8q0 -13 -9 -20.5t-19 -7.5q-17 0 -29.5 9.5t-22.5 25.5q-36 -18 -73.5 -30t-75.5 -12q-77 0 -117 52t-40 134v131q0 45 8 82t27.5 63.5t51 41t78.5 14.5q25 0 57.5 -5.5t64.5 -16.5v99
h-135q-14 0 -22.5 8.5t-8.5 20.5q0 13 8.5 22t22.5 9h135v53q0 13 8 22.5t25 9.5q16 0 24 -9.5t8 -22.5v-53h57q12 0 20 -9t8 -22zM336 432q-29 12 -61 18.5t-50 6.5q-62 0 -86.5 -35t-24.5 -112v-131q0 -130 109 -130q27 0 57.5 9t59.5 23q-3 13 -3.5 18.5t-0.5 10.5v322z
" />
    <glyph glyph-name="Emacron" unicode="&#x112;" horiz-adv-x="474" 
d="M440 35q0 -15 -9.5 -24.5t-23.5 -9.5h-271q-23 0 -40 8.5t-17 31.5v624q0 16 11.5 28.5t29.5 12.5h277q14 0 23 -10t9 -24q0 -13 -9 -21.5t-23 -8.5h-252v-255h232q13 0 22.5 -9t9.5 -23t-9 -23t-23 -9h-232v-258h262q13 0 23 -9t10 -21zM395 844q0 -13 -8 -21t-20 -8
h-255q-13 0 -21.5 8t-8.5 21q0 12 8.5 21t21.5 9h255q12 0 20 -9t8 -21z" />
    <glyph glyph-name="emacron" unicode="&#x113;" horiz-adv-x="435" 
d="M236 48q35 0 59 8.5t51 20.5q2 1 5 2t6 1q12 0 20 -8.5t8 -19.5q0 -17 -17.5 -28.5t-42 -18t-52 -9.5t-47.5 -3q-42 0 -74.5 12.5t-55 34.5t-34.5 52t-12 64v192q0 36 12 66.5t35 53t57 35t78 12.5q82 0 122 -43.5t40 -116.5q0 -68 -39 -106.5t-127 -38.5
q-25 0 -54.5 2.5t-58.5 8.5v-71q0 -46 30.5 -74t90.5 -28zM330 355q0 55 -26.5 79t-74.5 24q-54 0 -84 -27.5t-30 -74.5v-85q32 -5 66.5 -6.5t50.5 -1.5q32 0 51 8t29.5 20.5t14 29t3.5 34.5zM375 644q0 -13 -8 -21t-20 -8h-255q-13 0 -21.5 8t-8.5 21q0 12 8.5 21t21.5 9
h255q12 0 20 -9t8 -21z" />
    <glyph glyph-name="Ebreve" unicode="&#x114;" horiz-adv-x="474" 
d="M440 35q0 -15 -9.5 -24.5t-23.5 -9.5h-271q-23 0 -40 8.5t-17 31.5v624q0 16 11.5 28.5t29.5 12.5h277q14 0 23 -10t9 -24q0 -13 -9 -21.5t-23 -8.5h-252v-255h232q13 0 22.5 -9t9.5 -23t-9 -23t-23 -9h-232v-258h262q13 0 23 -9t10 -21zM239 832q18 0 36.5 10.5
t35.5 34.5q10 14 25 14q10 0 17 -6.5t2 -22.5q-5 -19 -17.5 -33t-29 -24t-34.5 -15t-35 -5q-16 0 -35 5t-36.5 14.5t-30 24t-16.5 33.5q-3 14 5 21.5t16 7.5q16 0 24 -14q18 -24 35.5 -34.5t37.5 -10.5z" />
    <glyph glyph-name="ebreve" unicode="&#x115;" horiz-adv-x="435" 
d="M236 48q35 0 59 8.5t51 20.5q2 1 5 2t6 1q12 0 20 -8.5t8 -19.5q0 -17 -17.5 -28.5t-42 -18t-52 -9.5t-47.5 -3q-42 0 -74.5 12.5t-55 34.5t-34.5 52t-12 64v192q0 36 12 66.5t35 53t57 35t78 12.5q82 0 122 -43.5t40 -116.5q0 -68 -39 -106.5t-127 -38.5
q-25 0 -54.5 2.5t-58.5 8.5v-71q0 -46 30.5 -74t90.5 -28zM330 355q0 55 -26.5 79t-74.5 24q-54 0 -84 -27.5t-30 -74.5v-85q32 -5 66.5 -6.5t50.5 -1.5q32 0 51 8t29.5 20.5t14 29t3.5 34.5zM219 632q18 0 36.5 10.5t35.5 34.5q10 14 25 14q10 0 17 -6.5t2 -22.5
q-5 -19 -17.5 -33t-29 -24t-34.5 -15t-35 -5q-16 0 -35 5t-36.5 14.5t-30 24t-16.5 33.5q-3 14 5 21.5t16 7.5q16 0 24 -14q18 -24 35.5 -34.5t37.5 -10.5z" />
    <glyph glyph-name="Edotaccent" unicode="&#x116;" horiz-adv-x="474" 
d="M440 35q0 -15 -9.5 -24.5t-23.5 -9.5h-271q-23 0 -40 8.5t-17 31.5v624q0 16 11.5 28.5t29.5 12.5h277q14 0 23 -10t9 -24q0 -13 -9 -21.5t-23 -8.5h-252v-255h232q13 0 22.5 -9t9.5 -23t-9 -23t-23 -9h-232v-258h262q13 0 23 -9t10 -21zM278 846q0 -18 -12 -30t-29 -12
t-28.5 12.5t-11.5 29.5q0 16 11.5 28.5t28.5 12.5t29 -12t12 -29z" />
    <glyph glyph-name="edotaccent" unicode="&#x117;" horiz-adv-x="435" 
d="M236 48q35 0 59 8.5t51 20.5q2 1 5 2t6 1q12 0 20 -8.5t8 -19.5q0 -17 -17.5 -28.5t-42 -18t-52 -9.5t-47.5 -3q-42 0 -74.5 12.5t-55 34.5t-34.5 52t-12 64v192q0 36 12 66.5t35 53t57 35t78 12.5q82 0 122 -43.5t40 -116.5q0 -68 -39 -106.5t-127 -38.5
q-25 0 -54.5 2.5t-58.5 8.5v-71q0 -46 30.5 -74t90.5 -28zM330 355q0 55 -26.5 79t-74.5 24q-54 0 -84 -27.5t-30 -74.5v-85q32 -5 66.5 -6.5t50.5 -1.5q32 0 51 8t29.5 20.5t14 29t3.5 34.5zM258 646q0 -18 -12 -30t-29 -12t-28.5 12.5t-11.5 29.5q0 16 11.5 28.5
t28.5 12.5t29 -12t12 -29z" />
    <glyph glyph-name="Eogonek" unicode="&#x118;" horiz-adv-x="474" 
d="M482 -167q0 -10 -7 -16t-17.5 -9.5t-22.5 -4.5t-23 -1q-45 0 -71.5 20t-26.5 64q0 25 12.5 55t34.5 60h-225q-23 0 -40 8.5t-17 31.5v624q0 16 11.5 28.5t29.5 12.5h276q14 0 23.5 -10t9.5 -24q0 -13 -9.5 -21.5t-23.5 -8.5h-251v-255h232q12 0 22 -9t10 -23t-9.5 -23
t-22.5 -9h-232v-258h262q13 0 22.5 -9t9.5 -21q0 -15 -11 -24.5t-26 -9.5l-7 -13l-18.5 -43.5t-9.5 -42.5q0 -23 13 -38t40 -15q12 0 18.5 1l12.5 2q10 2 12 2q8 0 13.5 -6.5t5.5 -14.5z" />
    <glyph glyph-name="eogonek" unicode="&#x119;" horiz-adv-x="435" 
d="M394 -168q0 -11 -7 -17t-17.5 -9.5t-23 -4.5t-23.5 -1q-45 0 -72 20.5t-27 64.5q0 51 42 109q-5 0 -15.5 -0.5t-13.5 -0.5h-11q-42 0 -74.5 12.5t-55 34.5t-34.5 52t-12 64v192q0 36 12 66.5t35 53t57 35t78 12.5q82 0 122 -43.5t40 -116.5q0 -68 -39 -106.5t-127 -38.5
q-25 0 -54.5 2.5t-58.5 8.5v-71q0 -46 30.5 -74t90.5 -28q35 0 59 8.5t51 20.5q2 1 5 2t6 1q12 0 20 -8.5t8 -19.5t-11 -18.5t-27 -15.5l-26 -15q-26 -17 -34.5 -48t-8.5 -54t13 -38.5t41 -15.5q12 0 18.5 1.5t11.5 2.5t8 1.5t5 0.5q8 0 13.5 -6.5t5.5 -14.5zM330 355
q0 55 -26.5 79t-74.5 24q-54 0 -84 -27.5t-30 -74.5v-85q32 -5 66.5 -6.5t50.5 -1.5q32 0 51 8t29.5 20.5t14 29t3.5 34.5z" />
    <glyph glyph-name="Ecaron" unicode="&#x11a;" horiz-adv-x="474" 
d="M440 35q0 -15 -9.5 -24.5t-23.5 -9.5h-271q-23 0 -40 8.5t-17 31.5v624q0 16 11.5 28.5t29.5 12.5h277q14 0 23 -10t9 -24q0 -13 -9 -21.5t-23 -8.5h-252v-255h232q13 0 22.5 -9t9.5 -23t-9 -23t-23 -9h-232v-258h262q13 0 23 -9t10 -21zM269 775q-12 0 -19 7l-90 75
q-8 7 -13.5 14t-5.5 15q0 10 8 16t16 6q5 0 8 -2l6 -4l90 -73l90 73q6 6 14 6q9 0 16 -6t7 -16q0 -9 -5 -15.5t-13 -13.5l-90 -75q-7 -7 -19 -7z" />
    <glyph glyph-name="ecaron" unicode="&#x11b;" horiz-adv-x="435" 
d="M236 48q35 0 59 8.5t51 20.5q2 1 5 2t6 1q12 0 20 -8.5t8 -19.5q0 -17 -17.5 -28.5t-42 -18t-52 -9.5t-47.5 -3q-42 0 -74.5 12.5t-55 34.5t-34.5 52t-12 64v192q0 36 12 66.5t35 53t57 35t78 12.5q82 0 122 -43.5t40 -116.5q0 -68 -39 -106.5t-127 -38.5
q-25 0 -54.5 2.5t-58.5 8.5v-71q0 -46 30.5 -74t90.5 -28zM330 355q0 55 -26.5 79t-74.5 24q-54 0 -84 -27.5t-30 -74.5v-85q32 -5 66.5 -6.5t50.5 -1.5q32 0 51 8t29.5 20.5t14 29t3.5 34.5zM219 575q-12 0 -19 7l-90 75q-8 7 -13.5 14t-5.5 15q0 10 8 16t16 6q5 0 8 -2
l6 -4l90 -73l90 73q6 6 14 6q9 0 16 -6t7 -16q0 -9 -5 -15.5t-13 -13.5l-90 -75q-7 -7 -19 -7z" />
    <glyph glyph-name="Gcircumflex" unicode="&#x11c;" horiz-adv-x="520" 
d="M117 244q0 -44 8 -80t27 -61t50 -38.5t76 -13.5q38 0 68 10.5t55 30.5v232h-107q-12 0 -21.5 8.5t-9.5 22.5q0 13 9.5 22t21.5 9h122q22 0 36 -9.5t14 -30.5v-244q0 -28 -18 -49t-46 -34.5t-62 -20t-67 -6.5q-57 0 -99 18t-69.5 51t-41 79.5t-13.5 103.5v219
q0 57 13.5 104t41 80t69.5 51t99 18q33 0 64.5 -6.5t55.5 -17.5t38.5 -25.5t14.5 -30.5q0 -12 -8.5 -20t-20.5 -8q-7 0 -11.5 2.5t-10.5 6.5q-2 2 -5.5 3t-5.5 3q-24 17 -50 25.5t-56 8.5q-45 0 -76 -13.5t-50 -39t-27 -61t-8 -80.5v-219zM179 785q-1 -2 -5.5 -2.5
t-7.5 -0.5q-7 0 -12.5 6t-5.5 13q0 5 5 12t11 12l81 69q3 2 7.5 4.5t9.5 2.5q10 0 17 -7l81 -69q5 -5 10.5 -12t5.5 -12q0 -7 -5.5 -13t-13.5 -6q-3 0 -7 0.5t-5 2.5l-83 68z" />
    <glyph glyph-name="gcircumflex" unicode="&#x11d;" horiz-adv-x="493" 
d="M234 515q35 0 71 -9.5t68 -28.5q18 33 41 48t37 15q13 0 21.5 -8t8.5 -21q0 -11 -4 -15l-9 -10l-22.5 -21.5t-15.5 -20t-9 -23t-3 -30.5v-64q0 -37 -11 -69.5t-33.5 -56.5t-55.5 -38t-78 -14q-43 0 -85 16q-10 -17 -13.5 -32t-3.5 -26q0 -16 6.5 -26t16 -16t20.5 -8
t21 -2h43q42 0 78.5 -8.5t63 -25.5t41.5 -43t15 -62q0 -37 -15.5 -66.5t-42.5 -50t-64 -31.5t-81 -11q-42 0 -77 10t-60 29.5t-39 47t-14 63.5q0 67 57 118q-20 19 -27 40.5t-7 38.5t9 39t35 45q-60 56 -60 146q0 39 11 72t33 57t55 38t78 14zM354 390q0 4 0.5 13.5
t2.5 20.5q-27 17 -55.5 26t-57.5 9q-61 0 -91.5 -33t-30.5 -94q0 -56 27.5 -90t90.5 -34q60 0 87 31t27 86v65zM204 -4q-27 0 -49 5q-41 -32 -41 -83q0 -103 128 -103q60 0 98 24t38 75q0 44 -32.5 63t-98.5 19h-43zM165 585q-1 -2 -5.5 -2.5t-7.5 -0.5q-7 0 -12.5 6
t-5.5 13q0 5 5 12t11 12l81 69q3 2 7.5 4.5t9.5 2.5q10 0 17 -7l81 -69q5 -5 10.5 -12t5.5 -12q0 -7 -5.5 -13t-13.5 -6q-3 0 -7 0.5t-5 2.5l-83 68z" />
    <glyph glyph-name="Gbreve" unicode="&#x11e;" horiz-adv-x="520" 
d="M117 244q0 -44 8 -80t27 -61t50 -38.5t76 -13.5q38 0 68 10.5t55 30.5v232h-107q-12 0 -21.5 8.5t-9.5 22.5q0 13 9.5 22t21.5 9h122q22 0 36 -9.5t14 -30.5v-244q0 -28 -18 -49t-46 -34.5t-62 -20t-67 -6.5q-57 0 -99 18t-69.5 51t-41 79.5t-13.5 103.5v219
q0 57 13.5 104t41 80t69.5 51t99 18q33 0 64.5 -6.5t55.5 -17.5t38.5 -25.5t14.5 -30.5q0 -12 -8.5 -20t-20.5 -8q-7 0 -11.5 2.5t-10.5 6.5q-2 2 -5.5 3t-5.5 3q-24 17 -50 25.5t-56 8.5q-45 0 -76 -13.5t-50 -39t-27 -61t-8 -80.5v-219zM262 832q18 0 36.5 10.5t35.5 34.5
q10 14 25 14q10 0 17 -6.5t2 -22.5q-5 -19 -17.5 -33t-29 -24t-34.5 -15t-35 -5q-16 0 -35 5t-36.5 14.5t-30 24t-16.5 33.5q-3 14 5 21.5t16 7.5q16 0 24 -14q18 -24 35.5 -34.5t37.5 -10.5z" />
    <glyph glyph-name="gbreve" unicode="&#x11f;" horiz-adv-x="493" 
d="M234 515q35 0 71 -9.5t68 -28.5q18 33 41 48t37 15q13 0 21.5 -8t8.5 -21q0 -11 -4 -15l-9 -10l-22.5 -21.5t-15.5 -20t-9 -23t-3 -30.5v-64q0 -37 -11 -69.5t-33.5 -56.5t-55.5 -38t-78 -14q-43 0 -85 16q-10 -17 -13.5 -32t-3.5 -26q0 -16 6.5 -26t16 -16t20.5 -8
t21 -2h43q42 0 78.5 -8.5t63 -25.5t41.5 -43t15 -62q0 -37 -15.5 -66.5t-42.5 -50t-64 -31.5t-81 -11q-42 0 -77 10t-60 29.5t-39 47t-14 63.5q0 67 57 118q-20 19 -27 40.5t-7 38.5t9 39t35 45q-60 56 -60 146q0 39 11 72t33 57t55 38t78 14zM354 390q0 4 0.5 13.5
t2.5 20.5q-27 17 -55.5 26t-57.5 9q-61 0 -91.5 -33t-30.5 -94q0 -56 27.5 -90t90.5 -34q60 0 87 31t27 86v65zM204 -4q-27 0 -49 5q-41 -32 -41 -83q0 -103 128 -103q60 0 98 24t38 75q0 44 -32.5 63t-98.5 19h-43zM248 632q18 0 36.5 10.5t35.5 34.5q10 14 25 14
q10 0 17 -6.5t2 -22.5q-5 -19 -17.5 -33t-29 -24t-34.5 -15t-35 -5q-16 0 -35 5t-36.5 14.5t-30 24t-16.5 33.5q-3 14 5 21.5t16 7.5q16 0 24 -14q18 -24 35.5 -34.5t37.5 -10.5z" />
    <glyph glyph-name="Gdotaccent" unicode="&#x120;" horiz-adv-x="520" 
d="M117 244q0 -44 8 -80t27 -61t50 -38.5t76 -13.5q38 0 68 10.5t55 30.5v232h-107q-12 0 -21.5 8.5t-9.5 22.5q0 13 9.5 22t21.5 9h122q22 0 36 -9.5t14 -30.5v-244q0 -28 -18 -49t-46 -34.5t-62 -20t-67 -6.5q-57 0 -99 18t-69.5 51t-41 79.5t-13.5 103.5v219
q0 57 13.5 104t41 80t69.5 51t99 18q33 0 64.5 -6.5t55.5 -17.5t38.5 -25.5t14.5 -30.5q0 -12 -8.5 -20t-20.5 -8q-7 0 -11.5 2.5t-10.5 6.5q-2 2 -5.5 3t-5.5 3q-24 17 -50 25.5t-56 8.5q-45 0 -76 -13.5t-50 -39t-27 -61t-8 -80.5v-219zM301 846q0 -18 -12 -30t-29 -12
t-28.5 12.5t-11.5 29.5q0 16 11.5 28.5t28.5 12.5t29 -12t12 -29z" />
    <glyph glyph-name="gdotaccent" unicode="&#x121;" horiz-adv-x="493" 
d="M234 515q35 0 71 -9.5t68 -28.5q18 33 41 48t37 15q13 0 21.5 -8t8.5 -21q0 -11 -4 -15l-9 -10l-22.5 -21.5t-15.5 -20t-9 -23t-3 -30.5v-64q0 -37 -11 -69.5t-33.5 -56.5t-55.5 -38t-78 -14q-43 0 -85 16q-10 -17 -13.5 -32t-3.5 -26q0 -16 6.5 -26t16 -16t20.5 -8
t21 -2h43q42 0 78.5 -8.5t63 -25.5t41.5 -43t15 -62q0 -37 -15.5 -66.5t-42.5 -50t-64 -31.5t-81 -11q-42 0 -77 10t-60 29.5t-39 47t-14 63.5q0 67 57 118q-20 19 -27 40.5t-7 38.5t9 39t35 45q-60 56 -60 146q0 39 11 72t33 57t55 38t78 14zM354 390q0 4 0.5 13.5
t2.5 20.5q-27 17 -55.5 26t-57.5 9q-61 0 -91.5 -33t-30.5 -94q0 -56 27.5 -90t90.5 -34q60 0 87 31t27 86v65zM204 -4q-27 0 -49 5q-41 -32 -41 -83q0 -103 128 -103q60 0 98 24t38 75q0 44 -32.5 63t-98.5 19h-43zM287 646q0 -18 -12 -30t-29 -12t-28.5 12.5t-11.5 29.5
q0 16 11.5 28.5t28.5 12.5t29 -12t12 -29z" />
    <glyph glyph-name="uni0122" unicode="&#x122;" horiz-adv-x="520" 
d="M117 244q0 -44 8 -80t27 -61t50 -38.5t76 -13.5q38 0 68 10.5t55 30.5v232h-107q-12 0 -21.5 8.5t-9.5 22.5q0 13 9.5 22t21.5 9h122q22 0 36 -9.5t14 -30.5v-244q0 -28 -18 -49t-46 -34.5t-62 -20t-67 -6.5q-57 0 -99 18t-69.5 51t-41 79.5t-13.5 103.5v219
q0 57 13.5 104t41 80t69.5 51t99 18q33 0 64.5 -6.5t55.5 -17.5t38.5 -25.5t14.5 -30.5q0 -12 -8.5 -20t-20.5 -8q-7 0 -11.5 2.5t-10.5 6.5q-2 2 -5.5 3t-5.5 3q-24 17 -50 25.5t-56 8.5q-45 0 -76 -13.5t-50 -39t-27 -61t-8 -80.5v-219zM329 -113q0 -20 -7.5 -43t-18 -42
t-23 -31.5t-21.5 -12.5q-5 0 -8.5 2t-3.5 7t5.5 12.5t10.5 15.5q5 6 12.5 16.5t13.5 25.5q-23 2 -38.5 16t-15.5 34t14 33.5t34 13.5q19 0 32.5 -14t13.5 -33z" />
    <glyph glyph-name="uni0123" unicode="&#x123;" horiz-adv-x="493" 
d="M234 515q35 0 71 -9.5t68 -28.5q18 33 41 48t37 15q13 0 21.5 -8t8.5 -21q0 -11 -4 -15l-9 -10l-22.5 -21.5t-15.5 -20t-9 -23t-3 -30.5v-64q0 -37 -11 -69.5t-33.5 -56.5t-55.5 -38t-78 -14q-43 0 -85 16q-10 -17 -13.5 -32t-3.5 -26q0 -16 6.5 -26t16 -16t20.5 -8
t21 -2h43q42 0 78.5 -9t63 -27t41.5 -45t15 -64t-15.5 -66.5t-42.5 -50t-64 -31.5t-81 -11q-42 0 -77 10t-60 29.5t-39 47t-14 63.5q0 37 14.5 67t42.5 57q-20 19 -27 40.5t-7 38.5t9 39t35 45q-60 56 -60 146q0 39 11 72t33 57t55 38t78 14zM354 390q0 4 0.5 13.5t2.5 20.5
q-27 17 -55.5 26t-57.5 9q-61 0 -91.5 -33t-30.5 -94q0 -56 27.5 -90t90.5 -34q60 0 87 31t27 86v65zM204 -4q-27 0 -49 5q-41 -37 -41 -89q0 -103 128 -103q60 0 98 24t38 75q0 46 -32.5 67t-98.5 21h-43zM203 649q0 20 7.5 43t18.5 42.5t23 32.5t22 13q5 0 8.5 -2.5
t3.5 -7.5q0 -8 -5 -14.5t-11 -13.5q-11 -13 -26 -42q23 -2 38.5 -16.5t15.5 -34.5q0 -19 -14 -32.5t-34 -13.5q-19 0 -33 13.5t-14 32.5z" />
    <glyph glyph-name="Hcircumflex" unicode="&#x124;" horiz-adv-x="580" 
d="M506 25q0 -14 -9.5 -24t-23.5 -10q-13 0 -23.5 10t-10.5 24v297h-294v-297q0 -14 -9.5 -24t-23.5 -10t-23.5 10t-9.5 24v658q0 13 9.5 23t23.5 10t23.5 -10t9.5 -23v-297h294v297q0 13 10.5 23t23.5 10t23 -10t10 -23v-658zM209 785q-1 -2 -5.5 -2.5t-7.5 -0.5
q-7 0 -12.5 6t-5.5 13q0 5 5 12t11 12l81 69q3 2 7.5 4.5t9.5 2.5q10 0 17 -7l81 -69q5 -5 10.5 -12t5.5 -12q0 -7 -5.5 -13t-13.5 -6q-3 0 -7 0.5t-5 2.5l-83 68z" />
    <glyph glyph-name="hcircumflex" unicode="&#x125;" horiz-adv-x="507" 
d="M143 25q0 -14 -8.5 -23t-21.5 -9q-14 0 -23.5 9t-9.5 23v681q0 12 8.5 22.5t22.5 10.5t23 -9.5t9 -23.5v-243q32 25 67.5 38.5t70.5 13.5q79 0 115.5 -46t36.5 -118v-326q0 -14 -9 -23t-23 -9t-23.5 9t-9.5 23v325q0 51 -22.5 78.5t-74.5 27.5q-32 0 -67 -16t-61 -50
v-365zM209 785q-1 -2 -5.5 -2.5t-7.5 -0.5q-7 0 -12.5 6t-5.5 13q0 5 5 12t11 12l81 69q3 2 7.5 4.5t9.5 2.5q10 0 17 -7l81 -69q5 -5 10.5 -12t5.5 -12q0 -7 -5.5 -13t-13.5 -6q-3 0 -7 0.5t-5 2.5l-83 68z" />
    <glyph glyph-name="Itilde" unicode="&#x128;" horiz-adv-x="227" 
d="M80 683q0 13 10 23t24 10t23.5 -10t9.5 -23v-659q0 -14 -9.5 -23.5t-23.5 -9.5t-24 9.5t-10 23.5v659zM249 856q0 -12 -7 -21.5t-18.5 -17t-25 -11.5t-26.5 -4q-17 0 -31.5 5.5t-27.5 12.5q-10 5 -18.5 10t-25.5 5q-9 0 -20 -3.5t-25 -14.5q-5 -5 -9 -7t-10 -2
q-9 0 -16 5.5t-7 17.5q0 21 23 38.5t52 17.5q15 0 29 -5.5t29 -13.5q13 -7 23 -10t22 -4q20 0 30 5t18 12q4 3 9.5 7.5t11.5 4.5t13 -7t7 -20z" />
    <glyph glyph-name="itilde" unicode="&#x129;" horiz-adv-x="245" 
d="M156 25q0 -14 -9.5 -23t-22.5 -9q-14 0 -23.5 9t-9.5 23v454q0 14 9.5 23.5t23.5 9.5q13 0 22.5 -9.5t9.5 -23.5v-454zM258 656q0 -12 -7 -21.5t-18.5 -17t-25 -11.5t-26.5 -4q-17 0 -31.5 5.5t-27.5 12.5q-10 5 -18.5 10t-25.5 5q-9 0 -20 -3.5t-25 -14.5q-5 -5 -9 -7
t-10 -2q-9 0 -16 5.5t-7 17.5q0 21 23 38.5t52 17.5q15 0 29 -5.5t29 -13.5q13 -7 23 -10t22 -4q20 0 30 5t18 12q4 3 9.5 7.5t11.5 4.5t13 -7t7 -20z" />
    <glyph glyph-name="Imacron" unicode="&#x12a;" horiz-adv-x="227" 
d="M80 683q0 13 10 23t24 10t23.5 -10t9.5 -23v-659q0 -14 -9.5 -23.5t-23.5 -9.5t-24 9.5t-10 23.5v659zM272 844q0 -13 -8 -21t-20 -8h-255q-13 0 -21.5 8t-8.5 21q0 12 8.5 21t21.5 9h255q12 0 20 -9t8 -21z" />
    <glyph glyph-name="imacron" unicode="&#x12b;" horiz-adv-x="245" 
d="M156 25q0 -14 -9.5 -23t-22.5 -9q-14 0 -23.5 9t-9.5 23v454q0 14 9.5 23.5t23.5 9.5q13 0 22.5 -9.5t9.5 -23.5v-454zM281 644q0 -13 -8 -21t-20 -8h-255q-13 0 -21.5 8t-8.5 21q0 12 8.5 21t21.5 9h255q12 0 20 -9t8 -21z" />
    <glyph glyph-name="Ibreve" unicode="&#x12c;" horiz-adv-x="227" 
d="M80 683q0 13 10 23t24 10t23.5 -10t9.5 -23v-659q0 -14 -9.5 -23.5t-23.5 -9.5t-24 9.5t-10 23.5v659zM116 832q18 0 36.5 10.5t35.5 34.5q10 14 25 14q10 0 17 -6.5t2 -22.5q-5 -19 -17.5 -33t-29 -24t-34.5 -15t-35 -5q-16 0 -35 5t-36.5 14.5t-30 24t-16.5 33.5
q-3 14 5 21.5t16 7.5q16 0 24 -14q18 -24 35.5 -34.5t37.5 -10.5z" />
    <glyph glyph-name="ibreve" unicode="&#x12d;" horiz-adv-x="245" 
d="M156 25q0 -14 -9.5 -23t-22.5 -9q-14 0 -23.5 9t-9.5 23v454q0 14 9.5 23.5t23.5 9.5q13 0 22.5 -9.5t9.5 -23.5v-454zM125 632q18 0 36.5 10.5t35.5 34.5q10 14 25 14q10 0 17 -6.5t2 -22.5q-5 -19 -17.5 -33t-29 -24t-34.5 -15t-35 -5q-16 0 -35 5t-36.5 14.5t-30 24
t-16.5 33.5q-3 14 5 21.5t16 7.5q16 0 24 -14q18 -24 35.5 -34.5t37.5 -10.5z" />
    <glyph glyph-name="Iogonek" unicode="&#x12e;" horiz-adv-x="227" 
d="M216 -167q0 -10 -7 -16t-17.5 -9.5t-22.5 -4.5t-23 -1q-45 0 -71.5 20t-26.5 64q0 25 12 54t34 56q-14 14 -14 28v659q0 13 10 23t24 10t23.5 -10t9.5 -23v-659q0 -8 -4 -14.5t-9 -11.5q-14 -20 -23.5 -46.5t-9.5 -49.5t13 -38t40 -15q12 0 18.5 1t11.5 2t8 1.5t5 0.5
q8 0 13.5 -6.5t5.5 -14.5z" />
    <glyph glyph-name="iogonek" unicode="&#x12f;" horiz-adv-x="245" 
d="M225 -168q0 -11 -7 -17t-18 -9.5t-23.5 -4.5t-23.5 -1q-45 0 -71.5 20.5t-26.5 64.5q0 27 12.5 56.5t35.5 56.5q-12 15 -12 27v454q0 14 9.5 23.5t23.5 9.5q13 0 22.5 -9.5t9.5 -23.5v-454q0 -8 -3.5 -14t-8.5 -11q-17 -21 -26.5 -48.5t-9.5 -50.5t13.5 -38.5t40.5 -15.5
q12 0 18.5 1.5t12.5 2.5q10 2 12 2q8 0 14 -6.5t6 -14.5zM165 681q0 -17 -12 -29t-29 -12q-18 0 -30.5 12t-12.5 29q0 18 12.5 30t30.5 12q17 0 29 -12t12 -30z" />
    <glyph glyph-name="Idotaccent" unicode="&#x130;" horiz-adv-x="227" 
d="M80 683q0 13 10 23t24 10t23.5 -10t9.5 -23v-659q0 -14 -9.5 -23.5t-23.5 -9.5t-24 9.5t-10 23.5v659zM155 846q0 -18 -12 -30t-29 -12t-28.5 12.5t-11.5 29.5q0 16 11.5 28.5t28.5 12.5t29 -12t12 -29z" />
    <glyph glyph-name="dotlessi" unicode="&#x131;" horiz-adv-x="245" 
d="M156 25q0 -14 -9.5 -23t-22.5 -9q-14 0 -23.5 9t-9.5 23v454q0 14 9.5 23.5t23.5 9.5q13 0 22.5 -9.5t9.5 -23.5v-454z" />
    <glyph glyph-name="Jcircumflex" unicode="&#x134;" horiz-adv-x="385" 
d="M309 223q0 -54 -9.5 -97t-32.5 -73t-61 -46t-95 -16q-10 0 -24 1t-26.5 4.5t-21 11.5t-8.5 21q0 16 9.5 24t18.5 8q2 0 6.5 -0.5t9.5 -1.5q8 -2 19.5 -3.5t27.5 -1.5q38 0 61 12t36.5 34t18 53t4.5 70v460q0 14 10 23.5t24 9.5q13 0 23 -10t10 -23v-460zM189 785
q-1 -2 -5.5 -2.5t-7.5 -0.5q-7 0 -12.5 6t-5.5 13q0 5 5 12t11 12l81 69q3 2 7.5 4.5t9.5 2.5q10 0 17 -7l81 -69q5 -5 10.5 -12t5.5 -12q0 -7 -5.5 -13t-13.5 -6q-3 0 -7 0.5t-5 2.5l-83 68z" />
    <glyph glyph-name="jcircumflex" unicode="&#x135;" horiz-adv-x="245" 
d="M157 -23q0 -76 -37.5 -125t-100.5 -60q-7 -1 -10.5 -0.5t-8.5 0.5q-9 0 -17 5.5t-10 14.5q-4 17 6 25t19 10q45 11 69.5 38.5t24.5 87.5v506q0 14 9.5 23.5t23.5 9.5q13 0 22.5 -9.5t9.5 -23.5v-502zM42 585q-1 -2 -5.5 -2.5t-7.5 -0.5q-7 0 -12.5 6t-5.5 13q0 5 5 12
t11 12l81 69q3 2 7.5 4.5t9.5 2.5q10 0 17 -7l81 -69q5 -5 10.5 -12t5.5 -12q0 -7 -5.5 -13t-13.5 -6q-3 0 -7 0.5t-5 2.5l-83 68z" />
    <glyph glyph-name="uni0136" unicode="&#x136;" horiz-adv-x="498" 
d="M204 337l-59 -73v-239q0 -14 -9.5 -24t-23.5 -10t-23.5 10t-9.5 24v658q0 13 9.5 23t23.5 10t23.5 -10t9.5 -23v-320l273 336q5 7 13.5 12t17.5 5t19 -7.5t9 -24.5q-1 -13 -8 -23v1l-223 -274l241 -346h-1q4 -7 4 -15q0 -12 -6 -24t-23 -12q-11 0 -17.5 4t-11.5 11z
M336 -113q0 -20 -7.5 -43t-18 -42t-23 -31.5t-21.5 -12.5q-5 0 -8.5 2t-3.5 7t5.5 12.5t10.5 15.5q5 6 12.5 16.5t13.5 25.5q-23 2 -38.5 16t-15.5 34t14 33.5t34 13.5q19 0 32.5 -14t13.5 -33z" />
    <glyph glyph-name="uni0137" unicode="&#x137;" horiz-adv-x="439" 
d="M145 297l200 207q3 4 8.5 5.5t10.5 1.5q13 0 21.5 -8.5t8.5 -21.5q0 -14 -7 -21l-156 -159l177 -263q2 -3 4 -9t2 -10q1 -12 -8.5 -19t-22.5 -7q-18 0 -27 15l-165 251l-46 -48v-186q0 -14 -9.5 -23t-22.5 -9q-14 0 -23.5 9t-9.5 23v675q0 14 9.5 23.5t23.5 9.5
q13 0 22.5 -9.5t9.5 -23.5v-403zM295 -113q0 -20 -7.5 -43t-18 -42t-23 -31.5t-21.5 -12.5q-5 0 -8.5 2t-3.5 7t5.5 12.5t10.5 15.5q5 6 12.5 16.5t13.5 25.5q-23 2 -38.5 16t-15.5 34t14 33.5t34 13.5q19 0 32.5 -14t13.5 -33z" />
    <glyph glyph-name="Lacute" unicode="&#x139;" horiz-adv-x="448" 
d="M437 33q0 -14 -9 -23t-22 -9h-288q-16 0 -27.5 10.5t-11.5 27.5v644q0 13 10 23t24 10t23 -10t9 -23v-619h261q12 0 21.5 -9t9.5 -22zM187 916q5 5 10 9.5t13 4.5q11 0 18 -8.5t7 -18.5q0 -7 -3 -12l-82 -87q-8 -8 -13.5 -12.5t-13.5 -4.5q-11 0 -19 8.5t-8 19.5
q0 5 4 10z" />
    <glyph glyph-name="lacute" unicode="&#x13a;" horiz-adv-x="228" 
d="M82 700q0 13 9 23t23 10t23 -9.5t9 -23.5v-610q0 -35 18 -54q4 -6 4 -14q0 -13 -8 -21t-21 -8q-8 0 -18 3t-18.5 13t-14.5 29.5t-6 51.5v610zM179 902q5 5 10 9.5t13 4.5q11 0 18 -8.5t7 -18.5q0 -7 -3 -12l-82 -87q-8 -8 -13.5 -12.5t-13.5 -4.5q-11 0 -19 8.5t-8 19.5
q0 5 4 10z" />
    <glyph glyph-name="uni013B" unicode="&#x13b;" horiz-adv-x="448" 
d="M437 33q0 -14 -9 -23t-22 -9h-288q-16 0 -27.5 10.5t-11.5 27.5v644q0 13 10 23t24 10t23 -10t9 -23v-619h261q12 0 21.5 -9t9.5 -22zM318 -113q0 -20 -7.5 -43t-18 -42t-23 -31.5t-21.5 -12.5q-5 0 -8.5 2t-3.5 7t5.5 12.5t10.5 15.5q5 6 12.5 16.5t13.5 25.5
q-23 2 -38.5 16t-15.5 34t14 33.5t34 13.5q19 0 32.5 -14t13.5 -33z" />
    <glyph glyph-name="uni013C" unicode="&#x13c;" horiz-adv-x="228" 
d="M82 700q0 13 9 23t23 10t23 -9.5t9 -23.5v-610q0 -35 18 -54q4 -6 4 -14q0 -13 -8 -21t-21 -8q-8 0 -18 3t-18.5 13t-14.5 29.5t-6 51.5v610zM163 -113q0 -20 -7.5 -43t-18 -42t-23 -31.5t-21.5 -12.5q-5 0 -8.5 2t-3.5 7t5.5 12.5t10.5 15.5q5 6 12.5 16.5t13.5 25.5
q-23 2 -38.5 16t-15.5 34t14 33.5t34 13.5q19 0 32.5 -14t13.5 -33z" />
    <glyph glyph-name="Lcaron" unicode="&#x13d;" horiz-adv-x="448" 
d="M437 33q0 -14 -9 -23t-22 -9h-288q-16 0 -27.5 10.5t-11.5 27.5v644q0 13 10 23t24 10t23 -10t9 -23v-619h261q12 0 21.5 -9t9.5 -22zM391 679q0 -24 -7.5 -52t-18 -52t-22.5 -39.5t-21 -15.5q-5 0 -9 2t-4 7q0 11 5.5 21.5t12.5 22.5q5 9 10 19.5t12 36.5q-22 2 -37 16
t-15 34t14 33.5t34 13.5t33 -13.5t13 -33.5z" />
    <glyph glyph-name="lcaron" unicode="&#x13e;" horiz-adv-x="359" 
d="M82 700q0 13 9 23t23 10t23 -9.5t9 -23.5v-610q0 -35 18 -54q4 -6 4 -14q0 -13 -8 -21t-21 -8q-8 0 -18 3t-18.5 13t-14.5 29.5t-6 51.5v610zM328 679q0 -24 -7.5 -52t-18 -52t-22.5 -39.5t-21 -15.5q-5 0 -9 2t-4 7q0 11 5.5 21.5t12.5 22.5q5 9 10 19.5t12 36.5
q-22 2 -37 16t-15 34t14 33.5t34 13.5t33 -13.5t13 -33.5z" />
    <glyph glyph-name="Lslash" unicode="&#x141;" horiz-adv-x="494" 
d="M484 33q0 -14 -9 -23t-22 -9h-288q-16 0 -27.5 10.5t-11.5 27.5v265l-52 -33l-10 -6t-10 -3q-13 0 -23.5 7t-10.5 23t14 25l92 60v306q0 13 10 23t24 10t23 -10t9 -23v-263l68 45q6 4 11.5 6.5t13.5 2.5t15.5 -6t11.5 -14q1 -4 1 -11q0 -14 -12 -23l-109 -72v-284h261
q12 0 21.5 -9t9.5 -22z" />
    <glyph glyph-name="lslash" unicode="&#x142;" horiz-adv-x="337" 
d="M128 309l-53 -36l-10 -6t-10 -3q-13 0 -24 7t-11 24q0 15 15 24l93 61v320q0 13 9.5 23t23.5 10t23 -9.5t9 -23.5v-276l69 45q7 4 12.5 6.5t13.5 2.5t15.5 -6t11.5 -14q1 -5 1 -11q0 -15 -13 -23l-110 -74v-260q0 -17 3.5 -30t14.5 -24q4 -6 4 -14q0 -13 -8.5 -21
t-20.5 -8q-9 0 -19 3t-18.5 13t-14.5 29.5t-6 51.5v219z" />
    <glyph glyph-name="Nacute" unicode="&#x143;" horiz-adv-x="600" 
d="M489 -9q-10 0 -20 5t-15 14l-309 571v-556q0 -14 -10 -24t-24 -10t-23.5 10t-9.5 24v653q0 17 10.5 27.5t26.5 10.5q25 0 36 -21l309 -572v559q0 14 10 24t24 10t23 -10t9 -24v-654q0 -16 -10 -26.5t-27 -10.5zM363 916q5 5 10 9.5t13 4.5q11 0 18 -8.5t7 -18.5
q0 -7 -3 -12l-82 -87q-8 -8 -13.5 -12.5t-13.5 -4.5q-11 0 -19 8.5t-8 19.5q0 5 4 10z" />
    <glyph glyph-name="nacute" unicode="&#x144;" horiz-adv-x="509" 
d="M129 464q37 26 75 37.5t75 11.5q78 0 116.5 -51t38.5 -136v-301q0 -14 -8 -22.5t-24 -8.5t-24.5 8.5t-8.5 22.5v301q0 63 -25.5 97t-76.5 34q-32 0 -62.5 -13t-59.5 -35q3 -16 3 -34v-350q0 -14 -8 -22.5t-24 -8.5q-17 0 -25 8.5t-8 22.5v350q0 26 -3.5 43.5t-14.5 32.5
q-6 8 -6 17q0 13 9 21t20 8q10 0 21.5 -8t19.5 -25zM277 716q5 5 10 9.5t13 4.5q11 0 18 -8.5t7 -18.5q0 -7 -3 -12l-82 -87q-8 -8 -13.5 -12.5t-13.5 -4.5q-11 0 -19 8.5t-8 19.5q0 5 4 10z" />
    <glyph glyph-name="uni0145" unicode="&#x145;" horiz-adv-x="600" 
d="M489 -9q-10 0 -20 5t-15 14l-309 571v-556q0 -14 -10 -24t-24 -10t-23.5 10t-9.5 24v653q0 17 10.5 27.5t26.5 10.5q25 0 36 -21l309 -572v559q0 14 10 24t24 10t23 -10t9 -24v-654q0 -16 -10 -26.5t-27 -10.5zM349 -113q0 -20 -7.5 -43t-18 -42t-23 -31.5t-21.5 -12.5
q-5 0 -8.5 2t-3.5 7t5.5 12.5t10.5 15.5q5 6 12.5 16.5t13.5 25.5q-23 2 -38.5 16t-15.5 34t14 33.5t34 13.5q19 0 32.5 -14t13.5 -33z" />
    <glyph glyph-name="uni0146" unicode="&#x146;" horiz-adv-x="509" 
d="M129 464q37 26 75 37.5t75 11.5q78 0 116.5 -51t38.5 -136v-301q0 -14 -8 -22.5t-24 -8.5t-24.5 8.5t-8.5 22.5v301q0 63 -25.5 97t-76.5 34q-32 0 -62.5 -13t-59.5 -35q3 -16 3 -34v-350q0 -14 -8 -22.5t-24 -8.5q-17 0 -25 8.5t-8 22.5v350q0 26 -3.5 43.5t-14.5 32.5
q-6 8 -6 17q0 13 9 21t20 8q10 0 21.5 -8t19.5 -25zM303 -113q0 -20 -7.5 -43t-18 -42t-23 -31.5t-21.5 -12.5q-5 0 -8.5 2t-3.5 7t5.5 12.5t10.5 15.5q5 6 12.5 16.5t13.5 25.5q-23 2 -38.5 16t-15.5 34t14 33.5t34 13.5q19 0 32.5 -14t13.5 -33z" />
    <glyph glyph-name="Ncaron" unicode="&#x147;" horiz-adv-x="600" 
d="M489 -9q-10 0 -20 5t-15 14l-309 571v-556q0 -14 -10 -24t-24 -10t-23.5 10t-9.5 24v653q0 17 10.5 27.5t26.5 10.5q25 0 36 -21l309 -572v559q0 14 10 24t24 10t23 -10t9 -24v-654q0 -16 -10 -26.5t-27 -10.5zM302 775q-12 0 -19 7l-90 75q-8 7 -13.5 14t-5.5 15
q0 10 8 16t16 6q5 0 8 -2l6 -4l90 -73l90 73q6 6 14 6q9 0 16 -6t7 -16q0 -9 -5 -15.5t-13 -13.5l-90 -75q-7 -7 -19 -7z" />
    <glyph glyph-name="ncaron" unicode="&#x148;" horiz-adv-x="509" 
d="M129 464q37 26 75 37.5t75 11.5q78 0 116.5 -51t38.5 -136v-301q0 -14 -8 -22.5t-24 -8.5t-24.5 8.5t-8.5 22.5v301q0 63 -25.5 97t-76.5 34q-32 0 -62.5 -13t-59.5 -35q3 -16 3 -34v-350q0 -14 -8 -22.5t-24 -8.5q-17 0 -25 8.5t-8 22.5v350q0 26 -3.5 43.5t-14.5 32.5
q-6 8 -6 17q0 13 9 21t20 8q10 0 21.5 -8t19.5 -25zM256 575q-12 0 -19 7l-90 75q-8 7 -13.5 14t-5.5 15q0 10 8 16t16 6q5 0 8 -2l6 -4l90 -73l90 73q6 6 14 6q9 0 16 -6t7 -16q0 -9 -5 -15.5t-13 -13.5l-90 -75q-7 -7 -19 -7z" />
    <glyph glyph-name="Omacron" unicode="&#x14c;" horiz-adv-x="551" 
d="M278 -9q-57 0 -99.5 19.5t-71 54t-43 80.5t-14.5 99v219q0 52 12.5 98t40 80.5t71 54.5t104.5 20t104 -20t70.5 -54.5t40 -80.5t12.5 -98v-219q0 -53 -14 -99t-42.5 -80.5t-71 -54t-99.5 -19.5zM278 652q-45 0 -75.5 -13.5t-49.5 -38.5t-27.5 -60t-8.5 -77v-219
q0 -42 9.5 -76.5t29.5 -59.5t50.5 -39t71.5 -14t71.5 14t50 39t29 59.5t9.5 76.5v219q0 42 -8.5 77t-27.5 60t-49.5 38.5t-74.5 13.5zM433 844q0 -13 -8 -21t-20 -8h-255q-13 0 -21.5 8t-8.5 21q0 12 8.5 21t21.5 9h255q12 0 20 -9t8 -21z" />
    <glyph glyph-name="omacron" unicode="&#x14d;" horiz-adv-x="464" 
d="M235 -7q-45 0 -79.5 13.5t-58 37t-35.5 55.5t-12 69v172q0 37 12 69t35.5 56t58 37.5t79.5 13.5t80 -13.5t58 -37.5t35 -56t12 -69v-172q0 -37 -12 -69t-35 -55.5t-58 -37t-80 -13.5zM235 52q60 0 90 31t30 85v173q0 54 -30 85.5t-90 31.5t-90 -31.5t-30 -85.5v-173
q0 -54 30 -85t90 -31zM390 644q0 -13 -8 -21t-20 -8h-255q-13 0 -21.5 8t-8.5 21q0 12 8.5 21t21.5 9h255q12 0 20 -9t8 -21z" />
    <glyph glyph-name="Obreve" unicode="&#x14e;" horiz-adv-x="551" 
d="M278 -9q-57 0 -99.5 19.5t-71 54t-43 80.5t-14.5 99v219q0 52 12.5 98t40 80.5t71 54.5t104.5 20t104 -20t70.5 -54.5t40 -80.5t12.5 -98v-219q0 -53 -14 -99t-42.5 -80.5t-71 -54t-99.5 -19.5zM278 652q-45 0 -75.5 -13.5t-49.5 -38.5t-27.5 -60t-8.5 -77v-219
q0 -42 9.5 -76.5t29.5 -59.5t50.5 -39t71.5 -14t71.5 14t50 39t29 59.5t9.5 76.5v219q0 42 -8.5 77t-27.5 60t-49.5 38.5t-74.5 13.5zM277 832q18 0 36.5 10.5t35.5 34.5q10 14 25 14q10 0 17 -6.5t2 -22.5q-5 -19 -17.5 -33t-29 -24t-34.5 -15t-35 -5q-16 0 -35 5
t-36.5 14.5t-30 24t-16.5 33.5q-3 14 5 21.5t16 7.5q16 0 24 -14q18 -24 35.5 -34.5t37.5 -10.5z" />
    <glyph glyph-name="obreve" unicode="&#x14f;" horiz-adv-x="464" 
d="M235 -7q-45 0 -79.5 13.5t-58 37t-35.5 55.5t-12 69v172q0 37 12 69t35.5 56t58 37.5t79.5 13.5t80 -13.5t58 -37.5t35 -56t12 -69v-172q0 -37 -12 -69t-35 -55.5t-58 -37t-80 -13.5zM235 52q60 0 90 31t30 85v173q0 54 -30 85.5t-90 31.5t-90 -31.5t-30 -85.5v-173
q0 -54 30 -85t90 -31zM234 632q18 0 36.5 10.5t35.5 34.5q10 14 25 14q10 0 17 -6.5t2 -22.5q-5 -19 -17.5 -33t-29 -24t-34.5 -15t-35 -5q-16 0 -35 5t-36.5 14.5t-30 24t-16.5 33.5q-3 14 5 21.5t16 7.5q16 0 24 -14q18 -24 35.5 -34.5t37.5 -10.5z" />
    <glyph glyph-name="Ohungarumlaut" unicode="&#x150;" horiz-adv-x="551" 
d="M278 -9q-57 0 -99.5 19.5t-71 54t-43 80.5t-14.5 99v219q0 52 12.5 98t40 80.5t71 54.5t104.5 20t104 -20t70.5 -54.5t40 -80.5t12.5 -98v-219q0 -53 -14 -99t-42.5 -80.5t-71 -54t-99.5 -19.5zM278 652q-45 0 -75.5 -13.5t-49.5 -38.5t-27.5 -60t-8.5 -77v-219
q0 -42 9.5 -76.5t29.5 -59.5t50.5 -39t71.5 -14t71.5 14t50 39t29 59.5t9.5 76.5v219q0 42 -8.5 77t-27.5 60t-49.5 38.5t-74.5 13.5zM381 913q5 8 11 16t16 8t19 -8.5t9 -18.5q0 -6 -2 -9l-72 -107q-5 -7 -9 -10.5t-12 -3.5q-11 0 -19.5 7.5t-8.5 17.5q0 7 2 10zM247 919
q5 8 10 13t13 5q13 0 20 -10.5t7 -18.5v-4q0 -3 -1 -4q-4 -7 -11.5 -19l-16.5 -25.5l-18.5 -27.5t-18.5 -26q-8 -11 -14.5 -16.5t-14.5 -5.5q-11 0 -19 8t-8 19q0 4 2 8z" />
    <glyph glyph-name="ohungarumlaut" unicode="&#x151;" horiz-adv-x="464" 
d="M235 -7q-45 0 -79.5 13.5t-58 37t-35.5 55.5t-12 69v172q0 37 12 69t35.5 56t58 37.5t79.5 13.5t80 -13.5t58 -37.5t35 -56t12 -69v-172q0 -37 -12 -69t-35 -55.5t-58 -37t-80 -13.5zM235 52q60 0 90 31t30 85v173q0 54 -30 85.5t-90 31.5t-90 -31.5t-30 -85.5v-173
q0 -54 30 -85t90 -31zM345 713q5 8 11 16t16 8t19 -8.5t9 -18.5q0 -6 -2 -9l-72 -107q-5 -7 -9 -10.5t-12 -3.5q-11 0 -19.5 7.5t-8.5 17.5q0 7 2 10zM211 719q5 8 10 13t13 5q13 0 20 -10.5t7 -18.5v-4q0 -3 -1 -4q-4 -7 -11.5 -19l-16.5 -25.5l-18.5 -27.5t-18.5 -26
q-8 -11 -14.5 -16.5t-14.5 -5.5q-11 0 -19 8t-8 19q0 4 2 8z" />
    <glyph glyph-name="OE" unicode="&#x152;" horiz-adv-x="756" 
d="M726 35q0 -15 -9 -24.5t-23 -9.5h-240q-23 0 -39.5 11.5t-18.5 43.5q-29 -30 -63.5 -47.5t-76.5 -17.5q-51 0 -90 18.5t-65 50t-39 74t-13 90.5v259q0 48 11.5 90.5t36 74t64 50t95.5 18.5q42 0 76 -15.5t61 -43.5q4 19 16 34t28 15h246q14 0 23.5 -10t9.5 -24
q0 -13 -9.5 -21.5t-23.5 -8.5h-220v-255h201q12 0 22 -9t10 -23t-9.5 -23t-22.5 -9h-201v-258h231q13 0 22.5 -9t9.5 -21zM256 652q-39 0 -66 -12t-43.5 -34.5t-24 -53.5t-7.5 -69v-259q0 -74 34.5 -121.5t106.5 -47.5t106 47.5t34 121.5v259q0 38 -7 69t-23.5 53.5
t-43.5 34.5t-66 12z" />
    <glyph glyph-name="oe" unicode="&#x153;" horiz-adv-x="731" 
d="M229 -7q-43 0 -76.5 13.5t-57 37t-35.5 55.5t-12 69v172q0 37 12 69t35.5 56t57 37.5t76.5 13.5q56 0 94.5 -26.5t61.5 -71.5q21 45 59 71t94 26q78 0 118.5 -43.5t40.5 -116.5q0 -68 -39 -106.5t-127 -38.5q-24 0 -54 2.5t-59 8.5v-71q0 -46 30 -74t90 -28
q35 0 59.5 8.5t51.5 20.5q2 1 5 2t6 1q12 0 20 -8.5t8 -19.5q0 -17 -17.5 -28.5t-42 -18t-51.5 -9.5t-45 -3q-54 0 -91 26t-57 69q-22 -44 -61 -69.5t-94 -25.5zM233 52q60 0 90 31t30 85v173q0 54 -30 85.5t-90 31.5t-90 -31.5t-30 -85.5v-173q0 -54 30 -85t90 -31z
M633 355q0 55 -26.5 79t-74.5 24q-54 0 -84 -27.5t-30 -74.5v-85q32 -4 66.5 -6t49.5 -2q32 0 51.5 8t30 20.5t14 29t3.5 34.5z" />
    <glyph glyph-name="Racute" unicode="&#x154;" horiz-adv-x="575" 
d="M511 509q0 -78 -43.5 -126t-118.5 -63l169 -278l-1 1q4 -10 4 -21q0 -13 -13 -21.5t-23 -8.5q-17 0 -27 15l-183 311h-130v-292q0 -14 -10 -24.5t-24 -10.5q-13 0 -23 10t-10 25v638q0 17 12 29.5t28 12.5h178q61 0 102.5 -17t66.5 -44.5t35.5 -63t10.5 -72.5zM444 509
q0 24 -6 48t-23 42.5t-46.5 30.5t-76.5 12h-147v-261h153q72 0 109 32.5t37 95.5zM310 916q5 5 10 9.5t13 4.5q11 0 18 -8.5t7 -18.5q0 -7 -3 -12l-82 -87q-8 -8 -13.5 -12.5t-13.5 -4.5q-11 0 -19 8.5t-8 19.5q0 5 4 10z" />
    <glyph glyph-name="racute" unicode="&#x155;" horiz-adv-x="337" 
d="M149 25q0 -14 -9.5 -23t-22.5 -9q-14 0 -23.5 9t-9.5 23v348q0 26 -3.5 43.5t-14.5 32.5q-6 8 -6 17q0 13 9 21t21 8q10 0 20.5 -8.5t18.5 -22.5q35 23 75 35t68 12q26 0 36 -9t10 -23q0 -15 -9.5 -25t-22.5 -9h-33t-32.5 -4t-34 -12.5t-38.5 -23.5v-1q0 -1 1 -4v-9.5
v-17.5v-348zM255 716q5 5 10 9.5t13 4.5q11 0 18 -8.5t7 -18.5q0 -7 -3 -12l-82 -87q-8 -8 -13.5 -12.5t-13.5 -4.5q-11 0 -19 8.5t-8 19.5q0 5 4 10z" />
    <glyph glyph-name="uni0156" unicode="&#x156;" horiz-adv-x="575" 
d="M511 509q0 -78 -43.5 -126t-118.5 -63l169 -278l-1 1q4 -10 4 -21q0 -13 -13 -21.5t-23 -8.5q-17 0 -27 15l-183 311h-130v-292q0 -14 -10 -24.5t-24 -10.5q-13 0 -23 10t-10 25v638q0 17 12 29.5t28 12.5h178q61 0 102.5 -17t66.5 -44.5t35.5 -63t10.5 -72.5zM444 509
q0 24 -6 48t-23 42.5t-46.5 30.5t-76.5 12h-147v-261h153q72 0 109 32.5t37 95.5zM336 -113q0 -20 -7.5 -43t-18 -42t-23 -31.5t-21.5 -12.5q-5 0 -8.5 2t-3.5 7t5.5 12.5t10.5 15.5q5 6 12.5 16.5t13.5 25.5q-23 2 -38.5 16t-15.5 34t14 33.5t34 13.5q19 0 32.5 -14
t13.5 -33z" />
    <glyph glyph-name="uni0157" unicode="&#x157;" horiz-adv-x="337" 
d="M149 25q0 -14 -9.5 -23t-22.5 -9q-14 0 -23.5 9t-9.5 23v348q0 26 -3.5 43.5t-14.5 32.5q-6 8 -6 17q0 13 9 21t21 8q10 0 20.5 -8.5t18.5 -22.5q35 23 75 35t68 12q26 0 36 -9t10 -23q0 -15 -9.5 -25t-22.5 -9h-33t-32.5 -4t-34 -12.5t-38.5 -23.5v-1q0 -1 1 -4v-9.5
v-17.5v-348zM163 -113q0 -20 -7.5 -43t-18 -42t-23 -31.5t-21.5 -12.5q-5 0 -8.5 2t-3.5 7t5.5 12.5t10.5 15.5q5 6 12.5 16.5t13.5 25.5q-23 2 -38.5 16t-15.5 34t14 33.5t34 13.5q19 0 32.5 -14t13.5 -33z" />
    <glyph glyph-name="Rcaron" unicode="&#x158;" horiz-adv-x="575" 
d="M511 509q0 -78 -43.5 -126t-118.5 -63l169 -278l-1 1q4 -10 4 -21q0 -13 -13 -21.5t-23 -8.5q-17 0 -27 15l-183 311h-130v-292q0 -14 -10 -24.5t-24 -10.5q-13 0 -23 10t-10 25v638q0 17 12 29.5t28 12.5h178q61 0 102.5 -17t66.5 -44.5t35.5 -63t10.5 -72.5zM444 509
q0 24 -6 48t-23 42.5t-46.5 30.5t-76.5 12h-147v-261h153q72 0 109 32.5t37 95.5zM289 775q-12 0 -19 7l-90 75q-8 7 -13.5 14t-5.5 15q0 10 8 16t16 6q5 0 8 -2l6 -4l90 -73l90 73q6 6 14 6q9 0 16 -6t7 -16q0 -9 -5 -15.5t-13 -13.5l-90 -75q-7 -7 -19 -7z" />
    <glyph glyph-name="rcaron" unicode="&#x159;" horiz-adv-x="337" 
d="M149 25q0 -14 -9.5 -23t-22.5 -9q-14 0 -23.5 9t-9.5 23v348q0 26 -3.5 43.5t-14.5 32.5q-6 8 -6 17q0 13 9 21t21 8q10 0 20.5 -8.5t18.5 -22.5q35 23 75 35t68 12q26 0 36 -9t10 -23q0 -15 -9.5 -25t-22.5 -9h-33t-32.5 -4t-34 -12.5t-38.5 -23.5v-1q0 -1 1 -4v-9.5
v-17.5v-348zM171 575q-12 0 -19 7l-90 75q-8 7 -13.5 14t-5.5 15q0 10 8 16t16 6q5 0 8 -2l6 -4l90 -73l90 73q6 6 14 6q9 0 16 -6t7 -16q0 -9 -5 -15.5t-13 -13.5l-90 -75q-7 -7 -19 -7z" />
    <glyph glyph-name="Sacute" unicode="&#x15a;" horiz-adv-x="486" 
d="M372 188q0 26 -6 44t-15 31t-20 21.5t-21 13.5q-16 8 -37 16l-43 16q-33 11 -65.5 24t-59 34t-42.5 53.5t-16 82.5q0 91 53.5 141.5t146.5 50.5q18 0 46.5 -2.5t55 -9.5t45.5 -19t19 -31q0 -12 -8.5 -21.5t-24.5 -9.5q-8 0 -17.5 2.5t-17.5 6.5q-17 7 -39 13.5t-53 6.5
q-26 0 -50.5 -6t-43.5 -20t-30.5 -37.5t-11.5 -59.5q0 -27 6.5 -45.5t16 -31t21 -20t20.5 -12.5q17 -8 38 -16.5t42 -15.5q32 -10 64.5 -23.5t58.5 -35.5t42.5 -54t16.5 -80q0 -49 -16.5 -87t-45 -64t-68 -39.5t-86.5 -13.5q-24 0 -55 3.5t-59 11.5t-47.5 21t-19.5 31
q0 13 9 23t21 10q5 0 15.5 -3.5l21.5 -7.5q20 -8 48 -16.5t67 -8.5q72 0 108 35t36 98zM311 916q5 5 10 9.5t13 4.5q11 0 18 -8.5t7 -18.5q0 -7 -3 -12l-82 -87q-8 -8 -13.5 -12.5t-13.5 -4.5q-11 0 -19 8.5t-8 19.5q0 5 4 10z" />
    <glyph glyph-name="sacute" unicode="&#x15b;" horiz-adv-x="406" 
d="M59 374q0 64 40.5 102.5t118.5 38.5q19 0 41.5 -2.5t42 -8.5t32.5 -15.5t13 -23.5q0 -12 -8 -20.5t-21 -8.5q-5 0 -8 1t-7 3q-17 8 -35 14t-47 6q-51 0 -75 -20.5t-24 -60.5q0 -27 12 -43t41 -32q30 -15 62.5 -26t60.5 -28t46 -43.5t18 -71.5q0 -66 -41.5 -104
t-123.5 -38q-19 0 -44 2t-47.5 8t-38 16t-15.5 25q0 11 8.5 20.5t22.5 9.5q3 0 6 -1q23 -9 48.5 -17t59.5 -8q46 0 74 19.5t28 64.5q0 32 -12 48t-29 25q-29 15 -64 26t-65 28t-50 43.5t-20 71.5zM269 716q5 5 10 9.5t13 4.5q11 0 18 -8.5t7 -18.5q0 -7 -3 -12l-82 -87
q-8 -8 -13.5 -12.5t-13.5 -4.5q-11 0 -19 8.5t-8 19.5q0 5 4 10z" />
    <glyph glyph-name="Scircumflex" unicode="&#x15c;" horiz-adv-x="486" 
d="M372 188q0 26 -6 44t-15 31t-20 21.5t-21 13.5q-16 8 -37 16l-43 16q-33 11 -65.5 24t-59 34t-42.5 53.5t-16 82.5q0 91 53.5 141.5t146.5 50.5q18 0 46.5 -2.5t55 -9.5t45.5 -19t19 -31q0 -12 -8.5 -21.5t-24.5 -9.5q-8 0 -17.5 2.5t-17.5 6.5q-17 7 -39 13.5t-53 6.5
q-26 0 -50.5 -6t-43.5 -20t-30.5 -37.5t-11.5 -59.5q0 -27 6.5 -45.5t16 -31t21 -20t20.5 -12.5q17 -8 38 -16.5t42 -15.5q32 -10 64.5 -23.5t58.5 -35.5t42.5 -54t16.5 -80q0 -49 -16.5 -87t-45 -64t-68 -39.5t-86.5 -13.5q-24 0 -55 3.5t-59 11.5t-47.5 21t-19.5 31
q0 13 9 23t21 10q5 0 15.5 -3.5l21.5 -7.5q20 -8 48 -16.5t67 -8.5q72 0 108 35t36 98zM162 785q-1 -2 -5.5 -2.5t-7.5 -0.5q-7 0 -12.5 6t-5.5 13q0 5 5 12t11 12l81 69q3 2 7.5 4.5t9.5 2.5q10 0 17 -7l81 -69q5 -5 10.5 -12t5.5 -12q0 -7 -5.5 -13t-13.5 -6q-3 0 -7 0.5
t-5 2.5l-83 68z" />
    <glyph glyph-name="scircumflex" unicode="&#x15d;" horiz-adv-x="406" 
d="M59 374q0 64 40.5 102.5t118.5 38.5q19 0 41.5 -2.5t42 -8.5t32.5 -15.5t13 -23.5q0 -12 -8 -20.5t-21 -8.5q-5 0 -8 1t-7 3q-17 8 -35 14t-47 6q-51 0 -75 -20.5t-24 -60.5q0 -27 12 -43t41 -32q30 -15 62.5 -26t60.5 -28t46 -43.5t18 -71.5q0 -66 -41.5 -104
t-123.5 -38q-19 0 -44 2t-47.5 8t-38 16t-15.5 25q0 11 8.5 20.5t22.5 9.5q3 0 6 -1q23 -9 48.5 -17t59.5 -8q46 0 74 19.5t28 64.5q0 32 -12 48t-29 25q-29 15 -64 26t-65 28t-50 43.5t-20 71.5zM122 585q-1 -2 -5.5 -2.5t-7.5 -0.5q-7 0 -12.5 6t-5.5 13q0 5 5 12t11 12
l81 69q3 2 7.5 4.5t9.5 2.5q10 0 17 -7l81 -69q5 -5 10.5 -12t5.5 -12q0 -7 -5.5 -13t-13.5 -6q-3 0 -7 0.5t-5 2.5l-83 68z" />
    <glyph glyph-name="Scedilla" unicode="&#x15e;" horiz-adv-x="486" 
d="M356 -138q0 -30 -25.5 -54.5t-77.5 -24.5q-26 0 -30 1q-20 2 -35 13t-8 25v-1q4 6 10.5 6t17.5 -3l18 -4q20 -4 35 -0.5t24.5 11.5t14.5 18t5 20q0 23 -17.5 32.5t-51.5 11.5q-19 1 -25.5 6t-4.5 19l8 53q-25 1 -54.5 5.5t-55 12.5t-42 20t-16.5 29q0 13 9 23t21 10
q5 0 15.5 -3.5l21.5 -7.5q20 -8 48 -16.5t67 -8.5q72 0 108 35t36 98q0 26 -6 44t-15 31t-20 21.5t-21 13.5q-16 8 -37 16l-43 16q-33 11 -65.5 24t-59 34t-42.5 53.5t-16 82.5q0 91 53.5 141.5t146.5 50.5q18 0 46.5 -2.5t55 -9.5t45.5 -19t19 -31q0 -12 -8.5 -21.5
t-24.5 -9.5q-8 0 -17.5 2.5t-17.5 6.5q-17 7 -39 13.5t-53 6.5q-26 0 -50.5 -6t-43.5 -20t-30.5 -37.5t-11.5 -59.5q0 -27 6.5 -45.5t16 -31t21 -20t20.5 -12.5q17 -8 38 -16.5t42 -15.5q32 -10 64.5 -23.5t58.5 -35.5t42.5 -54t16.5 -80q0 -45 -14 -80.5t-39.5 -61.5
t-61 -41.5t-77.5 -19.5l-7 -47q63 -1 87.5 -23.5t24.5 -59.5z" />
    <glyph glyph-name="scedilla" unicode="&#x15f;" horiz-adv-x="406" 
d="M318 -139q0 -30 -25.5 -54.5t-78.5 -24.5q-26 0 -30 1q-20 2 -35 13t-8 25v-1q4 6 10.5 6t17.5 -3l18 -4q20 -4 35 -0.5t25 11t15 18t5 20.5q0 23 -17.5 32.5t-51.5 11.5q-20 1 -26.5 6t-4.5 19l9 55q-20 1 -42 4.5t-40 9.5t-30 15.5t-12 22.5q0 11 8.5 20.5t22.5 9.5
q3 0 6 -1q23 -9 48.5 -17t59.5 -8q46 0 74 19.5t28 64.5q0 31 -12 46.5t-29 24.5q-9 5 -23.5 10t-32.5 12h1l-49.5 19.5t-46.5 27t-34.5 41t-13.5 61.5q0 64 40.5 102.5t118.5 38.5q19 0 41.5 -2.5t42 -8.5t32.5 -15.5t13 -23.5q0 -12 -8 -20.5t-21 -8.5q-5 0 -8 1t-7 3
q-17 8 -35 14t-47 6q-51 0 -75 -20.5t-24 -60.5q0 -26 12 -42t41 -31q9 -5 22 -9.5l28 -9.5h-1q24 -9 48.5 -19.5t44.5 -27.5t32.5 -42t12.5 -63q0 -62 -37.5 -99.5t-112.5 -42.5l-7 -49q63 -1 88 -23.5t25 -59.5z" />
    <glyph glyph-name="Scaron" unicode="&#x160;" horiz-adv-x="486" 
d="M372 188q0 26 -6 44t-15 31t-20 21.5t-21 13.5q-16 8 -37 16l-43 16q-33 11 -65.5 24t-59 34t-42.5 53.5t-16 82.5q0 91 53.5 141.5t146.5 50.5q18 0 46.5 -2.5t55 -9.5t45.5 -19t19 -31q0 -12 -8.5 -21.5t-24.5 -9.5q-8 0 -17.5 2.5t-17.5 6.5q-17 7 -39 13.5t-53 6.5
q-26 0 -50.5 -6t-43.5 -20t-30.5 -37.5t-11.5 -59.5q0 -27 6.5 -45.5t16 -31t21 -20t20.5 -12.5q17 -8 38 -16.5t42 -15.5q32 -10 64.5 -23.5t58.5 -35.5t42.5 -54t16.5 -80q0 -49 -16.5 -87t-45 -64t-68 -39.5t-86.5 -13.5q-24 0 -55 3.5t-59 11.5t-47.5 21t-19.5 31
q0 13 9 23t21 10q5 0 15.5 -3.5l21.5 -7.5q20 -8 48 -16.5t67 -8.5q72 0 108 35t36 98zM245 775q-12 0 -19 7l-90 75q-8 7 -13.5 14t-5.5 15q0 10 8 16t16 6q5 0 8 -2l6 -4l90 -73l90 73q6 6 14 6q9 0 16 -6t7 -16q0 -9 -5 -15.5t-13 -13.5l-90 -75q-7 -7 -19 -7z" />
    <glyph glyph-name="scaron" unicode="&#x161;" horiz-adv-x="406" 
d="M59 374q0 64 40.5 102.5t118.5 38.5q19 0 41.5 -2.5t42 -8.5t32.5 -15.5t13 -23.5q0 -12 -8 -20.5t-21 -8.5q-5 0 -8 1t-7 3q-17 8 -35 14t-47 6q-51 0 -75 -20.5t-24 -60.5q0 -27 12 -43t41 -32q30 -15 62.5 -26t60.5 -28t46 -43.5t18 -71.5q0 -66 -41.5 -104
t-123.5 -38q-19 0 -44 2t-47.5 8t-38 16t-15.5 25q0 11 8.5 20.5t22.5 9.5q3 0 6 -1q23 -9 48.5 -17t59.5 -8q46 0 74 19.5t28 64.5q0 32 -12 48t-29 25q-29 15 -64 26t-65 28t-50 43.5t-20 71.5zM205 575q-12 0 -19 7l-90 75q-8 7 -13.5 14t-5.5 15q0 10 8 16t16 6
q5 0 8 -2l6 -4l90 -73l90 73q6 6 14 6q9 0 16 -6t7 -16q0 -9 -5 -15.5t-13 -13.5l-90 -75q-7 -7 -19 -7z" />
    <glyph glyph-name="uni0162" unicode="&#x162;" horiz-adv-x="483" 
d="M375 -138q0 -30 -25 -54.5t-78 -24.5q-25 0 -29 1q-20 2 -35.5 13t-7.5 25v-1q4 6 10 6t17 -3l19 -4q20 -4 34.5 -0.5t24.5 11.5t14.5 18t4.5 20q0 23 -17 32.5t-51 11.5q-20 1 -26.5 6t-4.5 19l9 54q-24 10 -24 32v618h-146q-15 0 -24.5 9t-9.5 22q0 11 10 22t24 11h359
q14 0 24 -9.5t10 -23.5q0 -13 -10 -22t-24 -9h-147v-618q0 -8 -4 -16l-9 -63q63 -1 87.5 -23.5t24.5 -59.5z" />
    <glyph glyph-name="uni0163" unicode="&#x163;" horiz-adv-x="321" 
d="M300 -139q0 -30 -25.5 -54.5t-78.5 -24.5q-26 0 -30 1q-20 2 -35.5 13t-7.5 25v-1q4 6 10.5 6t17.5 -3l18 -4q20 -4 35 -0.5t25 11t14.5 18t4.5 20.5q0 23 -17 32.5t-52 11.5q-19 2 -25.5 6.5t-4.5 18.5q2 16 4.5 33.5t8.5 39.5q-48 23 -64.5 70.5t-16.5 121.5v431
q0 13 8 22.5t24 9.5t24 -9.5t8 -22.5v-150h116q12 0 20.5 -8.5t8.5 -22.5q0 -12 -8.5 -20.5t-20.5 -8.5h-116v-214q0 -42 3 -71t13 -47t28.5 -26t48.5 -8h9q3 0 6 0.5t5 0.5q14 0 29.5 -5t15.5 -25q0 -21 -16 -26t-34 -5q-20 0 -34.5 1t-26.5 3q-7 -31 -3 -57
q63 -1 87 -23.5t24 -59.5z" />
    <glyph glyph-name="Tcaron" unicode="&#x164;" horiz-adv-x="483" 
d="M210 642h-146q-15 0 -24.5 9t-9.5 22q0 11 10 22t24 11h359q14 0 24 -9.5t10 -23.5q0 -13 -10 -22t-24 -9h-147v-618q0 -14 -9 -23.5t-23 -9.5t-24 9.5t-10 23.5v618zM243 775q-12 0 -19 7l-90 75q-8 7 -13.5 14t-5.5 15q0 10 8 16t16 6q5 0 8 -2l6 -4l90 -73l90 73
q6 6 14 6q9 0 16 -6t7 -16q0 -9 -5 -15.5t-13 -13.5l-90 -75q-7 -7 -19 -7z" />
    <glyph glyph-name="tcaron" unicode="&#x165;" horiz-adv-x="431" 
d="M81 633q0 13 8 22.5t24 9.5t24 -9.5t8 -22.5v-150h116q12 0 20.5 -8.5t8.5 -22.5q0 -12 -8.5 -20.5t-20.5 -8.5h-116v-214q0 -42 3 -71t13 -47t28.5 -26t48.5 -8q5 0 10 0.5t10 0.5q14 0 29.5 -5t15.5 -25q0 -21 -16 -26t-34 -5q-52 0 -85 13t-52.5 38.5t-27 64
t-7.5 89.5v431zM408 679q0 -24 -7.5 -52t-18 -52t-22.5 -39.5t-21 -15.5q-5 0 -9 2t-4 7q0 11 5.5 21.5t12.5 22.5q5 9 10 19.5t12 36.5q-22 2 -37 16t-15 34t14 33.5t34 13.5t33 -13.5t13 -33.5z" />
    <glyph glyph-name="Utilde" unicode="&#x168;" horiz-adv-x="572" 
d="M507 228q0 -51 -15 -94.5t-43 -75t-68.5 -49.5t-91.5 -18q-53 0 -94 18t-68.5 49.5t-42 75t-14.5 94.5v452q0 16 10.5 26t24.5 10t23 -10.5t9 -25.5v-452q0 -76 37.5 -124.5t114.5 -48.5q39 0 67 13t46.5 36t27.5 55t9 69v452q0 14 9.5 25t23.5 11t24.5 -11t10.5 -25
v-452zM421 856q0 -12 -7 -21.5t-18.5 -17t-25 -11.5t-26.5 -4q-17 0 -31.5 5.5t-27.5 12.5q-10 5 -18.5 10t-25.5 5q-9 0 -20 -3.5t-25 -14.5q-5 -5 -9 -7t-10 -2q-9 0 -16 5.5t-7 17.5q0 21 23 38.5t52 17.5q15 0 29 -5.5t29 -13.5q13 -7 23 -10t22 -4q20 0 30 5t18 12
q4 3 9.5 7.5t11.5 4.5t13 -7t7 -20z" />
    <glyph glyph-name="utilde" unicode="&#x169;" horiz-adv-x="509" 
d="M366 480q0 14 8 23t25 9q16 0 24 -9t8 -23v-360q0 -37 3.5 -48.5t7.5 -16.5q5 -5 10 -12.5t5 -15.5q0 -12 -9 -20t-21 -8q-13 0 -23 9t-20 24q-36 -21 -74.5 -30t-73.5 -9q-78 0 -117.5 51t-39.5 135v301q0 14 8.5 23t24.5 9t24 -9t8 -23v-301q0 -62 26 -96t77 -34
q32 0 62.5 10t58.5 28q-1 8 -1.5 15.5t-0.5 17.5v360zM389 656q0 -12 -7 -21.5t-18.5 -17t-25 -11.5t-26.5 -4q-17 0 -31.5 5.5t-27.5 12.5q-10 5 -18.5 10t-25.5 5q-9 0 -20 -3.5t-25 -14.5q-5 -5 -9 -7t-10 -2q-9 0 -16 5.5t-7 17.5q0 21 23 38.5t52 17.5q15 0 29 -5.5
t29 -13.5q13 -7 23 -10t22 -4q20 0 30 5t18 12q4 3 9.5 7.5t11.5 4.5t13 -7t7 -20z" />
    <glyph glyph-name="Umacron" unicode="&#x16a;" horiz-adv-x="572" 
d="M507 228q0 -51 -15 -94.5t-43 -75t-68.5 -49.5t-91.5 -18q-53 0 -94 18t-68.5 49.5t-42 75t-14.5 94.5v452q0 16 10.5 26t24.5 10t23 -10.5t9 -25.5v-452q0 -76 37.5 -124.5t114.5 -48.5q39 0 67 13t46.5 36t27.5 55t9 69v452q0 14 9.5 25t23.5 11t24.5 -11t10.5 -25
v-452zM444 844q0 -13 -8 -21t-20 -8h-255q-13 0 -21.5 8t-8.5 21q0 12 8.5 21t21.5 9h255q12 0 20 -9t8 -21z" />
    <glyph glyph-name="umacron" unicode="&#x16b;" horiz-adv-x="509" 
d="M366 480q0 14 8 23t25 9q16 0 24 -9t8 -23v-360q0 -37 3.5 -48.5t7.5 -16.5q5 -5 10 -12.5t5 -15.5q0 -12 -9 -20t-21 -8q-13 0 -23 9t-20 24q-36 -21 -74.5 -30t-73.5 -9q-78 0 -117.5 51t-39.5 135v301q0 14 8.5 23t24.5 9t24 -9t8 -23v-301q0 -62 26 -96t77 -34
q32 0 62.5 10t58.5 28q-1 8 -1.5 15.5t-0.5 17.5v360zM412 644q0 -13 -8 -21t-20 -8h-255q-13 0 -21.5 8t-8.5 21q0 12 8.5 21t21.5 9h255q12 0 20 -9t8 -21z" />
    <glyph glyph-name="Ubreve" unicode="&#x16c;" horiz-adv-x="572" 
d="M507 228q0 -51 -15 -94.5t-43 -75t-68.5 -49.5t-91.5 -18q-53 0 -94 18t-68.5 49.5t-42 75t-14.5 94.5v452q0 16 10.5 26t24.5 10t23 -10.5t9 -25.5v-452q0 -76 37.5 -124.5t114.5 -48.5q39 0 67 13t46.5 36t27.5 55t9 69v452q0 14 9.5 25t23.5 11t24.5 -11t10.5 -25
v-452zM288 832q18 0 36.5 10.5t35.5 34.5q10 14 25 14q10 0 17 -6.5t2 -22.5q-5 -19 -17.5 -33t-29 -24t-34.5 -15t-35 -5q-16 0 -35 5t-36.5 14.5t-30 24t-16.5 33.5q-3 14 5 21.5t16 7.5q16 0 24 -14q18 -24 35.5 -34.5t37.5 -10.5z" />
    <glyph glyph-name="ubreve" unicode="&#x16d;" horiz-adv-x="509" 
d="M366 480q0 14 8 23t25 9q16 0 24 -9t8 -23v-360q0 -37 3.5 -48.5t7.5 -16.5q5 -5 10 -12.5t5 -15.5q0 -12 -9 -20t-21 -8q-13 0 -23 9t-20 24q-36 -21 -74.5 -30t-73.5 -9q-78 0 -117.5 51t-39.5 135v301q0 14 8.5 23t24.5 9t24 -9t8 -23v-301q0 -62 26 -96t77 -34
q32 0 62.5 10t58.5 28q-1 8 -1.5 15.5t-0.5 17.5v360zM256 632q18 0 36.5 10.5t35.5 34.5q10 14 25 14q10 0 17 -6.5t2 -22.5q-5 -19 -17.5 -33t-29 -24t-34.5 -15t-35 -5q-16 0 -35 5t-36.5 14.5t-30 24t-16.5 33.5q-3 14 5 21.5t16 7.5q16 0 24 -14q18 -24 35.5 -34.5
t37.5 -10.5z" />
    <glyph glyph-name="Uring" unicode="&#x16e;" horiz-adv-x="572" 
d="M507 228q0 -51 -15 -94.5t-43 -75t-68.5 -49.5t-91.5 -18q-53 0 -94 18t-68.5 49.5t-42 75t-14.5 94.5v452q0 16 10.5 26t24.5 10t23 -10.5t9 -25.5v-452q0 -76 37.5 -124.5t114.5 -48.5q39 0 67 13t46.5 36t27.5 55t9 69v452q0 14 9.5 25t23.5 11t24.5 -11t10.5 -25
v-452zM382 851q0 -39 -27 -66t-66 -27q-40 0 -67.5 27t-27.5 66t27.5 66.5t67.5 27.5q39 0 66 -27.5t27 -66.5zM351 851q0 26 -18 45t-44 19t-44.5 -19t-18.5 -45t18.5 -44t44.5 -18t44 18t18 44z" />
    <glyph glyph-name="uring" unicode="&#x16f;" horiz-adv-x="509" 
d="M366 480q0 14 8 23t25 9q16 0 24 -9t8 -23v-360q0 -37 3.5 -48.5t7.5 -16.5q5 -5 10 -12.5t5 -15.5q0 -12 -9 -20t-21 -8q-13 0 -23 9t-20 24q-36 -21 -74.5 -30t-73.5 -9q-78 0 -117.5 51t-39.5 135v301q0 14 8.5 23t24.5 9t24 -9t8 -23v-301q0 -62 26 -96t77 -34
q32 0 62.5 10t58.5 28q-1 8 -1.5 15.5t-0.5 17.5v360zM351 651q0 -39 -27 -66t-66 -27q-40 0 -67.5 27t-27.5 66t27.5 66.5t67.5 27.5q39 0 66 -27.5t27 -66.5zM320 651q0 26 -18 45t-44 19t-44.5 -19t-18.5 -45t18.5 -44t44.5 -18t44 18t18 44z" />
    <glyph glyph-name="Uhungarumlaut" unicode="&#x170;" horiz-adv-x="572" 
d="M507 228q0 -51 -15 -94.5t-43 -75t-68.5 -49.5t-91.5 -18q-53 0 -94 18t-68.5 49.5t-42 75t-14.5 94.5v452q0 16 10.5 26t24.5 10t23 -10.5t9 -25.5v-452q0 -76 37.5 -124.5t114.5 -48.5q39 0 67 13t46.5 36t27.5 55t9 69v452q0 14 9.5 25t23.5 11t24.5 -11t10.5 -25
v-452zM400 913q5 8 11 16t16 8t19 -8.5t9 -18.5q0 -6 -2 -9l-72 -107q-5 -7 -9 -10.5t-12 -3.5q-11 0 -19.5 7.5t-8.5 17.5q0 7 2 10zM266 919q5 8 10 13t13 5q13 0 20 -10.5t7 -18.5v-4q0 -3 -1 -4q-4 -7 -11.5 -19l-16.5 -25.5l-18.5 -27.5t-18.5 -26q-8 -11 -14.5 -16.5
t-14.5 -5.5q-11 0 -19 8t-8 19q0 4 2 8z" />
    <glyph glyph-name="uhungarumlaut" unicode="&#x171;" horiz-adv-x="509" 
d="M366 480q0 14 8 23t25 9q16 0 24 -9t8 -23v-360q0 -37 3.5 -48.5t7.5 -16.5q5 -5 10 -12.5t5 -15.5q0 -12 -9 -20t-21 -8q-13 0 -23 9t-20 24q-36 -21 -74.5 -30t-73.5 -9q-78 0 -117.5 51t-39.5 135v301q0 14 8.5 23t24.5 9t24 -9t8 -23v-301q0 -62 26 -96t77 -34
q32 0 62.5 10t58.5 28q-1 8 -1.5 15.5t-0.5 17.5v360zM366 713q5 8 11 16t16 8t19 -8.5t9 -18.5q0 -6 -2 -9l-72 -107q-5 -7 -9 -10.5t-12 -3.5q-11 0 -19.5 7.5t-8.5 17.5q0 7 2 10zM232 719q5 8 10 13t13 5q13 0 20 -10.5t7 -18.5v-4q0 -3 -1 -4q-4 -7 -11.5 -19
l-16.5 -25.5l-18.5 -27.5t-18.5 -26q-8 -11 -14.5 -16.5t-14.5 -5.5q-11 0 -19 8t-8 19q0 4 2 8z" />
    <glyph glyph-name="Uogonek" unicode="&#x172;" horiz-adv-x="572" 
d="M507 228q0 -77 -32 -134.5t-92 -84.5l-26.5 -53t-13.5 -54q0 -23 13.5 -38t39.5 -15q13 0 19.5 1t11.5 2q10 2 12 2q9 0 14.5 -6.5t5.5 -14.5q0 -10 -7 -16t-17.5 -9.5t-23 -4.5t-23.5 -1q-45 0 -71.5 20t-26.5 64q0 23 10.5 50.5t29.5 56.5q-14 -2 -23 -2h-18
q-53 0 -94 18t-68.5 49.5t-42 75t-14.5 94.5v452q0 16 10.5 26t24.5 10t23 -10.5t9 -25.5v-452q0 -76 37.5 -124.5t114.5 -48.5q39 0 67 13t46.5 36t27.5 55t9 69v452q0 14 9.5 25t23.5 11t24.5 -11t10.5 -25v-452z" />
    <glyph glyph-name="uogonek" unicode="&#x173;" horiz-adv-x="509" 
d="M526 -168q0 -11 -7 -17t-17.5 -9.5t-23 -4.5t-23.5 -1q-45 0 -72 20.5t-27 64.5q0 27 15 58t38 60q-15 12 -24 29q-38 -20 -76.5 -29.5t-73.5 -9.5q-78 0 -117 51t-39 135v301q0 14 8 23t25 9q15 0 23.5 -9t8.5 -23v-301q0 -62 26 -96t77 -34q32 0 62.5 10t58.5 27
q-2 11 -2.5 18.5t-0.5 15.5v360q0 14 8.5 23t24.5 9q17 0 24.5 -9t7.5 -23v-360q0 -37 3.5 -48.5t8.5 -16.5q8 -8 8 -9t1 -3l-1 1l4 -8t2 -9q0 -11 -9 -22q-16 -21 -26.5 -50t-10.5 -54q0 -23 13 -38.5t40 -15.5q13 0 19.5 1.5t11.5 2.5q4 1 7 1.5t6 0.5q8 0 13.5 -6.5
t5.5 -14.5z" />
    <glyph glyph-name="Wcircumflex" unicode="&#x174;" horiz-adv-x="776" 
d="M392 587l-30 -134l-33 -144l-33 -144l-30 -133q-5 -14 -15.5 -27.5t-31.5 -13.5q-19 0 -31 12t-17 29l-153 648v4q0 14 12.5 21t26.5 7q9 0 17.5 -6.5t12.5 -17.5l134 -578l125 552q6 25 15.5 39.5t30.5 14.5q20 0 30 -15t15 -39l127 -553l133 579q4 11 11 17.5t16 6.5
q14 0 27.5 -7t13.5 -22v-4t-1 -5v-1l-152 -641q-5 -16 -16.5 -28.5t-30.5 -12.5q-20 0 -31.5 13t-16.5 29zM307 785q-1 -2 -5.5 -2.5t-7.5 -0.5q-7 0 -12.5 6t-5.5 13q0 5 5 12t11 12l81 69q3 2 7.5 4.5t9.5 2.5q10 0 17 -7l81 -69q5 -5 10.5 -12t5.5 -12q0 -7 -5.5 -13
t-13.5 -6q-3 0 -7 0.5t-5 2.5l-83 68z" />
    <glyph glyph-name="wcircumflex" unicode="&#x175;" horiz-adv-x="655" 
d="M517 33q-6 -20 -15 -30t-29 -10q-13 0 -24 7.5t-16 21.5l-99 389l-23 -94l-25 -101l-26 -100.5t-26 -93.5q-8 -29 -41 -29q-17 0 -28.5 11t-16.5 29l-120 446v2q0 12 9.5 21.5t23.5 9.5q9 0 17.5 -6.5t12.5 -16.5l103 -403l53.5 204.5l47.5 190.5q4 13 13.5 22t25.5 9
q14 0 23.5 -9t13.5 -22l18.5 -76l21.5 -85.5l27.5 -103.5l34.5 -130l102 403q2 10 11 16.5t19 6.5q13 0 22 -9.5t9 -23.5v-2zM246 585q-1 -2 -5.5 -2.5t-7.5 -0.5q-7 0 -12.5 6t-5.5 13q0 5 5 12t11 12l81 69q3 2 7.5 4.5t9.5 2.5q10 0 17 -7l81 -69q5 -5 10.5 -12t5.5 -12
q0 -7 -5.5 -13t-13.5 -6q-3 0 -7 0.5t-5 2.5l-83 68z" />
    <glyph glyph-name="Ycircumflex" unicode="&#x176;" horiz-adv-x="476" 
d="M241 -9q-15 0 -25 10t-10 25v253l-182 386q-4 10 -4 17q0 14 10.5 24t24.5 10q7 0 13.5 -3t10.5 -10v1l162 -351l161 351v-1q7 13 25 13q13 0 23 -10t10 -24q0 -4 -1 -9t-2 -8l-183 -390v-249q0 -14 -9.5 -24.5t-23.5 -10.5zM157 785q-1 -2 -5.5 -2.5t-7.5 -0.5
q-7 0 -12.5 6t-5.5 13q0 5 5 12t11 12l81 69q3 2 7.5 4.5t9.5 2.5q10 0 17 -7l81 -69q5 -5 10.5 -12t5.5 -12q0 -7 -5.5 -13t-13.5 -6q-3 0 -7 0.5t-5 2.5l-83 68z" />
    <glyph glyph-name="ycircumflex" unicode="&#x177;" horiz-adv-x="411" 
d="M272 60q-17 -55 -35.5 -102.5t-43 -83t-57.5 -56t-79 -20.5q-15 0 -24.5 8.5t-9.5 22.5q0 11 8 20.5t22 10.5q27 1 46.5 8.5t34.5 23.5t27.5 41t24.5 62l-164 476q-2 2 -2.5 5.5t-0.5 5.5q0 14 9.5 22t23.5 8q9 0 17 -6t12 -15l136 -415l29 100.5l31 106.5l31.5 107
l28.5 101q5 8 13 14.5t17 6.5q12 0 22 -9t10 -24q0 -4 -0.5 -6t-0.5 -4zM99 585q-1 -2 -5.5 -2.5t-7.5 -0.5q-7 0 -12.5 6t-5.5 13q0 5 5 12t11 12l81 69q3 2 7.5 4.5t9.5 2.5q10 0 17 -7l81 -69q5 -5 10.5 -12t5.5 -12q0 -7 -5.5 -13t-13.5 -6q-3 0 -7 0.5t-5 2.5l-83 68z
" />
    <glyph glyph-name="Ydieresis" unicode="&#x178;" horiz-adv-x="476" 
d="M241 -9q-15 0 -25 10t-10 25v253l-182 386q-4 10 -4 17q0 14 10.5 24t24.5 10q7 0 13.5 -3t10.5 -10v1l162 -351l161 351v-1q7 13 25 13q13 0 23 -10t10 -24q0 -4 -1 -9t-2 -8l-183 -390v-249q0 -14 -9.5 -24.5t-23.5 -10.5zM366 846q0 -18 -11.5 -30t-28.5 -12
t-29.5 12.5t-12.5 29.5q0 16 12.5 28.5t29.5 12.5t28.5 -12t11.5 -29zM193 846q0 -18 -12 -30t-29 -12t-28.5 12.5t-11.5 29.5q0 16 11.5 28.5t28.5 12.5t29 -12t12 -29z" />
    <glyph glyph-name="Zacute" unicode="&#x179;" horiz-adv-x="484" 
d="M453 35q0 -15 -9.5 -24.5t-23.5 -9.5h-350q-16 0 -26 10.5t-10 26.5q0 5 3.5 14t6.5 14l322 574h-297q-14 0 -23.5 9t-9.5 23t9.5 24t23.5 10h346q16 0 26 -10.5t10 -26.5q0 -6 -3.5 -14t-5.5 -13l-323 -575h301q14 0 23.5 -9t9.5 -23zM304 916q5 5 10 9.5t13 4.5
q11 0 18 -8.5t7 -18.5q0 -7 -3 -12l-82 -87q-8 -8 -13.5 -12.5t-13.5 -4.5q-11 0 -19 8.5t-8 19.5q0 5 4 10z" />
    <glyph glyph-name="zacute" unicode="&#x17a;" horiz-adv-x="384" 
d="M367 471q0 -5 -2.5 -13t-4.5 -12l-262 -387h241q13 0 21.5 -9t8.5 -21q0 -13 -8.5 -21t-21.5 -8h-285q-14 0 -24 10t-10 25q0 4 1.5 10.5t4.5 11.5l264 389h-230q-13 0 -21.5 8.5t-8.5 20.5q0 14 8.5 22t21.5 8h273q14 0 24 -8.5t10 -25.5zM265 716q5 5 10 9.5t13 4.5
q11 0 18 -8.5t7 -18.5q0 -7 -3 -12l-82 -87q-8 -8 -13.5 -12.5t-13.5 -4.5q-11 0 -19 8.5t-8 19.5q0 5 4 10z" />
    <glyph glyph-name="Zdotaccent" unicode="&#x17b;" horiz-adv-x="484" 
d="M453 35q0 -15 -9.5 -24.5t-23.5 -9.5h-350q-16 0 -26 10.5t-10 26.5q0 5 3.5 14t6.5 14l322 574h-297q-14 0 -23.5 9t-9.5 23t9.5 24t23.5 10h346q16 0 26 -10.5t10 -26.5q0 -6 -3.5 -14t-5.5 -13l-323 -575h301q14 0 23.5 -9t9.5 -23zM283 846q0 -18 -12 -30t-29 -12
t-28.5 12.5t-11.5 29.5q0 16 11.5 28.5t28.5 12.5t29 -12t12 -29z" />
    <glyph glyph-name="zdotaccent" unicode="&#x17c;" horiz-adv-x="384" 
d="M367 471q0 -5 -2.5 -13t-4.5 -12l-262 -387h241q13 0 21.5 -9t8.5 -21q0 -13 -8.5 -21t-21.5 -8h-285q-14 0 -24 10t-10 25q0 4 1.5 10.5t4.5 11.5l264 389h-230q-13 0 -21.5 8.5t-8.5 20.5q0 14 8.5 22t21.5 8h273q14 0 24 -8.5t10 -25.5zM233 646q0 -18 -12 -30
t-29 -12t-28.5 12.5t-11.5 29.5q0 16 11.5 28.5t28.5 12.5t29 -12t12 -29z" />
    <glyph glyph-name="Zcaron" unicode="&#x17d;" horiz-adv-x="484" 
d="M453 35q0 -15 -9.5 -24.5t-23.5 -9.5h-350q-16 0 -26 10.5t-10 26.5q0 5 3.5 14t6.5 14l322 574h-297q-14 0 -23.5 9t-9.5 23t9.5 24t23.5 10h346q16 0 26 -10.5t10 -26.5q0 -6 -3.5 -14t-5.5 -13l-323 -575h301q14 0 23.5 -9t9.5 -23zM244 775q-12 0 -19 7l-90 75
q-8 7 -13.5 14t-5.5 15q0 10 8 16t16 6q5 0 8 -2l6 -4l90 -73l90 73q6 6 14 6q9 0 16 -6t7 -16q0 -9 -5 -15.5t-13 -13.5l-90 -75q-7 -7 -19 -7z" />
    <glyph glyph-name="zcaron" unicode="&#x17e;" horiz-adv-x="384" 
d="M367 471q0 -5 -2.5 -13t-4.5 -12l-262 -387h241q13 0 21.5 -9t8.5 -21q0 -13 -8.5 -21t-21.5 -8h-285q-14 0 -24 10t-10 25q0 4 1.5 10.5t4.5 11.5l264 389h-230q-13 0 -21.5 8.5t-8.5 20.5q0 14 8.5 22t21.5 8h273q14 0 24 -8.5t10 -25.5zM195 575q-12 0 -19 7l-90 75
q-8 7 -13.5 14t-5.5 15q0 10 8 16t16 6q5 0 8 -2l6 -4l90 -73l90 73q6 6 14 6q9 0 16 -6t7 -16q0 -9 -5 -15.5t-13 -13.5l-90 -75q-7 -7 -19 -7z" />
    <glyph glyph-name="florin" unicode="&#x192;" horiz-adv-x="492" 
d="M481 685q0 -20 -12 -22.5t-22 -0.5q-10 1 -18.5 2t-10.5 1q-30 0 -52 -19.5t-29 -53.5l-23 -144h94q11 0 19 -6.5t8 -22.5q0 -14 -8 -20t-19 -6h-106q-17 -105 -38 -221l-39 -221q-6 -36 -16.5 -66.5t-27.5 -52.5t-41 -34.5t-57 -12.5q-32 0 -54 4t-22 24q0 15 9 23t24 8
h11q5 0 9 -0.5t9 -0.5q44 0 62 24t27 75l79 451h-95q-11 0 -19.5 6.5t-8.5 20.5q0 16 8.5 22t19.5 6h105l26 154q12 52 52 86t103 34q19 0 36 -6t17 -31z" />
    <glyph glyph-name="uni0218" unicode="&#x218;" horiz-adv-x="486" 
d="M372 188q0 26 -6 44t-15 31t-20 21.5t-21 13.5q-16 8 -37 16l-43 16q-33 11 -65.5 24t-59 34t-42.5 53.5t-16 82.5q0 91 53.5 141.5t146.5 50.5q18 0 46.5 -2.5t55 -9.5t45.5 -19t19 -31q0 -12 -8.5 -21.5t-24.5 -9.5q-8 0 -17.5 2.5t-17.5 6.5q-17 7 -39 13.5t-53 6.5
q-26 0 -50.5 -6t-43.5 -20t-30.5 -37.5t-11.5 -59.5q0 -27 6.5 -45.5t16 -31t21 -20t20.5 -12.5q17 -8 38 -16.5t42 -15.5q32 -10 64.5 -23.5t58.5 -35.5t42.5 -54t16.5 -80q0 -49 -16.5 -87t-45 -64t-68 -39.5t-86.5 -13.5q-24 0 -55 3.5t-59 11.5t-47.5 21t-19.5 31
q0 13 9 23t21 10q5 0 15.5 -3.5l21.5 -7.5q20 -8 48 -16.5t67 -8.5q72 0 108 35t36 98zM292 -113q0 -20 -7.5 -43t-18 -42t-23 -31.5t-21.5 -12.5q-5 0 -8.5 2t-3.5 7t5.5 12.5t10.5 15.5q5 6 12.5 16.5t13.5 25.5q-23 2 -38.5 16t-15.5 34t14 33.5t34 13.5q19 0 32.5 -14
t13.5 -33z" />
    <glyph glyph-name="uni0219" unicode="&#x219;" horiz-adv-x="406" 
d="M59 374q0 64 40.5 102.5t118.5 38.5q19 0 41.5 -2.5t42 -8.5t32.5 -15.5t13 -23.5q0 -12 -8 -20.5t-21 -8.5q-5 0 -8 1t-7 3q-17 8 -35 14t-47 6q-51 0 -75 -20.5t-24 -60.5q0 -27 12 -43t41 -32q30 -15 62.5 -26t60.5 -28t46 -43.5t18 -71.5q0 -66 -41.5 -104
t-123.5 -38q-19 0 -44 2t-47.5 8t-38 16t-15.5 25q0 11 8.5 20.5t22.5 9.5q3 0 6 -1q23 -9 48.5 -17t59.5 -8q46 0 74 19.5t28 64.5q0 32 -12 48t-29 25q-29 15 -64 26t-65 28t-50 43.5t-20 71.5zM252 -113q0 -20 -7.5 -43t-18 -42t-23 -31.5t-21.5 -12.5q-5 0 -8.5 2
t-3.5 7t5.5 12.5t10.5 15.5q5 6 12.5 16.5t13.5 25.5q-23 2 -38.5 16t-15.5 34t14 33.5t34 13.5q19 0 32.5 -14t13.5 -33z" />
    <glyph glyph-name="uni021A" unicode="&#x21a;" horiz-adv-x="483" 
d="M210 642h-146q-15 0 -24.5 9t-9.5 22q0 11 10 22t24 11h359q14 0 24 -9.5t10 -23.5q0 -13 -10 -22t-24 -9h-147v-618q0 -14 -9 -23.5t-23 -9.5t-24 9.5t-10 23.5v618zM290 -113q0 -20 -7.5 -43t-18 -42t-23 -31.5t-21.5 -12.5q-5 0 -8.5 2t-3.5 7t5.5 12.5t10.5 15.5
q5 6 12.5 16.5t13.5 25.5q-23 2 -38.5 16t-15.5 34t14 33.5t34 13.5q19 0 32.5 -14t13.5 -33z" />
    <glyph glyph-name="uni021B" unicode="&#x21b;" horiz-adv-x="321" 
d="M81 633q0 13 8 22.5t24 9.5t24 -9.5t8 -22.5v-150h116q12 0 20.5 -8.5t8.5 -22.5q0 -12 -8.5 -20.5t-20.5 -8.5h-116v-214q0 -42 3 -71t13 -47t28.5 -26t48.5 -8q5 0 10 0.5t10 0.5q14 0 29.5 -5t15.5 -25q0 -21 -16 -26t-34 -5q-52 0 -85 13t-52.5 38.5t-27 64
t-7.5 89.5v431zM269 -113q0 -20 -7.5 -43t-18 -42t-23 -31.5t-21.5 -12.5q-5 0 -8.5 2t-3.5 7t5.5 12.5t10.5 15.5q5 6 12.5 16.5t13.5 25.5q-23 2 -38.5 16t-15.5 34t14 33.5t34 13.5q19 0 32.5 -14t13.5 -33z" />
    <glyph glyph-name="dotlessj" unicode="&#x237;" horiz-adv-x="245" 
d="M157 -23q0 -76 -37.5 -125t-100.5 -60q-7 -1 -10.5 -0.5t-8.5 0.5q-9 0 -17 5.5t-10 14.5q-4 17 6 25t19 10q45 11 69.5 38.5t24.5 87.5v506q0 14 9.5 23.5t23.5 9.5q13 0 22.5 -9.5t9.5 -23.5v-502z" />
    <glyph glyph-name="circumflex" unicode="&#x2c6;" horiz-adv-x="396" 
d="M116 585q-1 -2 -5.5 -2.5t-7.5 -0.5q-7 0 -12.5 6t-5.5 13q0 5 5 12t11 12l81 69q3 2 7.5 4.5t9.5 2.5q10 0 17 -7l81 -69q5 -5 10.5 -12t5.5 -12q0 -7 -5.5 -13t-13.5 -6q-3 0 -7 0.5t-5 2.5l-83 68z" />
    <glyph glyph-name="caron" unicode="&#x2c7;" horiz-adv-x="391" 
d="M197 575q-12 0 -19 7l-90 75q-8 7 -13.5 14t-5.5 15q0 10 8 16t16 6q5 0 8 -2l6 -4l90 -73l90 73q6 6 14 6q9 0 16 -6t7 -16q0 -9 -5 -15.5t-13 -13.5l-90 -75q-7 -7 -19 -7z" />
    <glyph glyph-name="breve" unicode="&#x2d8;" horiz-adv-x="368" 
d="M185 632q18 0 36.5 10.5t35.5 34.5q10 14 25 14q10 0 17 -6.5t2 -22.5q-5 -19 -17.5 -33t-29 -24t-34.5 -15t-35 -5q-16 0 -35 5t-36.5 14.5t-30 24t-16.5 33.5q-3 14 5 21.5t16 7.5q16 0 24 -14q18 -24 35.5 -34.5t37.5 -10.5z" />
    <glyph glyph-name="dotaccent" unicode="&#x2d9;" horiz-adv-x="238" 
d="M160 646q0 -18 -12 -30t-29 -12t-28.5 12.5t-11.5 29.5q0 16 11.5 28.5t28.5 12.5t29 -12t12 -29z" />
    <glyph glyph-name="ring" unicode="&#x2da;" horiz-adv-x="571" 
d="M378 651q0 -39 -27 -66t-66 -27q-40 0 -67.5 27t-27.5 66t27.5 66.5t67.5 27.5q39 0 66 -27.5t27 -66.5zM347 651q0 26 -18 45t-44 19t-44.5 -19t-18.5 -45t18.5 -44t44.5 -18t44 18t18 44z" />
    <glyph glyph-name="ogonek" unicode="&#x2db;" horiz-adv-x="322" 
d="M244 -167q0 -10 -7 -16t-17.5 -9.5t-22.5 -4.5t-23 -1q-45 0 -71.5 20t-26.5 64q0 24 9.5 50.5t25.5 49.5h46q-10 -20 -19 -42t-9 -42q0 -23 13 -38t40 -15q12 0 19 1t12 2q10 2 12 2q8 0 13.5 -6.5t5.5 -14.5z" />
    <glyph glyph-name="tilde" unicode="&#x2dc;" horiz-adv-x="375" 
d="M330 656q0 -12 -7 -21.5t-18.5 -17t-25 -11.5t-26.5 -4q-17 0 -31.5 5.5t-27.5 12.5q-10 5 -18.5 10t-25.5 5q-9 0 -20 -3.5t-25 -14.5q-5 -5 -9 -7t-10 -2q-9 0 -16 5.5t-7 17.5q0 21 23 38.5t52 17.5q15 0 29 -5.5t29 -13.5q13 -7 23 -10t22 -4q20 0 30 5t18 12
q4 3 9.5 7.5t11.5 4.5t13 -7t7 -20z" />
    <glyph glyph-name="hungarumlaut" unicode="&#x2dd;" horiz-adv-x="410" 
d="M283 713q5 8 11 16t16 8t19 -8.5t9 -18.5q0 -6 -2 -9l-72 -107q-5 -7 -9 -10.5t-12 -3.5q-11 0 -19.5 7.5t-8.5 17.5q0 7 2 10zM149 719q5 8 10 13t13 5q13 0 20 -10.5t7 -18.5v-4q0 -3 -1 -4q-4 -7 -11.5 -19l-16.5 -25.5l-18.5 -27.5t-18.5 -26q-8 -11 -14.5 -16.5
t-14.5 -5.5q-11 0 -19 8t-8 19q0 4 2 8z" />
    <glyph glyph-name="uni0400" unicode="&#x400;" horiz-adv-x="474" 
d="M440 35q0 -15 -9.5 -24.5t-23.5 -9.5h-271q-23 0 -40 8.5t-17 31.5v624q0 16 11.5 28.5t29.5 12.5h277q14 0 23 -10t9 -24q0 -13 -9 -21.5t-23 -8.5h-252v-255h232q13 0 22.5 -9t9.5 -23t-9 -23t-23 -9h-232v-258h262q13 0 23 -9t10 -21zM303 826q4 -4 4 -10
q0 -12 -8 -20t-18 -8q-8 0 -14.5 4t-13.5 12l-81 88q-4 5 -4 12q0 11 8 19t16 8t13 -4l12 -10z" />
    <glyph glyph-name="uni0401" unicode="&#x401;" horiz-adv-x="474" 
d="M440 35q0 -15 -9.5 -24.5t-23.5 -9.5h-271q-23 0 -40 8.5t-17 31.5v624q0 16 11.5 28.5t29.5 12.5h277q14 0 23 -10t9 -24q0 -13 -9 -21.5t-23 -8.5h-252v-255h232q13 0 22.5 -9t9.5 -23t-9 -23t-23 -9h-232v-258h262q13 0 23 -9t10 -21zM396 847q0 -18 -11.5 -30
t-28.5 -12t-29.5 12.5t-12.5 29.5q0 16 12.5 28.5t29.5 12.5t28.5 -12t11.5 -29zM223 847q0 -18 -12 -30t-29 -12t-28.5 12.5t-11.5 29.5q0 16 11.5 28.5t28.5 12.5t29 -12t12 -29z" />
    <glyph glyph-name="uni0402" unicode="&#x402;" horiz-adv-x="644" 
d="M168 643h-105q-14 0 -24 9.5t-10 20.5q0 13 10 23.5t24 10.5h360q13 0 23 -9.5t10 -23.5q0 -13 -9.5 -22t-23.5 -9h-188v-234q37 16 73.5 23.5t67.5 7.5q99 0 152.5 -55.5t53.5 -167.5q0 -104 -45.5 -165t-125.5 -61q-42 0 -69.5 15t-27.5 38q0 12 9 20.5t20 8.5
q5 0 8.5 -2.5t7.5 -4.5q8 -5 17 -8t27 -3q54 0 83.5 38t29.5 122q0 89 -35.5 125t-110.5 36q-35 0 -70.5 -7.5t-64.5 -24.5v-320q0 -14 -9.5 -23.5t-23.5 -9.5t-24 9.5t-10 23.5v619z" />
    <glyph glyph-name="uni0403" unicode="&#x403;" horiz-adv-x="430" 
d="M145 25q0 -14 -9 -23.5t-23 -9.5t-24 9.5t-10 23.5v641q0 15 11 27t28 12h278q13 0 22 -9.5t9 -23.5q0 -13 -9 -22t-22 -9h-251v-616zM316 917q5 5 10 9.5t13 4.5q11 0 18 -8.5t7 -18.5q0 -7 -3 -12l-82 -87q-8 -8 -13.5 -12.5t-13.5 -4.5q-11 0 -19 8.5t-8 19.5
q0 5 4 10z" />
    <glyph glyph-name="uni0404" unicode="&#x404;" horiz-adv-x="482" 
d="M50 463q0 57 13.5 104t41 80t69.5 51t99 18q33 0 64.5 -6.5t55.5 -17.5t38.5 -25.5t14.5 -30.5q0 -12 -8 -20t-21 -8q-7 0 -11.5 2.5t-10.5 6.5q-2 2 -5 3t-5 3q-25 17 -51 25.5t-56 8.5q-45 0 -76 -13.5t-50 -39t-27 -61t-8 -80.5v-76h198q12 0 21.5 -9t9.5 -23
t-9 -23.5t-22 -9.5h-198v-78q0 -44 8 -80t27 -61t50 -38.5t76 -13.5q60 0 105 32l11 7q14 10 23 10q13 0 21 -8.5t8 -19.5q0 -16 -14.5 -31t-38.5 -25.5t-55.5 -17t-64.5 -6.5q-57 0 -99 18t-69.5 51t-41 79.5t-13.5 103.5v219z" />
    <glyph glyph-name="uni0405" unicode="&#x405;" horiz-adv-x="486" 
d="M372 188q0 26 -6 44t-15 31t-20 21.5t-21 13.5q-16 8 -37 16l-43 16q-33 11 -65.5 24t-59 34t-42.5 53.5t-16 82.5q0 91 53.5 141.5t146.5 50.5q18 0 46.5 -2.5t55 -9.5t45.5 -19t19 -31q0 -12 -8.5 -21.5t-24.5 -9.5q-8 0 -17.5 2.5t-17.5 6.5q-17 7 -39 13.5t-53 6.5
q-26 0 -50.5 -6t-43.5 -20t-30.5 -37.5t-11.5 -59.5q0 -27 6.5 -45.5t16 -31t21 -20t20.5 -12.5q17 -8 38 -16.5t42 -15.5q32 -10 64.5 -23.5t58.5 -35.5t42.5 -54t16.5 -80q0 -49 -16.5 -87t-45 -64t-68 -39.5t-86.5 -13.5q-24 0 -55 3.5t-59 11.5t-47.5 21t-19.5 31
q0 13 9 23t21 10q5 0 15.5 -3.5l21.5 -7.5q20 -8 48 -16.5t67 -8.5q72 0 108 35t36 98z" />
    <glyph glyph-name="uni0406" unicode="&#x406;" horiz-adv-x="227" 
d="M80 683q0 13 10 23t24 10t23.5 -10t9.5 -23v-659q0 -14 -9.5 -23.5t-23.5 -9.5t-24 9.5t-10 23.5v659z" />
    <glyph glyph-name="uni0407" unicode="&#x407;" horiz-adv-x="227" 
d="M80 683q0 13 10 23t24 10t23.5 -10t9.5 -23v-659q0 -14 -9.5 -23.5t-23.5 -9.5t-24 9.5t-10 23.5v659zM242 847q0 -18 -11.5 -30t-28.5 -12t-29.5 12.5t-12.5 29.5q0 16 12.5 28.5t29.5 12.5t28.5 -12t11.5 -29zM69 847q0 -18 -12 -30t-29 -12t-28.5 12.5t-11.5 29.5
q0 16 11.5 28.5t28.5 12.5t29 -12t12 -29z" />
    <glyph glyph-name="uni0408" unicode="&#x408;" horiz-adv-x="385" 
d="M309 223q0 -54 -9.5 -97t-32.5 -73t-61 -46t-95 -16q-10 0 -24 1t-26.5 4.5t-21 11.5t-8.5 21q0 16 9.5 24t18.5 8q2 0 6.5 -0.5t9.5 -1.5q8 -2 19.5 -3.5t27.5 -1.5q38 0 61 12t36.5 34t18 53t4.5 70v460q0 14 10 23.5t24 9.5q13 0 23 -10t10 -23v-460z" />
    <glyph glyph-name="uni0409" unicode="&#x409;" horiz-adv-x="877" 
d="M448 571v72h-212l-32 -477q-5 -76 -33.5 -124.5t-87.5 -48.5q-27 0 -48.5 4.5t-21.5 28.5q0 18 9.5 26t20.5 8q10 0 13 -1.5t16 -1.5q31 0 46 25t19 76l37 515q2 19 12.5 26.5t19.5 7.5h276q13 0 22.5 -9.5t9.5 -23.5v-233h105q101 0 161 -56t60 -162q0 -43 -11.5 -83.5
t-38 -71t-68.5 -49t-103 -18.5h-130q-17 0 -29.5 12t-12.5 29v536zM514 65h105q47 0 77.5 13.5t47.5 36t23.5 50.5t6.5 57q0 155 -155 155h-105v-312z" />
    <glyph glyph-name="uni040A" unicode="&#x40a;" horiz-adv-x="848" 
d="M143 25q0 -14 -9 -24t-23 -10t-24 10t-10 24v658q0 13 10 23t24 10t23 -10t9 -23v-297h274v294q0 15 10 25.5t24 10.5t23.5 -11t9.5 -25v-239h105q102 0 162 -56t60 -162q0 -43 -12 -83.5t-38 -71t-68.5 -49t-103.5 -18.5h-130q-17 0 -29.5 12t-12.5 29v280h-274v-297z
M484 65h105q47 0 77.5 13.5t47.5 36t23.5 50.5t6.5 57q0 155 -155 155h-105v-312z" />
    <glyph glyph-name="uni040B" unicode="&#x40b;" horiz-adv-x="644" 
d="M456 674q0 -13 -9.5 -22t-23.5 -9h-188v-234q37 16 73.5 23.5t67.5 7.5q99 0 152.5 -56t53.5 -162v-196q0 -14 -9.5 -24.5t-23.5 -10.5q-13 0 -23 10t-10 25v195q0 85 -36 120t-111 35q-35 0 -70 -7.5t-64 -24.5v-320q0 -14 -9.5 -23.5t-23.5 -9.5t-24 9.5t-10 23.5v619
h-105q-14 0 -24 9t-10 22q0 11 10 22t24 11h360q13 0 23 -9.5t10 -23.5z" />
    <glyph glyph-name="uni040C" unicode="&#x40c;" horiz-adv-x="516" 
d="M145 386h72l107.5 157l107.5 157q13 16 28 16q14 0 22 -12.5t8 -24.5q0 -7 -3 -15l-217 -311l216 -311q4 -7 4 -15q0 -12 -8 -24t-22 -12q-17 0 -28 15l-217 316h-70v-297q0 -14 -9.5 -24t-23.5 -10t-23.5 10t-9.5 24v658q0 13 9.5 23t23.5 10t23.5 -10t9.5 -23v-297z
M334 917q5 5 10 9.5t13 4.5q11 0 18 -8.5t7 -18.5q0 -7 -3 -12l-82 -87q-8 -8 -13.5 -12.5t-13.5 -4.5q-11 0 -19 8.5t-8 19.5q0 5 4 10z" />
    <glyph glyph-name="uni040D" unicode="&#x40d;" horiz-adv-x="589" 
d="M116 -9q-17 0 -27.5 10.5t-10.5 26.5v654q0 14 9.5 24t23.5 10t24 -10t10 -24v-551l299 564q5 10 15 15.5t21 5.5q15 0 25.5 -10.5t10.5 -27.5v-653q0 -14 -9.5 -24t-22.5 -10q-14 0 -24.5 10t-10.5 24v550l-298 -565q-5 -9 -14.5 -14t-20.5 -5zM312 826q4 -4 4 -10
q0 -12 -8 -20t-18 -8q-8 0 -14.5 4t-13.5 12l-81 88q-4 5 -4 12q0 11 8 19t16 8t13 -4l12 -10z" />
    <glyph glyph-name="uni040E" unicode="&#x40e;" horiz-adv-x="503" 
d="M311 228q-19 -51 -37 -94t-41 -74t-55.5 -48.5t-80.5 -18.5q-14 0 -23.5 8.5t-9.5 22.5q0 11 8 20t22 10q26 1 45 7.5t34.5 19t28 33t24.5 49.5l-194 511q-2 2 -2 6.5v6.5q0 13 9.5 21t23.5 8q20 0 28 -22l166 -447l38.5 109l41 114.5l41 115l38.5 109.5q5 8 13.5 14.5
t16.5 6.5q12 0 21.5 -9t9.5 -23q0 -4 -0.5 -6.5t-0.5 -3.5zM253 833q18 0 36.5 10.5t35.5 34.5q10 14 25 14q10 0 17 -6.5t2 -22.5q-5 -19 -17.5 -33t-29 -24t-34.5 -15t-35 -5q-16 0 -35 5t-36.5 14.5t-30 24t-16.5 33.5q-3 14 5 21.5t16 7.5q16 0 24 -14
q18 -24 35.5 -34.5t37.5 -10.5z" />
    <glyph glyph-name="uni040F" unicode="&#x40f;" horiz-adv-x="579" 
d="M258 1h-146q-14 0 -23.5 9.5t-9.5 23.5v649q0 14 9.5 24t23.5 10t23.5 -10t9.5 -24v-618h294v618q0 14 10.5 24t23.5 10q14 0 23.5 -10t9.5 -24v-649q0 -14 -10 -23.5t-23 -9.5h-148v-131q0 -13 -9.5 -22.5t-23.5 -9.5t-24 9.5t-10 22.5v131z" />
    <glyph glyph-name="uni0410" unicode="&#x410;" horiz-adv-x="549" 
d="M97 15q-5 -9 -14.5 -16.5t-17.5 -7.5q-14 0 -24.5 9t-10.5 24q0 7 2 13l199 630q6 21 16 35t30 14q19 0 29.5 -14.5t17.5 -34.5l199 -630q0 -2 0.5 -6t0.5 -7q0 -15 -10 -24t-25 -9q-9 0 -19 6.5t-13 17.5l-46 148h-269zM161 228h231l-115 379z" />
    <glyph glyph-name="uni0411" unicode="&#x411;" horiz-adv-x="531" 
d="M145 641v-220h126q102 0 161.5 -54t59.5 -154q0 -42 -11.5 -80t-38 -67.5t-68.5 -47t-103 -17.5h-150q-17 0 -29.5 12t-12.5 29v624q0 15 10.5 27t27.5 12h299q13 0 22 -9.5t9 -23.5q0 -13 -9 -22t-22 -9h-271zM271 65q47 0 77.5 13t47.5 33.5t23.5 47t6.5 53.5
q0 145 -155 145h-126v-292h126z" />
    <glyph glyph-name="uni0412" unicode="&#x412;" horiz-adv-x="542" 
d="M271 400q26 0 52 7.5t47 23.5t34.5 40t13.5 57q0 22 -6.5 42.5t-22 36.5t-40.5 25.5t-61 9.5h-143v-242h126zM145 335v-270h133q81 0 120 36.5t39 94.5q0 68 -46 103.5t-117 35.5h-129zM120 1q-17 0 -29 12t-12 29v622q0 18 12 30t29 12h173q48 0 84 -15t59.5 -40
t35.5 -57.5t12 -66.5q0 -63 -36 -100.5t-90 -63.5q25 -9 51 -20.5t47 -30.5t34.5 -46.5t13.5 -68.5t-15 -77t-42.5 -62.5t-67.5 -41.5t-90 -15h-169z" />
    <glyph glyph-name="uni0413" unicode="&#x413;" horiz-adv-x="430" 
d="M145 25q0 -14 -9 -23.5t-23 -9.5t-24 9.5t-10 23.5v641q0 15 11 27t28 12h278q13 0 22 -9.5t9 -23.5q0 -13 -9 -22t-22 -9h-251v-616z" />
    <glyph glyph-name="uni0414" unicode="&#x414;" horiz-adv-x="628" 
d="M502 705q14 0 23.5 -9.5t9.5 -23.5v-607h34q14 0 23.5 -12.5t9.5 -32.5v-130q0 -14 -9.5 -23t-23.5 -9t-23.5 9t-9.5 23v111h-440v-111q0 -14 -9.5 -23t-22.5 -9q-14 0 -23.5 9t-9.5 23v130q0 20 9.5 32.5t23.5 12.5h34q26 37 41 108.5t20 169.5l15 329q1 19 12 26t20 7
h296zM226 343q-4 -86 -20 -156.5t-45 -121.5h308v576h-232z" />
    <glyph glyph-name="uni0415" unicode="&#x415;" horiz-adv-x="474" 
d="M440 35q0 -15 -9.5 -24.5t-23.5 -9.5h-271q-23 0 -40 8.5t-17 31.5v624q0 16 11.5 28.5t29.5 12.5h277q14 0 23 -10t9 -24q0 -13 -9 -21.5t-23 -8.5h-252v-255h232q13 0 22.5 -9t9.5 -23t-9 -23t-23 -9h-232v-258h262q13 0 23 -9t10 -21z" />
    <glyph glyph-name="uni0416" unicode="&#x416;" horiz-adv-x="746" 
d="M410 386h59l197 314q5 8 13 12t15 4q11 0 18 -5.5t10.5 -13.5t3 -17t-4.5 -16l-191 -311l190 -311q4 -7 4 -15q0 -12 -8 -24t-22 -12q-16 0 -28 15l-197 316h-59v-297q0 -14 -9.5 -24t-23.5 -10t-24 10t-10 24v297h-58l-197 -316q-12 -15 -28 -15q-15 0 -23 12t-8 24
q0 6 5 15l189 311l-190 311q-5 9 -4 18.5t5.5 17t12.5 12t16 4.5q15 0 25 -16l196 -314h59v297q0 13 10 23t24 10t23.5 -10t9.5 -23v-297z" />
    <glyph glyph-name="uni0417" unicode="&#x417;" horiz-adv-x="485" 
d="M443 191q0 -40 -15 -76.5t-42.5 -64t-67 -43.5t-89.5 -16q-27 0 -60.5 4.5t-63 14.5t-50 24.5t-20.5 33.5q0 13 8.5 21.5t20.5 8.5q2 0 5.5 -1t10.5 -5q32 -16 65 -29.5t83 -13.5q75 0 112 41t37 100q0 37 -14.5 62.5t-39 41.5t-58 24t-71.5 10q-15 1 -29 5.5t-14 26.5
q0 20 11.5 25t22.5 5q31 0 62.5 8t57 25.5t41.5 44t16 62.5q0 24 -7 47t-23 41t-41.5 29t-62.5 11q-25 0 -51 -4t-46 -17l-22 -14q-21 -13 -35 -14q-11 0 -19.5 7.5t-8.5 19.5q0 18 18.5 33t46.5 25.5t61 16t61 5.5q48 0 84 -16.5t59.5 -42.5t35.5 -59.5t12 -68.5
q0 -57 -36.5 -98.5t-97.5 -67.5q68 -23 110.5 -64.5t42.5 -107.5z" />
    <glyph glyph-name="uni0418" unicode="&#x418;" horiz-adv-x="589" 
d="M116 -9q-17 0 -27.5 10.5t-10.5 26.5v654q0 14 9.5 24t23.5 10t24 -10t10 -24v-551l299 564q5 10 15 15.5t21 5.5q15 0 25.5 -10.5t10.5 -27.5v-653q0 -14 -9.5 -24t-22.5 -10q-14 0 -24.5 10t-10.5 24v550l-298 -565q-5 -9 -14.5 -14t-20.5 -5z" />
    <glyph glyph-name="uni0419" unicode="&#x419;" horiz-adv-x="589" 
d="M116 -9q-17 0 -27.5 10.5t-10.5 26.5v654q0 14 9.5 24t23.5 10t24 -10t10 -24v-551l299 564q5 10 15 15.5t21 5.5q15 0 25.5 -10.5t10.5 -27.5v-653q0 -14 -9.5 -24t-22.5 -10q-14 0 -24.5 10t-10.5 24v550l-298 -565q-5 -9 -14.5 -14t-20.5 -5zM296 833q18 0 36.5 10.5
t35.5 34.5q10 14 25 14q10 0 17 -6.5t2 -22.5q-5 -19 -17.5 -33t-29 -24t-34.5 -15t-35 -5q-16 0 -35 5t-36.5 14.5t-30 24t-16.5 33.5q-3 14 5 21.5t16 7.5q16 0 24 -14q18 -24 35.5 -34.5t37.5 -10.5z" />
    <glyph glyph-name="uni041A" unicode="&#x41a;" horiz-adv-x="516" 
d="M145 386h72l107.5 157l107.5 157q13 16 28 16q14 0 22 -12.5t8 -24.5q0 -7 -3 -15l-217 -311l216 -311q4 -7 4 -15q0 -12 -8 -24t-22 -12q-17 0 -28 15l-217 316h-70v-297q0 -14 -9.5 -24t-23.5 -10t-23.5 10t-9.5 24v658q0 13 9.5 23t23.5 10t23.5 -10t9.5 -23v-297z
" />
    <glyph glyph-name="uni041B" unicode="&#x41b;" horiz-adv-x="610" 
d="M537 25q-1 -14 -10 -23t-23 -9q-15 0 -24.5 9t-9.5 23v616h-232l-33 -475q-5 -76 -33.5 -124.5t-86.5 -48.5q-13 0 -26 0.5t-23 4t-16 10t-6 18.5q0 18 10 26t21 8q10 0 12.5 -1.5t16.5 -1.5q58 0 65 101l37 513q2 19 12 26.5t19 7.5h297q14 0 23 -9.5t9 -23.5v-647h1z
" />
    <glyph glyph-name="uni041C" unicode="&#x41c;" horiz-adv-x="690" 
d="M626 22q0 -13 -9.5 -22t-22.5 -9q-14 0 -24.5 9t-10.5 22v530l-43 -91.5l-46.5 -98.5l-46.5 -98.5l-43 -91.5q-11 -20 -32 -20q-22 0 -32 20l-180 380v-530q0 -13 -10 -22t-25 -9q-13 0 -22 9t-9 22v658q0 16 10 26t26 10q24 0 36 -23v1l207 -443l206 444v-1q12 22 36 22
q14 0 24.5 -10.5t10.5 -25.5v-658z" />
    <glyph glyph-name="uni041D" unicode="&#x41d;" horiz-adv-x="580" 
d="M506 25q0 -14 -9.5 -24t-23.5 -10q-13 0 -23.5 10t-10.5 24v297h-294v-297q0 -14 -9.5 -24t-23.5 -10t-23.5 10t-9.5 24v658q0 13 9.5 23t23.5 10t23.5 -10t9.5 -23v-297h294v297q0 13 10.5 23t23.5 10t23 -10t10 -23v-658z" />
    <glyph glyph-name="uni041E" unicode="&#x41e;" horiz-adv-x="551" 
d="M278 -9q-57 0 -99.5 19.5t-71 54t-43 80.5t-14.5 99v219q0 52 12.5 98t40 80.5t71 54.5t104.5 20t104 -20t70.5 -54.5t40 -80.5t12.5 -98v-219q0 -53 -14 -99t-42.5 -80.5t-71 -54t-99.5 -19.5zM278 652q-45 0 -75.5 -13.5t-49.5 -38.5t-27.5 -60t-8.5 -77v-219
q0 -42 9.5 -76.5t29.5 -59.5t50.5 -39t71.5 -14t71.5 14t50 39t29 59.5t9.5 76.5v219q0 42 -8.5 77t-27.5 60t-49.5 38.5t-74.5 13.5z" />
    <glyph glyph-name="uni041F" unicode="&#x41f;" horiz-adv-x="579" 
d="M506 25q0 -14 -9.5 -24t-23.5 -10q-13 0 -23.5 10t-10.5 24v616h-294v-616q0 -14 -9.5 -24t-23.5 -10t-23.5 10t-9.5 24v646q0 14 9.5 24t23.5 10h361q13 0 23 -10t10 -24v-646z" />
    <glyph glyph-name="uni0420" unicode="&#x420;" horiz-adv-x="530" 
d="M145 267v-241q0 -14 -9.5 -24.5t-23.5 -10.5q-13 0 -23 10t-10 25v638q0 17 12.5 29.5t29.5 12.5h150q61 0 103 -18.5t68.5 -49t38 -70.5t11.5 -84q0 -106 -59.5 -161.5t-161.5 -55.5h-126zM145 331h126q77 0 116 37.5t39 116.5q0 29 -6.5 57.5t-23.5 50.5t-47.5 35.5
t-77.5 13.5h-126v-311z" />
    <glyph glyph-name="uni0421" unicode="&#x421;" horiz-adv-x="481" 
d="M50 463q0 57 13.5 104t41 80t69.5 51t99 18q33 0 64.5 -6.5t55.5 -17.5t38.5 -25.5t14.5 -30.5q0 -12 -8 -20t-21 -8q-7 0 -11.5 2.5t-10.5 6.5q-2 2 -5 3t-5 3q-25 17 -51 25.5t-56 8.5q-45 0 -76 -13.5t-50 -39t-27 -61t-8 -80.5v-219q0 -44 8 -80t27 -61t50 -38.5
t76 -13.5q60 0 105 32l11 7q14 10 23 10q13 0 21 -8.5t8 -19.5q0 -16 -14.5 -31t-38.5 -25.5t-55.5 -17t-64.5 -6.5q-57 0 -99 18t-69.5 51t-41 79.5t-13.5 103.5v219z" />
    <glyph glyph-name="uni0422" unicode="&#x422;" horiz-adv-x="483" 
d="M210 642h-146q-15 0 -24.5 9t-9.5 22q0 11 10 22t24 11h359q14 0 24 -9.5t10 -23.5q0 -13 -10 -22t-24 -9h-147v-618q0 -14 -9 -23.5t-23 -9.5t-24 9.5t-10 23.5v618z" />
    <glyph glyph-name="uni0423" unicode="&#x423;" horiz-adv-x="503" 
d="M311 228q-19 -51 -37 -94t-41 -74t-55.5 -48.5t-80.5 -18.5q-14 0 -23.5 8.5t-9.5 22.5q0 11 8 20t22 10q26 1 45 7.5t34.5 19t28 33t24.5 49.5l-194 511q-2 2 -2 6.5v6.5q0 13 9.5 21t23.5 8q20 0 28 -22l166 -447l38.5 109l41 114.5l41 115l38.5 109.5q5 8 13.5 14.5
t16.5 6.5q12 0 21.5 -9t9.5 -23q0 -4 -0.5 -6.5t-0.5 -3.5z" />
    <glyph glyph-name="uni0424" unicode="&#x424;" horiz-adv-x="750" 
d="M345 165h-73q-103 0 -163 55.5t-60 161.5q0 44 11.5 84t38 71t69 49.5t104.5 18.5h73v78q0 13 10.5 23t23.5 10q14 0 23.5 -10t9.5 -23v-78h74q62 0 104 -18.5t68.5 -49.5t38 -71t11.5 -84q0 -106 -60 -161.5t-162 -55.5h-74v-141q0 -14 -9.5 -23.5t-23.5 -9.5t-24 9.5
t-10 23.5v141zM412 540v-311h74q77 0 116.5 37.5t39.5 116.5q0 29 -6.5 57.5t-24 50.5t-47.5 35.5t-78 13.5h-74zM345 229v311h-73q-48 0 -78.5 -13.5t-48 -35.5t-24 -50.5t-6.5 -57.5q0 -79 40 -116.5t117 -37.5h73z" />
    <glyph glyph-name="uni0425" unicode="&#x425;" horiz-adv-x="483" 
d="M74 16q-5 -8 -12 -16.5t-20 -8.5q-12 0 -21.5 10t-9.5 24q0 11 5 18l188 325l-173 297l1 -1q-5 10 -5 20q0 12 9 22t22 10q10 0 19.5 -9.5t16.5 -22.5l150 -268l149 268h-1q6 11 15.5 21.5t23.5 10.5q11 0 19.5 -9.5t8.5 -23.5q0 -9 -4 -19l1 1l-172 -297l188 -325
q4 -8 4 -18q0 -14 -9.5 -24t-20.5 -10t-19.5 8.5t-13.5 16.5l-169 303z" />
    <glyph glyph-name="uni0426" unicode="&#x426;" horiz-adv-x="604" 
d="M112 1q-14 0 -24 9.5t-10 23.5v648q0 14 10 24t24 10t23.5 -10t9.5 -24v-617h294v617q0 14 10 24t24 10t23 -10t9 -24v-617h49q14 0 23.5 -10t9.5 -23v-161q0 -14 -9.5 -23.5t-23.5 -9.5q-13 0 -23 9.5t-10 23.5v130h-409z" />
    <glyph glyph-name="uni0427" unicode="&#x427;" horiz-adv-x="547" 
d="M406 680q0 14 10 25t24 11q13 0 22.5 -10.5t9.5 -25.5v-654q0 -15 -9.5 -25t-22.5 -10q-14 0 -24 10.5t-10 24.5v270q-35 -15 -71.5 -22t-68.5 -7q-100 0 -154 55.5t-54 161.5v196q0 14 10 25t24 11q13 0 23 -10.5t10 -25.5v-195q0 -84 36.5 -119t111.5 -35q34 0 69 7.5
t64 22.5v319z" />
    <glyph glyph-name="uni0428" unicode="&#x428;" horiz-adv-x="760" 
d="M689 34q0 -14 -10 -23.5t-23 -9.5h-545q-14 0 -23.5 9.5t-9.5 23.5v648q0 14 9.5 24t23.5 10t23.5 -10t9.5 -24v-617h205v618q0 13 10 23t24 10t23.5 -10t9.5 -23v-618h206v617q0 14 10 24t24 10t23.5 -10t9.5 -24v-648z" />
    <glyph glyph-name="uni0429" unicode="&#x429;" horiz-adv-x="784" 
d="M688 65h49q14 0 23.5 -10t9.5 -23v-161q0 -14 -9.5 -23.5t-23.5 -9.5q-13 0 -23.5 9.5t-10.5 23.5v130h-592q-14 0 -24 9.5t-10 23.5v648q0 14 10 24t24 10t23.5 -10t9.5 -24v-617h205v618q0 13 10 23t24 10t23 -10t9 -23v-618h207v617q0 14 10 24t23 10q14 0 23.5 -10
t9.5 -24v-617z" />
    <glyph glyph-name="uni042A" unicode="&#x42a;" horiz-adv-x="654" 
d="M200 643h-147q-14 0 -23.5 9t-9.5 22q0 14 9.5 23.5t23.5 9.5h175q17 0 27.5 -12t10.5 -27v-227h126q102 0 162 -56t60 -162q0 -43 -12 -83.5t-38 -71t-68.5 -49t-103.5 -18.5h-150q-17 0 -29.5 12t-12.5 29v601zM392 65q48 0 78 13.5t47 36t23.5 50.5t6.5 57
q0 155 -155 155h-126v-312h126z" />
    <glyph glyph-name="uni042B" unicode="&#x42b;" horiz-adv-x="725" 
d="M270 441q102 0 162 -56t60 -162q0 -43 -12 -83.5t-38 -71t-68.5 -49t-103.5 -18.5h-150q-17 0 -29.5 12t-12.5 29v638q0 15 10 25.5t23 10.5q14 0 23.5 -11t9.5 -25v-239h126zM144 65h126q48 0 78 13.5t47 36t23.5 50.5t6.5 57q0 155 -155 155h-126v-312zM587 683
q0 13 9.5 23t23.5 10t23.5 -10t9.5 -23v-659q0 -14 -9.5 -23.5t-23.5 -9.5t-23.5 9.5t-9.5 23.5v659z" />
    <glyph glyph-name="uni042C" unicode="&#x42c;" horiz-adv-x="535" 
d="M271 441q102 0 161.5 -56t59.5 -162q0 -43 -11.5 -83.5t-38 -71t-68.5 -49t-103 -18.5h-150q-17 0 -29.5 12t-12.5 29v638q0 15 10 25.5t23 10.5q14 0 23.5 -11t9.5 -25v-239h126zM145 65h126q47 0 77.5 13.5t47.5 36t23.5 50.5t6.5 57q0 155 -155 155h-126v-312z" />
    <glyph glyph-name="uni042D" unicode="&#x42d;" horiz-adv-x="498" 
d="M451 244q0 -57 -13.5 -103.5t-40.5 -79.5t-69 -51t-99 -18q-33 0 -64.5 6.5t-56 17t-39 25.5t-14.5 31q0 11 8.5 19.5t21.5 8.5q6 0 11 -2.5t13 -7.5q3 -2 5.5 -3.5t4.5 -3.5q45 -32 105 -32q45 0 76 13.5t49.5 38.5t26.5 61t8 80v78h-197q-14 0 -22.5 9.5t-8.5 23.5
t9.5 23t21.5 9h197v76q0 45 -8 80.5t-26.5 61t-49.5 39t-76 13.5q-31 0 -56.5 -8.5t-49.5 -25.5l-10 -6q-6 -4 -10.5 -6.5t-12.5 -2.5q-13 0 -21.5 8t-8.5 20q0 16 14.5 30.5t39 25.5t56 17.5t64.5 6.5q57 0 99 -18t69 -51t40.5 -80t13.5 -104v-219z" />
    <glyph glyph-name="uni042E" unicode="&#x42e;" horiz-adv-x="758" 
d="M499 -9q-54 0 -94.5 19t-68 52t-41 77t-13.5 95v89h-138v-298q0 -14 -9.5 -24t-23.5 -10t-24 10t-10 24v658q0 13 10 23t24 10t23.5 -10t9.5 -23v-297h138v87q0 50 12 94t38 77t67.5 52.5t99.5 19.5q59 0 100 -19.5t67 -52.5t38 -77t12 -94v-239q0 -51 -13.5 -95t-41 -77
t-68 -52t-94.5 -19zM499 652q-42 0 -70.5 -13t-46.5 -36.5t-26 -56.5t-8 -73v-239q0 -79 37 -129t114 -50q78 0 114.5 50t36.5 129v239q0 40 -8 73t-26 56.5t-46.5 36.5t-70.5 13z" />
    <glyph glyph-name="uni042F" unicode="&#x42f;" horiz-adv-x="561" 
d="M76 509q0 36 10.5 71.5t35.5 63t66.5 44.5t102.5 17h158q16 0 27 -12.5t11 -29.5v-637q0 -15 -9 -25t-22 -10q-14 0 -24.5 10.5t-10.5 24.5v292h-109l-182 -311q-10 -15 -28 -15q-10 0 -23.5 8.5t-13.5 21.5q0 12 5 20l168 278q-75 14 -118.5 62t-43.5 127zM142 509
q0 -63 37.5 -95.5t109.5 -32.5h132v260h-126q-47 0 -76.5 -12t-46.5 -30.5t-23.5 -42t-6.5 -47.5z" />
    <glyph glyph-name="uni0430" unicode="&#x430;" horiz-adv-x="482" 
d="M335 341q0 119 -117 119q-28 0 -46 -5.5t-35 -16.5q-5 -3 -10.5 -5.5t-13.5 -2.5q-11 0 -16 8.5t-6 17.5q-1 16 10.5 27t31.5 18t45 10.5t50 3.5q93 0 132.5 -51t39.5 -150v-226q0 -39 27 -39q3 0 4.5 0.5t3.5 0.5q11 0 16.5 -8.5t5.5 -18.5q0 -15 -12 -21t-26 -6
q-23 0 -42.5 15.5t-33.5 41.5q-63 -60 -143 -60q-76 0 -113 40.5t-37 106.5v4q0 146 174 146q26 0 54 -5t57 -13v69zM223 237q-34 0 -55.5 -7.5t-33.5 -20.5t-16 -30t-4 -36v-4q0 -39 21 -64.5t78 -25.5q35 0 64 12t58 37v120q-30 10 -59.5 14.5t-52.5 4.5z" />
    <glyph glyph-name="uni0431" unicode="&#x431;" horiz-adv-x="465" 
d="M50 484q0 96 46.5 150.5t151.5 65.5q5 1 10 1.5t8 0.5q9 0 16.5 1t17 3.5t23 7.5t34.5 15q2 1 5 2t6 1q12 0 20 -9t8 -21q0 -18 -16 -28.5t-39.5 -17t-49 -9l-44.5 -4.5q-18 -1 -40.5 -6t-43 -20t-34.5 -45t-14 -82v-77q27 35 60.5 54t75.5 19q40 0 71.5 -13.5t53 -37.5
t33 -56t11.5 -69v-142q0 -37 -12 -69t-35 -55.5t-58 -37t-80 -13.5t-79.5 13.5t-58 37t-35.5 55.5t-12 69v316zM235 52q60 0 90 31t30 85v143q0 54 -27 85.5t-87 31.5q-59 0 -91.5 -30t-34.5 -82v-148q0 -54 30 -85t90 -31z" />
    <glyph glyph-name="uni0432" unicode="&#x432;" horiz-adv-x="468" 
d="M413 368q0 -37 -20.5 -64.5t-66.5 -44.5q51 -19 74 -48.5t23 -71.5q0 -61 -40.5 -99.5t-122.5 -38.5h-148q-14 0 -23.5 9t-9.5 23v440q0 14 9.5 23.5t23.5 9.5h138q83 0 123 -39t40 -99zM359 142q0 17 -4.5 32.5t-16.5 28.5t-34 20.5t-57 7.5h-103v-176h114q51 0 76 20.5
t25 66.5zM144 283h106q31 0 50.5 7t30 18.5t14.5 26t4 29.5q0 47 -25.5 67.5t-75.5 20.5h-104v-169z" />
    <glyph glyph-name="uni0433" unicode="&#x433;" horiz-adv-x="372" 
d="M144 25q0 -14 -9.5 -23t-22.5 -9q-14 0 -23.5 9t-9.5 23v452q0 13 8.5 21t21.5 8h232q11 0 20 -8t9 -21q0 -11 -8.5 -19.5t-20.5 -8.5h-197v-424z" />
    <glyph glyph-name="uni0434" unicode="&#x434;" horiz-adv-x="538" 
d="M418 506q14 0 23 -9.5t9 -23.5v-419h36q14 0 23 -9.5t9 -23.5v-132q0 -14 -9 -23t-23 -9t-23.5 9t-9.5 23v112h-361v-112q0 -14 -9.5 -23t-22.5 -9q-14 0 -23.5 9t-9.5 23v132q0 14 9.5 23.5t23.5 9.5h22q26 26 40 80t18 130l9 209q2 19 12.5 26t19.5 7h237zM201 264
q-2 -63 -15 -116t-38 -94h237v399h-177z" />
    <glyph glyph-name="uni0435" unicode="&#x435;" horiz-adv-x="433" 
d="M236 48q35 0 59 8.5t51 20.5q2 1 5 2t6 1q12 0 20 -8.5t8 -19.5q0 -17 -17.5 -28.5t-42 -18t-52 -9.5t-47.5 -3q-42 0 -74.5 12.5t-55 34.5t-34.5 52t-12 64v192q0 36 12 66.5t35 53t57 35t78 12.5q82 0 122 -43.5t40 -116.5q0 -68 -39 -106.5t-127 -38.5
q-25 0 -54.5 2.5t-58.5 8.5v-71q0 -46 30.5 -74t90.5 -28zM330 355q0 55 -26.5 79t-74.5 24q-54 0 -84 -27.5t-30 -74.5v-85q32 -5 66.5 -6.5t50.5 -1.5q32 0 51 8t29.5 20.5t14 29t3.5 34.5z" />
    <glyph glyph-name="uni0436" unicode="&#x436;" horiz-adv-x="608" 
d="M341 25q0 -14 -9.5 -23t-22.5 -9q-14 0 -23.5 9t-9.5 23v211h-50l-140 -228q-12 -15 -27 -15q-13 0 -21.5 7t-9.5 19q0 4 1.5 9.5t3.5 9.5l131 213l-133 218q-2 2 -2.5 6.5t-0.5 8.5q1 13 9.5 20t21.5 7q17 0 27 -16l127 -206h63v190q0 14 9.5 23.5t23.5 9.5
q13 0 22.5 -9.5t9.5 -23.5v-190h62l128 206q5 8 12 12t15 4q29 0 31 -27h-1q0 -5 -1 -10.5t-3 -8.5l-131 -214l131 -213q2 -3 3 -8.5t1 -10.5h1q-2 -26 -31 -26q-17 0 -27 15l-140 228h-50v-211z" />
    <glyph glyph-name="uni0437" unicode="&#x437;" horiz-adv-x="408" 
d="M353 375q0 -46 -21 -76.5t-72 -39.5v-1q55 -10 79.5 -42t24.5 -83q0 -64 -41.5 -102t-126.5 -38q-19 0 -45.5 2t-50 8t-40 16t-16.5 26q0 10 7.5 19.5t26.5 9.5q3 0 4 -1q20 -8 49.5 -16.5t67.5 -8.5q49 0 75.5 20.5t26.5 69.5q0 12 -3 26.5t-16 28t-38.5 23.5t-70.5 13
q-15 1 -29 5t-14 23q0 17 13 20.5t28 5.5q40 4 64 15t36.5 25.5t16 29.5t3.5 27q0 39 -24 59.5t-78 20.5q-19 0 -34 -3.5t-27.5 -8l-23 -8.5t-20.5 -4q-13 0 -21 8.5t-8 19.5q0 15 14 24.5t34.5 15.5t44.5 8.5t44 2.5q81 0 121 -38.5t40 -101.5z" />
    <glyph glyph-name="uni0438" unicode="&#x438;" horiz-adv-x="530" 
d="M116 -9q-17 0 -27.5 10.5t-10.5 26.5v450q0 14 9 24.5t23 10.5t23.5 -10.5t9.5 -24.5v-374l243 388q13 21 37 21q15 0 25 -10.5t10 -27.5v-450q0 -14 -9.5 -24t-22.5 -10q-14 0 -23.5 10t-9.5 24v373l-241 -388q-6 -8 -15.5 -13.5t-20.5 -5.5z" />
    <glyph glyph-name="uni0439" unicode="&#x439;" horiz-adv-x="530" 
d="M116 -9q-17 0 -27.5 10.5t-10.5 26.5v450q0 14 9 24.5t23 10.5t23.5 -10.5t9.5 -24.5v-374l243 388q13 21 37 21q15 0 25 -10.5t10 -27.5v-450q0 -14 -9.5 -24t-22.5 -10q-14 0 -23.5 10t-9.5 24v373l-241 -388q-6 -8 -15.5 -13.5t-20.5 -5.5zM267 632q18 0 36.5 10.5
t35.5 34.5q10 14 25 14q10 0 17 -6.5t2 -22.5q-5 -19 -17.5 -33t-29 -24t-34.5 -15t-35 -5q-16 0 -35 5t-36.5 14.5t-30 24t-16.5 33.5q-3 14 5 21.5t16 7.5q16 0 24 -14q18 -24 35.5 -34.5t37.5 -10.5z" />
    <glyph glyph-name="uni043A" unicode="&#x43a;" horiz-adv-x="436" 
d="M144 25q0 -14 -9.5 -23t-22.5 -9q-14 0 -23.5 9t-9.5 23v454q0 14 9.5 23.5t23.5 9.5q13 0 22.5 -9.5t9.5 -23.5v-190h75l136 206q10 16 27 16q13 0 21.5 -7t8.5 -20q0 -11 -5 -19l-144 -214l144 -213q2 -3 4 -9t2 -10q1 -12 -8.5 -19t-22.5 -7q-18 0 -27 15l-151 228
h-60v-211z" />
    <glyph glyph-name="uni043B" unicode="&#x43b;" horiz-adv-x="524" 
d="M453 25q0 -14 -9 -23t-23 -9t-23.5 9t-9.5 23v428h-177l-24 -291q-6 -75 -32.5 -120.5t-83.5 -45.5q-21 0 -38.5 4t-17.5 24q0 17 9.5 24.5t21.5 7.5h6q2 0 3 -0.5t4 -0.5q31 0 46.5 24t19.5 75l27 318q2 19 12.5 26.5t19.5 7.5h237q14 0 23 -9.5t9 -23.5v-448z" />
    <glyph glyph-name="uni043C" unicode="&#x43c;" horiz-adv-x="640" 
d="M323 87q-20 0 -32 20l-150 268v-350q0 -14 -9 -23t-23 -9q-13 0 -22 9t-9 23v451q0 16 10 26t26 10q11 0 19 -6.5t15 -16.5l176 -322l176 322q6 10 14.5 16.5t19.5 6.5q15 0 25 -10t10 -26v-451q0 -14 -9 -23t-22 -9q-14 0 -23.5 9t-9.5 23v350l-148 -268
q-12 -20 -32 -20h-2z" />
    <glyph glyph-name="uni043D" unicode="&#x43d;" horiz-adv-x="514" 
d="M143 25q0 -14 -9 -23t-23 -9t-23.5 9t-9.5 23v454q0 14 9.5 23.5t23.5 9.5t23 -9.5t9 -23.5v-190h234v190q0 14 9.5 23.5t23.5 9.5t23 -9.5t9 -23.5v-454q0 -14 -9 -23t-23 -9t-23.5 9t-9.5 23v211h-234v-211z" />
    <glyph glyph-name="uni043E" unicode="&#x43e;" horiz-adv-x="465" 
d="M235 -7q-45 0 -79.5 13.5t-58 37t-35.5 55.5t-12 69v172q0 37 12 69t35.5 56t58 37.5t79.5 13.5t80 -13.5t58 -37.5t35 -56t12 -69v-172q0 -37 -12 -69t-35 -55.5t-58 -37t-80 -13.5zM235 52q60 0 90 31t30 85v173q0 54 -30 85.5t-90 31.5t-90 -31.5t-30 -85.5v-173
q0 -54 30 -85t90 -31z" />
    <glyph glyph-name="uni043F" unicode="&#x43f;" horiz-adv-x="504" 
d="M143 25q0 -14 -9 -23t-22 -9q-14 0 -23.5 9t-9.5 23v448q0 14 9.5 23.5t23.5 9.5h288q14 0 23 -9.5t9 -23.5v-448q0 -14 -9 -23t-23 -9t-23.5 9t-9.5 23v428h-224v-428z" />
    <glyph glyph-name="uni0440" unicode="&#x440;" horiz-adv-x="478" 
d="M270 -6q-27 0 -59 5.5t-63 15.5v-199q0 -13 -8.5 -22t-23.5 -9q-17 0 -25 9t-8 22v557q0 26 -3.5 43.5t-14.5 32.5q-6 8 -6 17q0 13 9 21t20 8q10 0 20 -8t18 -20q38 20 76.5 34t76.5 14q77 0 116 -52t39 -135v-134q0 -44 -8 -81t-27 -63.5t-50.5 -41t-78.5 -14.5z
M148 72q27 -12 59 -18t53 -6q60 0 84.5 35t24.5 111v134q0 64 -26 97.5t-81 33.5q-27 0 -58.5 -11t-60.5 -29q2 -11 3.5 -22.5t1.5 -23.5v-301z" />
    <glyph glyph-name="uni0441" unicode="&#x441;" horiz-adv-x="390" 
d="M50 330q0 38 10.5 71.5t32 58t55.5 38.5t80 14q17 0 40 -2.5t44 -9t36 -17t15 -26.5q0 -11 -8 -19t-19 -8q-5 0 -8 0.5t-7 1.5h1q-19 10 -38.5 17.5t-47.5 7.5q-66 0 -93.5 -33.5t-27.5 -93.5v-156q0 -60 27.5 -93t93.5 -33q29 0 48.5 7.5t37.5 16.5h-1q11 3 15 3
q11 0 19 -8.5t8 -19.5q0 -16 -15 -26.5t-36 -16.5t-44 -8.5t-40 -2.5q-46 0 -80 14t-55.5 38.5t-32 57.5t-10.5 71v156z" />
    <glyph glyph-name="uni0442" unicode="&#x442;" horiz-adv-x="408" 
d="M239 25q0 -14 -9 -23t-23 -9t-23.5 9t-9.5 23v420h-114q-13 0 -21.5 9t-8.5 21q0 14 8.5 22.5t21.5 8.5h294q13 0 21 -8.5t8 -22.5q0 -12 -8 -21t-21 -9h-115v-420z" />
    <glyph glyph-name="uni0443" unicode="&#x443;" horiz-adv-x="412" 
d="M273 60q-17 -55 -35.5 -102.5t-43 -83t-57.5 -56t-79 -20.5q-15 0 -24.5 8.5t-9.5 22.5q0 11 8 20.5t22 10.5q27 1 46.5 8.5t34.5 23.5t27.5 41t24.5 62l-164 476q-2 2 -2.5 5.5t-0.5 5.5q0 14 9.5 22t23.5 8q9 0 17 -6t12 -15l136 -415l29 100.5l31 106.5l31.5 107
l28.5 101q5 8 13 14.5t17 6.5q12 0 22 -9t10 -24q0 -4 -0.5 -6t-0.5 -4z" />
    <glyph glyph-name="uni0444" unicode="&#x444;" horiz-adv-x="585" 
d="M262 -7q-52 0 -92 17.5t-67 48t-40.5 72t-13.5 89.5v78q0 47 13.5 86.5t40.5 68.5t67 45.5t92 16.5v185q0 13 9.5 23t23.5 10t23 -9.5t9 -23.5v-185q54 0 94.5 -16.5t67.5 -45.5t40.5 -68.5t13.5 -86.5v-78q0 -48 -13.5 -89.5t-40.5 -72t-67 -48t-93 -17.5l-2 -182
q0 -13 -9 -22.5t-23 -9.5t-23.5 9.5t-9.5 22.5v182zM327 457v-405q76 0 113.5 45t37.5 123v79q0 73 -35 115.5t-105 42.5h-11zM262 457q-75 0 -111.5 -42.5t-36.5 -115.5v-79q0 -78 36.5 -123t111.5 -45v405z" />
    <glyph glyph-name="uni0445" unicode="&#x445;" horiz-adv-x="431" 
d="M46 466q-4 5 -4 15q0 14 10 22.5t21 8.5q12 0 18.5 -6t13.5 -17l115 -178l115 178q7 11 13.5 17t18.5 6q11 0 21 -8.5t10 -22.5q0 -10 -4 -15l-138 -207l148 -219q3 -4 3 -13q0 -14 -9.5 -24t-23.5 -10q-12 0 -18.5 5.5t-14.5 17.5l-123 189l-128 -196q-10 -16 -26 -16
q-14 0 -24 9t-10 23q0 6 4 13l150 221z" />
    <glyph glyph-name="uni0446" unicode="&#x446;" horiz-adv-x="529" 
d="M442 54h36q13 0 22.5 -9.5t9.5 -23.5v-132q0 -14 -9.5 -23t-22.5 -9q-14 0 -23.5 9t-9.5 23v112h-334q-14 0 -23.5 9t-9.5 23v446q0 14 9.5 23.5t23.5 9.5q13 0 22.5 -9.5t9.5 -23.5v-425h234v425q0 14 9.5 23.5t23.5 9.5q13 0 22.5 -9.5t9.5 -23.5v-425z" />
    <glyph glyph-name="uni0447" unicode="&#x447;" horiz-adv-x="468" 
d="M115 334q0 -17 3.5 -33.5t14 -29.5t30 -21t51.5 -8q17 0 50 4t65 12v221q0 14 9.5 23.5t23.5 9.5t23 -9.5t9 -23.5v-454q0 -14 -9 -23t-23 -9t-23.5 9t-9.5 23v180q-30 -8 -59 -11.5t-53 -3.5q-88 0 -127.5 38t-39.5 106v145q0 14 9.5 23.5t23.5 9.5t23 -9.5t9 -23.5
v-145z" />
    <glyph glyph-name="uni0448" unicode="&#x448;" horiz-adv-x="705" 
d="M637 33q0 -14 -9.5 -23t-22.5 -9h-495q-14 0 -23.5 9t-9.5 23v446q0 14 9.5 23.5t23.5 9.5q13 0 22.5 -9.5t9.5 -23.5v-425h182v425q0 14 9.5 23.5t23.5 9.5t23 -9.5t9 -23.5v-425h183v425q0 14 9.5 23.5t23.5 9.5q13 0 22.5 -9.5t9.5 -23.5v-446z" />
    <glyph glyph-name="uni0449" unicode="&#x449;" horiz-adv-x="718" 
d="M636 54h36q14 0 23 -9.5t9 -23.5v-132q0 -14 -9 -23t-23 -9t-23.5 9t-9.5 23v112h-530q-14 0 -23.5 9t-9.5 23v446q0 14 9.5 23.5t23.5 9.5t23 -9.5t9 -23.5v-425h183v425q0 14 9.5 23.5t23.5 9.5q13 0 22.5 -9.5t9.5 -23.5v-425h182v425q0 14 9.5 23.5t23.5 9.5t23 -9.5
t9 -23.5v-425z" />
    <glyph glyph-name="uni044A" unicode="&#x44a;" horiz-adv-x="528" 
d="M44 449q-13 0 -21.5 8.5t-8.5 19.5q0 13 9 21t21 8h128q13 0 21 -8t8 -21v-183h114q94 0 135 -39t41 -111q0 -63 -40.5 -103t-122.5 -40h-159q-14 0 -23.5 9t-9.5 23v416h-92zM201 241v-186h125q50 0 75.5 22t25.5 70q0 17 -4.5 34t-16.5 30.5t-34 21.5t-57 8h-114z" />
    <glyph glyph-name="uni044B" unicode="&#x44b;" horiz-adv-x="654" 
d="M142 294h114q94 0 135 -39t41 -111q0 -63 -40.5 -103t-122.5 -40h-159q-14 0 -23.5 9t-9.5 23v446q0 14 9.5 23.5t23.5 9.5t23 -9.5t9 -23.5v-185zM584 25q0 -14 -9 -23t-23 -9t-23 9t-9 23v454q0 14 9 23.5t23 9.5t23 -9.5t9 -23.5v-454zM142 241v-186h125q50 0 75.5 22
t25.5 70q0 17 -4.5 34t-16.5 30.5t-34 21.5t-57 8h-114z" />
    <glyph glyph-name="uni044C" unicode="&#x44c;" horiz-adv-x="472" 
d="M143 294h114q94 0 135 -39t41 -111q0 -63 -40.5 -103t-122.5 -40h-159q-14 0 -23 9t-9 23v446q0 14 9 23.5t23 9.5t23 -9.5t9 -23.5v-185zM143 241v-186h125q50 0 75.5 22t25.5 70q0 17 -4 34t-16 30.5t-34 21.5t-58 8h-114z" />
    <glyph glyph-name="uni044D" unicode="&#x44d;" horiz-adv-x="393" 
d="M117 227q-13 0 -21.5 8t-8.5 20t8.5 20t21.5 8h165v36q0 66 -25 102t-85 36q-31 0 -53 -8t-44 -17h1q-3 -1 -6 -1.5t-8 -0.5q-11 0 -19.5 8t-8.5 19q0 16 16 26.5t39 17t48 9t44 2.5q43 0 74 -15t51.5 -41t30 -61t9.5 -76v-135q0 -40 -9.5 -75t-30 -61t-51.5 -40.5
t-74 -14.5q-19 0 -44 2.5t-48 8.5t-39 16.5t-16 26.5q0 11 8.5 19.5t19.5 8.5q5 0 14 -3h-1q21 -9 43 -16.5t54 -7.5q60 0 85 36t25 100v43h-165z" />
    <glyph glyph-name="uni044E" unicode="&#x44e;" horiz-adv-x="681" 
d="M142 25q0 -14 -9.5 -23t-22.5 -9q-14 0 -23.5 9t-9.5 23v454q0 14 9.5 23.5t23.5 9.5q13 0 22.5 -9.5t9.5 -23.5v-190h129v50q0 37 12 69t35.5 56t58 37.5t79.5 13.5t80 -13.5t58 -37.5t35 -56t12 -69v-171q0 -37 -12 -69t-35 -55.5t-58 -37t-80 -13.5t-79.5 13.5t-58 37
t-35.5 55.5t-12 69v68h-129v-211zM456 52q60 0 90 31t30 85v172q0 54 -30 85.5t-90 31.5t-90 -31.5t-30 -85.5v-172q0 -54 30 -85t90 -31z" />
    <glyph glyph-name="uni044F" unicode="&#x44f;" horiz-adv-x="487" 
d="M382 -7q-14 0 -23.5 9t-9.5 23v188h-101l-66.5 -103t-68.5 -102q-12 -15 -27 -15q-13 0 -21.5 7t-9.5 19q0 3 1.5 9.5t3.5 9.5l120 178q-65 14 -93 51t-28 95q0 64 41 104t123 40h159q13 0 22.5 -9.5t9.5 -23.5v-448q0 -14 -9.5 -23t-22.5 -9zM123 359q0 -17 4.5 -33.5
t16.5 -30t34.5 -21.5t58.5 -8h112v186h-124q-50 0 -76 -22.5t-26 -70.5z" />
    <glyph glyph-name="uni0450" unicode="&#x450;" horiz-adv-x="433" 
d="M236 48q35 0 59 8.5t51 20.5q2 1 5 2t6 1q12 0 20 -8.5t8 -19.5q0 -17 -17.5 -28.5t-42 -18t-52 -9.5t-47.5 -3q-42 0 -74.5 12.5t-55 34.5t-34.5 52t-12 64v192q0 36 12 66.5t35 53t57 35t78 12.5q82 0 122 -43.5t40 -116.5q0 -68 -39 -106.5t-127 -38.5
q-25 0 -54.5 2.5t-58.5 8.5v-71q0 -46 30.5 -74t90.5 -28zM330 355q0 55 -26.5 79t-74.5 24q-54 0 -84 -27.5t-30 -74.5v-85q32 -5 66.5 -6.5t50.5 -1.5q32 0 51 8t29.5 20.5t14 29t3.5 34.5zM261 625q4 -4 4 -10q0 -12 -8 -20t-18 -8q-8 0 -14.5 4t-13.5 12l-81 88
q-4 5 -4 12q0 11 8 19t16 8t13 -4l12 -10z" />
    <glyph glyph-name="uni0451" unicode="&#x451;" horiz-adv-x="433" 
d="M236 48q35 0 59 8.5t51 20.5q2 1 5 2t6 1q12 0 20 -8.5t8 -19.5q0 -17 -17.5 -28.5t-42 -18t-52 -9.5t-47.5 -3q-42 0 -74.5 12.5t-55 34.5t-34.5 52t-12 64v192q0 36 12 66.5t35 53t57 35t78 12.5q82 0 122 -43.5t40 -116.5q0 -68 -39 -106.5t-127 -38.5
q-25 0 -54.5 2.5t-58.5 8.5v-71q0 -46 30.5 -74t90.5 -28zM330 355q0 55 -26.5 79t-74.5 24q-54 0 -84 -27.5t-30 -74.5v-85q32 -5 66.5 -6.5t50.5 -1.5q32 0 51 8t29.5 20.5t14 29t3.5 34.5zM366 646q0 -18 -11.5 -30t-28.5 -12t-29.5 12.5t-12.5 29.5q0 16 12.5 28.5
t29.5 12.5t28.5 -12t11.5 -29zM193 646q0 -18 -12 -30t-29 -12t-28.5 12.5t-11.5 29.5q0 16 11.5 28.5t28.5 12.5t29 -12t12 -29z" />
    <glyph glyph-name="uni0452" unicode="&#x452;" horiz-adv-x="582" 
d="M445 299q0 63 -22.5 94.5t-74.5 31.5q-32 0 -66.5 -16t-60.5 -50v-334q0 -14 -9 -23t-22 -9q-14 0 -23.5 9t-9.5 23v563h-97q-14 0 -22.5 8.5t-8.5 20.5q0 13 8.5 22t22.5 9h97v58q0 12 9 22.5t23 10.5q13 0 22.5 -9.5t9.5 -23.5v-58h95q13 0 21 -9t8 -22q0 -12 -8 -20.5
t-21 -8.5h-95v-156q32 25 67 38.5t70 13.5q39 0 68 -13.5t47.5 -38t27.5 -58t9 -74.5v-281q0 -97 -36.5 -155.5t-101.5 -71.5q-6 -1 -10 -0.5t-9 0.5q-9 0 -16.5 5.5t-9.5 14.5q-4 17 6.5 25.5t21.5 10.5q43 13 66.5 50.5t23.5 115.5v285z" />
    <glyph glyph-name="uni0453" unicode="&#x453;" horiz-adv-x="372" 
d="M144 25q0 -14 -9.5 -23t-22.5 -9q-14 0 -23.5 9t-9.5 23v452q0 13 8.5 21t21.5 8h232q11 0 20 -8t9 -21q0 -11 -8.5 -19.5t-20.5 -8.5h-197v-424zM287 716q5 5 10 9.5t13 4.5q11 0 18 -8.5t7 -18.5q0 -7 -3 -12l-82 -87q-8 -8 -13.5 -12.5t-13.5 -4.5q-11 0 -19 8.5
t-8 19.5q0 5 4 10z" />
    <glyph glyph-name="uni0454" unicode="&#x454;" horiz-adv-x="390" 
d="M115 227v-43q0 -64 25.5 -100t85.5 -36q32 0 54 7.5t42 16.5h-1q11 3 15 3q11 0 19 -8.5t8 -19.5q0 -16 -16 -26.5t-38.5 -16.5t-48 -8.5t-43.5 -2.5q-43 0 -75 14.5t-52 40.5t-30 61t-10 75v135q0 41 10 76t30 61t52 41t75 15q18 0 43.5 -2.5t48 -9t38.5 -17t16 -26.5
q0 -11 -8 -19t-19 -8q-5 0 -8 0.5t-7 1.5h1q-21 9 -43 17t-53 8q-60 0 -85.5 -36t-25.5 -102v-36h166q13 0 21 -8t8 -20t-8 -20t-21 -8h-166z" />
    <glyph glyph-name="uni0455" unicode="&#x455;" horiz-adv-x="416" 
d="M59 374q0 64 40.5 102.5t118.5 38.5q19 0 41.5 -2.5t42 -8.5t32.5 -15.5t13 -23.5q0 -12 -8 -20.5t-21 -8.5q-5 0 -8 1t-7 3q-17 8 -35 14t-47 6q-51 0 -75 -20.5t-24 -60.5q0 -27 12 -43t41 -32q30 -15 62.5 -26t60.5 -28t46 -43.5t18 -71.5q0 -66 -41.5 -104
t-123.5 -38q-19 0 -44 2t-47.5 8t-38 16t-15.5 25q0 11 8.5 20.5t22.5 9.5q3 0 6 -1q23 -9 48.5 -17t59.5 -8q46 0 74 19.5t28 64.5q0 32 -12 48t-29 25q-29 15 -64 26t-65 28t-50 43.5t-20 71.5z" />
    <glyph glyph-name="uni0456" unicode="&#x456;" horiz-adv-x="245" 
d="M165 681q0 -17 -12 -29t-29 -12q-18 0 -30 12t-12 29q0 18 12 30t30 12q17 0 29 -12t12 -30zM156 25q0 -14 -9.5 -23t-22.5 -9q-14 0 -23.5 9t-9.5 23v454q0 14 9.5 23.5t23.5 9.5q13 0 22.5 -9.5t9.5 -23.5v-454z" />
    <glyph glyph-name="uni0457" unicode="&#x457;" horiz-adv-x="245" 
d="M156 25q0 -14 -9.5 -23t-22.5 -9q-14 0 -23.5 9t-9.5 23v454q0 14 9.5 23.5t23.5 9.5q13 0 22.5 -9.5t9.5 -23.5v-454zM267 631q0 -20 -13.5 -34t-32.5 -14q-20 0 -34 14t-14 34q0 18 14 32t34 14q19 0 32.5 -13.5t13.5 -32.5zM73 631q0 -20 -13 -34t-33 -14t-33 14
t-13 34q0 18 13 32t33 14t33 -13.5t13 -32.5z" />
    <glyph glyph-name="uni0458" unicode="&#x458;" horiz-adv-x="245" 
d="M170 -23q0 -76 -37.5 -125t-101.5 -60q-6 -1 -9.5 -0.5t-8.5 0.5q-9 0 -17 5.5t-10 14.5q-4 17 5.5 25t19.5 10q45 11 69.5 38.5t24.5 87.5v506q0 14 9.5 23.5t23.5 9.5q13 0 22.5 -9.5t9.5 -23.5v-502zM179 681q0 -17 -12 -29t-29 -12q-18 0 -30.5 12t-12.5 29
q0 18 12.5 30t30.5 12q17 0 29 -12t12 -30z" />
    <glyph glyph-name="uni0459" unicode="&#x459;" horiz-adv-x="737" 
d="M404 506q13 0 22.5 -9.5t9.5 -23.5v-179h92q94 0 135.5 -39t41.5 -111q0 -63 -40.5 -103t-122.5 -40h-138q-14 0 -23.5 9t-9.5 23v420h-157l-24 -291q-6 -75 -32.5 -120.5t-83.5 -45.5q-21 0 -38.5 4t-17.5 24q0 17 10 24.5t21 7.5h6q2 0 3 -0.5t4 -0.5q32 0 47 24t19 75
l27 318q2 19 12.5 26.5t19.5 7.5h217zM436 241v-186h104q50 0 75.5 22t25.5 70q0 17 -4.5 34t-16.5 30.5t-34 21.5t-58 8h-92z" />
    <glyph glyph-name="uni045A" unicode="&#x45a;" horiz-adv-x="722" 
d="M142 25q0 -14 -9.5 -23t-22.5 -9q-14 0 -23.5 9t-9.5 23v454q0 14 9.5 23.5t23.5 9.5q13 0 22.5 -9.5t9.5 -23.5v-190h213v190q0 14 9.5 23.5t23.5 9.5q13 0 22.5 -9.5t9.5 -23.5v-190h93q94 0 135 -37.5t41 -107.5q0 -63 -40.5 -103t-122.5 -40h-138q-14 0 -23.5 9
t-9.5 23v203h-213v-211zM420 236v-181h104q51 0 76 22t25 70q0 17 -4.5 32.5t-16.5 28.5t-34 20.5t-57 7.5h-93z" />
    <glyph glyph-name="uni045B" unicode="&#x45b;" horiz-adv-x="582" 
d="M345 617q0 -12 -8 -20.5t-21 -8.5h-95v-156q32 25 67 38.5t70 13.5q79 0 115.5 -46t36.5 -117v-296q0 -14 -9 -23t-23 -9t-23.5 9t-9.5 23v294q0 53 -22.5 79.5t-74.5 26.5q-32 0 -66.5 -16t-60.5 -50v-334q0 -14 -9 -23t-22 -9q-14 0 -23.5 9t-9.5 23v563h-97
q-14 0 -22.5 8.5t-8.5 20.5q0 13 8.5 22t22.5 9h97v58q0 12 9 22.5t23 10.5q13 0 22.5 -9.5t9.5 -23.5v-58h95q13 0 21 -9t8 -22z" />
    <glyph glyph-name="uni045C" unicode="&#x45c;" horiz-adv-x="436" 
d="M144 25q0 -14 -9.5 -23t-22.5 -9q-14 0 -23.5 9t-9.5 23v454q0 14 9.5 23.5t23.5 9.5q13 0 22.5 -9.5t9.5 -23.5v-190h75l136 206q10 16 27 16q13 0 21.5 -7t8.5 -20q0 -11 -5 -19l-144 -214l144 -213q2 -3 4 -9t2 -10q1 -12 -8.5 -19t-22.5 -7q-18 0 -27 15l-151 228
h-60v-211zM307 716q5 5 10 9.5t13 4.5q11 0 18 -8.5t7 -18.5q0 -7 -3 -12l-82 -87q-8 -8 -13.5 -12.5t-13.5 -4.5q-11 0 -19 8.5t-8 19.5q0 5 4 10z" />
    <glyph glyph-name="uni045D" unicode="&#x45d;" horiz-adv-x="530" 
d="M116 -9q-17 0 -27.5 10.5t-10.5 26.5v450q0 14 9 24.5t23 10.5t23.5 -10.5t9.5 -24.5v-374l243 388q13 21 37 21q15 0 25 -10.5t10 -27.5v-450q0 -14 -9.5 -24t-22.5 -10q-14 0 -23.5 10t-9.5 24v373l-241 -388q-6 -8 -15.5 -13.5t-20.5 -5.5zM307 625q4 -4 4 -10
q0 -12 -8 -20t-18 -8q-8 0 -14.5 4t-13.5 12l-81 88q-4 5 -4 12q0 11 8 19t16 8t13 -4l12 -10z" />
    <glyph glyph-name="uni045E" unicode="&#x45e;" horiz-adv-x="412" 
d="M273 60q-17 -55 -35.5 -102.5t-43 -83t-57.5 -56t-79 -20.5q-15 0 -24.5 8.5t-9.5 22.5q0 11 8 20.5t22 10.5q27 1 46.5 8.5t34.5 23.5t27.5 41t24.5 62l-164 476q-2 2 -2.5 5.5t-0.5 5.5q0 14 9.5 22t23.5 8q9 0 17 -6t12 -15l136 -415l29 100.5l31 106.5l31.5 107
l28.5 101q5 8 13 14.5t17 6.5q12 0 22 -9t10 -24q0 -4 -0.5 -6t-0.5 -4zM208 632q18 0 36.5 10.5t35.5 34.5q10 14 25 14q10 0 17 -6.5t2 -22.5q-5 -19 -17.5 -33t-29 -24t-34.5 -15t-35 -5q-16 0 -35 5t-36.5 14.5t-30 24t-16.5 33.5q-3 14 5 21.5t16 7.5q16 0 24 -14
q18 -24 35.5 -34.5t37.5 -10.5z" />
    <glyph glyph-name="uni045F" unicode="&#x45f;" horiz-adv-x="504" 
d="M288 -111q0 -14 -9.5 -23t-22.5 -9q-14 0 -23.5 9t-9.5 23v112h-111q-14 0 -23.5 9t-9.5 23v448q0 14 9.5 23.5t23.5 9.5q13 0 22 -9.5t9 -23.5v-427h224v427q0 14 9.5 23.5t23.5 9.5t23 -9.5t9 -23.5v-448q0 -14 -9 -23t-23 -9h-112v-112z" />
    <glyph glyph-name="uni0462" unicode="&#x462;" horiz-adv-x="644" 
d="M456 623q0 -13 -9.5 -22t-23.5 -9h-188v-171h125q102 0 162 -54t60 -154q0 -42 -11.5 -80t-38 -67.5t-68.5 -47t-104 -17.5h-150q-17 0 -29.5 12t-12.5 29v550h-105q-14 0 -24 9.5t-10 20.5q0 13 10 23.5t24 10.5h105v78q0 13 10 23t24 10t23.5 -10t9.5 -23v-78h188
q13 0 23 -9.5t10 -23.5zM360 65q48 0 78 13t47.5 33.5t24 47t6.5 53.5q0 145 -156 145h-125v-292h125z" />
    <glyph glyph-name="uni0463" unicode="&#x463;" horiz-adv-x="582" 
d="M345 566q0 -13 -8 -21t-21 -8h-94v-192h113q94 0 135 -44t41 -124t-40 -128t-123 -48h-158q-14 0 -23.5 9t-9.5 23v504h-97q-14 0 -22.5 8.5t-8.5 21.5q0 12 8.5 21t22.5 9h97v99q0 14 9.5 23.5t23.5 9.5q13 0 22.5 -9.5t9.5 -23.5v-99h94q13 0 21 -9.5t8 -21.5zM222 293
v-238h124q101 0 101 121q0 21 -4 42t-16 37.5t-34 27t-58 10.5h-113z" />
    <glyph glyph-name="uni0490" unicode="&#x490;" horiz-adv-x="430" 
d="M79 668q0 15 11 27t28 12h243v100q0 14 10 24t24 10t23 -10t9 -24v-133q0 -13 -9 -22t-22 -9h-251v-618q0 -14 -9 -23.5t-23 -9.5t-24 9.5t-10 23.5v643z" />
    <glyph glyph-name="uni0491" unicode="&#x491;" horiz-adv-x="375" 
d="M308 613q0 14 9.5 23.5t23.5 9.5q13 0 22.5 -9.5t9.5 -23.5v-132q0 -13 -9.5 -22.5t-22.5 -9.5h-197v-424q0 -14 -9.5 -23t-22.5 -9q-14 0 -23.5 9t-9.5 23v452q0 13 8.5 21t21.5 8h199v107z" />
    <glyph glyph-name="Wgrave" unicode="&#x1e80;" horiz-adv-x="776" 
d="M392 587l-30 -134l-33 -144l-33 -144l-30 -133q-5 -14 -15.5 -27.5t-31.5 -13.5q-19 0 -31 12t-17 29l-153 648v4q0 14 12.5 21t26.5 7q9 0 17.5 -6.5t12.5 -17.5l134 -578l125 552q6 25 15.5 39.5t30.5 14.5q20 0 30 -15t15 -39l127 -553l133 579q4 11 11 17.5t16 6.5
q14 0 27.5 -7t13.5 -22v-4t-1 -5v-1l-152 -641q-5 -16 -16.5 -28.5t-30.5 -12.5q-20 0 -31.5 13t-16.5 29zM454 825q4 -4 4 -10q0 -12 -8 -20t-18 -8q-8 0 -14.5 4t-13.5 12l-81 88q-4 5 -4 12q0 11 8 19t16 8t13 -4l12 -10z" />
    <glyph glyph-name="wgrave" unicode="&#x1e81;" horiz-adv-x="655" 
d="M517 33q-6 -20 -15 -30t-29 -10q-13 0 -24 7.5t-16 21.5l-99 389l-23 -94l-25 -101l-26 -100.5t-26 -93.5q-8 -29 -41 -29q-17 0 -28.5 11t-16.5 29l-120 446v2q0 12 9.5 21.5t23.5 9.5q9 0 17.5 -6.5t12.5 -16.5l103 -403l53.5 204.5l47.5 190.5q4 13 13.5 22t25.5 9
q14 0 23.5 -9t13.5 -22l18.5 -76l21.5 -85.5l27.5 -103.5l34.5 -130l102 403q2 10 11 16.5t19 6.5q13 0 22 -9.5t9 -23.5v-2zM394 625q4 -4 4 -10q0 -12 -8 -20t-18 -8q-8 0 -14.5 4t-13.5 12l-81 88q-4 5 -4 12q0 11 8 19t16 8t13 -4l12 -10z" />
    <glyph glyph-name="Wacute" unicode="&#x1e82;" horiz-adv-x="776" 
d="M392 587l-30 -134l-33 -144l-33 -144l-30 -133q-5 -14 -15.5 -27.5t-31.5 -13.5q-19 0 -31 12t-17 29l-153 648v4q0 14 12.5 21t26.5 7q9 0 17.5 -6.5t12.5 -17.5l134 -578l125 552q6 25 15.5 39.5t30.5 14.5q20 0 30 -15t15 -39l127 -553l133 579q4 11 11 17.5t16 6.5
q14 0 27.5 -7t13.5 -22v-4t-1 -5v-1l-152 -641q-5 -16 -16.5 -28.5t-30.5 -12.5q-20 0 -31.5 13t-16.5 29zM410 916q5 5 10 9.5t13 4.5q11 0 18 -8.5t7 -18.5q0 -7 -3 -12l-82 -87q-8 -8 -13.5 -12.5t-13.5 -4.5q-11 0 -19 8.5t-8 19.5q0 5 4 10z" />
    <glyph glyph-name="wacute" unicode="&#x1e83;" horiz-adv-x="655" 
d="M517 33q-6 -20 -15 -30t-29 -10q-13 0 -24 7.5t-16 21.5l-99 389l-23 -94l-25 -101l-26 -100.5t-26 -93.5q-8 -29 -41 -29q-17 0 -28.5 11t-16.5 29l-120 446v2q0 12 9.5 21.5t23.5 9.5q9 0 17.5 -6.5t12.5 -16.5l103 -403l53.5 204.5l47.5 190.5q4 13 13.5 22t25.5 9
q14 0 23.5 -9t13.5 -22l18.5 -76l21.5 -85.5l27.5 -103.5l34.5 -130l102 403q2 10 11 16.5t19 6.5q13 0 22 -9.5t9 -23.5v-2zM350 716q5 5 10 9.5t13 4.5q11 0 18 -8.5t7 -18.5q0 -7 -3 -12l-82 -87q-8 -8 -13.5 -12.5t-13.5 -4.5q-11 0 -19 8.5t-8 19.5q0 5 4 10z" />
    <glyph glyph-name="Wdieresis" unicode="&#x1e84;" horiz-adv-x="776" 
d="M392 587l-30 -134l-33 -144l-33 -144l-30 -133q-5 -14 -15.5 -27.5t-31.5 -13.5q-19 0 -31 12t-17 29l-153 648v4q0 14 12.5 21t26.5 7q9 0 17.5 -6.5t12.5 -17.5l134 -578l125 552q6 25 15.5 39.5t30.5 14.5q20 0 30 -15t15 -39l127 -553l133 579q4 11 11 17.5t16 6.5
q14 0 27.5 -7t13.5 -22v-4t-1 -5v-1l-152 -641q-5 -16 -16.5 -28.5t-30.5 -12.5q-20 0 -31.5 13t-16.5 29zM516 846q0 -18 -11.5 -30t-28.5 -12t-29.5 12.5t-12.5 29.5q0 16 12.5 28.5t29.5 12.5t28.5 -12t11.5 -29zM343 846q0 -18 -12 -30t-29 -12t-28.5 12.5t-11.5 29.5
q0 16 11.5 28.5t28.5 12.5t29 -12t12 -29z" />
    <glyph glyph-name="wdieresis" unicode="&#x1e85;" horiz-adv-x="655" 
d="M517 33q-6 -20 -15 -30t-29 -10q-13 0 -24 7.5t-16 21.5l-99 389l-23 -94l-25 -101l-26 -100.5t-26 -93.5q-8 -29 -41 -29q-17 0 -28.5 11t-16.5 29l-120 446v2q0 12 9.5 21.5t23.5 9.5q9 0 17.5 -6.5t12.5 -16.5l103 -403l53.5 204.5l47.5 190.5q4 13 13.5 22t25.5 9
q14 0 23.5 -9t13.5 -22l18.5 -76l21.5 -85.5l27.5 -103.5l34.5 -130l102 403q2 10 11 16.5t19 6.5q13 0 22 -9.5t9 -23.5v-2zM456 646q0 -18 -11.5 -30t-28.5 -12t-29.5 12.5t-12.5 29.5q0 16 12.5 28.5t29.5 12.5t28.5 -12t11.5 -29zM283 646q0 -18 -12 -30t-29 -12
t-28.5 12.5t-11.5 29.5q0 16 11.5 28.5t28.5 12.5t29 -12t12 -29z" />
    <glyph glyph-name="Ygrave" unicode="&#x1ef2;" horiz-adv-x="476" 
d="M241 -9q-15 0 -25 10t-10 25v253l-182 386q-4 10 -4 17q0 14 10.5 24t24.5 10q7 0 13.5 -3t10.5 -10v1l162 -351l161 351v-1q7 13 25 13q13 0 23 -10t10 -24q0 -4 -1 -9t-2 -8l-183 -390v-249q0 -14 -9.5 -24.5t-23.5 -10.5zM275 825q4 -4 4 -10q0 -12 -8 -20t-18 -8
q-8 0 -14.5 4t-13.5 12l-81 88q-4 5 -4 12q0 11 8 19t16 8t13 -4l12 -10z" />
    <glyph glyph-name="ygrave" unicode="&#x1ef3;" horiz-adv-x="412" 
d="M273 60q-17 -55 -35.5 -102.5t-43 -83t-57.5 -56t-79 -20.5q-15 0 -24.5 8.5t-9.5 22.5q0 11 8 20.5t22 10.5q27 1 46.5 8.5t34.5 23.5t27.5 41t24.5 62l-164 476q-2 2 -2.5 5.5t-0.5 5.5q0 14 9.5 22t23.5 8q9 0 17 -6t12 -15l136 -415l29 100.5l31 106.5l31.5 107
l28.5 101q5 8 13 14.5t17 6.5q12 0 22 -9t10 -24q0 -4 -0.5 -6t-0.5 -4zM272 625q4 -4 4 -10q0 -12 -8 -20t-18 -8q-8 0 -14.5 4t-13.5 12l-81 88q-4 5 -4 12q0 11 8 19t16 8t13 -4l12 -10z" />
    <glyph glyph-name="endash" unicode="&#x2013;" horiz-adv-x="431" 
d="M390 286q0 -12 -8.5 -20.5t-21.5 -8.5h-286q-13 0 -21.5 8.5t-8.5 20.5t8.5 21.5t21.5 9.5h286q13 0 21.5 -9.5t8.5 -21.5z" />
    <glyph glyph-name="emdash" unicode="&#x2014;" horiz-adv-x="530" 
d="M492 286q0 -12 -9 -20.5t-21 -8.5h-388q-14 0 -22.5 8.5t-8.5 20.5t8.5 21.5t22.5 9.5h388q12 0 21 -9.5t9 -21.5z" />
    <glyph glyph-name="quoteleft" unicode="&#x2018;" horiz-adv-x="230" 
d="M68 566q0 24 7.5 52t18.5 52t23 40t22 16q11 0 11 -10q0 -12 -4.5 -22t-11.5 -22q-6 -9 -11 -19t-12 -37q23 -2 37 -16t14 -34t-13.5 -33t-33.5 -13q-19 0 -33 13t-14 33z" />
    <glyph glyph-name="quoteright" unicode="&#x2019;" horiz-adv-x="230" 
d="M162 679q0 -24 -7.5 -52t-18 -52t-22.5 -39.5t-21 -15.5q-5 0 -9 2t-4 7q0 11 5.5 21.5t12.5 22.5q5 9 10 19.5t12 36.5q-22 2 -37 16t-15 34t14 33.5t34 13.5t33 -13.5t13 -33.5z" />
    <glyph glyph-name="quotesinglbase" unicode="&#x201a;" horiz-adv-x="230" 
d="M162 39q0 -25 -7.5 -53t-18 -52t-22.5 -39.5t-21 -15.5q-5 0 -9 2t-4 8q0 11 5.5 21l12.5 23q5 9 10 19t12 37q-22 2 -37 16t-15 34q0 19 14 33t34 14t33 -14t13 -33z" />
    <glyph glyph-name="quotedblleft" unicode="&#x201c;" horiz-adv-x="369" 
d="M67 566q0 24 7.5 52t18.5 52t23 40t22 16q11 0 11 -10q0 -12 -4.5 -22t-11.5 -22q-5 -9 -10 -19t-13 -37q23 -2 37 -16t14 -34t-13.5 -33t-33.5 -13q-19 0 -33 13t-14 33zM210 566q0 24 7.5 52t18.5 52t23.5 40t21.5 16q11 0 11 -10q0 -12 -4.5 -22t-11.5 -22
q-5 -9 -10 -19t-13 -37q23 -2 37 -16t14 -34t-13.5 -33t-33.5 -13q-19 0 -33 13t-14 33z" />
    <glyph glyph-name="quotedblright" unicode="&#x201d;" horiz-adv-x="369" 
d="M304 679q0 -24 -7.5 -52t-18 -52t-22.5 -39.5t-21 -15.5q-5 0 -8.5 2t-3.5 7q0 11 5 21.5t12 22.5q5 9 10 19.5t13 36.5q-23 2 -38 16t-15 34t14 33.5t34 13.5t33 -13.5t13 -33.5zM161 679q0 -24 -7.5 -52t-18.5 -52t-22.5 -39.5t-20.5 -15.5q-12 0 -12 9q0 11 5 21.5
t12 22.5q5 9 10 19.5t13 36.5q-23 2 -38 16t-15 34t14 33.5t34 13.5t33 -13.5t13 -33.5z" />
    <glyph glyph-name="quotedblbase" unicode="&#x201e;" horiz-adv-x="369" 
d="M304 39q0 -25 -7.5 -53t-18 -52t-22.5 -39.5t-21 -15.5q-5 0 -8.5 2.5t-3.5 7.5q0 11 4.5 22t11.5 22q6 10 12 22.5t12 33.5q-23 2 -38 16t-15 34t14 33.5t34 13.5t33 -14t13 -33zM161 39q0 -25 -7.5 -53t-18.5 -52t-22.5 -39.5t-20.5 -15.5q-12 0 -12 10q0 11 4.5 22
t11.5 22q6 10 12 22.5t12 33.5q-23 2 -38 16t-15 34t14 33.5t34 13.5t33 -14t13 -33z" />
    <glyph glyph-name="dagger" unicode="&#x2020;" horiz-adv-x="432" 
d="M440 477q0 -12 -8.5 -20t-20.5 -8h-161v-521q0 -9 -0.5 -14t-0.5 -7q-2 -10 -10.5 -17.5t-21.5 -7.5q-11 0 -20 7.5t-11 17.5q-1 5 -1 10.5v10.5v521h-161q-7 0 -8 1q-9 2 -15 9.5t-6 17.5q0 13 8.5 21.5t20.5 8.5h161v172v10.5t1 10.5q2 11 11 18.5t20 7.5
q13 0 21.5 -7.5t10.5 -18.5q0 -3 0.5 -6.5t0.5 -14.5v-172h161q1 0 7 -3q9 -2 15.5 -9.5t6.5 -17.5z" />
    <glyph glyph-name="daggerdbl" unicode="&#x2021;" horiz-adv-x="574" 
d="M509 34q0 -13 -9 -21t-21 -8h-160v-183q0 -7 -0.5 -11t-0.5 -6q-3 -10 -12 -18t-20 -8q-12 0 -21 7.5t-11 17.5t-2 18v183h-159q-13 0 -22 8t-9 21t9 21t22 8h159v386h-159q-13 0 -22 8t-9 20q0 13 9 22t22 9h159v185q0 3 1 4q2 12 11.5 20.5t21.5 8.5q14 0 23.5 -9.5
t9.5 -23.5v-185h160q12 0 21 -9t9 -22q0 -12 -9 -20t-21 -8h-160v-386h160q12 0 21 -8t9 -21z" />
    <glyph glyph-name="bullet" unicode="&#x2022;" horiz-adv-x="303" 
d="M224 273q0 -30 -21 -51t-50 -21t-50.5 21t-21.5 51q0 29 21.5 50t50.5 21t50 -21t21 -50z" />
    <glyph glyph-name="ellipsis" unicode="&#x2026;" horiz-adv-x="583" 
d="M522 38q0 -20 -13.5 -33.5t-33.5 -13.5t-33.5 13.5t-13.5 33.5t13.5 34t33.5 14t33.5 -14t13.5 -34zM341 38q0 -20 -13.5 -33.5t-33.5 -13.5q-19 0 -33.5 13.5t-14.5 33.5t14.5 34t33.5 14q20 0 33.5 -14t13.5 -34zM160 38q0 -20 -13.5 -33.5t-33.5 -13.5q-19 0 -33 13.5
t-14 33.5t14 34t33 14q20 0 33.5 -14t13.5 -34z" />
    <glyph glyph-name="guilsinglleft" unicode="&#x2039;" horiz-adv-x="318" 
d="M270 40q1 -2 2 -6t1 -7q0 -14 -9 -24t-24 -10q-11 0 -17.5 5.5t-14.5 17.5l-79.5 119l-79.5 119l153 230q7 11 13.5 17.5t17.5 6.5t21 -8.5t10 -22.5q0 -5 -0.5 -9t-2.5 -6l-137 -206z" />
    <glyph glyph-name="guilsinglright" unicode="&#x203a;" horiz-adv-x="318" 
d="M197 256l-136 206q-5 6 -5 15q0 14 10.5 22.5t21.5 8.5t18 -6.5t14 -17.5l152 -230l-158 -238q-9 -12 -15.5 -17.5t-17.5 -5.5q-15 0 -24.5 10t-9.5 24q0 6 4 13z" />
    <glyph glyph-name="fraction" unicode="&#x2044;" horiz-adv-x="153" 
d="M-16 -6q-3 -9 -11.5 -14.5t-18.5 -3.5q-12 2 -18.5 11.5t-4.5 21.5l2 7l237 665q3 10 11.5 15t18.5 3q11 -2 17.5 -13.5t4.5 -25.5z" />
    <glyph glyph-name="zerosuperior" unicode="&#x2070;" 
d="M123 708q-30 0 -42.5 -18.5t-12.5 -49.5v-149q0 -27 14 -44t41 -17q26 0 40.5 17t14.5 44v149q0 31 -13 49.5t-42 18.5zM123 754q54 0 78 -34.5t24 -83.5v-145q0 -45 -25.5 -75.5t-76.5 -30.5t-78 30.5t-27 75.5v145q0 49 25.5 83.5t79.5 34.5z" />
    <glyph glyph-name="foursuperior" unicode="&#x2074;" 
d="M204 407q0 -9 -7 -15.5t-17 -6.5q-11 0 -18 6.5t-7 15.5v55h-117q-12 0 -19 7.5t-7 18.5q1 2 1 5q2 5 4 8l96 237q2 6 7.5 10.5t11.5 4.5q9 0 16.5 -7.5t7.5 -18.5q0 -6 -1 -8l-41.5 -105.5l-42.5 -105.5h84v91q0 11 7 17.5t18 6.5q10 0 17 -6.5t7 -17.5v-91h15
q10 0 16.5 -6.5t6.5 -16.5q0 -9 -6.5 -16t-16.5 -7h-15v-55z" />
    <glyph glyph-name="fivesuperior" unicode="&#x2075;" 
d="M224 502q0 -21 -6 -42t-18.5 -37.5t-32 -27t-46.5 -10.5q-8 0 -24.5 1.5t-33.5 5.5t-30 11.5t-13 20.5q0 11 6.5 18t17.5 7q6 0 13 -5q9 -5 21.5 -10t32.5 -5q38 0 51.5 22.5t13.5 48.5q0 36 -16.5 53t-40.5 17q-15 0 -32 -10l-13 -8q-4 -2 -7 -4t-9 -2q-10 0 -17.5 7
t-6.5 18l3 146q0 14 9.5 21t19.5 7h118q10 0 18.5 -5.5t8.5 -19.5q0 -12 -8.5 -17t-18.5 -5h-102l-4 -95q12 6 22.5 8t19.5 2q47 0 75.5 -28.5t28.5 -82.5z" />
    <glyph glyph-name="sixsuperior" unicode="&#x2076;" 
d="M135 703q-39 0 -53.5 -31.5t-16.5 -76.5q14 8 31 12.5t31 4.5q43 0 72.5 -27.5t29.5 -84.5q0 -48 -26 -81.5t-80 -33.5q-31 0 -52 12.5t-33.5 35.5t-18 54.5t-5.5 68.5q0 94 28.5 143.5t85.5 49.5q6 0 19.5 -1t27 -4.5t24 -10t10.5 -17.5q0 -8 -6.5 -15t-16.5 -7l-12 3
q-8 2 -18 4t-21 2zM64 530q0 -18 2.5 -36t9.5 -31.5t19 -22t30 -8.5q32 0 44.5 21t12.5 46q0 35 -15.5 51t-41.5 16q-14 0 -32 -9t-29 -19v-8z" />
    <glyph glyph-name="sevensuperior" unicode="&#x2077;" 
d="M225 718q0 -5 -2 -13l-121 -307q-2 -5 -8.5 -9t-13.5 -4q-8 0 -17 6.5t-7 18.5l1 2q0 3 1 4l113 280h-127q-11 0 -18 6.5t-7 16.5q0 11 7 18.5t18 7.5h158q8 0 15.5 -7.5t7.5 -19.5z" />
    <glyph glyph-name="eightsuperior" unicode="&#x2078;" 
d="M235 489q0 -46 -30.5 -75t-81.5 -29q-50 0 -82 28.5t-32 73.5q0 31 16 53t40 36q-20 14 -32.5 32.5t-12.5 46.5q0 43 30 68.5t72 25.5q43 0 71.5 -26t28.5 -67q0 -50 -40 -77q23 -14 38 -36t15 -54zM176 654q0 23 -15.5 36t-37.5 13q-23 0 -38.5 -13t-15.5 -36
q0 -24 16 -38t37 -18q21 5 37.5 20t16.5 36zM188 490q0 26 -21.5 42.5t-45.5 22.5q-25 -8 -44.5 -25t-19.5 -41q0 -26 19 -43t47 -17t46.5 17.5t18.5 43.5z" />
    <glyph glyph-name="ninesuperior" unicode="&#x2079;" 
d="M111 429q20 0 33 8.5t21 23.5t11.5 34.5t4.5 41.5q-14 -10 -30 -13.5t-32 -3.5q-43 0 -74 27.5t-31 83.5q0 50 25.5 84t80.5 34q32 0 53 -12.5t33.5 -36t17.5 -56t5 -72.5q0 -94 -27 -140.5t-85 -46.5q-6 0 -19.5 1t-27 4t-24 8.5t-10.5 15.5q-1 14 6.5 21.5t17.5 3.5
l13 -5q12 -5 38 -5zM181 600q0 44 -13.5 72t-48.5 28q-31 0 -43 -21t-12 -48q0 -32 15.5 -47.5t41.5 -15.5q17 0 33 7.5t27 16.5v8z" />
    </font>
</defs>
</svg>
