<?xml version="1.0" standalone="no"?>
<!DOCTYPE svg PUBLIC "-//W3C//DTD SVG 1.1//EN" "http://www.w3.org/Graphics/SVG/1.1/DTD/svg11.dtd" >
<svg>
<metadata>
Created by FontForge 20090622 at Sun Oct  1 21:08:04 2017
 By deploy user
Copyright (c) 2016 by greataris. All rights reserved.
</metadata>
<defs>
<font id="Moodyrock" horiz-adv-x="517" >
  <font-face 
    font-family="Moodyrock"
    font-weight="400"
    font-stretch="normal"
    units-per-em="1000"
    panose-1="0 0 0 0 0 0 0 0 0 0"
    ascent="750"
    descent="-250"
    x-height="442"
    cap-height="672"
    bbox="0 -233 1075 1016"
    underline-thickness="50"
    underline-position="-50"
    unicode-range="U+0020-U+FB02"
  />
<missing-glyph horiz-adv-x="400" 
 />
    <glyph glyph-name=".notdef" horiz-adv-x="400" 
 />
    <glyph glyph-name="AE" unicode="&#xc6;" horiz-adv-x="934" 
d="M854 230v-11q0 -44 -16.5 -83.5t-47.5 -70.5t-70.5 -47.5t-84.5 -16.5q-44 0 -83.5 16.5t-70.5 47.5q-28 27 -44 63v-127h-21v420h-395v-420h-21v465h1q6 82 63 140q32 32 71.5 49t82.5 17q44 0 83.5 -17t71.5 -49q29 -30 45.5 -67.5t18.5 -79.5v-148q15 34 44 63
q31 31 69 48l13.5 6t13.5 5q-19 8 -32 21q-37 37 -37 90t37 90q38 38 90 38t90 -38q19 -18 28.5 -41t9.5 -49v-10h-21v10q0 45 -31 76t-76 31q-44 0 -75 -31t-31 -76q0 -44 31 -75q27 -27 75 -27h11v-21h-11q-77 0 -139 -62q-29 -28 -43.5 -64t-14.5 -76q0 -39 14.5 -75
t43.5 -64q28 -29 64 -43.5t75 -14.5q40 0 76 14.5t64 43.5q28 28 43 64t15 75v11h21zM21 442h395v6q0 41 -15 77.5t-43 65.5q-29 29 -65 44.5t-75 15.5t-74.5 -15.5t-64.5 -44.5t-43.5 -65.5t-14.5 -77.5v-6z" />
    <glyph glyph-name="B" unicode="B" 
d="M373 374q31 -31 47.5 -70.5t16.5 -84.5q0 -44 -16.5 -83.5t-47.5 -70.5t-70.5 -47.5t-84.5 -16.5h-218v208v21v191v21v209v21h21h197q52 0 90 -38q19 -18 28.5 -41t9.5 -49t-9.5 -49t-28.5 -41q-11 -13 -31 -21q7 -2 13.5 -5l13.5 -6q37 -17 69 -48zM21 442h187h10
q49 0 76 27q31 31 31 75q0 45 -31 76t-76 31h-197v-209zM358 80q28 28 43 64t15 75q0 40 -15 76t-43 64q-30 30 -66 46t-74 16h-10h-187v-191v-21v-187h197q40 0 76 14.5t64 43.5z" />
    <glyph glyph-name="C" unicode="C" horiz-adv-x="660" 
d="M335 1q-67 0 -128 25t-109 73t-73 109t-25 128q0 68 25 128.5t73 108.5t109 73.5t128 25.5q68 0 129 -25.5t109 -73.5l7 -7l-15 -15l-7 8q-45 45 -102.5 68.5t-120.5 23.5t-120 -23.5t-102 -68.5t-68.5 -102.5t-23.5 -120.5t23.5 -120t68.5 -102t102 -68.5t120 -23.5
t120.5 23.5t102.5 68.5l7 7l15 -14l-7 -8q-48 -48 -109 -73t-129 -25z" />
    <glyph glyph-name="Ccedilla" unicode="&#xc7;" horiz-adv-x="660" 
d="M335 1h-17l-43 -115l-19 7l41 110q-57 6 -107 30.5t-92 65.5q-48 48 -73 109t-25 128q0 68 25 128.5t73 108.5t109 73.5t128 25.5q68 0 129 -25.5t109 -73.5l7 -7l-15 -15l-7 8q-45 45 -102.5 68.5t-120.5 23.5t-120 -23.5t-102 -68.5t-68.5 -102.5t-23.5 -120.5
t23.5 -120t68.5 -102t102 -68.5t120 -23.5t120.5 23.5t102.5 68.5l7 7l15 -14l-7 -8q-48 -48 -109 -73t-129 -25z" />
    <glyph glyph-name="D" unicode="D" 
d="M101 1h-101v671h101q68 0 129 -25.5t109 -73.5t73 -108.5t25 -128.5q0 -67 -25 -128t-73 -109t-109 -73t-129 -25zM21 22h80q65 0 122.5 24.5t100 67.5t67.5 100t25 122t-25 122.5t-67.5 100t-100 67.5t-122.5 25h-80v-629z" />
    <glyph glyph-name="E" unicode="E" 
d="M437 651h-416v-209h325v-21h-325v-399h416v-21h-437v21v0v399v21v209v0v21h437v-21v0z" />
    <glyph glyph-name="Eacute" unicode="&#xc9;" 
d="M437 651v21h-437v-21v0v-209v-21v-399v0v-21h437v21h-416v399h325v21h-325v209h416v0zM245 772l-19 7l45 121l19 -7z" />
    <glyph glyph-name="Ecircumflex" unicode="&#xca;" 
d="M437 651v21h-437v-21v0v-209v-21v-399v0v-21h437v21h-416v399h325v21h-325v209h416v0zM360 710l-131 150l-131 -150l-16 14l147 167l147 -167z" />
    <glyph glyph-name="Edieresis" unicode="&#xcb;" 
d="M437 651v21h-437v-21v0v-209v-21v-399v0v-21h437v21h-416v399h325v21h-325v209h416v0zM228 829h-21v41h21v-41zM310 829h-21v41h21v-41z" />
    <glyph glyph-name="Egrave" unicode="&#xc8;" 
d="M437 651v21h-437v-21v0v-209v-21v-399v0v-21h437v21h-416v399h325v21h-325v209h416v0zM226 893l19 7l45 -121l-19 -7z" />
    <glyph glyph-name="Eth" unicode="&#xd0;" horiz-adv-x="666" 
d="M149 672h101q68 0 129 -25.5t109 -73.5t73 -108.5t25 -128.5q0 -67 -25 -128t-73 -109t-109 -73t-129 -25h-101v671zM170 22h80q65 0 122.5 24.5t100 67.5t67.5 100t25 122t-25 122.5t-67.5 100t-100 67.5t-122.5 25h-80v-104v-20v-505zM446 547h-269v-20h269v20zM0 547
v-20h149v20h-149z" />
    <glyph glyph-name="Euro" unicode="&#x20ac;" horiz-adv-x="660" 
d="M335 1q-67 0 -128 25t-109 73t-73 109t-25 128q0 68 25 128.5t73 108.5t109 73.5t128 25.5q68 0 129 -25.5t109 -73.5l7 -7l-15 -15l-7 8q-45 45 -102.5 68.5t-120.5 23.5t-120 -23.5t-102 -68.5q-63 -63 -83 -146h304v-21h-308q-2 -14 -3.5 -28t-1.5 -28t1 -27t3 -26
h309v-21h-305q20 -85 84 -148q45 -45 102 -68.5t120 -23.5t120.5 23.5t102.5 68.5l7 7l15 -14l-7 -8q-48 -48 -109 -73t-129 -25z" />
    <glyph glyph-name="F" unicode="F" horiz-adv-x="505" 
d="M425 651h-404v-209h325v-21h-325v-420h-21v420v21v209v21h21h404v-21v0z" />
    <glyph glyph-name="G" unicode="G" horiz-adv-x="751" 
d="M335 1q-69 0 -130 26.5t-106.5 72t-72 106.5t-26.5 130t26.5 130t72 107t106.5 72.5t130 26.5q29 0 64.5 -7.5t69.5 -21t63.5 -33t47.5 -44.5l-15 -15q-17 23 -44 41.5t-59 31t-65.5 19.5t-61.5 7q-65 0 -122.5 -24.5t-100 -67t-67 -100t-24.5 -122.5t24.5 -122.5
t67.5 -100t100 -67.5t122 -25q64 0 121.5 25t100.5 68t68 100t25 122q0 21 -2.5 43t-8.5 42h-561v21h578q7 -25 11 -52.5t4 -53.5q0 -69 -26.5 -130t-72.5 -106.5t-107 -72t-130 -26.5z" />
    <glyph glyph-name="H" unicode="H" horiz-adv-x="530" 
d="M429 672h21v-230v-21v-420h-21v420h-408v-420h-21v420v21v230h21v-230h408v230v0z" />
    <glyph glyph-name="I" unicode="I" horiz-adv-x="101" 
d="M21 1h-21v671h21v-671v0z" />
    <glyph glyph-name="Iacute" unicode="&#xcd;" horiz-adv-x="162" 
d="M21 1h-21v671h21v-671v0zM37 772l-19 7l45 121l19 -7z" />
    <glyph glyph-name="Icircumflex" unicode="&#xce;" horiz-adv-x="374" 
d="M147 1h-21v671h21v-671v0zM278 710l-131 150l-131 -150l-16 14l147 167l147 -167z" />
    <glyph glyph-name="Idieresis" unicode="&#xcf;" horiz-adv-x="183" 
d="M59 1h-21v671h21v-671v0zM21 829h-21v41h21v-41zM103 829h-21v41h21v-41z" />
    <glyph glyph-name="Igrave" unicode="&#xcc;" horiz-adv-x="162" 
d="M21 1h-21v671h21v-671v0zM18 893l19 7l45 -121l-19 -7z" />
    <glyph glyph-name="J" unicode="J" 
d="M114 1q-26 0 -53.5 3.5t-52.5 14.5l7 19q49 -17 99 -17q63 0 118 24t96 65t64.5 96t23.5 118v327h-416v21h437v-350q0 -67 -25.5 -125.5t-69.5 -102t-103 -68.5t-125 -25z" />
    <glyph glyph-name="K" unicode="K" 
d="M373 481q-16 -15 -33 -26.5t-37 -19.5q-7 -4 -14 -5q23 -8 44.5 -21t39.5 -31q31 -31 47.5 -70.5t16.5 -84.5v-222h-21v222q0 40 -15 76t-43 64t-64 43t-76 15h-10h-187v-420h-21v420v21v230h21v-230h198q38 -2 74 11.5t65 42.5q28 28 43 64t15 76v36h21v-36
q0 -45 -16.5 -84t-47.5 -71z" />
    <glyph glyph-name="L" unicode="L" horiz-adv-x="497" 
d="M21 22h396v-21h-396h-21v21v650h21v-650v0z" />
    <glyph glyph-name="Lslash" unicode="&#x141;" horiz-adv-x="647" 
d="M567 22v-21h-417v326h-150v20h150v325h21v-325h149v-20h-149v-305h396z" />
    <glyph glyph-name="M" unicode="M" horiz-adv-x="944" 
d="M432 47l209 624l223 -670h-22l-201 604l-209 -624l-208 624l-201 -604h-23l224 670z" />
    <glyph glyph-name="N" unicode="N" horiz-adv-x="516" 
d="M436 -25l-416 650v-624h-20v695l416 -650v625h20v-696v0z" />
    <glyph glyph-name="Ntilde" unicode="&#xd1;" 
d="M437 26v-25h-21v348q0 61 -22.5 115.5t-66.5 97.5q-43 44 -97.5 66.5t-115.5 22.5h-93v-650h-21v671h114q65 0 123.5 -24.5t104.5 -70.5q50 -50 74 -114v209h21v-323v-323zM437 861l-11 -15l-4 8q-20 28 -45.5 43t-54.5 15q-28 0 -53.5 -15t-45.5 -43l-5 -8
q-43 -57 -104 -57q-31 0 -59 16.5t-49 48.5l-6 7l10 15l5 -8q20 -28 45.5 -43t53.5 -15q29 0 54.5 15t45.5 43l4 8v-1q22 29 48.5 43.5t55.5 14.5q31 0 59.5 -16.5t49.5 -48.5z" />
    <glyph glyph-name="O" unicode="O" horiz-adv-x="751" 
d="M335 1q-67 0 -128 25t-109 73t-73 109t-25 128q0 68 25 128.5t73 108.5t109 73.5t128 25.5q68 0 129 -25.5t109 -73.5t73 -108.5t25 -128.5q0 -67 -25 -128t-73 -109t-109 -73t-129 -25zM335 651q-65 0 -122 -25t-100 -67.5t-67.5 -100t-24.5 -122.5t24.5 -122t67.5 -100
t100 -67.5t122 -24.5t122.5 24.5t100 67.5t67.5 100t25 122t-25 122.5t-67.5 100t-100 67.5t-122.5 25z" />
    <glyph glyph-name="OE" unicode="&#x152;" horiz-adv-x="1155" 
d="M1075 230v-11q0 -44 -16.5 -83.5t-47.5 -70.5t-70.5 -47.5t-84.5 -16.5q-44 0 -83.5 16.5t-70.5 47.5q-54 54 -63 129q-24 -53 -66 -95q-48 -48 -109 -73t-129 -25q-67 0 -128 25t-109 73t-73 109t-25 128q0 68 25 128.5t73 108.5t109 73.5t128 25.5q68 0 129 -25.5
t109 -73.5t73 -108.5t25 -128.5v-1q14 22 31 39q31 31 69 48l13.5 6t13.5 5q-19 8 -32 21q-37 37 -37 90t37 90q38 38 90 38t90 -38q19 -18 28.5 -41t9.5 -49v-10h-21v10q0 45 -31 76t-76 31q-44 0 -75 -31t-31 -76q0 -44 31 -75q27 -27 75 -27h11v-21h-11q-77 0 -139 -62
q-29 -28 -43.5 -64t-14.5 -76q0 -39 14.5 -75t43.5 -64q28 -29 64 -43.5t75 -14.5q40 0 76 14.5t64 43.5q28 28 43 64t15 75v11h21zM335 22q65 0 122.5 24.5t100 67.5t67.5 100t25 122t-25 122.5t-67.5 100t-100 67.5t-122.5 25t-122 -25t-100 -67.5t-67.5 -100
t-24.5 -122.5t24.5 -122t67.5 -100t100 -67.5t122 -24.5z" />
    <glyph glyph-name="Oacute" unicode="&#xd3;" horiz-adv-x="751" 
d="M335 1q-67 0 -128 25t-109 73t-73 109t-25 128q0 68 25 128.5t73 108.5t109 73.5t128 25.5q68 0 129 -25.5t109 -73.5t73 -108.5t25 -128.5q0 -67 -25 -128t-73 -109t-109 -73t-129 -25zM335 651q-65 0 -122 -25t-100 -67.5t-67.5 -100t-24.5 -122.5t24.5 -122t67.5 -100
t100 -67.5t122 -24.5t122.5 24.5t100 67.5t67.5 100t25 122t-25 122.5t-67.5 100t-100 67.5t-122.5 25zM329 772l-19 7l45 121l19 -7z" />
    <glyph glyph-name="Ocircumflex" unicode="&#xd4;" horiz-adv-x="751" 
d="M335 1q-67 0 -128 25t-109 73t-73 109t-25 128q0 68 25 128.5t73 108.5t109 73.5t128 25.5q68 0 129 -25.5t109 -73.5t73 -108.5t25 -128.5q0 -67 -25 -128t-73 -109t-109 -73t-129 -25zM335 651q-65 0 -122 -25t-100 -67.5t-67.5 -100t-24.5 -122.5t24.5 -122t67.5 -100
t100 -67.5t122 -24.5t122.5 24.5t100 67.5t67.5 100t25 122t-25 122.5t-67.5 100t-100 67.5t-122.5 25zM464 710l-131 150l-131 -150l-16 14l147 167l147 -167z" />
    <glyph glyph-name="Odieresis" unicode="&#xd6;" horiz-adv-x="751" 
d="M335 1q-67 0 -128 25t-109 73t-73 109t-25 128q0 68 25 128.5t73 108.5t109 73.5t128 25.5q68 0 129 -25.5t109 -73.5t73 -108.5t25 -128.5q0 -67 -25 -128t-73 -109t-109 -73t-129 -25zM335 651q-65 0 -122 -25t-100 -67.5t-67.5 -100t-24.5 -122.5t24.5 -122t67.5 -100
t100 -67.5t122 -24.5t122.5 24.5t100 67.5t67.5 100t25 122t-25 122.5t-67.5 100t-100 67.5t-122.5 25zM303 829h-21v41h21v-41zM385 829h-21v41h21v-41z" />
    <glyph glyph-name="Ograve" unicode="&#xd2;" horiz-adv-x="751" 
d="M335 1q-67 0 -128 25t-109 73t-73 109t-25 128q0 68 25 128.5t73 108.5t109 73.5t128 25.5q68 0 129 -25.5t109 -73.5t73 -108.5t25 -128.5q0 -67 -25 -128t-73 -109t-109 -73t-129 -25zM335 651q-65 0 -122 -25t-100 -67.5t-67.5 -100t-24.5 -122.5t24.5 -122t67.5 -100
t100 -67.5t122 -24.5t122.5 24.5t100 67.5t67.5 100t25 122t-25 122.5t-67.5 100t-100 67.5t-122.5 25zM295 893l19 7l45 -121l-19 -7z" />
    <glyph glyph-name="Oslash" unicode="&#xd8;" horiz-adv-x="751" 
d="M188 -207l-20 6l62 219q-76 25 -132 81q-48 48 -73 109t-25 128q0 68 25 128.5t73 108.5t109 73.5t128 25.5q20 0 40 -2.5t39 -7.5l20 69l20 -5l-20 -69q77 -24 139 -84q48 -48 73 -108.5t25 -128.5q0 -67 -25 -128t-73 -109t-109 -73t-129 -25q-41 0 -85 11zM335 22
q65 0 122.5 24.5t100 67.5t67.5 100t25 122q0 53 -16.5 101t-46.5 87t-70.5 68t-88.5 44l-172 -604q36 -10 79 -10zM335 651q-65 0 -122 -25t-100 -67.5t-67.5 -100t-24.5 -122.5q0 -52 16 -99.5t44.5 -86.5t68 -68t86.5 -44l172 604q-35 9 -73 9z" />
    <glyph glyph-name="Otilde" unicode="&#xd5;" horiz-adv-x="751" 
d="M335 1q-67 0 -128 25t-109 73t-73 109t-25 128q0 68 25 128.5t73 108.5t109 73.5t128 25.5q68 0 129 -25.5t109 -73.5t73 -108.5t25 -128.5q0 -67 -25 -128t-73 -109t-109 -73t-129 -25zM335 651q-65 0 -122 -25t-100 -67.5t-67.5 -100t-24.5 -122.5t24.5 -122t67.5 -100
t100 -67.5t122 -24.5t122.5 24.5t100 67.5t67.5 100t25 122t-25 122.5t-67.5 100t-100 67.5t-122.5 25zM563 861l-11 -15l-4 8q-20 28 -45.5 43t-54.5 15q-28 0 -53.5 -15t-45.5 -43l-5 -8q-43 -57 -104 -57q-31 0 -59 16.5t-49 48.5l-6 7l10 15l5 -8q20 -28 45.5 -43
t53.5 -15q29 0 54.5 15t45.5 43l4 8v-1q22 29 48.5 43.5t55.5 14.5q31 0 59.5 -16.5t49.5 -48.5z" />
    <glyph glyph-name="P" unicode="P" 
d="M437 548v-2v-2v-10h-1q-5 -44 -37 -76q-37 -37 -90 -37h-288v-420h-21v420v21v209v21h21h288q52 0 90 -38q32 -31 37 -75h1v-11zM385 473q29 31 31 73q-2 43 -31 74q-31 31 -76 31h-288v-209h288q45 0 76 31z" />
    <glyph glyph-name="Q" unicode="Q" horiz-adv-x="751" 
d="M474 -47q44 0 84.5 -16.5t71.5 -47.5l7 -7l-15 -15l-7 7q-28 28 -64.5 43t-76.5 15h-128h-21h-287v21h287v44q-65 2 -123 27t-104 71q-48 48 -73 109t-25 129q0 67 25 128t73 109t109 73t128 25q68 0 129 -25t109 -73t73 -109t25 -128q0 -68 -25 -129t-73 -109
q-46 -46 -104.5 -71t-122.5 -27v-44h128zM21 333q0 -64 23.5 -120t65 -99t97 -68.5t118.5 -27.5v130h21v-130q63 2 118.5 27.5t96.5 68.5t65 99t24 120q0 65 -25 122t-67.5 100t-100 67.5t-122.5 24.5t-122 -24.5t-100 -67.5t-67.5 -100t-24.5 -122z" />
    <glyph glyph-name="R" unicode="R" 
d="M437 551v-3v-4v-10h-1q-6 -42 -37 -73q-40 -40 -90 -40h-2q35 -17 66 -47q31 -31 47.5 -70.5t16.5 -84.5v-218h-21v218q0 40 -15 76t-43 64q-30 30 -66 46t-74 16h-10h-187v-420h-21v420v21v209v21h21h288q52 0 90 -38q31 -29 37 -72h1v-11zM385 476q29 29 31 72
q-2 41 -31 72q-31 31 -76 31h-288v-209h187h10h91q27 0 46.5 12t29.5 22z" />
    <glyph glyph-name="S" unicode="S" 
d="M373 374q31 -31 47.5 -70.5t16.5 -84.5q0 -44 -16.5 -83.5t-47.5 -70.5t-70.5 -47.5t-84.5 -16.5q-44 0 -83.5 16.5t-70.5 47.5t-47.5 70.5t-16.5 83.5v11h21v-11q0 -39 14.5 -75t43.5 -64q28 -29 64 -43.5t75 -14.5q40 0 76 14.5t64 43.5q28 28 43 64t15 75q0 40 -15 76
t-43 64q-30 30 -66 46t-74 16h-52q-57 0 -90 33q-37 37 -37 90t37 90q38 38 90 38t90 -38q19 -18 28.5 -41t9.5 -49v-10h-21v10q0 45 -31 76t-76 31q-44 0 -75 -31t-31 -76q0 -44 31 -75q27 -27 75 -27h52q43 0 86 -20q37 -17 69 -48z" />
    <glyph glyph-name="Scaron" unicode="&#x160;" 
d="M373 374q-32 31 -69 48q-43 20 -86 20h-52q-48 0 -75 27q-31 31 -31 75q0 45 31 76t75 31q45 0 76 -31t31 -76v-10h21v10q0 26 -9.5 49t-28.5 41q-38 38 -90 38t-90 -38q-37 -37 -37 -90t37 -90q33 -33 90 -33h52q38 0 74 -16t66 -46q28 -28 43 -64t15 -76q0 -39 -15 -75
t-43 -64q-28 -29 -64 -43.5t-76 -14.5q-39 0 -75 14.5t-64 43.5q-29 28 -43.5 64t-14.5 75v11h-21v-11q0 -44 16.5 -83.5t47.5 -70.5t70.5 -47.5t83.5 -16.5q45 0 84.5 16.5t70.5 47.5t47.5 70.5t16.5 83.5q0 45 -16.5 84.5t-47.5 70.5zM359 877l-147 -167l-147 167l16 14
l131 -150l131 150z" />
    <glyph glyph-name="T" unicode="T" horiz-adv-x="516" 
d="M436 672v-21h-207v-650h-21v650h-208v21h208v0h21v0h207v0z" />
    <glyph glyph-name="U" unicode="U" 
d="M437 672v-442v-11v-9q-2 -42 -18.5 -79t-45.5 -66q-31 -31 -70.5 -47.5t-84.5 -16.5q-44 0 -83.5 16.5t-70.5 47.5q-29 29 -45.5 66t-18.5 78v10v11v441h21v-441v-11q0 -39 14.5 -75t43.5 -64q28 -29 64 -43.5t75 -14.5q40 0 76 14.5t64 43.5q28 28 43 64t15 75v11v442
h21z" />
    <glyph glyph-name="Uacute" unicode="&#xda;" 
d="M416 672v-442v-11q0 -39 -15 -75t-43 -64q-28 -29 -64 -43.5t-76 -14.5q-39 0 -75 14.5t-64 43.5q-29 28 -43.5 64t-14.5 75v11v441h-21v-441v-11v-10q2 -41 18.5 -78t45.5 -66q31 -31 70.5 -47.5t83.5 -16.5q45 0 84.5 16.5t70.5 47.5q29 29 45.5 66t18.5 79v9v11v442
h-21zM195 772l-19 7l45 121l19 -7z" />
    <glyph glyph-name="Ucircumflex" unicode="&#xdb;" 
d="M416 672v-442v-11q0 -39 -15 -75t-43 -64q-28 -29 -64 -43.5t-76 -14.5q-39 0 -75 14.5t-64 43.5q-29 28 -43.5 64t-14.5 75v11v441h-21v-441v-11v-10q2 -41 18.5 -78t45.5 -66q31 -31 70.5 -47.5t83.5 -16.5q45 0 84.5 16.5t70.5 47.5q29 29 45.5 66t18.5 79v9v11v442
h-21zM341 710l-131 150l-131 -150l-16 14l147 167l147 -167z" />
    <glyph glyph-name="Udieresis" unicode="&#xdc;" 
d="M416 672v-442v-11q0 -39 -15 -75t-43 -64q-28 -29 -64 -43.5t-76 -14.5q-39 0 -75 14.5t-64 43.5q-29 28 -43.5 64t-14.5 75v11v441h-21v-441v-11v-10q2 -41 18.5 -78t45.5 -66q31 -31 70.5 -47.5t83.5 -16.5q45 0 84.5 16.5t70.5 47.5q29 29 45.5 66t18.5 79v9v11v442
h-21zM180 829h-21v41h21v-41zM262 829h-21v41h21v-41z" />
    <glyph glyph-name="Ugrave" unicode="&#xd9;" 
d="M416 672v-442v-11q0 -39 -15 -75t-43 -64q-28 -29 -64 -43.5t-76 -14.5q-39 0 -75 14.5t-64 43.5q-29 28 -43.5 64t-14.5 75v11v441h-21v-441v-11v-10q2 -41 18.5 -78t45.5 -66q31 -31 70.5 -47.5t83.5 -16.5q45 0 84.5 16.5t70.5 47.5q29 29 45.5 66t18.5 79v9v11v442
h-21zM178 893l19 7l45 -121l-19 -7z" />
    <glyph glyph-name="V" unicode="V" horiz-adv-x="526" 
d="M223 1l-223 684h22l201 -617l201 617h22l-223 -684v0z" />
    <glyph glyph-name="W" unicode="W" horiz-adv-x="943" 
d="M223 1l-223 670h22l201 -604l208 624l209 -624l201 604h22l-223 -670l-209 624l-208 -624v0z" />
    <glyph glyph-name="X" unicode="X" horiz-adv-x="791" 
d="M689 660l-319 -318l341 -341h-30l-7 7l-318 319l-326 -326h-30l341 341l-341 340h30l326 -326l325 326h30l-22 -22v0z" />
    <glyph glyph-name="Y" unicode="Y" horiz-adv-x="553" 
d="M247 430v-429h-21v429l-226 246h29l208 -226l207 226h29z" />
    <glyph glyph-name="Yacute" unicode="&#xdd;" horiz-adv-x="525" 
d="M445 662l-15 14l-207 -226l-208 226l-15 -14l212 -232v-429h21v429l212 232v0zM210 772l-19 7l45 121l19 -7z" />
    <glyph glyph-name="Ydieresis" unicode="&#x178;" horiz-adv-x="525" 
d="M445 662l-15 14l-207 -226l-208 226l-15 -14l212 -232v-429h21v429l212 232v0zM194 829h-21v41h21v-41zM276 829h-21v41h21v-41z" />
    <glyph glyph-name="Z" unicode="Z" horiz-adv-x="534" 
d="M445 1h-445l234 367l182 283h-407v21h445l-202 -315l-214 -335h407v-21v0z" />
    <glyph glyph-name="Zcaron" unicode="&#x17d;" horiz-adv-x="534" 
d="M445 1h-445l234 367l182 283h-407v21h445l-202 -315l-214 -335h407v-21v0zM369 877l-147 -167l-147 167l16 14l131 -150l131 150z" />
    <glyph glyph-name="a" unicode="a" horiz-adv-x="523" 
d="M443 222q0 -5 -0.5 -9.5t-0.5 -9.5v-201h-21v124q-17 -34 -43 -60q-32 -32 -72 -48.5t-85 -16.5q-91 0 -156 65t-65 156q0 45 16.5 85t48.5 72q32 31 71.5 47.5t84.5 16.5t85 -16.5t72 -47.5q14 -14 24.5 -29t18.5 -32v117h21v-193q0 -5 0.5 -10t0.5 -10zM221 23
q41 0 77.5 16t63.5 43t42.5 63t15.5 77t-15.5 77.5t-42.5 63.5t-63.5 42.5t-77.5 15.5t-77 -15.5t-63 -42.5t-42.5 -63.5t-15.5 -77.5t15.5 -77t42.5 -63t63 -43t77 -16z" />
    <glyph glyph-name="aacute" unicode="&#xe1;" horiz-adv-x="523" 
d="M443 222q0 5 -0.5 10t-0.5 10v193h-21v-117q-8 17 -18.5 32t-24.5 29q-32 31 -72 47.5t-85 16.5t-84.5 -16.5t-71.5 -47.5q-32 -32 -48.5 -72t-16.5 -85q0 -91 65 -156t156 -65q45 0 85 16.5t72 48.5q26 26 43 60v-124h21v201q0 5 0.5 9.5t0.5 9.5zM221 23q-41 0 -77 16
t-63 43t-42.5 63t-15.5 77t15.5 77.5t42.5 63.5t63 42.5t77 15.5t77.5 -15.5t63.5 -42.5t42.5 -63.5t15.5 -77.5t-15.5 -77t-42.5 -63t-63.5 -43t-77.5 -16zM248 572l-19 7l45 121l19 -7z" />
    <glyph glyph-name="acircumflex" unicode="&#xe2;" horiz-adv-x="523" 
d="M443 222q0 5 -0.5 10t-0.5 10v193h-21v-117q-8 17 -18.5 32t-24.5 29q-32 31 -72 47.5t-85 16.5t-84.5 -16.5t-71.5 -47.5q-32 -32 -48.5 -72t-16.5 -85q0 -91 65 -156t156 -65q45 0 85 16.5t72 48.5q26 26 43 60v-124h21v201q0 5 0.5 9.5t0.5 9.5zM221 23q-41 0 -77 16
t-63 43t-42.5 63t-15.5 77t15.5 77.5t42.5 63.5t63 42.5t77 15.5t77.5 -15.5t63.5 -42.5t42.5 -63.5t15.5 -77.5t-15.5 -77t-42.5 -63t-63.5 -43t-77.5 -16zM392 510l-131 150l-131 -150l-16 14l147 167l147 -167z" />
    <glyph glyph-name="acute" unicode="&#xb4;" horiz-adv-x="144" 
d="M19 572l-19 7l45 121l19 -7z" />
    <glyph glyph-name="adieresis" unicode="&#xe4;" horiz-adv-x="523" 
d="M443 222q0 5 -0.5 10t-0.5 10v193h-21v-117q-8 17 -18.5 32t-24.5 29q-32 31 -72 47.5t-85 16.5t-84.5 -16.5t-71.5 -47.5q-32 -32 -48.5 -72t-16.5 -85q0 -91 65 -156t156 -65q45 0 85 16.5t72 48.5q26 26 43 60v-124h21v201q0 5 0.5 9.5t0.5 9.5zM221 23q-41 0 -77 16
t-63 43t-42.5 63t-15.5 77t15.5 77.5t42.5 63.5t63 42.5t77 15.5t77.5 -15.5t63.5 -42.5t42.5 -63.5t15.5 -77.5t-15.5 -77t-42.5 -63t-63.5 -43t-77.5 -16zM231 629h-21v41h21v-41zM313 629h-21v41h21v-41z" />
    <glyph glyph-name="ae" unicode="&#xe6;" horiz-adv-x="932" 
d="M830 153l19 -8l-4 -9q-8 -20 -20 -37.5t-27 -33.5q-30 -30 -70 -47q-42 -17 -86 -17q-43 0 -85 17q-39 16 -70 47q-29 29 -45 64v-127h-21v124q-17 -34 -43 -60q-32 -32 -72 -48.5t-85 -16.5q-91 0 -156 65t-65 156q0 45 16.5 85t48.5 72q32 31 71.5 47.5t84.5 16.5
t85 -16.5t72 -47.5q39 -41 54 -90l3.5 9l3.5 9q17 41 48 70q31 31 70 47q40 18 85 18t86 -18q40 -17 70 -47q14 -14 26.5 -32.5t20.5 -39.5l7 -14h-397q-12 -33 -12 -69v-1q0 -41 15 -77q8 -18 18.5 -34t24.5 -30t30 -24.5t34 -18.5q36 -15 77 -15q40 0 78 15q18 8 34 18.5
t30 24.5q27 29 42 64zM501 362q-21 -21 -37 -50h356q-16 30 -36 50q-28 28 -64 43q-36 16 -78 16t-77 -16q-36 -15 -64 -43zM221 23q41 0 77.5 16t63.5 43t42.5 63t15.5 77t-15.5 77.5t-42.5 63.5t-63.5 42.5t-77.5 15.5t-77 -15.5t-63 -42.5t-42.5 -63.5t-15.5 -77.5
t15.5 -77t42.5 -63t63 -43t77 -16z" />
    <glyph glyph-name="agrave" unicode="&#xe0;" horiz-adv-x="523" 
d="M443 222q0 5 -0.5 10t-0.5 10v193h-21v-117q-8 17 -18.5 32t-24.5 29q-32 31 -72 47.5t-85 16.5t-84.5 -16.5t-71.5 -47.5q-32 -32 -48.5 -72t-16.5 -85q0 -91 65 -156t156 -65q45 0 85 16.5t72 48.5q26 26 43 60v-124h21v201q0 5 0.5 9.5t0.5 9.5zM221 23q-41 0 -77 16
t-63 43t-42.5 63t-15.5 77t15.5 77.5t42.5 63.5t63 42.5t77 15.5t77.5 -15.5t63.5 -42.5t42.5 -63.5t15.5 -77.5t-15.5 -77t-42.5 -63t-63.5 -43t-77.5 -16zM229 693l19 7l45 -121l-19 -7z" />
    <glyph glyph-name="ampersand" unicode="&#x26;" horiz-adv-x="732" 
d="M652 146h-215v-5q0 -44 -16.5 -83.5t-47.5 -70.5t-70.5 -47.5t-84.5 -16.5q-44 0 -83.5 16.5t-70.5 47.5t-47.5 70.5t-16.5 83.5q0 45 16.5 84.5t47.5 70.5t69 48l13.5 6t13.5 5q-19 8 -32 21q-37 37 -37 90t37 90q38 38 90 38t90 -38q19 -18 28.5 -41t9.5 -49v-10h-21
v10q0 45 -31 76t-76 31q-44 0 -75 -31t-31 -76q0 -44 31 -75q27 -27 75 -27h11v-21h-11q-77 0 -139 -62q-29 -28 -43.5 -64t-14.5 -76q0 -39 14.5 -75t43.5 -64q28 -29 64 -43.5t75 -14.5q40 0 76 14.5t64 43.5q28 28 43 64t15 75v5h-214v21h450v-21z" />
    <glyph glyph-name="aring" unicode="&#xe5;" horiz-adv-x="523" 
d="M443 222q0 5 -0.5 10t-0.5 10v193h-21v-117q-8 17 -18.5 32t-24.5 29q-32 31 -72 47.5t-85 16.5t-84.5 -16.5t-71.5 -47.5q-32 -32 -48.5 -72t-16.5 -85q0 -91 65 -156t156 -65q45 0 85 16.5t72 48.5q26 26 43 60v-124h21v201q0 5 0.5 9.5t0.5 9.5zM221 23q-41 0 -77 16
t-63 43t-42.5 63t-15.5 77t15.5 77.5t42.5 63.5t63 42.5t77 15.5t77.5 -15.5t63.5 -42.5t42.5 -63.5t15.5 -77.5t-15.5 -77t-42.5 -63t-63.5 -43t-77.5 -16zM261 703q-26 0 -49.5 10t-40.5 27.5t-27 40.5t-10 50q0 26 10 49t27 40.5t40.5 27.5t49.5 10q27 0 50 -10
t40.5 -27.5t27.5 -40.5t10 -49q0 -27 -10 -50t-27.5 -40.5t-40.5 -27.5t-50 -10zM261 937q-22 0 -41.5 -8.5t-33.5 -23t-22.5 -33.5t-8.5 -41t8.5 -41.5t22.5 -34t33.5 -23t41.5 -8.5t41.5 8.5t34 23t23 34t8.5 41.5t-8.5 41t-23 33.5t-34 23t-41.5 8.5z" />
    <glyph glyph-name="asciicircum" unicode="^" horiz-adv-x="523" 
d="M428 425l-206 235l-206 -235l-16 14l222 252l221 -252z" />
    <glyph glyph-name="asciitilde" unicode="~" horiz-adv-x="704" 
d="M624 324l-15 -15l-7 8q-29 28 -65 43t-77 15q-40 0 -76 -15t-65 -43l-7 -8q-63 -57 -149 -57q-44 0 -84 16.5t-71 48.5l-8 7l15 15l7 -8q29 -28 65 -43t76 -15q41 0 77 15t65 43l7 8v-1q63 58 148 58q45 0 85 -16.5t71 -48.5z" />
    <glyph glyph-name="asterisk" unicode="*" horiz-adv-x="400" 
d="M320 565v-21h-135l95 -95l-14 -15l-96 95v-134h-21v134l-95 -95l-15 15l96 95h-135v21h135l-96 95l15 15l95 -95v134h21v-134l96 95l14 -15l-95 -95h135v0z" />
    <glyph glyph-name="at" unicode="@" horiz-adv-x="751" 
d="M550 342q0 45 -17 85t-48 72q-32 31 -72 47.5t-85 16.5t-84.5 -16.5t-71.5 -47.5q-32 -32 -48.5 -72t-16.5 -85q0 -91 65 -156t156 -65q45 0 85 16.5t72 48.5q26 26 43 60v-124h21v201q0 5 0.5 9.5t0.5 9.5zM328 143q-41 0 -77 16t-63 43t-42.5 63t-15.5 77t15.5 77.5
t42.5 63.5t63 42.5t77 15.5t77.5 -15.5t63.5 -42.5t42.5 -63.5t15.5 -77.5t-15.5 -77t-42.5 -63t-63.5 -43t-77.5 -16zM335 0q-67 0 -128 25t-109 73t-73 109t-25 128q0 68 25 128.5t73 108.5t109 73.5t128 25.5q68 0 129 -25.5t109 -73.5t73 -108.5t25 -128.5
q0 -67 -25 -128t-73 -109t-109 -73t-129 -25zM335 650q-65 0 -122 -25t-100 -67.5t-67.5 -100t-24.5 -122.5t24.5 -122t67.5 -100t100 -67.5t122 -24.5t122.5 24.5t100 67.5t67.5 100t25 122t-25 122.5t-67.5 100t-100 67.5t-122.5 25z" />
    <glyph glyph-name="atilde" unicode="&#xe3;" horiz-adv-x="704" 
d="M493 222q0 -5 -0.5 -9.5t-0.5 -9.5v-201h-21v124q-17 -34 -43 -60q-32 -32 -72 -48.5t-85 -16.5q-91 0 -156 65q-32 32 -48.5 71.5t-16.5 84.5t16.5 85t48.5 72q32 31 71.5 47.5t84.5 16.5t85 -16.5t72 -47.5q14 -14 24.5 -29t18.5 -32v117h21v-193q0 -5 0.5 -10t0.5 -10
zM271 23q41 0 77.5 16t63.5 43t42.5 63t15.5 77t-15.5 77.5t-42.5 63.5t-63.5 42.5t-77.5 15.5t-77 -15.5t-63 -42.5t-42.5 -63.5t-15.5 -77.5t15.5 -77t42.5 -63t63 -43t77 -16zM624 661l-15 -15l-7 8q-29 28 -65 43t-77 15q-40 0 -76 -15t-65 -43l-7 -8q-63 -57 -149 -57
q-44 0 -84 16.5t-71 48.5l-8 7l15 15l7 -8q29 -28 65 -43t76 -15q41 0 77 15t65 43l7 8v-1q63 58 148 58q45 0 85 -16.5t71 -48.5z" />
    <glyph glyph-name="b" unicode="b" horiz-adv-x="523" 
d="M378 379q31 -32 48 -72t17 -85t-17 -84.5t-48 -71.5q-32 -32 -72 -48.5t-85 -16.5q-91 0 -156 65q-29 29 -43 60v-124h-21v201q-1 5 -1 9.5v9.5v10t1 10v431h21v-355q15 33 43 61q32 31 71.5 47.5t84.5 16.5t85 -16.5t72 -47.5zM221 23q41 0 77.5 16t63.5 43t42.5 63
t15.5 77t-15.5 77.5t-42.5 63.5t-63.5 42.5t-77.5 15.5t-77 -15.5t-63 -42.5t-42.5 -63.5t-15.5 -77.5t15.5 -77t42.5 -63t63 -43t77 -16z" />
    <glyph glyph-name="backslash" unicode="\" horiz-adv-x="366" 
d="M0 726l20 5l266 -932l-20 -6z" />
    <glyph glyph-name="bar" unicode="|" horiz-adv-x="101" 
d="M21 -233h-21v970h21v-970z" />
    <glyph glyph-name="braceleft" unicode="{" horiz-adv-x="375" 
d="M229 11q0 -40 15.5 -76.5t42.5 -64.5l8 -7l-15 -15l-7 7q-31 31 -47.5 71.5t-16.5 84.5v10v203q0 40 -15 75.5t-43 64.5q-59 57 -140 57h-10v2h-1l1 10v9v1h11q79 -6 139 54q28 28 43 64t15 75v16v11q0 44 16.5 84.5t47.5 70.5l7 8l15 -15l-8 -7q-27 -28 -42.5 -65
t-15.5 -76v-11v-16q0 -44 -16 -83.5t-48 -70.5q-29 -31 -69 -46q-4 -2 -7 -3t-7 -2q49 -17 83 -53q32 -31 48 -70.5t16 -83.5v-203v-10v0z" />
    <glyph glyph-name="braceright" unicode="}" horiz-adv-x="375" 
d="M66 21v203q0 44 16 83.5t48 70.5q34 36 83 53q-4 1 -7 2t-7 3q-40 15 -69 46q-32 31 -48 70.5t-16 83.5v16v11q0 39 -15.5 76t-42.5 65l-8 7l15 15l7 -8q31 -30 47.5 -70.5t16.5 -84.5v-11v-16q0 -39 15 -75t43 -64q60 -60 139 -54h11v-1v-9l1 -10h-1v-2h-10
q-81 0 -140 -57q-28 -29 -43 -64.5t-15 -75.5v-203v-10q0 -44 -16.5 -84.5t-47.5 -71.5l-7 -7l-15 15l8 7q27 28 42.5 64.5t15.5 76.5v10z" />
    <glyph glyph-name="bracketleft" unicode="[" horiz-adv-x="161" 
d="M81 821v-21h-60v-928h60v-21h-81v970h81z" />
    <glyph glyph-name="bracketright" unicode="]" horiz-adv-x="161" 
d="M81 821v-970h-81v21h60v928h-60v21h81z" />
    <glyph glyph-name="brokenbar" unicode="&#xa6;" horiz-adv-x="101" 
d="M21 33h-21v222h21v-222zM21 418h-21v222h21v-222z" />
    <glyph glyph-name="c" unicode="c" horiz-adv-x="510" 
d="M221 1q-44 0 -86 17q-41 17 -70 48q-16 15 -27.5 32.5t-20.5 37.5q-17 42 -17 86t17 86q18 41 48 71t70 47q20 9 41.5 13t44.5 4t44.5 -4t41.5 -13q20 -8 37.5 -20t33.5 -27q15 -16 27 -33.5t20 -37.5l5 -10l-21 -9l-5 11q-15 34 -42 63q-26 26 -63 42q-36 16 -78 16
t-77 -16q-36 -15 -63 -42q-28 -28 -43 -63q-15 -38 -15 -78q0 -41 15 -77q15 -37 43 -63q26 -28 63 -43q38 -16 77 -16q38 0 78 16q17 8 33 18.5t30 24.5q27 27 42 63l5 10l21 -9l-5 -10q-17 -40 -47 -70q-32 -32 -71 -48q-42 -17 -86 -17z" />
    <glyph glyph-name="caron" unicode="&#x2c7;" horiz-adv-x="374" 
d="M294 677l-147 -167l-147 167l16 14l131 -150l131 150z" />
    <glyph glyph-name="ccedilla" unicode="&#xe7;" horiz-adv-x="510" 
d="M221 1q-44 0 -86 17q-41 17 -70 48q-16 15 -27.5 32.5t-20.5 37.5q-17 42 -17 86t17 86q18 41 48 71t70 47q20 9 41.5 13t44.5 4t44.5 -4t41.5 -13q20 -8 37.5 -20t33.5 -27q15 -16 27 -33.5t20 -37.5l5 -10l-21 -9l-5 11q-15 34 -42 63q-26 26 -63 42q-36 16 -78 16
t-77 -16q-36 -15 -63 -42q-28 -28 -43 -63q-15 -38 -15 -78q0 -41 15 -77q15 -37 43 -63q26 -28 63 -43q38 -16 77 -16q38 0 78 16q17 8 33 18.5t30 24.5q27 27 42 63l5 10l21 -9l-5 -10q-17 -40 -47 -70q-32 -32 -71 -48q-26 -11 -51 -15l-42 -112l-19 7l38 103h-12z" />
    <glyph glyph-name="cent" unicode="&#xa2;" horiz-adv-x="510" 
d="M224 -128h-21v129q-35 3 -68 17q-41 17 -70 48q-16 15 -27.5 32.5t-20.5 37.5q-17 42 -17 86t17 86q18 41 48 71t70 47q16 7 33 11t35 5v124h21v-123q22 -1 42.5 -5t40.5 -12t37.5 -20t33.5 -27q15 -16 27 -33.5t20 -37.5l5 -10l-21 -9l-5 11q-15 34 -42 63
q-26 26 -63 42q-35 14 -75 16v-398q37 0 75 16q17 8 33 18.5t30 24.5q27 27 42 63l5 10l21 -9l-5 -10q-17 -40 -47 -70q-32 -32 -71 -48q-40 -17 -83 -17v-129zM144 405q-36 -15 -63 -42q-28 -28 -43 -63q-15 -38 -15 -78q0 -41 15 -77q15 -37 43 -63q26 -28 63 -43
q14 -6 28.5 -10t30.5 -6v397q-32 -3 -59 -15z" />
    <glyph glyph-name="circumflex" unicode="&#x2c6;" horiz-adv-x="374" 
d="M278 510l-131 150l-131 -150l-16 14l147 167l147 -167z" />
    <glyph glyph-name="colon" unicode=":" horiz-adv-x="101" 
d="M21 177h-21v78h21v-78zM21 418h-21v78h21v-78z" />
    <glyph glyph-name="comma" unicode="," horiz-adv-x="114" 
d="M19 -31l-19 9l14 27v39h20v-44l-15 -31v0z" />
    <glyph glyph-name="copyright" unicode="&#xa9;" horiz-adv-x="751" 
d="M335 1q-67 0 -128 25t-109 73t-73 109t-25 128q0 68 25 128.5t73 108.5t109 73.5t128 25.5q68 0 129 -25.5t109 -73.5t73 -108.5t25 -128.5q0 -67 -25 -128t-73 -109t-109 -73t-129 -25zM335 651q-65 0 -122 -25t-100 -67.5t-67.5 -100t-24.5 -122.5t24.5 -122t67.5 -100
t100 -67.5t122 -24.5t122.5 24.5t100 67.5t67.5 100t25 122t-25 122.5t-67.5 100t-100 67.5t-122.5 25zM333 112q-44 0 -86 17q-41 17 -70 48q-16 15 -27.5 32.5t-20.5 37.5q-17 42 -17 86t17 86q18 41 48 71t70 47q20 9 41.5 13t44.5 4t44.5 -4t41.5 -13q20 -8 37.5 -20
t33.5 -27q15 -16 27 -33.5t20 -37.5l5 -10l-21 -9l-5 11q-15 34 -42 63q-26 26 -63 42q-36 16 -78 16t-77 -16q-36 -15 -63 -42q-28 -28 -43 -63q-15 -38 -15 -78q0 -41 15 -77q15 -37 43 -63q26 -28 63 -43q38 -16 77 -16q38 0 78 16q17 8 33 18.5t30 24.5q27 27 42 63
l5 10l21 -9l-5 -10q-17 -40 -47 -70q-32 -32 -71 -48q-42 -17 -86 -17z" />
    <glyph glyph-name="d" unicode="d" horiz-adv-x="523" 
d="M65 379q32 31 72 47.5t85 16.5t84.5 -16.5t71.5 -47.5q28 -28 43 -61v355h21v-431q1 -5 1 -10v-10v-9.5t-1 -9.5v-201h-21v124q-14 -31 -43 -60q-32 -32 -71.5 -48.5t-84.5 -16.5t-85 16.5t-72 48.5q-31 32 -48 71.5t-17 84.5t17 85t48 72zM222 23q41 0 77 16t63 43
t42.5 63t15.5 77t-15.5 77.5t-42.5 63.5t-63 42.5t-77 15.5t-77.5 -15.5t-63.5 -42.5t-42.5 -63.5t-15.5 -77.5t15.5 -77t42.5 -63t63.5 -43t77.5 -16z" />
    <glyph glyph-name="dagger" unicode="&#x2020;" horiz-adv-x="359" 
d="M149 396h130v-20h-130v-560h-21v560h-128v20h128v390h21v-390v0z" />
    <glyph glyph-name="daggerdbl" unicode="&#x2021;" horiz-adv-x="400" 
d="M320 441h-150v-109h150v-21h-150v-495h-21v495h-149v21h149v109h-149v21h149v324h21v-324h150v-21v0z" />
    <glyph glyph-name="degree" unicode="&#xb0;" horiz-adv-x="335" 
d="M127 703q-26 0 -49.5 10t-40.5 27.5t-27 40.5t-10 50q0 26 10 49t27 40.5t40.5 27.5t49.5 10q27 0 50 -10t40.5 -27.5t27.5 -40.5t10 -49q0 -27 -10 -50t-27.5 -40.5t-40.5 -27.5t-50 -10zM127 937q-22 0 -41.5 -8.5t-33.5 -23t-22.5 -33.5t-8.5 -41t8.5 -41.5t22.5 -34
t33.5 -23t41.5 -8.5t41.5 8.5t34 23t23 34t8.5 41.5t-8.5 41t-23 33.5t-34 23t-41.5 8.5z" />
    <glyph glyph-name="dieresis" unicode="&#xa8;" horiz-adv-x="183" 
d="M21 629h-21v41h21v-41zM103 629h-21v41h21v-41z" />
    <glyph glyph-name="divide" unicode="&#xf7;" horiz-adv-x="400" 
d="M320 326h-320v21h320v-21zM170 177h-21v78h21v-78zM170 418h-21v78h21v-78z" />
    <glyph glyph-name="dollar" unicode="$" 
d="M373 371q31 -31 47.5 -70.5t16.5 -84.5q0 -44 -16.5 -83.5t-47.5 -70.5t-70.5 -47.5t-84.5 -16.5h-11.5t-11.5 1v-68h-21v71q-64 14 -110 60q-31 31 -47.5 70.5t-16.5 83.5v11h21v-11q0 -39 14.5 -75t43.5 -64q39 -41 95 -53v394h-8q-57 0 -90 33q-37 37 -37 90t37 90
q38 38 90 38h8v65h21v-69q34 -8 61 -34q19 -18 28.5 -41t9.5 -49v-10h-21v10q0 45 -31 76q-19 19 -47 27v-205h23q43 0 86 -20q37 -17 69 -48zM174 439v209h-8q-44 0 -75 -31t-31 -76q0 -44 31 -75q27 -27 75 -27h8zM358 77q28 28 43 64t15 75q0 40 -15 76t-43 64
q-30 30 -66 46t-74 16h-23v-398q6 -1 11.5 -1h11.5q40 0 76 14.5t64 43.5z" />
    <glyph glyph-name="e" unicode="e" horiz-adv-x="510" 
d="M220 1q-43 0 -85 17q-39 16 -70 47q-32 32 -48 71q-17 42 -17 85q0 44 17 86q17 41 48 70q31 31 70 47q40 18 85 18t86 -18q40 -17 70 -47q14 -14 26.5 -32.5t20.5 -39.5l7 -14h-397q-12 -33 -12 -70q0 -41 15 -77q8 -18 18.5 -34t24.5 -30t30 -24.5t34 -18.5
q36 -15 77 -15q40 0 78 15q18 8 34 18.5t30 24.5q27 29 42 64l4 9l19 -8l-4 -9q-8 -20 -20 -37.5t-27 -33.5q-30 -30 -70 -47q-42 -17 -86 -17zM42 312h356q-16 30 -36 50q-28 28 -64 43q-36 16 -78 16t-77 -16q-36 -15 -64 -43q-21 -21 -37 -50z" />
    <glyph glyph-name="eacute" unicode="&#xe9;" horiz-adv-x="510" 
d="M220 1q-43 0 -85 17q-39 16 -70 47q-32 32 -48 71q-17 42 -17 85q0 44 17 86q17 41 48 70q31 31 70 47q40 18 85 18t86 -18q40 -17 70 -47q14 -14 26.5 -32.5t20.5 -39.5l7 -14h-397q-12 -33 -12 -70q0 -41 15 -77q8 -18 18.5 -34t24.5 -30t30 -24.5t34 -18.5
q36 -15 77 -15q40 0 78 15q18 8 34 18.5t30 24.5q27 29 42 64l4 9l19 -8l-4 -9q-8 -20 -20 -37.5t-27 -33.5q-30 -30 -70 -47q-42 -17 -86 -17zM42 312h356q-16 30 -36 50q-28 28 -64 43q-36 16 -78 16t-77 -16q-36 -15 -64 -43q-21 -21 -37 -50zM211 572l-19 7l45 121
l19 -7z" />
    <glyph glyph-name="ecircumflex" unicode="&#xea;" horiz-adv-x="510" 
d="M220 1q-43 0 -85 17q-39 16 -70 47q-32 32 -48 71q-17 42 -17 85q0 44 17 86q17 41 48 70q31 31 70 47q40 18 85 18t86 -18q40 -17 70 -47q14 -14 26.5 -32.5t20.5 -39.5l7 -14h-397q-12 -33 -12 -70q0 -41 15 -77q8 -18 18.5 -34t24.5 -30t30 -24.5t34 -18.5
q36 -15 77 -15q40 0 78 15q18 8 34 18.5t30 24.5q27 29 42 64l4 9l19 -8l-4 -9q-8 -20 -20 -37.5t-27 -33.5q-30 -30 -70 -47q-42 -17 -86 -17zM42 312h356q-16 30 -36 50q-28 28 -64 43q-36 16 -78 16t-77 -16q-36 -15 -64 -43q-21 -21 -37 -50zM357 510l-131 150
l-131 -150l-16 14l147 167l147 -167z" />
    <glyph glyph-name="edieresis" unicode="&#xeb;" horiz-adv-x="510" 
d="M220 1q-43 0 -85 17q-39 16 -70 47q-32 32 -48 71q-17 42 -17 85q0 44 17 86q17 41 48 70q31 31 70 47q40 18 85 18t86 -18q40 -17 70 -47q14 -14 26.5 -32.5t20.5 -39.5l7 -14h-397q-12 -33 -12 -70q0 -41 15 -77q8 -18 18.5 -34t24.5 -30t30 -24.5t34 -18.5
q36 -15 77 -15q40 0 78 15q18 8 34 18.5t30 24.5q27 29 42 64l4 9l19 -8l-4 -9q-8 -20 -20 -37.5t-27 -33.5q-30 -30 -70 -47q-42 -17 -86 -17zM42 312h356q-16 30 -36 50q-28 28 -64 43q-36 16 -78 16t-77 -16q-36 -15 -64 -43q-21 -21 -37 -50zM197 629h-21v41h21v-41z
M279 629h-21v41h21v-41z" />
    <glyph glyph-name="egrave" unicode="&#xe8;" horiz-adv-x="510" 
d="M220 1q-43 0 -85 17q-39 16 -70 47q-32 32 -48 71q-17 42 -17 85q0 44 17 86q17 41 48 70q31 31 70 47q40 18 85 18t86 -18q40 -17 70 -47q14 -14 26.5 -32.5t20.5 -39.5l7 -14h-397q-12 -33 -12 -70q0 -41 15 -77q8 -18 18.5 -34t24.5 -30t30 -24.5t34 -18.5
q36 -15 77 -15q40 0 78 15q18 8 34 18.5t30 24.5q27 29 42 64l4 9l19 -8l-4 -9q-8 -20 -20 -37.5t-27 -33.5q-30 -30 -70 -47q-42 -17 -86 -17zM42 312h356q-16 30 -36 50q-28 28 -64 43q-36 16 -78 16t-77 -16q-36 -15 -64 -43q-21 -21 -37 -50zM189 693l19 7l45 -121
l-19 -7z" />
    <glyph glyph-name="eight" unicode="8" 
d="M437 219q0 -44 -16.5 -83.5t-47.5 -70.5t-70.5 -47.5t-84.5 -16.5q-44 0 -83.5 16.5t-70.5 47.5t-47.5 70.5t-16.5 83.5v11q2 41 18.5 78t45.5 66q31 31 69 48l13.5 6t13.5 5q-19 8 -32 21q-32 34 -37 80v10q0 53 37 90q38 38 90 38t90 -38q19 -18 28.5 -41t9.5 -49v-10
h-1q-3 -46 -37 -80q-11 -13 -31 -21q7 -2 13.5 -5l13.5 -6q37 -17 69 -48q29 -29 45.5 -66t18.5 -78v-11zM112 544q0 -44 31 -75q27 -27 75 -27q49 0 76 27q31 31 31 75q0 45 -31 76t-76 31q-44 0 -75 -31t-31 -76zM358 80q28 28 43 64t15 75q0 40 -15 76t-43 64
q-30 30 -66 46t-74 16q-77 0 -139 -62q-29 -28 -43.5 -64t-14.5 -76q0 -39 14.5 -75t43.5 -64q28 -29 64 -43.5t75 -14.5q40 0 76 14.5t64 43.5z" />
    <glyph glyph-name="equal" unicode="=" horiz-adv-x="400" 
d="M320 262h-320v21h320v-21zM320 392h-320v21h320v-21z" />
    <glyph glyph-name="eth" unicode="&#xf0;" 
d="M437 436q-1 -21 -8 -46h1l-2 -4q-8 -28 -22 -51l-144 -334l-19 8l117 271q-13 -11 -27.5 -20t-28.5 -16q-35 -17 -75 -20h-11h-10q-19 2 -38 6.5t-37 13.5q-38 16 -69 48q-29 29 -45.5 66t-18.5 78v11q0 44 16.5 83.5t47.5 70.5t70.5 47.5t83.5 16.5q45 0 84.5 -16.5
t70.5 -47.5t47.5 -70.5t16.5 -83.5v-11zM358 307q17 16 30 38l21 48q3 13 5 26.5t2 27.5q0 39 -15 75t-43 64q-28 29 -64 43.5t-76 14.5q-39 0 -75 -14.5t-64 -43.5q-29 -28 -43.5 -64t-14.5 -75q0 -40 14.5 -76t43.5 -64q30 -30 65.5 -46t73.5 -16t74 16t66 46z" />
    <glyph glyph-name="exclam" unicode="!" horiz-adv-x="100" 
d="M20 129h-20v571h20v-571v0zM20 1h-20v41h20v-41v0z" />
    <glyph glyph-name="exclamdown" unicode="&#xa1;" horiz-adv-x="100" 
d="M0 416h20v-571h-20v571v0zM0 544h20v-41h-20v41v0z" />
    <glyph glyph-name="fi" unicode="&#xfb01;" horiz-adv-x="470" 
d="M21 442h329v-21h-329v-420h-21v440v10v1q0 44 16.5 84t48.5 71q31 32 70.5 48.5t84.5 16.5t85 -16.5t71 -48.5l8 -7l-15 -15l-7 7q-59 59 -142 59q-82 0 -141 -59q-28 -28 -43 -64t-15 -77v-9zM369 442h21v-441h-21v441zM390 570v-41h-21v41h21z" />
    <glyph glyph-name="five" unicode="5" 
d="M373 374q31 -31 47.5 -70.5t16.5 -84.5q0 -44 -16.5 -83.5t-47.5 -70.5t-70.5 -47.5t-84.5 -16.5q-44 0 -83.5 16.5t-70.5 47.5t-47.5 70.5t-16.5 83.5v11h21v-11q0 -39 14.5 -75t43.5 -64q28 -29 64 -43.5t75 -14.5q40 0 76 14.5t64 43.5q28 28 43 64t15 75q0 40 -15 76
t-43 64q-30 30 -66 46t-74 16h-197h-21v21v230h6h15h360v-21h-360v-209h197q43 0 86 -20q19 -8 36 -20.5t33 -27.5z" />
    <glyph glyph-name="fl" unicode="&#xfb02;" horiz-adv-x="464" 
d="M21 442h222v-21h-222v-420h-21v440v10v1q0 44 16.5 84t48.5 71q31 32 70.5 48.5t84.5 16.5t85 -16.5t71 -48.5l8 -7l-15 -15l-7 7q-59 59 -142 59q-82 0 -141 -59q-28 -28 -43 -64t-15 -77v-9zM288 -41h-21v671h21v-671z" />
    <glyph glyph-name="florin" unicode="&#x192;" horiz-adv-x="464" 
d="M21 252h360v-21h-360v-327h-21v537v10v1q0 44 16.5 84t48.5 71q31 32 70.5 48.5t84.5 16.5t85 -16.5t71 -48.5l8 -7l-15 -15l-7 7q-59 59 -142 59q-82 0 -141 -59q-28 -28 -43 -64t-15 -77v-10v-189z" />
    <glyph glyph-name="four" unicode="4" horiz-adv-x="426" 
d="M346 672v-234v-21v-416h-21v416h-198q-53 0 -90 37t-37 90v128h21v-128q0 -44 31 -75t75 -31h198v234h21z" />
    <glyph glyph-name="fraction" unicode="&#x2044;" horiz-adv-x="366" 
d="M20 -7l-20 6l266 932l20 -5l-266 -933v0z" />
    <glyph glyph-name="g" unicode="g" horiz-adv-x="521" 
d="M441 441v-440v-11v-8t-1 -8q-3 -40 -19 -75.5t-45 -63.5q-31 -32 -71 -48.5t-85 -16.5q-44 0 -83.5 16.5t-71.5 47.5v1l-8 7q-57 63 -57 148v11h21v-11q0 -40 15 -76t43 -65q29 -28 65 -43t76 -15q41 0 77 15t65 43q53 55 58 131v10v11v126q-8 -17 -19 -32.5t-25 -29.5
q-31 -32 -71 -48.5t-85 -16.5t-84.5 16.5t-70.5 48.5q-32 31 -48.5 70.5t-16.5 84.5t16.5 85t48.5 71q31 32 70.5 48.5t84.5 16.5t85 -16.5t71 -48.5q14 -14 25 -29.5t19 -32.5v127h21zM220 21q41 0 77.5 15.5t63.5 42.5t43 63.5t16 77.5t-16 77.5t-43 63.5t-63.5 43
t-77.5 16t-77.5 -16t-63.5 -43t-42.5 -63.5t-15.5 -77.5t15.5 -77.5t42.5 -63.5t63.5 -42.5t77.5 -15.5z" />
    <glyph glyph-name="grave" unicode="`" horiz-adv-x="144" 
d="M0 693l19 7l45 -121l-19 -7z" />
    <glyph glyph-name="greater" unicode="&#x3e;" horiz-adv-x="346" 
d="M14 114l-14 16l234 206l-234 206l14 16l252 -222z" />
    <glyph glyph-name="h" unicode="h" 
d="M437 218v-10v-207h-21v207v10q0 41 -15 77.5t-43 65.5q-29 29 -64.5 44.5t-74.5 15.5q-38 0 -76 -16q-35 -15 -64 -44t-43.5 -65.5t-14.5 -76.5v-218h-21v207v3v7v3v451h21v-357q15 35 44 62q36 36 83 53q34 12 70 12h1h1h11v-1q82 -5 142 -65q29 -30 45.5 -67.5
t18.5 -79.5v-11z" />
    <glyph glyph-name="hungarumlaut" unicode="&#x2dd;" horiz-adv-x="192" 
d="M67 572l-19 7l45 121l19 -7zM19 572l-19 7l45 122l20 -8z" />
    <glyph glyph-name="hyphen" unicode="-" horiz-adv-x="400" 
d="M320 327h-150h-21h-149v20h149h21h150v-20z" />
    <glyph glyph-name="i" unicode="i" horiz-adv-x="101" 
d="M0 1v441h21v-441h-21zM0 570h21v-41h-21v41z" />
    <glyph glyph-name="iacute" unicode="&#xed;" horiz-adv-x="144" 
d="M0 1h21v441h-21v-441v0zM19 562l-19 7l45 121l19 -7z" />
    <glyph glyph-name="icircumflex" unicode="&#xee;" horiz-adv-x="374" 
d="M137 1h21v441h-21v-441v0zM278 510l-131 150l-131 -150l-16 14l147 167l147 -167z" />
    <glyph glyph-name="idieresis" unicode="&#xef;" horiz-adv-x="183" 
d="M39 1h21v441h-21v-441v0zM21 629h-21v41h21v-41zM103 629h-21v41h21v-41z" />
    <glyph glyph-name="igrave" unicode="&#xec;" horiz-adv-x="144" 
d="M43 1h21v441h-21v-441v0zM0 679l19 7l45 -121l-19 -7z" />
    <glyph glyph-name="j" unicode="j" horiz-adv-x="167" 
d="M66 442h21v-440v-1v-10q0 -45 -16.5 -84.5t-48.5 -71.5l-7 -7l-15 15l8 7q28 29 43 65t15 76v10v1v440zM87 570v-41h-21v41h21z" />
    <glyph glyph-name="k" unicode="k" horiz-adv-x="441" 
d="M296 247q32 -31 48.5 -71t16.5 -85v-9v-1v-80h-21v80v1v9q0 41 -16 77.5t-43 63.5t-63.5 43t-77.5 16h-3l-116 -82v-208h-21v671h21v-438l109 77v1h1l190 134l12 -17l-168 -119q76 -8 131 -63z" />
    <glyph glyph-name="l" unicode="l" horiz-adv-x="101" 
d="M21 1h-21v671h21v-671v0z" />
    <glyph glyph-name="less" unicode="&#x3c;" horiz-adv-x="346" 
d="M0 336l252 222l14 -16l-234 -206l234 -206l-14 -16z" />
    <glyph glyph-name="lslash" unicode="&#x142;" horiz-adv-x="358" 
d="M149 347h129v-20h-129v-326h-21v326v0h-128v20h128v0v325h21v-325v0z" />
    <glyph glyph-name="m" unicode="m" horiz-adv-x="638" 
d="M413 438q30 0 56.5 -11.5t46 -31t31 -46t11.5 -56.5v-3v-8v-281h-21v281v8v3q0 25 -9.5 48t-26.5 39.5t-39.5 26.5t-48.5 10t-48 -10t-39 -26.5t-26.5 -39.5t-9.5 -48v-3v-8v-281h-21v281v8v3q0 25 -10 48t-26.5 39.5t-39.5 26.5t-48 10q-26 0 -48.5 -10t-39.5 -26.5
t-26.5 -39.5t-9.5 -48v-3v-8v-281h-21v281v8v3v149h21v-74q19 32 51.5 51t72.5 19q46 0 82 -25.5t52 -65.5q17 40 53 65.5t81 25.5z" />
    <glyph glyph-name="multiply" unicode="&#xd7;" horiz-adv-x="400" 
d="M320 544h-135l95 -95l-14 -15l-96 95v-134h-21v134l-95 -95l-15 15l96 95h-135v21h135l-96 95l15 15l95 -95v134h21v-134l96 95l14 -15l-95 -95h135v-21z" />
    <glyph glyph-name="n" unicode="n" horiz-adv-x="521" 
d="M376 376q32 -32 48.5 -72.5t16.5 -85.5v-6v-4v-207h-21v207v4v6q0 41 -15 77.5t-44 65.5t-65 44.5t-76 15.5q-39 0 -75.5 -15.5t-65.5 -44.5q-28 -29 -43 -65.5t-15 -77.5v-6v-4v-207h-21v207v4v6v224h21v-129q14 33 43 63q32 32 72 49t84 17q45 0 84.5 -17t71.5 -49z
" />
    <glyph glyph-name="nine" unicode="9" 
d="M437 436q-1 -21 -8 -46h1l-2 -4q-8 -28 -22 -51l-144 -334l-19 8l117 271q-13 -11 -27.5 -20t-28.5 -16q-35 -17 -75 -20h-11h-10q-19 2 -38 6.5t-37 13.5q-38 16 -69 48q-29 29 -45.5 66t-18.5 78v11q0 44 16.5 83.5t47.5 70.5t70.5 47.5t83.5 16.5q45 0 84.5 -16.5
t70.5 -47.5t47.5 -70.5t16.5 -83.5v-11zM358 307q17 16 30 38l21 48q3 13 5 26.5t2 27.5q0 39 -15 75t-43 64q-28 29 -64 43.5t-76 14.5q-39 0 -75 -14.5t-64 -43.5q-29 -28 -43.5 -64t-14.5 -75q0 -40 14.5 -76t43.5 -64q30 -30 65.5 -46t73.5 -16t74 16t66 46z" />
    <glyph glyph-name="ntilde" unicode="&#xf1;" horiz-adv-x="521" 
d="M376 376q32 -32 48.5 -72.5t16.5 -85.5v-6v-4v-207h-21v207v4v6q0 41 -15 77.5t-44 65.5t-65 44.5t-76 15.5q-39 0 -75.5 -15.5t-65.5 -44.5q-28 -29 -43 -65.5t-15 -77.5v-6v-4v-207h-21v207v4v6q0 45 16.5 85.5t47.5 72.5q32 32 72 49t84 17q45 0 84.5 -17t71.5 -49z
M437 513l-11 -15l-4 8q-20 28 -45.5 43t-54.5 15q-28 0 -53.5 -15t-45.5 -43l-5 -8q-43 -57 -104 -57q-31 0 -59 16.5t-49 48.5l-6 7l10 15l5 -8q20 -28 45.5 -43t53.5 -15q29 0 54.5 15t45.5 43l4 8v-1q22 29 48.5 43.5t55.5 14.5q31 0 59.5 -16.5t49.5 -48.5z" />
    <glyph glyph-name="numbersign" unicode="#" horiz-adv-x="400" 
d="M320 456h-74l-21 -109h95v-21h-99l-22 -112l-21 4l22 108h-109l-22 -112l-21 4l22 108h-70v21h74l21 109h-95v21h99l22 111l21 -4l-22 -107h109l22 111l21 -4l-22 -107h70v-21zM204 347l21 109h-109l-21 -109h109z" />
    <glyph glyph-name="o" unicode="o" horiz-adv-x="521" 
d="M220 1q-45 0 -84.5 16.5t-70.5 47.5q-65 65 -65 156q0 45 16.5 85t48.5 71q31 32 70.5 48.5t84.5 16.5t85 -16.5t71 -48.5q32 -31 48.5 -71t16.5 -85q0 -91 -65 -156q-31 -31 -71 -47.5t-85 -16.5zM220 421q-41 0 -77.5 -16t-63.5 -43t-42.5 -63.5t-15.5 -77.5
t15.5 -77.5t42.5 -63.5t63.5 -42.5t77.5 -15.5t77.5 15.5t63.5 42.5t43 63.5t16 77.5t-16 77.5t-43 63.5t-63.5 43t-77.5 16z" />
    <glyph glyph-name="oacute" unicode="&#xf3;" horiz-adv-x="521" 
d="M220 1q-45 0 -84.5 16.5t-70.5 47.5q-65 65 -65 156q0 45 16.5 85t48.5 71q31 32 70.5 48.5t84.5 16.5t85 -16.5t71 -48.5q32 -31 48.5 -71t16.5 -85q0 -91 -65 -156q-31 -31 -71 -47.5t-85 -16.5zM220 421q-41 0 -77.5 -16t-63.5 -43t-42.5 -63.5t-15.5 -77.5
t15.5 -77.5t42.5 -63.5t63.5 -42.5t77.5 -15.5t77.5 15.5t63.5 42.5t43 63.5t16 77.5t-16 77.5t-43 63.5t-63.5 43t-77.5 16zM214 572l-19 7l45 121l19 -7z" />
    <glyph glyph-name="ocircumflex" unicode="&#xf4;" horiz-adv-x="521" 
d="M220 1q-45 0 -84.5 16.5t-70.5 47.5q-65 65 -65 156q0 45 16.5 85t48.5 71q31 32 70.5 48.5t84.5 16.5t85 -16.5t71 -48.5q32 -31 48.5 -71t16.5 -85q0 -91 -65 -156q-31 -31 -71 -47.5t-85 -16.5zM220 421q-41 0 -77.5 -16t-63.5 -43t-42.5 -63.5t-15.5 -77.5
t15.5 -77.5t42.5 -63.5t63.5 -42.5t77.5 -15.5t77.5 15.5t63.5 42.5t43 63.5t16 77.5t-16 77.5t-43 63.5t-63.5 43t-77.5 16zM359 510l-131 150l-131 -150l-16 14l147 167l147 -167z" />
    <glyph glyph-name="odieresis" unicode="&#xf6;" horiz-adv-x="521" 
d="M220 1q-45 0 -84.5 16.5t-70.5 47.5q-65 65 -65 156q0 45 16.5 85t48.5 71q31 32 70.5 48.5t84.5 16.5t85 -16.5t71 -48.5q32 -31 48.5 -71t16.5 -85q0 -91 -65 -156q-31 -31 -71 -47.5t-85 -16.5zM220 421q-41 0 -77.5 -16t-63.5 -43t-42.5 -63.5t-15.5 -77.5
t15.5 -77.5t42.5 -63.5t63.5 -42.5t77.5 -15.5t77.5 15.5t63.5 42.5t43 63.5t16 77.5t-16 77.5t-43 63.5t-63.5 43t-77.5 16zM196 629h-21v41h21v-41zM278 629h-21v41h21v-41z" />
    <glyph glyph-name="oe" unicode="&#x153;" horiz-adv-x="930" 
d="M640 1q-43 0 -85 17q-39 16 -70 47q-32 32 -48 71q-2 4 -3.5 8l-3.5 9q-15 -49 -54 -88q-31 -31 -71 -47.5t-85 -16.5t-84.5 16.5t-70.5 47.5q-65 65 -65 156q0 45 16.5 85t48.5 71q31 32 70.5 48.5t84.5 16.5t85 -16.5t71 -48.5q39 -39 54 -88l3.5 9l3.5 9q17 41 48 70
q31 31 70 47q40 18 85 18t86 -18q40 -17 70 -47q14 -14 26.5 -32.5t20.5 -39.5l7 -14h-397q-11 -30 -12 -61v-9v-9q2 -37 15 -68q8 -18 18.5 -34t24.5 -30t30 -24.5t34 -18.5q36 -15 77 -15q40 0 78 15q18 8 34 18.5t30 24.5q27 29 42 64l4 9l19 -8l-4 -9q-8 -20 -20 -37.5
t-27 -33.5q-30 -30 -70 -47q-42 -17 -86 -17zM220 421q-41 0 -77.5 -16t-63.5 -43t-42.5 -63.5t-15.5 -77.5t15.5 -77.5t42.5 -63.5t63.5 -42.5t77.5 -15.5q40 0 75.5 15t62.5 41t43.5 60.5t18.5 74.5v8q0 41 -16 77.5t-43 63.5t-63.5 43t-77.5 16zM462 312h356
q-16 30 -36 50q-28 28 -64 43q-36 16 -78 16t-77 -16q-36 -15 -64 -43q-21 -21 -37 -50z" />
    <glyph glyph-name="ograve" unicode="&#xf2;" horiz-adv-x="521" 
d="M220 1q-45 0 -84.5 16.5t-70.5 47.5q-65 65 -65 156q0 45 16.5 85t48.5 71q31 32 70.5 48.5t84.5 16.5t85 -16.5t71 -48.5q32 -31 48.5 -71t16.5 -85q0 -91 -65 -156q-31 -31 -71 -47.5t-85 -16.5zM220 421q-41 0 -77.5 -16t-63.5 -43t-42.5 -63.5t-15.5 -77.5
t15.5 -77.5t42.5 -63.5t63.5 -42.5t77.5 -15.5t77.5 15.5t63.5 42.5t43 63.5t16 77.5t-16 77.5t-43 63.5t-63.5 43t-77.5 16zM196 693l19 7l45 -121l-19 -7z" />
    <glyph glyph-name="one" unicode="1" horiz-adv-x="191" 
d="M0 672h111v-10v-11v-650h-21v650h-90v21v0z" />
    <glyph glyph-name="onehalf" unicode="&#xbd;" horiz-adv-x="354" 
d="M274 21v-20h-202v102q0 19 7.5 38t22.5 33q13 15 31 23q10 4 19.5 6.5t20.5 2.5h22q19 0 30 11q13 13 13 28q0 17 -13 30t-30 13q-15 0 -28 -13t-13 -30v-8h-19v8q0 27 17 44q18 18 43 18q27 0 45 -18h-1q18 -18 18 -44q0 -24 -17 -43q-16 -16 -45 -16h-22q-16 0 -31 -7
t-28 -18h1q-24 -26 -24 -58v-82h183zM45 182l140 490l21 -2l-141 -495zM65 672v-343h-21v323h-44v20h65z" />
    <glyph glyph-name="onequarter" unicode="&#xbc;" horiz-adv-x="406" 
d="M65 672v-341h-20v321h-45v20h65zM55 175l142 500l20 -6l-141 -498zM326 339v-338h-20v204h-93q-29 0 -48 19t-19 48v67h20v-67q0 -19 15 -32q13 -15 32 -15h93v114h20z" />
    <glyph glyph-name="onesuperior" unicode="&#xb9;" horiz-adv-x="145" 
d="M65 672v-341h-20v321h-45v20h65z" />
    <glyph glyph-name="ordfeminine" unicode="&#xaa;" horiz-adv-x="523" 
d="M443 528q0 -5 -0.5 -9.5t-0.5 -9.5v-201h-21v124q-17 -34 -43 -60q-32 -32 -72 -48.5t-85 -16.5t-84.5 16.5t-71.5 48.5q-65 65 -65 156q0 45 16.5 85t48.5 72q32 31 71.5 47.5t84.5 16.5t85 -16.5t72 -47.5q31 -32 48 -72t17 -85zM221 329q41 0 77.5 16t63.5 43t42.5 63
t15.5 77t-15.5 77.5t-42.5 63.5t-63.5 42.5t-77.5 15.5t-77 -15.5t-63 -42.5t-42.5 -63.5t-15.5 -77.5t15.5 -77t42.5 -63t63 -43t77 -16z" />
    <glyph glyph-name="oslash" unicode="&#xf8;" horiz-adv-x="521" 
d="M110 -207l-20 6l61 213q-50 16 -86 53q-65 65 -65 156q0 45 16.5 85t48.5 71q31 32 70.5 48.5t84.5 16.5q26 0 52 -6l84 295l20 -5l-84 -296q48 -17 84 -53q32 -31 48.5 -71t16.5 -85q0 -91 -65 -156q-31 -31 -71 -47.5t-85 -16.5q-13 0 -25 1.5t-24 3.5zM220 421
q-41 0 -77.5 -16t-63.5 -43t-42.5 -63.5t-15.5 -77.5q0 -33 10 -63t28 -55t42.5 -43t54.5 -28l110 383q-23 6 -46 6zM220 22q41 0 77.5 15.5t63.5 42.5t43 63.5t16 77.5q0 66 -37.5 117t-96.5 72l-109 -383q23 -5 43 -5z" />
    <glyph glyph-name="otilde" unicode="&#xf5;" horiz-adv-x="521" 
d="M220 1q-45 0 -84.5 16.5t-70.5 47.5q-65 65 -65 156q0 45 16.5 85t48.5 71q31 32 70.5 48.5t84.5 16.5t85 -16.5t71 -48.5q32 -31 48.5 -71t16.5 -85q0 -91 -65 -156q-31 -31 -71 -47.5t-85 -16.5zM220 421q-41 0 -77.5 -16t-63.5 -43t-42.5 -63.5t-15.5 -77.5
t15.5 -77.5t42.5 -63.5t63.5 -42.5t77.5 -15.5t77.5 15.5t63.5 42.5t43 63.5t16 77.5t-16 77.5t-43 63.5t-63.5 43t-77.5 16zM437 513l-11 -15l-4 8q-20 28 -45.5 43t-54.5 15q-28 0 -53.5 -15t-45.5 -43l-5 -8q-43 -57 -104 -57q-31 0 -59 16.5t-49 48.5l-6 7l10 15l5 -8
q20 -28 45.5 -43t53.5 -15q29 0 54.5 15t45.5 43l4 8v-1q22 29 48.5 43.5t55.5 14.5q31 0 59.5 -16.5t49.5 -48.5z" />
    <glyph glyph-name="p" unicode="p" horiz-adv-x="521" 
d="M376 377q32 -31 48.5 -71t16.5 -84q0 -45 -16.5 -85t-48.5 -71q-31 -32 -71 -48.5t-85 -16.5t-84.5 16.5t-70.5 48.5q-29 27 -44 62v-127v-230h-21v230v241v200h21v-127q15 35 44 62q31 32 70.5 48.5t84.5 16.5t85 -16.5t71 -48.5zM220 22q41 0 77.5 15.5t63.5 42.5
t43 63.5t16 78.5q0 41 -16 77.5t-43 63.5t-63.5 42.5t-77.5 15.5t-77.5 -15.5t-63.5 -42.5t-42.5 -63.5t-15.5 -77.5q0 -42 15.5 -78.5t42.5 -63.5t63.5 -42.5t77.5 -15.5z" />
    <glyph glyph-name="parenleft" unicode="(" horiz-adv-x="166" 
d="M0 672q2 42 18.5 79t45.5 66l7 8l15 -15l-7 -8q-28 -27 -43 -64t-15 -76v-11v-190v-2v-439v-10q0 -40 15 -76.5t43 -64.5l7 -7l-15 -15l-7 7q-29 29 -45.5 66.5t-18.5 78.5v11v10v439v2v190v11v10z" />
    <glyph glyph-name="parenright" unicode=")" horiz-adv-x="166" 
d="M86 662v-11v-190v-2v-439v-10v-11q-2 -41 -18.5 -78.5t-45.5 -66.5l-7 -7l-15 15l7 7q28 28 43 64.5t15 76.5v10v439v2v190v11q0 39 -15 76t-43 64l-7 8l15 15l7 -8q29 -29 45.5 -66t18.5 -79v-10z" />
    <glyph glyph-name="percent" unicode="%" horiz-adv-x="545" 
d="M15 86l-15 15l450 450l15 -14zM130 336q-26 0 -49.5 10t-40.5 27.5t-27 40.5t-10 50q0 26 10 49t27 40.5t40.5 27.5t49.5 10q27 0 50 -10t40.5 -27.5t27.5 -40.5t10 -49q0 -27 -10 -50t-27.5 -40.5t-40.5 -27.5t-50 -10zM130 570q-22 0 -41.5 -8.5t-33.5 -23t-22.5 -33.5
t-8.5 -41t8.5 -41.5t22.5 -34t33.5 -23t41.5 -8.5t41.5 8.5t34 23t23 34t8.5 41.5t-8.5 41t-23 33.5t-34 23t-41.5 8.5zM327 56q-26 0 -49.5 10t-40.5 27.5t-27 40.5t-10 50q0 26 10 49t27 40.5t40.5 27.5t49.5 10q27 0 50 -10t40.5 -27.5t27.5 -40.5t10 -49q0 -27 -10 -50
t-27.5 -40.5t-40.5 -27.5t-50 -10zM327 290q-22 0 -41.5 -8.5t-33.5 -23t-22.5 -33.5t-8.5 -41t8.5 -41.5t22.5 -34t33.5 -23t41.5 -8.5t41.5 8.5t34 23t23 34t8.5 41.5t-8.5 41t-23 33.5t-34 23t-41.5 8.5z" />
    <glyph glyph-name="period" unicode="." horiz-adv-x="101" 
d="M21 1h-21v41h21v-41v0z" />
    <glyph glyph-name="perthousand" unicode="&#x2030;" horiz-adv-x="699" 
d="M491 56q-47 0 -82 29q-17 -14 -38 -21.5t-44 -7.5q-26 0 -49.5 10t-40.5 27.5t-27 40.5t-10 50q0 26 10 49t27 40.5t40.5 27.5t49.5 10q47 0 82 -30q35 30 82 30q27 0 50 -10t40.5 -27.5t27.5 -40.5t10 -49q0 -27 -10 -50t-27.5 -40.5t-40.5 -27.5t-50 -10zM130 336
q-26 0 -49.5 10t-40.5 27.5t-27 40.5t-10 50q0 26 10 49t27 40.5t40.5 27.5t49.5 10q27 0 50 -10t40.5 -27.5t27.5 -40.5t10 -49q0 -27 -10 -50t-27.5 -40.5t-40.5 -27.5t-50 -10zM130 570q-22 0 -41.5 -8.5t-33.5 -23t-22.5 -33.5t-8.5 -41t8.5 -41.5t22.5 -34t33.5 -23
t41.5 -8.5t41.5 8.5t34 23t23 34t8.5 41.5t-8.5 41t-23 33.5t-34 23t-41.5 8.5zM327 290q-22 0 -41.5 -8.5t-33.5 -23t-22.5 -33.5t-8.5 -41t8.5 -41.5t22.5 -34t33.5 -23t41.5 -8.5q39 0 67 23q-30 36 -30 84q0 47 30 82q-29 24 -67 24zM491 290q-38 0 -67 -24
q14 -17 22.5 -38t8.5 -44q0 -24 -8.5 -45.5t-22.5 -38.5q28 -23 67 -23q22 0 41.5 8.5t34 23t23 34t8.5 41.5t-8.5 41t-23 33.5t-34 23t-41.5 8.5zM15 86l-15 15l450 450l15 -14zM434 184q0 39 -25 67q-24 -29 -24 -67q0 -39 24 -68q25 28 25 68z" />
    <glyph glyph-name="plus" unicode="+" horiz-adv-x="400" 
d="M320 327h-150v-150h-21v150h-149v20h149v150h21v-150h150v-20z" />
    <glyph glyph-name="plusminus" unicode="&#xb1;" horiz-adv-x="400" 
d="M320 327h-150v-150h-21v150h-149v20h149v150h21v-150h150v-20zM320 80h-320v25h320v-25z" />
    <glyph glyph-name="q" unicode="q" horiz-adv-x="521" 
d="M65 377q31 32 71 48.5t85 16.5t84.5 -16.5t70.5 -48.5q29 -27 44 -62v127h21v-200v-241v-230h-21v230v127q-15 -35 -44 -62q-31 -32 -70.5 -48.5t-84.5 -16.5t-85 16.5t-71 48.5q-32 31 -48.5 71t-16.5 85q0 44 16.5 84t48.5 71zM221 22q41 0 77.5 15.5t63.5 42.5
t42.5 63.5t15.5 78.5q0 41 -15.5 77.5t-42.5 63.5t-63.5 42.5t-77.5 15.5t-77.5 -15.5t-63.5 -42.5t-43 -63.5t-16 -77.5q0 -42 16 -78.5t43 -63.5t63.5 -42.5t77.5 -15.5z" />
    <glyph glyph-name="question" unicode="?" horiz-adv-x="335" 
d="M138 1h-20v41h20v-41zM138 128h-21v341h11q47 0 75 28q31 31 31 75t-31 75q-32 32 -75 32q-44 0 -76 -32q-31 -31 -31 -75v-10h-21v10q0 53 37 90q39 37 91 37q53 0 90 -37t37 -90t-37 -90q-30 -30 -80 -33v-321z" />
    <glyph glyph-name="questiondown" unicode="&#xbf;" horiz-adv-x="335" 
d="M117 699h20v-41h-20v41zM117 572h21v-341h-11q-47 0 -75 -28q-31 -31 -31 -75t31 -75q32 -32 75 -32q22 0 41.5 8.5t34.5 23.5q31 31 31 75v10h21v-10q0 -53 -37 -90q-39 -37 -91 -37q-53 0 -90 37t-37 90t37 90q30 30 80 33v321z" />
    <glyph glyph-name="quotedbl" unicode="&#x22;" horiz-adv-x="151" 
d="M50 698h21v-119h-21v119zM0 579v119h21v-119h-21z" />
    <glyph glyph-name="quotedblbase" unicode="&#x201e;" horiz-adv-x="155" 
d="M19 -31l-19 9l14 27v39h20v-44zM60 -31l-19 9l14 27v39h20v-44z" />
    <glyph glyph-name="quotedblleft" unicode="&#x201c;" horiz-adv-x="151" 
d="M71 581h-21v118h21v-118zM21 581h-21v118h21v-118z" />
    <glyph glyph-name="quotedblright" unicode="&#x201d;" horiz-adv-x="151" 
d="M71 581h-21v118h21v-118zM21 581h-21v118h21v-118z" />
    <glyph glyph-name="quoteleft" unicode="&#x2018;" horiz-adv-x="101" 
d="M21 581h-21v118h21v-118z" />
    <glyph glyph-name="quoteright" unicode="&#x2019;" horiz-adv-x="101" 
d="M21 581h-21v118h21v-118z" />
    <glyph glyph-name="quotesinglbase" unicode="&#x201a;" horiz-adv-x="114" 
d="M19 -31l-19 9l14 27v39h20v-44z" />
    <glyph glyph-name="quotesingle" unicode="'" horiz-adv-x="101" 
d="M0 579v119h21v-119h-21v0z" />
    <glyph glyph-name="r" unicode="r" horiz-adv-x="311" 
d="M231 442v-21h-11q-41 0 -77.5 -16t-63.5 -43t-42.5 -63.5t-15.5 -77.5v-9v-1v-210h-21v210v1v9v221h21v-127q15 35 44 62q31 32 70.5 48.5t84.5 16.5h11z" />
    <glyph glyph-name="registered" unicode="&#xae;" horiz-adv-x="751" 
d="M463 457q-2 11 -7.5 21.5t-13.5 19.5q-22 22 -52 22h-170v-367h22v224h100q37 0 70 -33q14 -14 22 -32t8 -38v-121h21v121q0 51 -35 86q-8 10 -23 18q22 5 37 20q8 8 13 19t7 24l1 6v10zM427 414q-5 -5 -14.5 -11t-22.5 -6h-148v102h148q21 0 37 -16v1q13 -15 15 -35
q-2 -21 -15 -36v1zM335 1q-67 0 -128 25t-109 73t-73 109t-25 128q0 68 25 128.5t73 108.5t109 73.5t128 25.5q68 0 129 -25.5t109 -73.5t73 -108.5t25 -128.5q0 -67 -25 -128t-73 -109t-109 -73t-129 -25zM335 651q-65 0 -122 -25t-100 -67.5t-67.5 -100t-24.5 -122.5
t24.5 -122t67.5 -100t100 -67.5t122 -24.5t122.5 24.5t100 67.5t67.5 100t25 122t-25 122.5t-67.5 100t-100 67.5t-122.5 25z" />
    <glyph glyph-name="ring" unicode="&#x2da;" horiz-adv-x="335" 
d="M127 703q-26 0 -49.5 10t-40.5 27.5t-27 40.5t-10 50q0 26 10 49t27 40.5t40.5 27.5t49.5 10q27 0 50 -10t40.5 -27.5t27.5 -40.5t10 -49q0 -27 -10 -50t-27.5 -40.5t-40.5 -27.5t-50 -10zM127 937q-22 0 -41.5 -8.5t-33.5 -23t-22.5 -33.5t-8.5 -41t8.5 -41.5t22.5 -34
t33.5 -23t41.5 -8.5t41.5 8.5t34 23t23 34t8.5 41.5t-8.5 41t-23 33.5t-34 23t-41.5 8.5z" />
    <glyph glyph-name="s" unicode="s" horiz-adv-x="390" 
d="M265 266q45 -47 45 -110t-45 -110q-47 -45 -110 -45t-110 45q-45 47 -45 110v10h21v-10q0 -56 39 -95t95 -39t95 39t39 95t-39 95t-95 39h-10v1q-29 1 -49 22q-22 22 -22 53t22 53t53 22t53 -22t22 -53v-10h-21v10q0 23 -16 38q-15 16 -38 16t-38 -16q-16 -16 -16 -38
t16 -38t38 -16h10v-1q61 -2 106 -45z" />
    <glyph glyph-name="scaron" unicode="&#x161;" horiz-adv-x="390" 
d="M265 266q-45 43 -106 45v1h-10q-22 0 -38 16t-16 38t16 38q15 16 38 16t38 -16q16 -15 16 -38v-10h21v10q0 31 -22 53t-53 22t-53 -22t-22 -53t22 -53q20 -21 49 -22v-1h10q56 0 95 -39t39 -95t-39 -95t-95 -39t-95 39t-39 95v10h-21v-10q0 -63 45 -110q47 -45 110 -45
t110 45q45 47 45 110t-45 110zM299 677l-147 -167l-147 167l16 14l131 -150l131 150z" />
    <glyph glyph-name="section" unicode="&#xa7;" 
d="M330 157q45 -47 45 -110t-45 -110q-47 -45 -110 -45t-110 45q-45 47 -45 110v10h21v-10q0 -56 39 -95t95 -39t95 39t39 95t-39 95t-95 39h-10v1q-29 1 -49 22q-20 19 -22 46q-40 6 -63 31q-37 37 -37 90t37 90q38 38 90 38t90 -38q19 -18 28.5 -41t9.5 -49v-10h-21v10
q0 45 -31 76t-76 31q-44 0 -75 -31t-31 -76q0 -44 31 -75q21 -21 49 -25q4 22 21 39q22 22 53 22t53 -22t22 -53v-2l15 -6q37 -17 69 -48q31 -31 47.5 -70.5t16.5 -84.5q0 -44 -16.5 -83.5t-47.5 -70.5t-70.5 -47.5t-84.5 -16.5q-44 0 -83.5 16.5t-70.5 47.5t-47.5 70.5
t-16.5 83.5v11h21v-11q0 -39 14.5 -75t43.5 -64q28 -29 64 -43.5t75 -14.5q40 0 76 14.5t64 43.5q28 28 43 64t15 75q0 40 -15 76t-43 64q-30 30 -66 46t-74 16h-52h-6q3 -16 16 -29q16 -16 38 -16h10v-1q61 -2 106 -45zM218 269q26 0 50 -7q-1 18 -16 33q-15 16 -38 16
t-38 -16q-12 -12 -15 -26h5h52z" />
    <glyph glyph-name="semicolon" unicode=";" horiz-adv-x="116" 
d="M36 418h-21v78h21v-78zM19 179l-19 9l14 27v39h20v-44z" />
    <glyph glyph-name="seven" unicode="7" horiz-adv-x="522" 
d="M17 3l-17 11l404 639h-398v21h436l-425 -671v0z" />
    <glyph glyph-name="six" unicode="6" 
d="M437 219q0 -44 -16.5 -83.5t-47.5 -70.5q-30 -30 -68.5 -46.5t-80.5 -17.5h-6h-5q-42 1 -80.5 17.5t-68.5 46.5q-31 31 -47.5 70.5t-16.5 83.5v11q1 11 2.5 23t4.5 23l2 4q7 27 21 51l145 334l19 -8l-117 -271q25 22 56 36q35 17 75 19v1h10h11v-1q39 -2 75 -19
q19 -8 36 -20.5t33 -27.5q29 -29 45.5 -66t18.5 -78v-11zM358 80q28 28 43 64t15 75q0 40 -15 76t-43 64q-30 30 -66 46t-74 16q-77 0 -139 -62q-19 -19 -30 -38l-21 -48q-7 -24 -7 -54q0 -39 14.5 -75t43.5 -64q55 -56 134 -58h5h5q38 1 73 15.5t62 42.5z" />
    <glyph glyph-name="slash" unicode="/" horiz-adv-x="366" 
d="M20 -207l-20 6l266 932l20 -5l-266 -933v0z" />
    <glyph glyph-name="space" unicode=" " horiz-adv-x="400" 
 />
    <glyph glyph-name="sterling" unicode="&#xa3;" horiz-adv-x="523" 
d="M443 26v-25h-422h-21v25v401q0 44 16.5 84t48.5 71q31 32 70.5 48.5t84.5 16.5t85 -16.5t71 -48.5l8 -7l-15 -15l-7 7q-59 59 -142 59q-82 0 -141 -59q-28 -28 -43 -64t-15 -77v-199h360v-21h-360v-180h422z" />
    <glyph glyph-name="t" unicode="t" horiz-adv-x="314" 
d="M21 231v-10q0 -41 15.5 -77.5t42.5 -63.5t63.5 -42.5t77.5 -15.5h11v-21h-11q-45 0 -84.5 16.5t-70.5 47.5q-65 65 -65 156v10v1v440h21v-230h213v-21h-213v-189v-1z" />
    <glyph glyph-name="three" unicode="3" 
d="M373 374q31 -31 47.5 -70.5t16.5 -84.5q0 -44 -16.5 -83.5t-47.5 -70.5t-70.5 -47.5t-84.5 -16.5q-44 0 -83.5 16.5t-70.5 47.5t-47.5 70.5t-16.5 83.5v11h21v-11q0 -39 14.5 -75t43.5 -64q28 -29 64 -43.5t75 -14.5q40 0 76 14.5t64 43.5q28 28 43 64t15 75q0 40 -15 76
t-43 64q-30 30 -66 46t-74 16h-10v21h10q49 0 76 27q31 31 31 75q0 45 -31 76t-76 31q-44 0 -75 -31t-31 -76v-10h-21v10q0 53 37 90q38 38 90 38t90 -38q19 -18 28.5 -41t9.5 -49t-9.5 -49t-28.5 -41q-11 -13 -31 -21q7 -2 13.5 -5l13.5 -6q19 -8 36 -20.5t33 -27.5z" />
    <glyph glyph-name="threequarters" unicode="&#xbe;" horiz-adv-x="547" 
d="M213 508q36 -38 36 -89t-36 -89v1q-17 -17 -40.5 -26.5t-48.5 -9.5q-52 0 -88 36v-1q-36 38 -36 89v11h21v-11q0 -42 31 -73t72 -31q42 0 73 31q30 30 30 73t-30 73q-33 33 -73 33h-10v21h10q25 0 37 14q17 17 17 36q0 22 -17 39q-14 16 -37 16q-22 0 -38 -16
q-15 -15 -15 -39v-9h-21v9q0 33 21 54q21 22 53 22q31 0 52 -23q23 -21 23 -53q0 -31 -22 -53v1l-9 -8q32 -15 45 -28zM467 338v-337h-20v203h-91q-29 0 -49 20q-18 18 -18 47v67h19v-67q0 -19 15 -32q14 -14 33 -14h91v113h20zM205 159l147 514l19 -6l-146 -513z" />
    <glyph glyph-name="threesuperior" unicode="&#xb3;" horiz-adv-x="304" 
d="M192 525q15 -17 23.5 -37t8.5 -43q0 -46 -32 -81v1q-16 -15 -37 -23.5t-43 -8.5q-23 0 -43.5 8.5t-36.5 23.5v-1q-32 35 -32 81v9h19v-9q0 -38 28 -66t65 -28t65 28q27 27 27 66q0 38 -27 65q-30 30 -65 30h-9v19h9q22 0 33 12q15 15 15 33q0 20 -15 35q-6 7 -15 10.5
t-18 3.5q-21 0 -35 -14q-13 -13 -13 -35v-8h-19v8q0 30 19 48q17 20 48 20q28 0 46 -21q21 -18 21 -47q0 -13 -4.5 -25.5t-15.5 -22.5v1l-8 -7q28 -13 41 -25z" />
    <glyph glyph-name="tilde" unicode="&#x2dc;" horiz-adv-x="704" 
d="M624 661l-15 -15l-7 8q-29 28 -65 43t-77 15q-40 0 -76 -15t-65 -43l-7 -8q-63 -57 -149 -57q-44 0 -84 16.5t-71 48.5l-8 7l15 15l7 -8q29 -28 65 -43t76 -15q41 0 77 15t65 43l7 8v-1q63 58 148 58q45 0 85 -16.5t71 -48.5z" />
    <glyph glyph-name="trademark" unicode="&#x2122;" horiz-adv-x="761" 
d="M249 651h-113v-355h-22v355h-114v21h249v-21zM643 635q38 -38 38 -89v-250h-22v250q0 21 -8 40.5t-22.5 33.5t-33.5 22.5t-40 8.5q-22 0 -41 -8.5t-33 -22.5t-22 -33.5t-8 -40.5v-250h-22v250q0 21 -8 40.5t-22.5 33.5t-33.5 22.5t-40 8.5t-40 -8.5t-33.5 -22.5
t-22.5 -33.5t-8 -40.5v-250h-21v250q0 54 36 90t89 36q25 0 48.5 -9.5t41.5 -27.5q7 -8 13 -17t11 -20l12.5 19.5t14.5 18.5q34 36 89 36q25 0 48 -9.5t40 -27.5z" />
    <glyph glyph-name="two" unicode="2" 
d="M437 22v-21h-416h-15h-6v208v3v7q0 45 16.5 84.5t47.5 70.5t69 48q43 20 85 20h52q49 0 76 27q31 31 31 75q0 45 -31 76t-76 31q-44 0 -75 -31t-31 -76v-10h-21v10q0 53 37 90q38 38 90 38t90 -38q19 -18 28.5 -41t9.5 -49t-9.5 -49t-28.5 -41q-32 -33 -90 -33h-52
q-77 0 -139 -62q-29 -28 -43.5 -64t-14.5 -76v-7v-3v-187h416z" />
    <glyph glyph-name="twosuperior" unicode="&#xb2;" horiz-adv-x="304" 
d="M224 356v-24h-224v114q0 21 8 41.5t25 36.5q7 8 16 14.5t18 10.5q11 5 21.5 7.5t22.5 2.5h26q11 0 19 4.5t14 9.5q14 14 14 31q0 19 -14 33t-33 14q-16 0 -33 -14q-6 -7 -10 -15.5t-4 -17.5v-9h-21v9q0 28 19 49q19 19 49 19t50 -19h-1q19 -21 19 -49q0 -27 -18 -49
q-18 -18 -50 -18h-26q-17 0 -34 -7.5t-31 -19.5h1q-12 -14 -19 -30.5t-7 -33.5v-90h203z" />
    <glyph glyph-name="u" unicode="u" horiz-adv-x="521" 
d="M21 442v-207v-4v-7q0 -41 15 -77t43 -65q29 -29 65.5 -44.5t75.5 -15.5q40 0 76 15.5t65 44.5q59 59 59 142v7v4v207h21v-207v-4v-7v-223h-21v129q-17 -36 -44 -63q-32 -32 -71.5 -49t-84.5 -17q-44 0 -84 17t-72 49q-31 32 -47.5 72t-16.5 85v7v4v207h21z" />
    <glyph glyph-name="uacute" unicode="&#xfa;" horiz-adv-x="521" 
d="M420 442v-207v-4v-7q0 -83 -59 -142q-29 -29 -65 -44.5t-76 -15.5q-39 0 -75.5 15.5t-65.5 44.5q-28 29 -43 65t-15 77v7v4v207h-21v-207v-4v-7q0 -45 16.5 -85t47.5 -72q32 -32 72 -49t84 -17q45 0 84.5 17t71.5 49t48.5 72t16.5 85v7v4v207h-21zM212 572l-19 7l45 121
l19 -7z" />
    <glyph glyph-name="ucircumflex" unicode="&#xfb;" horiz-adv-x="521" 
d="M420 442v-207v-4v-7q0 -83 -59 -142q-29 -29 -65 -44.5t-76 -15.5q-39 0 -75.5 15.5t-65.5 44.5q-28 29 -43 65t-15 77v7v4v207h-21v-207v-4v-7q0 -45 16.5 -85t47.5 -72q32 -32 72 -49t84 -17q45 0 84.5 17t71.5 49t48.5 72t16.5 85v7v4v207h-21zM357 510l-131 150
l-131 -150l-16 14l147 167l147 -167z" />
    <glyph glyph-name="udieresis" unicode="&#xfc;" horiz-adv-x="521" 
d="M420 442v-207v-4v-7q0 -83 -59 -142q-29 -29 -65 -44.5t-76 -15.5q-39 0 -75.5 15.5t-65.5 44.5q-28 29 -43 65t-15 77v7v4v207h-21v-207v-4v-7q0 -45 16.5 -85t47.5 -72q32 -32 72 -49t84 -17q45 0 84.5 17t71.5 49t48.5 72t16.5 85v7v4v207h-21zM197 629h-21v41h21v-41
zM279 629h-21v41h21v-41z" />
    <glyph glyph-name="ugrave" unicode="&#xf9;" horiz-adv-x="521" 
d="M420 442v-207v-4v-7q0 -83 -59 -142q-29 -29 -65 -44.5t-76 -15.5q-39 0 -75.5 15.5t-65.5 44.5q-28 29 -43 65t-15 77v7v4v207h-21v-207v-4v-7q0 -45 16.5 -85t47.5 -72q32 -32 72 -49t84 -17q45 0 84.5 17t71.5 49t48.5 72t16.5 85v7v4v207h-21zM191 693l19 7l45 -121
l-19 -7z" />
    <glyph glyph-name="underscore" unicode="_" horiz-adv-x="544" 
d="M464 1h-464v25h464v-25v0z" />
    <glyph glyph-name="v" unicode="v" horiz-adv-x="522" 
d="M221 1l-221 447l19 9l202 -409l202 409l19 -9l-221 -447v0z" />
    <glyph glyph-name="w" unicode="w" horiz-adv-x="638" 
d="M558 442v-4v-282v-8v-2v-145h-21v70q-19 -32 -51.5 -51t-72.5 -19q-45 0 -81 25.5t-53 65.5q-16 -40 -52 -65.5t-82 -25.5q-30 0 -56.5 11.5t-46 31t-31 46t-11.5 56.5v2v8v282h21v-282v-8v-2q0 -26 9.5 -48.5t26.5 -39.5t39.5 -26.5t48.5 -9.5q25 0 48 9.5t39.5 26.5
t26.5 39.5t10 48.5v2v8v282h21v-282v-8v-2q0 -26 9.5 -48.5t26.5 -39.5t39 -26.5t48 -9.5t48.5 9.5t39.5 26.5t26.5 39.5t9.5 48.5v2v8v282v4h21z" />
    <glyph glyph-name="x" unicode="x" horiz-adv-x="530" 
d="M450 437l-210 -211l210 -210l-14 -15l-211 210l-210 -210l-15 15l210 210l-210 211l15 14l210 -210l211 210l14 -14v0z" />
    <glyph glyph-name="y" unicode="y" horiz-adv-x="521" 
d="M441 442v-210v-11v-219v-11q0 -45 -16.5 -84.5t-48.5 -70.5q-62 -63 -150 -65h-6q-44 0 -83.5 16.5t-71.5 47.5v1l-8 7q-57 63 -57 148v11h21v-11q0 -40 15 -76t43 -65q29 -28 65 -43t76 -15t76 14.5t65 43.5h1q28 29 43 65t15 76v11v126q-8 -17 -19 -32.5t-25 -29.5
q-31 -32 -71 -48.5t-85 -16.5t-84.5 16.5t-70.5 48.5q-32 31 -48.5 70.5t-16.5 84.5v10v1v210h21v-210v-1v-10q0 -41 15.5 -77.5t42.5 -63.5t63.5 -42.5t77.5 -15.5t77.5 15.5t63.5 42.5t43 63.5t16 77.5v11v210h21z" />
    <glyph glyph-name="yacute" unicode="&#xfd;" horiz-adv-x="521" 
d="M420 442v-210v-11q0 -41 -16 -77.5t-43 -63.5t-63.5 -42.5t-77.5 -15.5t-77.5 15.5t-63.5 42.5t-42.5 63.5t-15.5 77.5v10v1v210h-21v-210v-1v-10q0 -45 16.5 -84.5t48.5 -70.5q31 -32 70.5 -48.5t84.5 -16.5t85 16.5t71 48.5q14 14 25 29.5t19 32.5v-126v-11
q0 -40 -15 -76t-43 -65h-1q-29 -29 -65 -43.5t-76 -14.5t-76 15t-65 43q-28 29 -43 65t-15 76v11h-21v-11q0 -85 57 -148l8 -7v-1q32 -31 71.5 -47.5t83.5 -16.5h6q88 2 150 65q32 31 48.5 70.5t16.5 84.5v11v219v11v210h-21zM187 572l-19 7l45 121l19 -7z" />
    <glyph glyph-name="ydieresis" unicode="&#xff;" horiz-adv-x="521" 
d="M420 442v-210v-11q0 -41 -16 -77.5t-43 -63.5t-63.5 -42.5t-77.5 -15.5t-77.5 15.5t-63.5 42.5t-42.5 63.5t-15.5 77.5v10v1v210h-21v-210v-1v-10q0 -45 16.5 -84.5t48.5 -70.5q31 -32 70.5 -48.5t84.5 -16.5t85 16.5t71 48.5q14 14 25 29.5t19 32.5v-126v-11
q0 -40 -15 -76t-43 -65h-1q-29 -29 -65 -43.5t-76 -14.5t-76 15t-65 43q-28 29 -43 65t-15 76v11h-21v-11q0 -85 57 -148l8 -7v-1q32 -31 71.5 -47.5t83.5 -16.5h6q88 2 150 65q32 31 48.5 70.5t16.5 84.5v11v219v11v210h-21zM179 629h-21v41h21v-41zM261 629h-21v41h21v-41
z" />
    <glyph glyph-name="yen" unicode="&#xa5;" horiz-adv-x="525" 
d="M233 430v-25h152v-21h-152v-109h152v-21h-152v-253h-21v253h-147v21h147v109h-147v21h147v25l-212 232l15 14l208 -226l207 226l15 -14l-212 -232v0z" />
    <glyph glyph-name="z" unicode="z" horiz-adv-x="531" 
d="M451 1h-451l233 242l170 178h-387v21h435l-203 -213l-199 -207h402v-21v0z" />
    <glyph glyph-name="zcaron" unicode="&#x17e;" horiz-adv-x="531" 
d="M435 1h-435l233 242l170 178h-387v21h435l-203 -213l-199 -207h386v-21v0zM384 677l-147 -167l-147 167l16 14l131 -150l131 150z" />
    <glyph glyph-name="zero" unicode="0" horiz-adv-x="751" 
d="M335 1q-67 0 -128 25t-109 73t-73 109t-25 128q0 68 25 128.5t73 108.5t109 73.5t128 25.5q68 0 129 -25.5t109 -73.5t73 -108.5t25 -128.5q0 -67 -25 -128t-73 -109t-109 -73t-129 -25zM335 651q-65 0 -122 -25t-100 -67.5t-67.5 -100t-24.5 -122.5t24.5 -122t67.5 -100
t100 -67.5t122 -24.5t122.5 24.5t100 67.5t67.5 100t25 122t-25 122.5t-67.5 100t-100 67.5t-122.5 25z" />
    <glyph glyph-name="f" unicode="f" horiz-adv-x="464" 
d="M21 23h360v-21h-360v-230h-21v440v10v1q0 44 16.5 84t48.5 71q31 32 70.5 48.5t84.5 16.5t85 -16.5t71 -48.5l8 -7l-15 -15l-7 7q-29 29 -65 44t-77 15q-82 0 -141 -59q-28 -28 -43 -64t-15 -77v-10v-189z" />
    <glyph glyph-name="Agrave" unicode="&#xc0;" horiz-adv-x="527" 
d="M224 672v0v0l-224 -671h22l141 423h60h2h59l141 -423h22l-223 671v0zM225 445h-2h-53l53 158v0l1 3l1 -3v0l52 -158h-52v0zM151 893l19 7l45 -121l-19 -7z" />
    <glyph glyph-name="Aacute" unicode="&#xc1;" horiz-adv-x="527" 
d="M224 672v0v0l-224 -671h22l141 423h60h2h59l141 -423h22l-223 671v0zM225 445h-2h-53l53 158v0l1 3l1 -3v0l52 -158h-52v0zM170 772l-19 7l45 121l19 -7z" />
    <glyph glyph-name="Acircumflex" unicode="&#xc2;" horiz-adv-x="527" 
d="M224 672v0v0l-224 -671h22l141 423h60h2h59l141 -423h22l-223 671v0zM225 445h-2h-53l53 158v0l1 3l1 -3v0l52 -158h-52v0zM357 710l-131 150l-131 -150l-16 14l147 167l147 -167z" />
    <glyph glyph-name="Atilde" unicode="&#xc3;" horiz-adv-x="704" 
d="M575 1h-22l-141 423h-59h-2h-60l-141 -423h-22l224 671zM405 445l-52 158l-1 3l-1 -3l-53 -158h53h2h52zM624 861l-15 -15l-7 8q-29 28 -65 43t-77 15q-40 0 -76 -15t-65 -43l-7 -8q-63 -57 -149 -57q-44 0 -84 16.5t-71 48.5l-8 7l15 15l7 -8q29 -28 65 -43t76 -15
q41 0 77 15t65 43l7 8v-1q63 58 148 58q45 0 85 -16.5t71 -48.5z" />
    <glyph glyph-name="Adieresis" unicode="&#xc4;" horiz-adv-x="527" 
d="M224 672l223 -671h-22l-141 423h-59h-2h-60l-141 -423h-22l224 671v0v0zM225 445h52l-52 158l-1 3l-1 -3l-53 -158h53h2zM153 829h-21v41h21v-41zM235 829h-21v41h21v-41z" />
    <glyph glyph-name="Aring" unicode="&#xc5;" horiz-adv-x="527" 
d="M224 672l-224 -671h22l141 423h60h2h59l141 -423h22zM225 445h-2h-53l53 158l1 3l1 -3l52 -158h-52zM224 761q-26 0 -49.5 10t-40.5 27.5t-27 40.5t-10 50q0 26 10 49t27 40.5t40.5 27.5t49.5 10q27 0 50 -10t40.5 -27.5t27.5 -40.5t10 -49q0 -27 -10 -50t-27.5 -40.5
t-40.5 -27.5t-50 -10zM224 995q-22 0 -41.5 -8.5t-33.5 -23t-22.5 -33.5t-8.5 -41t8.5 -41.5t22.5 -34t33.5 -23t41.5 -8.5t41.5 8.5t34 23t23 34t8.5 41.5t-8.5 41t-23 33.5t-34 23t-41.5 8.5z" />
    <glyph glyph-name="A" unicode="A" horiz-adv-x="527" 
d="M224 672l223 -671h-22l-141 423h-59h-2h-60l-141 -423h-22l224 671v0v0zM225 445h52l-52 158l-1 3l-1 -3l-53 -158h53h2z" />
    </font>
</defs>
</svg>
